<svg width="30" height="30" viewBox="0 0 30 30" fill="none" xmlns="http://www.w3.org/2000/svg">
<g clip-path="url(#clip0_1668_1143)">
<mask id="mask0_1668_1143" style="mask-type:luminance" maskUnits="userSpaceOnUse" x="0" y="0" width="30" height="30">
<path d="M18.6914 0.9375H11.3086C5.5808 0.9375 0.9375 5.58079 0.9375 11.3086V18.6914C0.9375 24.4192 5.5808 29.0625 11.3086 29.0625H18.6914C24.4192 29.0625 29.0625 24.4192 29.0625 18.6914V11.3086C29.0625 5.58079 24.4192 0.9375 18.6914 0.9375Z" fill="white"/>
</mask>
<g mask="url(#mask0_1668_1143)">
<path d="M0.9375 29.0625L0.9375 19.6875H29.0625V29.0625H0.9375Z" fill="#27AE60"/>
<path d="M0.9375 19.6875L0.9375 10.3125L29.0625 10.3125V19.6875H0.9375Z" fill="white"/>
<path d="M0.9375 10.3125L0.9375 0.937502L29.0625 0.937502V10.3125L0.9375 10.3125Z" fill="#F39C12"/>
<path d="M14.9946 19.0986C17.2591 19.0986 19.0947 17.263 19.0947 14.9985C19.0947 12.7341 17.2591 10.8984 14.9946 10.8984C12.7302 10.8984 10.8945 12.7341 10.8945 14.9985C10.8945 17.263 12.7302 19.0986 14.9946 19.0986Z" fill="#000088"/>
<path d="M14.9938 18.5892C16.9752 18.5892 18.5814 16.983 18.5814 15.0016C18.5814 13.0203 16.9752 11.4141 14.9938 11.4141C13.0125 11.4141 11.4062 13.0203 11.4062 15.0016C11.4062 16.983 13.0125 18.5892 14.9938 18.5892Z" fill="white"/>
<path d="M14.991 15.7163C15.3872 15.7163 15.7085 15.395 15.7085 14.9988C15.7085 14.6025 15.3872 14.2812 14.991 14.2812C14.5947 14.2812 14.2734 14.6025 14.2734 14.9988C14.2734 15.395 14.5947 15.7163 14.991 15.7163Z" fill="#000088"/>
<path d="M18.5293 15.6448C18.6275 15.6578 18.7176 15.5887 18.7306 15.4905C18.7436 15.3923 18.6745 15.3021 18.5763 15.2891C18.4781 15.2761 18.3879 15.3452 18.3749 15.4435C18.3619 15.5417 18.431 15.6318 18.5293 15.6448Z" fill="#000088"/>
<path d="M14.9941 18.5838L15.1171 16.4313L14.9941 15.4062L14.8711 16.4313L14.9941 18.5838Z" fill="#000088"/>
<path d="M18.2391 16.5329C18.3306 16.5709 18.4356 16.5275 18.4735 16.436C18.5115 16.3445 18.4681 16.2395 18.3766 16.2016C18.2851 16.1636 18.1802 16.207 18.1422 16.2985C18.1042 16.39 18.1476 16.495 18.2391 16.5329Z" fill="#000088"/>
<path d="M14.0654 18.4608L14.7417 16.4133L14.8884 15.3912L14.504 16.3495L14.0654 18.4608Z" fill="#000088"/>
<path d="M17.7323 17.3235C17.8109 17.3838 17.9235 17.369 17.9838 17.2905C18.0442 17.2119 18.0294 17.0993 17.9508 17.039C17.8723 16.9786 17.7597 16.9934 17.6993 17.0719C17.639 17.1505 17.6537 17.2631 17.7323 17.3235Z" fill="#000088"/>
<path d="M13.2013 18.1102L14.3841 16.3075L14.7901 15.3584L14.1711 16.1845L13.2013 18.1102Z" fill="#000088"/>
<path d="M17.0314 17.9543C17.0916 18.033 17.2042 18.0479 17.2828 17.9876C17.3615 17.9274 17.3764 17.8148 17.3161 17.7361C17.2559 17.6575 17.1433 17.6426 17.0646 17.7028C16.986 17.7631 16.9711 17.8757 17.0314 17.9543Z" fill="#000088"/>
<path d="M12.4528 17.5368L14.0622 16.1019L14.7003 15.2901L13.8883 15.9279L12.4528 17.5368Z" fill="#000088"/>
<path d="M16.2019 18.381C16.2398 18.4725 16.3447 18.5161 16.4362 18.4782C16.5277 18.4403 16.5713 18.3354 16.5334 18.2439C16.4955 18.1523 16.3906 18.1088 16.2991 18.1467C16.2075 18.1845 16.164 18.2895 16.2019 18.381Z" fill="#000088"/>
<path d="M11.8878 16.7891L13.8135 15.8193L14.6396 15.2003L13.6905 15.6063L11.8878 16.7891Z" fill="#000088"/>
<path d="M15.2848 18.576C15.2976 18.6742 15.3877 18.7434 15.4859 18.7306C15.5841 18.7177 15.6533 18.6276 15.6405 18.5294C15.6276 18.4312 15.5376 18.362 15.4393 18.3749C15.3411 18.3877 15.2719 18.4778 15.2848 18.576Z" fill="#000088"/>
<path d="M11.5285 15.9253L13.6398 15.4872L14.5982 15.1032L13.5762 15.2496L11.5285 15.9253Z" fill="#000088"/>
<path d="M14.3474 18.5292C14.3344 18.6275 14.4035 18.7176 14.5017 18.7306C14.5999 18.7436 14.6901 18.6745 14.7031 18.5763C14.716 18.4781 14.6469 18.3879 14.5487 18.3749C14.4505 18.3619 14.3604 18.431 14.3474 18.5292Z" fill="#000088"/>
<path d="M11.4046 14.998L13.5571 15.121L14.582 14.998L13.5571 14.875L11.4046 14.998Z" fill="#000088"/>
<path d="M13.4554 18.2469C13.4174 18.3384 13.4608 18.4434 13.5523 18.4813C13.6438 18.5193 13.7487 18.4759 13.7867 18.3844C13.8247 18.2929 13.7813 18.188 13.6898 18.15C13.5983 18.112 13.4933 18.1554 13.4554 18.2469Z" fill="#000088"/>
<path d="M11.5276 14.0693L13.5751 14.7456L14.597 14.8923L13.6388 14.508L11.5276 14.0693Z" fill="#000088"/>
<path d="M12.6648 17.7362C12.6044 17.8148 12.6192 17.9274 12.6978 17.9878C12.7763 18.0481 12.889 18.0333 12.9493 17.9548C13.0097 17.8762 12.9949 17.7636 12.9163 17.7032C12.8377 17.6429 12.7251 17.6576 12.6648 17.7362Z" fill="#000088"/>
<path d="M11.8855 13.2052L13.6884 14.3881L14.6377 14.794L13.8114 14.175L11.8855 13.2052Z" fill="#000088"/>
<path d="M12.0339 17.0431C11.9553 17.1033 11.9404 17.216 12.0006 17.2946C12.0609 17.3732 12.1735 17.3881 12.2521 17.3279C12.3308 17.2676 12.3457 17.155 12.2854 17.0764C12.2251 16.9977 12.1125 16.9828 12.0339 17.0431Z" fill="#000088"/>
<path d="M12.451 12.4644L13.8863 14.0739L14.6982 14.712L14.0603 13.9L12.451 12.4644Z" fill="#000088"/>
<path d="M11.6112 16.2058C11.5196 16.2436 11.4761 16.3486 11.514 16.4401C11.5518 16.5317 11.6567 16.5752 11.7483 16.5373C11.8398 16.4994 11.8834 16.3945 11.8455 16.303C11.8076 16.2114 11.7027 16.1679 11.6112 16.2058Z" fill="#000088"/>
<path d="M13.199 11.8876L14.1689 13.8134L14.788 14.6396L14.3819 13.6904L13.199 11.8876Z" fill="#000088"/>
<path d="M11.4122 15.2926C11.314 15.3054 11.2448 15.3955 11.2577 15.4937C11.2705 15.592 11.3606 15.6612 11.4588 15.6483C11.5571 15.6354 11.6263 15.5454 11.6134 15.4471C11.6005 15.3489 11.5105 15.2797 11.4122 15.2926Z" fill="#000088"/>
<path d="M14.0668 11.5322L14.5049 13.6437L14.889 14.6021L14.7426 13.58L14.0668 11.5322Z" fill="#000088"/>
<path d="M11.4551 14.3552C11.3569 14.3422 11.2667 14.4113 11.2537 14.5095C11.2408 14.6078 11.3099 14.6979 11.4081 14.7109C11.5063 14.7239 11.5965 14.6548 11.6094 14.5565C11.6224 14.4583 11.5533 14.3682 11.4551 14.3552Z" fill="#000088"/>
<path d="M14.9901 11.416L14.8672 13.5687L14.9903 14.5938L15.1132 13.5687L14.9901 11.416Z" fill="#000088"/>
<path d="M11.7452 13.467C11.6537 13.4291 11.5488 13.4725 11.5108 13.564C11.4728 13.6555 11.5162 13.7605 11.6077 13.7984C11.6993 13.8364 11.8042 13.793 11.8422 13.7015C11.8802 13.61 11.8368 13.505 11.7452 13.467Z" fill="#000088"/>
<path d="M15.9189 11.539L15.2426 13.5867L15.096 14.6088L15.4803 13.6504L15.9189 11.539Z" fill="#000088"/>
<path d="M12.256 12.6765C12.1774 12.6162 12.0648 12.6309 12.0044 12.7095C11.9441 12.7881 11.9588 12.9007 12.0374 12.961C12.116 13.0214 12.2286 13.0066 12.289 12.928C12.3493 12.8495 12.3345 12.7369 12.256 12.6765Z" fill="#000088"/>
<path d="M16.7869 11.8974L15.6041 13.7002L15.1982 14.6494L15.8172 13.8232L16.7869 11.8974Z" fill="#000088"/>
<path d="M12.953 12.0456C12.8927 11.967 12.7801 11.9521 12.7015 12.0124C12.6229 12.0726 12.608 12.1852 12.6682 12.2639C12.7285 12.3425 12.8411 12.3574 12.9197 12.2971C12.9984 12.2369 13.0133 12.1243 12.953 12.0456Z" fill="#000088"/>
<path d="M17.5316 12.4628L15.9221 13.898L15.2841 14.7099L16.0961 14.072L17.5316 12.4628Z" fill="#000088"/>
<path d="M13.7825 11.6112C13.7447 11.5196 13.6398 11.4761 13.5482 11.5139C13.4566 11.5518 13.4131 11.6567 13.451 11.7483C13.4888 11.8398 13.5938 11.8834 13.6853 11.8455C13.7769 11.8076 13.8204 11.7027 13.7825 11.6112Z" fill="#000088"/>
<path d="M18.097 13.2031L16.1711 14.1729L15.3447 14.7919L16.2941 14.3859L18.097 13.2031Z" fill="#000088"/>
<path d="M14.6997 11.4162C14.6868 11.3179 14.5967 11.2487 14.4985 11.2616C14.4003 11.2744 14.331 11.3645 14.3439 11.4627C14.3568 11.561 14.4468 11.6302 14.5451 11.6173C14.6433 11.6045 14.7125 11.5144 14.6997 11.4162Z" fill="#000088"/>
<path d="M18.4563 14.067L16.3447 14.505L15.3862 14.889L16.4083 14.7427L18.4563 14.067Z" fill="#000088"/>
<path d="M15.637 11.4629C15.65 11.3647 15.5809 11.2746 15.4827 11.2616C15.3845 11.2486 15.2943 11.3177 15.2813 11.4159C15.2683 11.5141 15.3374 11.6043 15.4357 11.6173C15.5339 11.6303 15.624 11.5612 15.637 11.4629Z" fill="#000088"/>
<path d="M18.5802 14.9944L16.4275 14.8712L15.4024 14.9942L16.4274 15.1173L18.5802 14.9944Z" fill="#000088"/>
<path d="M16.5291 11.7453C16.567 11.6538 16.5236 11.5488 16.4321 11.5108C16.3406 11.4729 16.2357 11.5162 16.1977 11.6078C16.1597 11.6993 16.2031 11.8042 16.2946 11.8422C16.3861 11.8802 16.4911 11.8368 16.5291 11.7453Z" fill="#000088"/>
<path d="M18.457 15.9232L16.4094 15.2467L15.3873 15.0999L16.3457 15.4843L18.457 15.9232Z" fill="#000088"/>
<path d="M17.3196 12.256C17.3799 12.1774 17.3652 12.0648 17.2866 12.0045C17.208 11.9441 17.0954 11.9589 17.0351 12.0374C16.9747 12.116 16.9895 12.2286 17.068 12.289C17.1466 12.3493 17.2592 12.3346 17.3196 12.256Z" fill="#000088"/>
<path d="M18.1026 16.7872L16.2998 15.6042L15.3506 15.1982L16.1768 15.8173L18.1026 16.7872Z" fill="#000088"/>
<path d="M17.9465 12.9569C18.0252 12.8967 18.0401 12.7841 17.9798 12.7054C17.9196 12.6268 17.807 12.6119 17.7283 12.6721C17.6497 12.7324 17.6348 12.845 17.695 12.9237C17.7553 13.0023 17.8679 13.0172 17.9465 12.9569Z" fill="#000088"/>
<path d="M17.5292 17.5358L16.0941 15.9261L15.2823 15.288L15.9201 16.1001L17.5292 17.5358Z" fill="#000088"/>
<path d="M18.3732 13.7864C18.4647 13.7486 18.5083 13.6437 18.4704 13.5521C18.4326 13.4606 18.3276 13.417 18.2361 13.4549C18.1445 13.4927 18.101 13.5977 18.1389 13.6892C18.1767 13.7808 18.2816 13.8243 18.3732 13.7864Z" fill="#000088"/>
<path d="M16.7851 18.1046L15.8154 16.1788L15.1964 15.3526L15.6023 16.3018L16.7851 18.1046Z" fill="#000088"/>
<path d="M18.5682 14.6996C18.6664 14.6868 18.7356 14.5967 18.7228 14.4985C18.7099 14.4003 18.6199 14.331 18.5216 14.3439C18.4234 14.3568 18.3542 14.4468 18.367 14.5451C18.3799 14.6433 18.47 14.7125 18.5682 14.6996Z" fill="#000088"/>
<path d="M15.9173 18.4522L15.4794 16.3408L15.0954 15.3822L15.2417 16.4044L15.9173 18.4522Z" fill="#000088"/>
</g>
</g>
<defs>
<clipPath id="clip0_1668_1143">
<rect width="30" height="30" fill="white"/>
</clipPath>
</defs>
</svg>
