<svg width="82" height="82" viewBox="0 0 82 82" fill="none" xmlns="http://www.w3.org/2000/svg">
<circle cx="41" cy="41" r="41" fill="white"/>
<path d="M48.0707 37.6994L52.3133 41.942C53.0018 42.6213 53.5491 43.4301 53.9237 44.3217C54.2983 45.2134 54.4928 46.1704 54.496 47.1375C54.4993 48.1047 54.3112 49.0629 53.9425 49.9571C53.5739 50.8513 53.0321 51.6637 52.3482 52.3476C51.6643 53.0314 50.8519 53.5733 49.9577 53.9419C49.0636 54.3105 48.1053 54.4986 47.1382 54.4954C46.171 54.4922 45.214 54.2976 44.3224 53.923C43.4307 53.5484 42.6219 53.0011 41.9426 52.3127L40.5293 50.8994C40.3382 50.715 40.1857 50.4943 40.0808 50.2504C39.9759 50.0064 39.9206 49.744 39.9182 49.4785C39.9157 49.2129 39.9662 48.9495 40.0666 48.7037C40.1671 48.4578 40.3155 48.2345 40.5032 48.0466C40.6909 47.8587 40.9141 47.7101 41.1599 47.6094C41.4056 47.5088 41.6689 47.458 41.9345 47.4602C42.2001 47.4624 42.4625 47.5174 42.7066 47.6221C42.9506 47.7268 43.1714 47.8791 43.356 48.07L44.772 49.4847C45.3981 50.1052 46.2446 50.4524 47.1261 50.4504C48.0076 50.4483 48.8524 50.0972 49.4757 49.4737C50.0989 48.8503 50.4499 48.0054 50.4517 47.1239C50.4535 46.2423 50.106 45.396 49.4853 44.77L45.2427 40.5274C44.7841 40.0686 44.2016 39.7536 43.5667 39.621C42.9317 39.4883 42.2719 39.5438 41.668 39.7807C41.4529 39.866 41.2511 39.9531 41.0627 40.042L40.444 40.3314C39.6173 40.7047 38.9813 40.8647 38.172 40.0567C37.0093 38.894 37.3106 37.8207 38.728 36.8434C40.1399 35.8718 41.8474 35.4255 43.5541 35.5819C45.2608 35.7383 46.8588 36.4875 48.0707 37.6994ZM40.0573 29.686L41.4706 31.0994C41.8351 31.4764 42.037 31.9815 42.0327 32.5059C42.0284 33.0303 41.8183 33.532 41.4476 33.903C41.077 34.274 40.5754 34.4846 40.0511 34.4894C39.5267 34.4942 39.0214 34.2928 38.644 33.9287L37.2293 32.5154C36.9219 32.1969 36.5542 31.9429 36.1475 31.7681C35.7409 31.5932 35.3035 31.5012 34.8609 31.4972C34.4183 31.4932 33.9794 31.5774 33.5697 31.7449C33.16 31.9124 32.7877 32.1598 32.4747 32.4727C32.1616 32.7856 31.914 33.1577 31.7463 33.5673C31.5786 33.9769 31.4941 34.4158 31.4978 34.8584C31.5015 35.301 31.5934 35.7384 31.768 36.1452C31.9425 36.5519 32.1964 36.9198 32.5147 37.2274L36.7573 41.47C37.2159 41.9288 37.7984 42.2438 38.4333 42.3764C39.0683 42.5091 39.7281 42.4535 40.332 42.2167C40.5471 42.1314 40.7489 42.0443 40.9373 41.9554L41.556 41.666C42.3827 41.2927 43.02 41.1327 43.828 41.9407C44.9907 43.1034 44.6893 44.1767 43.272 45.154C41.8601 46.1256 40.1525 46.5719 38.4459 46.4155C36.7392 46.2591 35.1411 45.5099 33.9293 44.298L29.6867 40.0554C28.9982 39.3761 28.4509 38.5673 28.0763 37.6756C27.7017 36.784 27.5072 35.827 27.5039 34.8599C27.5007 33.8927 27.6888 32.9345 28.0574 32.0403C28.4261 31.1461 28.9679 30.3337 29.6518 29.6498C30.3357 28.966 31.1481 28.4241 32.0422 28.0555C32.9364 27.6869 33.8947 27.4988 34.8618 27.502C35.829 27.5052 36.7859 27.6998 37.6776 28.0744C38.5693 28.449 39.378 28.9976 40.0573 29.686Z" fill="#2B80FF"/>
</svg>
