<svg width="25" height="24" viewBox="0 0 25 24" fill="none" xmlns="http://www.w3.org/2000/svg">
<path d="M21.4098 11.1199V6.72985C21.4098 5.90985 20.7898 4.97985 20.0198 4.66985L14.4498 2.38985C13.1964 1.87981 11.7933 1.87981 10.5398 2.38985L4.96984 4.66985C4.20984 4.97985 3.58984 5.90985 3.58984 6.72985V11.1199C3.58984 16.0099 7.13984 20.5899 11.9898 21.9299C12.3198 22.0199 12.6798 22.0199 13.0098 21.9299C17.8598 20.5899 21.4098 16.0099 21.4098 11.1199ZM13.2498 12.8699V15.4999C13.2498 15.9099 12.9098 16.2499 12.4998 16.2499C12.0898 16.2499 11.7498 15.9099 11.7498 15.4999V12.8699C11.2445 12.7114 10.8027 12.3965 10.4881 11.9704C10.1735 11.5444 10.0025 11.0294 9.99984 10.4999C9.99984 9.83681 10.2632 9.20093 10.7321 8.73209C11.2009 8.26324 11.8368 7.99985 12.4998 7.99985C13.1629 7.99985 13.7988 8.26324 14.2676 8.73209C14.7365 9.20093 14.9998 9.83681 14.9998 10.4999C14.9998 11.6199 14.2598 12.5499 13.2498 12.8699Z" fill="#1065E3"/>
</svg>
