<svg width="82" height="82" viewBox="0 0 82 82" fill="none" xmlns="http://www.w3.org/2000/svg">
<circle cx="41" cy="41" r="41" fill="white"/>
<rect width="36.4444" height="36.4444" transform="translate(23 23)" fill="white"/>
<path d="M50.3639 41.723L48.5109 39.8701C48.2889 39.6741 48.1105 39.4336 47.9875 39.1642C47.8645 38.8948 47.7995 38.6025 47.7968 38.3064C47.7852 37.9605 47.8454 37.6159 47.9736 37.2945C48.1018 36.973 48.2952 36.6816 48.5416 36.4386L50.3639 34.6164C51.9424 33.0367 52.5346 31.5186 52.0335 30.3193C51.5483 29.1349 50.045 28.4812 47.8276 28.4812H31.9594V27.176C31.9594 26.553 31.4424 26.0371 30.8205 26.0371C30.1976 26.0371 29.6816 26.553 29.6816 27.176V55.2678C29.6816 55.8908 30.1976 56.4067 30.8205 56.4067C31.4424 56.4067 31.9594 55.8908 31.9594 55.2678V47.8582H47.8276C50.0142 47.8582 51.4868 47.1897 51.9879 45.9904C52.489 44.7901 51.9128 43.2867 50.3639 41.723Z" fill="#BB2FD2"/>
</svg>
