<svg width="25" height="24" viewBox="0 0 25 24" fill="none" xmlns="http://www.w3.org/2000/svg">
<path d="M19.618 14.9399L19.938 15.5899C20.098 15.9099 20.508 16.2099 20.848 16.2699L21.278 16.3399C22.588 16.5599 22.888 17.5199 21.958 18.4599L21.558 18.8599C21.288 19.1299 21.148 19.6499 21.228 20.0299L21.278 20.2699C21.638 21.8499 20.798 22.4599 19.428 21.6299L19.138 21.4499C18.788 21.2399 18.208 21.2399 17.858 21.4499L17.568 21.6299C16.188 22.4599 15.358 21.8499 15.718 20.2699L15.768 20.0299C15.848 19.6599 15.708 19.1299 15.438 18.8599L15.038 18.4599C14.108 17.5099 14.408 16.5599 15.718 16.3399L16.148 16.2699C16.498 16.2099 16.898 15.9099 17.058 15.5899L17.378 14.9399C17.998 13.6899 18.998 13.6899 19.618 14.9399Z" fill="#1065E3"/>
<path d="M16.688 2H8.30805C4.66805 2 2.49805 4.17 2.49805 7.81V16.19C2.49805 19.83 4.66805 22 8.30805 22H13.588C13.938 22 14.188 21.64 14.148 21.29C14.108 20.91 14.128 20.46 14.248 19.94C14.268 19.87 14.248 19.79 14.188 19.73L13.968 19.51C13.118 18.65 12.808 17.61 13.108 16.66C13.418 15.72 14.278 15.06 15.468 14.86L15.768 14.81L16.038 14.27C16.588 13.15 17.488 12.5 18.498 12.5C19.508 12.5 20.408 13.15 20.958 14.27L21.108 14.58C21.178 14.73 21.318 14.83 21.478 14.86L21.748 14.92C22.098 15.01 22.498 14.73 22.498 14.36V7.81C22.498 4.17 20.328 2 16.688 2ZM16.758 8.96L14.448 11.94C14.158 12.31 13.748 12.55 13.278 12.6C12.818 12.66 12.348 12.53 11.988 12.24L10.158 10.82C10.1324 10.7975 10.1019 10.7813 10.0689 10.7726C10.036 10.7639 10.0014 10.763 9.96805 10.77C9.92805 10.77 9.85805 10.79 9.79805 10.87L7.41805 13.96C7.29427 14.1172 7.11339 14.219 6.91483 14.2434C6.71627 14.2677 6.51613 14.2126 6.35805 14.09C6.27991 14.0303 6.2143 13.9557 6.16498 13.8706C6.11565 13.7855 6.08357 13.6915 6.07057 13.594C6.05757 13.4965 6.0639 13.3974 6.08921 13.3023C6.11451 13.2073 6.15829 13.1181 6.21805 13.04L8.59805 9.95C8.88805 9.58 9.29805 9.34 9.76805 9.28C10.238 9.22 10.698 9.35 11.068 9.64L12.898 11.08C12.968 11.14 13.038 11.13 13.088 11.13C13.128 11.13 13.198 11.11 13.258 11.03L15.568 8.05C15.818 7.72 16.288 7.66 16.618 7.92C16.958 8.17 17.008 8.64 16.758 8.96Z" fill="#1065E3"/>
</svg>
