<svg width="25" height="24" viewBox="0 0 25 24" fill="none" xmlns="http://www.w3.org/2000/svg">
<path d="M24.0105 11.065L22.4412 9.31579C22.1412 8.98348 21.8989 8.36317 21.8989 7.9201V6.03702C21.8964 5.47086 21.6609 4.9286 21.2438 4.52835C20.8267 4.1281 20.2617 3.90228 19.672 3.9001H17.7105C17.2605 3.9001 16.6018 3.66748 16.2557 3.37948L14.4335 1.87394C13.6374 1.2204 12.3335 1.2204 11.5258 1.87394L9.7143 3.39056C9.36815 3.66748 8.71046 3.9001 8.26046 3.9001H6.26334C5.67343 3.90228 5.10832 4.12822 4.69119 4.52867C4.27405 4.92913 4.0387 5.47162 4.03642 6.03794V7.93117C4.03642 8.36317 3.79411 8.98348 3.50565 9.31579L1.94796 11.0761C1.27776 11.8404 1.27776 13.081 1.94796 13.8453L3.50565 15.6056C3.79411 15.9379 4.03642 16.5583 4.03642 16.9903V18.8835C4.0387 19.4498 4.27405 19.9923 4.69119 20.3927C5.10832 20.7932 5.67343 21.0191 6.26334 21.0213H8.25949C8.7095 21.0213 9.36719 21.253 9.71334 21.541L11.5364 23.0475C12.3326 23.701 13.6364 23.701 14.4441 23.0475L16.2672 21.541C16.6133 21.253 17.2595 21.0213 17.721 21.0213H19.6826C20.2727 21.0194 20.838 20.7936 21.2553 20.3931C21.6727 19.9926 21.9082 19.45 21.9105 18.8835V17.0004C21.9105 16.5693 22.1528 15.9379 22.4528 15.6056L24.022 13.8555C24.6912 13.0921 24.6912 11.8293 24.0105 11.065ZM18.3787 12.4616L17.0287 16.4032C16.8556 17.0576 16.1287 17.5884 15.3903 17.5884H13.2556C12.8864 17.5884 12.3672 17.4666 12.1364 17.245L10.4403 15.9712C10.4057 16.681 10.071 16.9801 9.2518 16.9801H8.69796C7.84411 16.9801 7.49796 16.6589 7.49796 15.8835V10.5878C7.49796 9.81241 7.84411 9.4921 8.69796 9.4921H9.26334C10.1172 9.4921 10.4633 9.81333 10.4633 10.5878V10.9866L12.7018 7.79733C12.9326 7.45394 13.521 7.21025 14.0172 7.39856C14.5595 7.57579 14.9056 8.15179 14.7903 8.66133L14.5133 10.3884C14.4993 10.4607 14.5023 10.535 14.5223 10.606C14.5423 10.6769 14.5787 10.7426 14.6287 10.7983C14.721 10.8979 14.8595 10.9644 15.0095 10.9644H17.2595C17.698 10.9644 18.0672 11.1306 18.2864 11.4296C18.4826 11.7176 18.5172 12.0832 18.3787 12.4598V12.4616Z" fill="#1065E3"/>
</svg>
