<svg width="82" height="82" viewBox="0 0 82 82" fill="none" xmlns="http://www.w3.org/2000/svg">
<circle cx="41" cy="41" r="41" fill="white"/>
<path fill-rule="evenodd" clip-rule="evenodd" d="M31.6667 33.334C30.6942 33.334 29.7616 33.7203 29.0739 34.4079C28.3863 35.0956 28 36.0282 28 37.0007V49.0007C28 49.9731 28.3863 50.9057 29.0739 51.5934C29.7616 52.281 30.6942 52.6673 31.6667 52.6673H50.3333C51.3058 52.6673 52.2384 52.281 52.9261 51.5934C53.6137 50.9057 54 49.9731 54 49.0007V37.0007C54 36.0282 53.6137 35.0956 52.9261 34.4079C52.2384 33.7203 51.3058 33.334 50.3333 33.334H31.6667ZM47 41.334C46.558 41.334 46.1341 41.5096 45.8215 41.8221C45.5089 42.1347 45.3333 42.5586 45.3333 43.0007C45.3333 43.4427 45.5089 43.8666 45.8215 44.1792C46.1341 44.4917 46.558 44.6673 47 44.6673C47.442 44.6673 47.866 44.4917 48.1785 44.1792C48.4911 43.8666 48.6667 43.4427 48.6667 43.0007C48.6667 42.5586 48.4911 42.1347 48.1785 41.8221C47.866 41.5096 47.442 41.334 47 41.334Z" fill="#34524A"/>
<path d="M46.98 29.0919C47.3748 28.9867 47.7884 28.9736 48.1891 29.0536C48.5897 29.1337 48.9666 29.3047 49.2907 29.5535C49.6147 29.8023 49.8773 30.1222 50.058 30.4886C50.2388 30.855 50.333 31.258 50.3333 31.6665H37L46.98 29.0919Z" fill="#34524A"/>
</svg>
