<svg width="25" height="24" viewBox="0 0 25 24" fill="none" xmlns="http://www.w3.org/2000/svg">
<path d="M20.0099 5.85L14.0699 2.42C13.0999 1.86 11.8999 1.86 10.9199 2.42L4.98993 5.85C4.5117 6.12727 4.11486 6.52552 3.83927 7.00472C3.56369 7.48392 3.41906 8.02721 3.41993 8.58V15.42C3.41993 16.54 4.01993 17.58 4.98993 18.15L10.9299 21.58C11.8999 22.14 13.0999 22.14 14.0799 21.58L20.0199 18.15C20.4982 17.8727 20.895 17.4745 21.1706 16.9953C21.4462 16.5161 21.5908 15.9728 21.5899 15.42V8.58C21.5856 8.02708 21.4377 7.48477 21.1607 7.0062C20.8837 6.52764 20.4872 6.12922 20.0099 5.85ZM12.4999 7.34C13.7899 7.34 14.8299 8.38 14.8299 9.67C14.8299 10.96 13.7899 12 12.4999 12C11.2099 12 10.1699 10.96 10.1699 9.67C10.1699 8.39 11.2099 7.34 12.4999 7.34ZM15.1799 16.66H9.81993C9.00993 16.66 8.53993 15.76 8.98993 15.09C9.66993 14.08 10.9899 13.4 12.4999 13.4C14.0099 13.4 15.3299 14.08 16.0099 15.09C16.4599 15.75 15.9799 16.66 15.1799 16.66Z" fill="#1065E3"/>
</svg>
