<svg width="26" height="24" viewBox="0 0 26 24" fill="none" xmlns="http://www.w3.org/2000/svg">
<path d="M19.7988 9.91016C18.6688 9.91016 17.6588 10.4602 17.0288 11.3002C16.7066 10.8694 16.2886 10.5196 15.8078 10.2783C15.3271 10.0371 14.7967 9.91101 14.2588 9.91016C12.3488 9.91016 10.7988 11.4702 10.7988 13.3902C10.7988 14.1302 10.9188 14.8202 11.1188 15.4502C12.0988 18.5602 15.1388 20.4302 16.6388 20.9402C16.8488 21.0102 17.1988 21.0102 17.4088 20.9402C18.9088 20.4302 21.9488 18.5702 22.9288 15.4502C23.1388 14.8102 23.2488 14.1302 23.2488 13.3902C23.2519 12.9348 23.1649 12.4834 22.993 12.0618C22.821 11.6401 22.5675 11.2566 22.2469 10.9333C21.9264 10.6099 21.5451 10.3531 21.1249 10.1775C20.7048 10.0019 20.2542 9.91107 19.7988 9.91016Z" fill="#1065E3"/>
<path d="M21.748 8.3401C21.748 8.5701 21.518 8.7201 21.298 8.6601C20.6252 8.49133 19.9239 8.47008 19.2421 8.59781C18.5603 8.72554 17.9141 8.99923 17.348 9.4001C17.128 9.5601 16.828 9.5601 16.618 9.4001C15.8177 8.81324 14.8505 8.49787 13.858 8.5001C11.278 8.5001 9.17805 10.6101 9.17805 13.2101C9.17805 16.0301 10.528 18.1401 11.888 19.5501C11.958 19.6201 11.898 19.7401 11.808 19.7001C9.07805 18.7701 2.99805 14.9101 2.99805 8.3401C2.99805 5.4401 5.32805 3.1001 8.20805 3.1001C9.91805 3.1001 11.428 3.9201 12.378 5.1901C12.8633 4.54212 13.4928 4.01595 14.2165 3.65321C14.9403 3.29047 15.7385 3.10111 16.548 3.1001C19.418 3.1001 21.748 5.4401 21.748 8.3401Z" fill="#1065E3"/>
</svg>
