<svg width="25" height="24" viewBox="0 0 25 24" fill="none" xmlns="http://www.w3.org/2000/svg">
<path d="M15.4303 2.5V8.4C15.4303 8.84 14.9103 9.06 14.5903 8.77L12.8403 7.16C12.7483 7.07337 12.6267 7.02513 12.5003 7.02513C12.3739 7.02513 12.2523 7.07337 12.1603 7.16L10.4103 8.76C10.0903 9.06 9.57031 8.83 9.57031 8.4V2.5C9.57031 2.22 9.79031 2 10.0703 2H14.9303C15.2103 2 15.4303 2.22 15.4303 2.5Z" fill="#1065E3"/>
<path d="M17.48 2.05989C17.19 2.01989 16.93 2.26989 16.93 2.55989V8.57989C16.93 9.33989 16.48 10.0299 15.78 10.3399C15.08 10.6399 14.27 10.5099 13.71 9.98989L12.84 9.18989C12.748 9.10326 12.6264 9.05502 12.5 9.05502C12.3736 9.05502 12.252 9.10326 12.16 9.18989L11.29 9.98989C10.93 10.3299 10.46 10.4999 9.99 10.4999C9.72498 10.5008 9.4627 10.4463 9.22 10.3399C8.52 10.0299 8.07 9.33989 8.07 8.57989V2.55989C8.07 2.26989 7.81 2.01989 7.52 2.05989C4.72 2.40989 3.5 4.29989 3.5 6.99989V16.9999C3.5 19.9999 5 21.9999 8.5 21.9999H16.5C20 21.9999 21.5 19.9999 21.5 16.9999V6.99989C21.5 4.29989 20.28 2.40989 17.48 2.05989ZM18 18.7499H9.5C9.09 18.7499 8.75 18.4099 8.75 17.9999C8.75 17.5899 9.09 17.2499 9.5 17.2499H18C18.41 17.2499 18.75 17.5899 18.75 17.9999C18.75 18.4099 18.41 18.7499 18 18.7499ZM18 14.7499H13.75C13.34 14.7499 13 14.4099 13 13.9999C13 13.5899 13.34 13.2499 13.75 13.2499H18C18.41 13.2499 18.75 13.5899 18.75 13.9999C18.75 14.4099 18.41 14.7499 18 14.7499Z" fill="#1065E3"/>
</svg>
