<svg width="27" height="26" viewBox="0 0 27 26" fill="none" xmlns="http://www.w3.org/2000/svg">
<path d="M14.7996 3.89998C14.7996 3.55519 14.6626 3.22453 14.4188 2.98074C14.1751 2.73694 13.8444 2.59998 13.4996 2.59998C13.1548 2.59998 12.8242 2.73694 12.5804 2.98074C12.3366 3.22453 12.1996 3.55519 12.1996 3.89998V5.19998C12.1996 5.54476 12.3366 5.87542 12.5804 6.11921C12.8242 6.36301 13.1548 6.49998 13.4996 6.49998C13.8444 6.49998 14.1751 6.36301 14.4188 6.11921C14.6626 5.87542 14.7996 5.54476 14.7996 5.19998V3.89998ZM20.8537 7.48408C21.0905 7.23889 21.2215 6.91051 21.2186 6.56965C21.2156 6.2288 21.0789 5.90274 20.8379 5.66171C20.5968 5.42068 20.2708 5.28396 19.9299 5.281C19.5891 5.27804 19.2607 5.40907 19.0155 5.64588L18.0964 6.56498C17.8596 6.81016 17.7286 7.13854 17.7315 7.4794C17.7345 7.82025 17.8712 8.14631 18.1122 8.38734C18.3533 8.62837 18.6793 8.76509 19.0202 8.76805C19.361 8.77101 19.6894 8.63998 19.9346 8.40318L20.8537 7.48408ZM23.8996 13C23.8996 13.3448 23.7626 13.6754 23.5189 13.9192C23.2751 14.163 22.9444 14.3 22.5996 14.3H21.2996C20.9548 14.3 20.6242 14.163 20.3804 13.9192C20.1366 13.6754 19.9996 13.3448 19.9996 13C19.9996 12.6552 20.1366 12.3245 20.3804 12.0807C20.6242 11.8369 20.9548 11.7 21.2996 11.7H22.5996C22.9444 11.7 23.2751 11.8369 23.5189 12.0807C23.7626 12.3245 23.8996 12.6552 23.8996 13ZM7.06461 8.40318C7.18453 8.52734 7.32798 8.62638 7.48658 8.69451C7.64519 8.76264 7.81577 8.7985 7.98839 8.8C8.161 8.8015 8.33218 8.76861 8.49195 8.70324C8.65172 8.63788 8.79686 8.54135 8.91892 8.41929C9.04098 8.29723 9.13751 8.15208 9.20288 7.99232C9.26824 7.83255 9.30114 7.66137 9.29964 7.48875C9.29814 7.31614 9.26227 7.14556 9.19414 6.98695C9.12601 6.82834 9.02697 6.6849 8.90281 6.56498L7.98371 5.64588C7.73853 5.40907 7.41014 5.27804 7.06929 5.281C6.72843 5.28396 6.40238 5.42068 6.16135 5.66171C5.92031 5.90274 5.7836 6.2288 5.78063 6.56965C5.77767 6.91051 5.9087 7.23889 6.14551 7.48408L7.06461 8.40318ZM6.99961 13C6.99961 13.3448 6.86265 13.6754 6.61885 13.9192C6.37505 14.163 6.04439 14.3 5.69961 14.3H4.39961C4.05483 14.3 3.72417 14.163 3.48037 13.9192C3.23657 13.6754 3.09961 13.3448 3.09961 13C3.09961 12.6552 3.23657 12.3245 3.48037 12.0807C3.72417 11.8369 4.05483 11.7 4.39961 11.7H5.69961C6.04439 11.7 6.37505 11.8369 6.61885 12.0807C6.86265 12.3245 6.99961 12.6552 6.99961 13ZM10.8996 20.8V19.5H16.0996V20.8C16.0996 21.4895 15.8257 22.1509 15.3381 22.6385C14.8505 23.126 14.1892 23.4 13.4996 23.4C12.81 23.4 12.1487 23.126 11.6611 22.6385C11.1735 22.1509 10.8996 21.4895 10.8996 20.8ZM16.0996 18.2C16.1191 17.758 16.37 17.3602 16.7197 17.0833C17.5682 16.4141 18.1871 15.4972 18.4905 14.4601C18.7939 13.4229 18.7666 12.317 18.4124 11.2961C18.0583 10.2752 17.3949 9.38993 16.5144 8.76343C15.634 8.13692 14.5802 7.80027 13.4996 7.80027C12.419 7.80027 11.3652 8.13692 10.4848 8.76343C9.60433 9.38993 8.94093 10.2752 8.58679 11.2961C8.23265 12.317 8.20536 13.4229 8.50872 14.4601C8.81208 15.4972 9.43102 16.4141 10.2795 17.0833C10.6305 17.3602 10.8801 17.758 10.8983 18.2H16.0996Z" fill="#00A6CA"/>
</svg>
