<svg width="24" height="25" viewBox="0 0 24 25" fill="none" xmlns="http://www.w3.org/2000/svg">
<path d="M20 15.75C20.1989 15.75 20.3897 15.829 20.5303 15.9697C20.671 16.1103 20.75 16.3011 20.75 16.5V17.5C20.75 18.4946 20.3549 19.4484 19.6517 20.1517C18.9484 20.8549 17.9946 21.25 17 21.25H7C6.00544 21.25 5.05161 20.8549 4.34835 20.1517C3.64509 19.4484 3.25 18.4946 3.25 17.5V16.504C3.25 16.3051 3.32902 16.1143 3.46967 15.9737C3.61032 15.833 3.80109 15.754 4 15.754C4.19891 15.754 4.38968 15.833 4.53033 15.9737C4.67098 16.1143 4.75 16.3051 4.75 16.504V17.5C4.75 18.0967 4.98705 18.669 5.40901 19.091C5.83097 19.5129 6.40326 19.75 7 19.75H17C17.5967 19.75 18.169 19.5129 18.591 19.091C19.0129 18.669 19.25 18.0967 19.25 17.5V16.5C19.25 16.3011 19.329 16.1103 19.4697 15.9697C19.6103 15.829 19.8011 15.75 20 15.75Z" fill="black"/>
<path d="M12.7493 5C12.7493 4.80109 12.6703 4.61032 12.5297 4.46967C12.389 4.32902 12.1983 4.25 11.9993 4.25C11.8004 4.25 11.6097 4.32902 11.469 4.46967C11.3284 4.61032 11.2493 4.80109 11.2493 5V11.97H7.96934C7.82889 12.1106 7.75 12.3012 7.75 12.5C7.75 12.6988 7.82889 12.8894 7.96934 13.03L11.4693 16.53C11.61 16.6705 11.8006 16.7493 11.9993 16.7493C12.1981 16.7493 12.3887 16.6705 12.5293 16.53L16.0293 13.03C16.1698 12.8894 16.2487 12.6988 16.2487 12.5C16.2487 12.3012 16.1698 12.1106 16.0293 11.97H12.7493V5Z" fill="black"/>
</svg>
