<svg width="62" height="62" viewBox="0 0 62 62" fill="none" xmlns="http://www.w3.org/2000/svg">
<circle cx="31" cy="31" r="31" fill="white"/>
<path d="M23.7488 31.0814C22.0402 32.7828 20.9328 35.0781 20.7568 37.6301C20.7348 38.0261 20.4268 38.3341 20.0308 38.3341H10.4755C10.0648 38.3341 9.72016 37.9968 9.73483 37.5788C9.93283 32.0054 12.2648 26.9821 15.9682 23.3008L17.0682 23.6674L23.6682 30.2674L23.7488 31.0814Z" fill="#C64040"/>
<path d="M30.9982 17.0664L31.7315 17.7997V28.0664L30.9982 28.3451H28.6442C26.7522 28.7851 25.0655 29.7457 23.7455 31.0804L15.9648 23.2997C19.8002 19.4497 25.1242 17.0664 30.9982 17.0664Z" fill="#FC9C3D"/>
<path d="M46.0333 23.2997L46.4 25.1331L39.8 30.9997L38.2527 31.0804C36.9327 29.7457 35.246 28.7851 33.354 28.3451H31V17.0664C36.874 17.0664 42.198 19.4497 46.0333 23.2997Z" fill="#F9C032"/>
<path d="M28.1758 32.3723C28.5351 27.2536 29.7378 23.1689 30.4564 21.1229C30.6398 20.6023 31.3584 20.6023 31.5418 21.1229C32.2604 23.1689 33.4631 27.2536 33.8224 32.3723H28.1758Z" fill="#3C3D4C"/>
<path d="M30.9984 44.9324C34.6435 44.9324 37.5984 41.9775 37.5984 38.3324C37.5984 34.6873 34.6435 31.7324 30.9984 31.7324C27.3534 31.7324 24.3984 34.6873 24.3984 38.3324C24.3984 41.9775 27.3534 44.9324 30.9984 44.9324Z" fill="#F9C032"/>
<path d="M52.2679 37.5788C52.2826 37.9968 51.9379 38.3341 51.5272 38.3341H41.9719C41.5759 38.3341 41.2679 38.0261 41.2459 37.6301C41.0699 35.0781 39.9626 32.7828 38.2539 31.0814L46.0346 23.3008C49.7379 26.9821 52.0699 32.0054 52.2679 37.5788Z" fill="#8DC156"/>
<path d="M33.2015 39.4334C33.2015 38.2278 32.004 37.8685 31.212 37.6309C30.9113 37.5407 30.3503 37.372 30.2682 37.2334C30.2682 37.1036 30.5468 36.8667 31.0015 36.8667C31.5838 36.8667 31.949 37.174 31.9746 37.1953C32.2716 37.4666 32.7307 37.4475 33.0035 37.1535C33.28 36.8579 33.2638 36.3937 32.9683 36.1173C32.9074 36.0608 32.4645 35.6699 31.7341 35.4903V35.3993C31.7341 34.9938 31.4063 34.666 31.0008 34.666C30.5952 34.666 30.2674 34.9938 30.2674 35.3993V35.5079C29.4065 35.755 28.8008 36.4209 28.8008 37.2327C28.8008 38.4383 29.9983 38.7976 30.7903 39.0352C31.091 39.1254 31.652 39.2941 31.7341 39.4327C31.7341 39.5625 31.4554 39.7993 31.0008 39.7993C30.4097 39.7993 30.0416 39.4825 30.035 39.4774C29.7402 39.2002 29.2745 39.2164 28.9988 39.5126C28.7223 39.8081 28.7384 40.2723 29.034 40.5488C29.0948 40.6053 29.5378 40.9961 30.2682 41.1758V41.2667C30.2682 41.6723 30.596 42.0001 31.0015 42.0001C31.407 42.0001 31.7348 41.6723 31.7348 41.2667V41.1582C32.5958 40.9111 33.2015 40.2452 33.2015 39.4334Z" fill="#E8A12E"/>
<path d="M31.0013 45.6667C26.9577 45.6667 23.668 42.3769 23.668 38.3333C23.668 34.2897 26.9577 31 31.0013 31C35.0449 31 38.3346 34.2897 38.3346 38.3333C38.3346 42.3769 35.0449 45.6667 31.0013 45.6667ZM31.0013 32.4667C27.7666 32.4667 25.1346 35.0986 25.1346 38.3333C25.1346 41.5681 27.7666 44.2 31.0013 44.2C34.236 44.2 36.868 41.5681 36.868 38.3333C36.868 35.0986 34.236 32.4667 31.0013 32.4667Z" fill="#E8A12E"/>
</svg>
