<svg width="62" height="62" viewBox="0 0 62 62" fill="none" xmlns="http://www.w3.org/2000/svg">
<circle cx="31" cy="31" r="31" fill="white"/>
<g clip-path="url(#clip0_964_3217)">
<path d="M54 30.5C54 43.4789 43.4789 54 30.5 54C17.5211 54 7 43.4789 7 30.5C7 17.5211 17.5211 7 30.5 7C43.4789 7 54 17.5211 54 30.5Z" fill="#00C2CC"/>
<path d="M54.0005 30.4999C54.0005 29.0502 53.8681 27.6316 53.6171 26.2547L43.0558 15.6934L26.8964 31.8528L28.8234 33.7799L17.8945 44.7087L26.9136 53.7277C28.0829 53.907 29.2809 53.9999 30.5005 53.9999C43.4793 53.9999 54.0005 43.4788 54.0005 30.4999Z" fill="#00C2CC"/>
<path d="M41.2245 14.9707H19.7749C18.2914 14.9707 17.0938 16.1684 17.0938 17.6518V42.7956C17.0938 44.279 18.2914 45.4767 19.7749 45.4767H41.2245C42.7079 45.4767 43.9056 44.279 43.9056 42.7956V17.6518C43.9056 16.1684 42.7079 14.9707 41.2245 14.9707Z" fill="#53433F"/>
<path d="M43.9059 17.6518V42.7956C43.9059 44.279 42.7083 45.4767 41.2248 45.4767H30.5V14.9707H41.2248C42.7083 14.9707 43.9059 16.1684 43.9059 17.6518Z" fill="#3E322E"/>
<path d="M20.668 18.5469V27.4842H40.3301V18.5469H20.668Z" fill="#9CDD05"/>
<path d="M30.5 18.5469H40.3309V27.4842H30.5V18.5469Z" fill="#79AB03"/>
<path d="M26.0306 34.6923H20.668V29.3301H26.0306V34.6923Z" fill="#E7E7E7"/>
<path d="M27.8164 29.3301V34.6923H33.1786V29.3301H27.8164Z" fill="#E7E7E7"/>
<path d="M26.0306 41.9013H20.668V36.5391H26.0306V41.9013Z" fill="#E7E7E7"/>
<path d="M27.8164 36.5391V41.9016H33.1786V36.5391H27.8164Z" fill="#E7E7E7"/>
<path d="M34.9688 29.3301H40.3313V31.1172H34.9688V29.3301Z" fill="#D3D3D8"/>
<path d="M34.9688 22.1211H36.7563V23.9086H34.9688V22.1211Z" fill="#3E322E"/>
<path d="M31.3945 22.1211H33.1821V23.9086H31.3945V22.1211Z" fill="#3E322E"/>
<path d="M27.8203 22.1211H29.6078V23.9086H27.8203V22.1211Z" fill="#53433F"/>
<path d="M24.2422 22.1211H26.0297V23.9086H24.2422V22.1211Z" fill="#53433F"/>
<path d="M40.331 41.9031H34.9688V32.9062H40.3313V41.9031H40.331Z" fill="#FF4B00"/>
<path d="M30.5 29.3301H33.1811V34.6923H30.5V29.3301Z" fill="#D3D3D8"/>
<path d="M30.5 36.541H33.1811V41.9036H30.5V36.541Z" fill="#D3D3D8"/>
</g>
<defs>
<clipPath id="clip0_964_3217">
<rect width="47" height="47" fill="white" transform="translate(7 7)"/>
</clipPath>
</defs>
</svg>
