<svg width="18" height="18" viewBox="0 0 18 18" fill="none" xmlns="http://www.w3.org/2000/svg">
<path d="M13.7465 16.8747C13.0603 16.8747 12.0963 16.6265 10.6528 15.82C8.89745 14.8356 7.53971 13.9268 5.79385 12.1855C4.11057 10.5033 3.29143 9.41417 2.14499 7.32799C0.849829 4.97253 1.07061 3.73784 1.31741 3.21014C1.61131 2.57944 2.04514 2.20221 2.60588 1.8278C2.92438 1.61912 3.26143 1.44024 3.61276 1.29342C3.64791 1.27831 3.68061 1.26389 3.70979 1.25088C3.88381 1.17249 4.14749 1.05401 4.48147 1.18057C4.70436 1.26424 4.90334 1.43546 5.21483 1.74307C5.85362 2.37307 6.72655 3.77616 7.04858 4.46522C7.26479 4.92963 7.40788 5.2362 7.40823 5.58003C7.40823 5.98256 7.20573 6.29299 6.95999 6.62803C6.91393 6.69096 6.86823 6.75108 6.82393 6.80944C6.55639 7.161 6.49768 7.2626 6.53635 7.44401C6.61475 7.80858 7.1994 8.89385 8.16022 9.85256C9.12104 10.8113 10.175 11.359 10.541 11.4371C10.7301 11.4775 10.8339 11.4163 11.1967 11.1393C11.2487 11.0996 11.3021 11.0584 11.358 11.0173C11.7328 10.7385 12.0288 10.5413 12.4219 10.5413H12.424C12.766 10.5413 13.0589 10.6896 13.544 10.9343C14.1769 11.2535 15.6221 12.1152 16.256 12.7547C16.5643 13.0655 16.7362 13.2638 16.8203 13.4863C16.9468 13.8214 16.8276 14.084 16.7499 14.2598C16.7369 14.2889 16.7225 14.3209 16.7074 14.3564C16.5594 14.7071 16.3795 15.0435 16.1699 15.3612C15.7962 15.9202 15.4175 16.353 14.7854 16.6472C14.4608 16.8008 14.1056 16.8785 13.7465 16.8747Z" fill="#003478"/>
</svg>
