<svg width="18" height="18" viewBox="0 0 18 18" fill="none" xmlns="http://www.w3.org/2000/svg">
<path fill-rule="evenodd" clip-rule="evenodd" d="M3 3.1875C2.45299 3.1875 1.92839 3.4048 1.54159 3.79159C1.1548 4.17839 0.9375 4.70299 0.9375 5.25V12.75C0.9375 13.297 1.1548 13.8216 1.54159 14.2084C1.92839 14.5952 2.45299 14.8125 3 14.8125H15C15.547 14.8125 16.0716 14.5952 16.4584 14.2084C16.8452 13.8216 17.0625 13.297 17.0625 12.75V5.25C17.0625 4.70299 16.8452 4.17839 16.4584 3.79159C16.0716 3.4048 15.547 3.1875 15 3.1875H3ZM5.5725 6.2895C5.45024 6.20972 5.30174 6.18059 5.1584 6.20829C5.01506 6.23598 4.8881 6.31832 4.80435 6.4379C4.7206 6.55748 4.68663 6.70494 4.70961 6.84912C4.73259 6.99329 4.81072 7.12288 4.9275 7.2105L8.6775 9.8355C8.77203 9.90165 8.88462 9.93713 9 9.93713C9.11538 9.93713 9.22797 9.90165 9.3225 9.8355L13.0725 7.2105C13.1357 7.16928 13.1899 7.11579 13.232 7.05319C13.274 6.99059 13.3031 6.92017 13.3174 6.84612C13.3317 6.77207 13.331 6.6959 13.3152 6.62214C13.2995 6.54838 13.2691 6.47853 13.2258 6.41675C13.1826 6.35498 13.1273 6.30253 13.0634 6.26253C12.9995 6.22254 12.9281 6.19581 12.8536 6.18394C12.7792 6.17207 12.7031 6.17529 12.6298 6.19343C12.5566 6.21156 12.4878 6.24423 12.4275 6.2895L9 8.68875L5.5725 6.2895Z" fill="#003478"/>
</svg>
