<svg id="Layer_1" enable-background="new 0 0 512 512" viewBox="0 0 512 512" xmlns="http://www.w3.org/2000/svg" width="300" height="300" version="1.1" xmlns:xlink="http://www.w3.org/1999/xlink" xmlns:svgjs="http://svgjs.dev/svgjs"><g width="100%" height="100%" transform="matrix(1,0,0,1,0,0)"><path d="m351.24 465.629c8.519 8.519 8.52 22.46 0 30.981s-22.461 8.52-30.98 0l-47.243-47.243 30.981-30.981zm-58.555-58.555-30.981 30.981-12.881-12.881c-.778-.778-.778-2.05 0-2.829l5.318-5.318-20.519-20.519c-17.641 13.873-39.892 22.148-64.075 22.148-57.294 0-103.741-46.446-103.741-103.741 0-57.294 46.446-103.74 103.741-103.74s103.741 46.447 103.741 103.74c0 24.184-8.276 46.436-22.149 64.077l20.519 20.519 5.318-5.318c.779-.779 2.051-.779 2.829 0zm-44.848-92.158c0-43.239-35.052-78.291-78.291-78.291-43.238 0-78.29 35.052-78.29 78.291s35.052 78.29 78.29 78.29c43.239.001 78.291-35.051 78.291-78.29zm-47.939-33.046-44.897 44.898-15.11-19.015c-3.296-4.146-9.331-4.835-13.477-1.539-4.147 3.297-4.836 9.331-1.54 13.478l21.43 26.967c3.41 4.886 10.433 5.554 14.683 1.303l52.502-52.502c3.752-3.752 3.752-9.837 0-13.59-3.754-3.753-9.838-3.753-13.591 0zm-89.085-106.737v35.415c17.354-9.787 37.392-15.372 58.733-15.372 27.472 0 52.784 9.254 72.99 24.814h46.233c13.71 0 24.926 11.217 24.926 24.926v124.747h70.013c9.628 0 17.478-7.851 17.478-17.478v-177.052l-145.186-105.486zm342.872-26.81-186.782-135.704c-6.272-4.751-15.12-4.856-21.633-.125l-186.955 135.829c-8.158 5.928-9.984 17.346-4.067 25.513 5.921 8.172 17.362 10.002 25.527 4.07l176.225-128.036 176.225 128.036c8.165 5.932 19.606 4.102 25.527-4.07 5.916-8.167 4.09-19.584-4.067-25.513z" fill="#00c2cc" fill-opacity="1" data-original-color="#000000ff" stroke="none" stroke-opacity="1"/></g></svg>