<svg fill="none" height="300" viewBox="0 0 100 100" width="300" xmlns="http://www.w3.org/2000/svg" version="1.1" xmlns:xlink="http://www.w3.org/1999/xlink" xmlns:svgjs="http://svgjs.dev/svgjs"><g width="100%" height="100%" transform="matrix(1,0,0,1,0,0)"><path clip-rule="evenodd" d="m8 26c0-3.3137 2.6863-6 6-6h73c3.3137 0 6 2.6863 6 6v8.5h-85zm0 11.5v38.5c0 3.3137 2.6863 6 6 6h73c3.3137 0 6-2.6863 6-6v-38.5zm8.5 16.5c0-3.0376 2.4624-5.5 5.5-5.5h11c3.0376 0 5.5 2.4624 5.5 5.5v8c0 3.0376-2.4624 5.5-5.5 5.5h-11c-3.0376 0-5.5-2.4624-5.5-5.5zm5.5-2.5c-1.3807 0-2.5 1.1193-2.5 2.5v8c0 1.3807 1.1193 2.5 2.5 2.5h11c1.3807 0 2.5-1.1193 2.5-2.5v-8c0-1.3807-1.1193-2.5-2.5-2.5zm26 0c-.8284 0-1.5.6716-1.5 1.5s.6716 1.5 1.5 1.5h35c.8284 0 1.5-.6716 1.5-1.5s-.6716-1.5-1.5-1.5zm-1.5 12.5c0-.8284.6716-1.5 1.5-1.5h20c.8284 0 1.5.6716 1.5 1.5s-.6716 1.5-1.5 1.5h-20c-.8284 0-1.5-.6716-1.5-1.5z" fill="#00c2cc" fill-rule="evenodd" fill-opacity="1" data-original-color="#000000ff" stroke="none" stroke-opacity="1"/></g></svg>