<svg id="Capa_1" enable-background="new 0 0 512 512" height="300" viewBox="0 0 512 512" width="300" xmlns="http://www.w3.org/2000/svg" version="1.1" xmlns:xlink="http://www.w3.org/1999/xlink" xmlns:svgjs="http://svgjs.dev/svgjs"><g width="100%" height="100%" transform="matrix(1,0,0,1,0,0)"><g><path d="m407.54 0h-203.75v90.04c0 16.176-13.114 29.29-29.29 29.29h-90.04v372.67c0 11.046 8.954 20 20 20h303.08c11.046 0 20-8.954 20-20v-472c0-11.046-8.954-20-20-20zm-151.12 89.33h118.16c8.29 0 15 6.72 15 15 0 8.29-6.71 15-15 15h-118.16c-8.28 0-15-6.71-15-15 0-8.28 6.72-15 15-15zm-133.14 205.52c-3.29-7.61-1.73-16.38 3.99-22.35 4.35-4.55 8.78-10.71 13.16-18.31.65-1.12.52-2.53-.32-3.5-9.37-10.88-14.2-24.8-13.58-39.18 1.24-29.07 24.99-52.71 54.06-53.83 31.989-1.221 58.51 24.264 58.51 56.28 0 42.69-42.23 92.76-96.69 93.32h-.22c-8.22 0-15.63-4.86-18.91-12.43zm236.52 169.94h-207.6c-8.28 0-15-6.72-15-15 0-8.29 6.72-15 15-15h207.6c8.28 0 15 6.71 15 15 0 8.28-6.72 15-15 15zm0-80.29h-207.6c-8.28 0-15-6.72-15-15s6.72-15 15-15h207.6c8.28 0 15 6.72 15 15s-6.72 15-15 15zm-66.07-77.22h-.22c-18.046 0-27.411-21.721-14.92-34.78 4.36-4.55 8.78-10.71 13.16-18.31.65-1.12.52-2.53-.32-3.5-9.37-10.88-14.19-24.8-13.58-39.18 2.044-47.918 60.274-71.844 95.31-38.13 11.13 10.71 17.27 25.13 17.27 40.58 0 42.69-42.24 92.76-96.7 93.32z" fill="#00c2cc" fill-opacity="1" data-original-color="#000000ff" stroke="none" stroke-opacity="1"/><path d="m173.79 0-89.33 89.33h86.33c1.657 0 3-1.343 3-3z" fill="#00c2cc" fill-opacity="1" data-original-color="#000000ff" stroke="none" stroke-opacity="1"/><path d="m166.42 269.17c-.72 1.26-1.46 2.49-2.19 3.7 26.97-10.73 44.87-38.79 44.87-58.91 0-7.22-2.86-13.96-8.07-18.97-16.299-15.706-43.571-4.639-44.53 17.8-.29 6.73 1.96 13.24 6.34 18.31 9.14 10.62 10.58 25.91 3.58 38.07z" fill="#00c2cc" fill-opacity="1" data-original-color="#000000ff" stroke="none" stroke-opacity="1"/><path d="m307.82 212.79c-.28 6.73 1.97 13.24 6.34 18.31 9.15 10.62 10.59 25.91 3.58 38.07-.72 1.26-1.45 2.49-2.19 3.7 31.675-12.602 59.007-56.494 36.81-77.88-16.356-15.728-43.583-4.592-44.54 17.8z" fill="#00c2cc" fill-opacity="1" data-original-color="#000000ff" stroke="none" stroke-opacity="1"/></g></g></svg>