<svg width="30" height="30" viewBox="0 0 30 30" fill="none" xmlns="http://www.w3.org/2000/svg">
<path d="M14.5605 10.9395C14.2776 10.6663 13.8987 10.5151 13.5054 10.5185C13.1121 10.5219 12.7359 10.6797 12.4578 10.9578C12.1797 11.2359 12.0219 11.6121 12.0185 12.0054C12.0151 12.3987 12.1663 12.7776 12.4395 13.0605L16.9395 17.5605C17.2208 17.8417 17.6023 17.9997 18 17.9997C18.3977 17.9997 18.7792 17.8417 19.0605 17.5605L23.5605 13.0605C23.8337 12.7776 23.9849 12.3987 23.9815 12.0054C23.9781 11.6121 23.8203 11.2359 23.5422 10.9578C23.2641 10.6797 22.8879 10.5219 22.4946 10.5185C22.1013 10.5151 21.7224 10.6663 21.4395 10.9395L19.5 12.879V7.5H24C24.7956 7.5 25.5587 7.81607 26.1213 8.37868C26.6839 8.94129 27 9.70435 27 10.5V18C27 18.7956 26.6839 19.5587 26.1213 20.1213C25.5587 20.6839 24.7956 21 24 21H12C11.2044 21 10.4413 20.6839 9.87868 20.1213C9.31607 19.5587 9 18.7956 9 18V10.5C9 9.70435 9.31607 8.94129 9.87868 8.37868C10.4413 7.81607 11.2044 7.5 12 7.5H16.5V12.879L14.5605 10.9395ZM16.5 4.5C16.5 4.10218 16.658 3.72064 16.9393 3.43934C17.2206 3.15804 17.6022 3 18 3C18.3978 3 18.7794 3.15804 19.0607 3.43934C19.342 3.72064 19.5 4.10218 19.5 4.5V7.5H16.5V4.5Z" fill="white"/>
<path d="M6 13.5C5.20435 13.5 4.44129 13.8161 3.87868 14.3787C3.31607 14.9413 3 15.7044 3 16.5V24C3 24.7956 3.31607 25.5587 3.87868 26.1213C4.44129 26.6839 5.20435 27 6 27H18C18.7956 27 19.5587 26.6839 20.1213 26.1213C20.6839 25.5587 21 24.7956 21 24H6V13.5Z" fill="white"/>
</svg>
