<svg width="54" height="54" viewBox="0 0 54 54" fill="none" xmlns="http://www.w3.org/2000/svg">
<circle cx="27" cy="27" r="27" transform="matrix(-1 0 0 1 54 0)" fill="#7F8286"/>
<path d="M33.9311 33.97L38.2944 38.3334M36.916 26.2917C36.916 29.1096 35.7966 31.8121 33.804 33.8047C31.8115 35.7973 29.1089 36.9167 26.291 36.9167C23.4731 36.9167 20.7706 35.7973 18.778 33.8047C16.7854 31.8121 15.666 29.1096 15.666 26.2917C15.666 23.4738 16.7854 20.7713 18.778 18.7787C20.7706 16.7861 23.4731 15.6667 26.291 15.6667C29.1089 15.6667 31.8115 16.7861 33.804 18.7787C35.7966 20.7713 36.916 23.4738 36.916 26.2917Z" stroke="white" stroke-width="1.5" stroke-linecap="round" stroke-linejoin="round"/>
</svg>
