<svg width="42" height="42" viewBox="0 0 42 42" fill="none" xmlns="http://www.w3.org/2000/svg">
<path d="M32.89 1.06055C30.9034 1.06055 29.0938 2.04403 27.9824 3.57827C31.8278 5.15185 35.034 7.99412 37.0698 11.574C38.2598 10.4528 38.9778 8.85958 38.9778 7.15815C38.9778 3.7848 36.2437 1.06055 32.89 1.06055Z" fill="url(#paint0_linear_696_1378)"/>
<path d="M35.7417 36.74L34.3353 33.4453C32.6437 35.2156 30.598 36.6416 28.3262 37.635L30.8636 40.0838C31.4537 40.6543 32.2011 40.9493 32.9584 40.9493C33.696 40.9493 34.4434 40.6739 35.0237 40.1232C35.6335 39.5528 35.9777 38.7561 35.9777 37.9398C35.9777 37.5169 35.899 37.1039 35.7417 36.74Z" fill="url(#paint1_linear_696_1378)"/>
<path d="M3.02148 7.14839C3.02148 8.85965 3.73943 10.4529 4.92945 11.5642C6.97509 7.97452 10.1714 5.14208 14.0267 3.5685C12.9055 2.03427 11.0959 1.05078 9.10926 1.05078C5.75557 1.06062 3.02148 3.78487 3.02148 7.14839Z" fill="url(#paint2_linear_696_1378)"/>
<path d="M6.26736 36.74C6.11 37.1137 6.02148 37.5169 6.02148 37.9398C6.02148 38.766 6.37554 39.5626 6.97547 40.1232C7.55572 40.6739 8.30317 40.9493 9.05062 40.9493C9.79807 40.9493 10.5554 40.6641 11.1356 40.0937L13.6828 37.635C11.411 36.6416 9.36534 35.2156 7.68358 33.4453L6.26736 36.74Z" fill="url(#paint3_linear_696_1378)"/>
<path d="M21.0006 3.79297C11.6976 3.79297 4.125 11.3656 4.125 20.6727C4.125 29.9758 11.706 37.5484 21.0006 37.5484C30.3162 37.5484 37.8762 29.9632 37.8762 20.6727C37.8762 11.3656 30.3162 3.79297 21.0006 3.79297ZM25.923 25.5952C25.5954 25.9227 25.167 26.0865 24.7344 26.0865C24.306 26.0865 23.8776 25.9227 23.5458 25.5952L19.812 21.8571C19.497 21.5421 19.3206 21.118 19.3206 20.6686V11.941C19.3206 11.0169 20.0724 10.261 21.0006 10.261C21.9288 10.261 22.6806 11.0169 22.6806 11.941V19.9756L25.923 23.218C26.5782 23.8732 26.5782 24.9358 25.923 25.5952Z" fill="url(#paint4_linear_696_1378)"/>
<defs>
<linearGradient id="paint0_linear_696_1378" x1="15.1608" y1="-15.8908" x2="53.808" y2="26.4624" gradientUnits="userSpaceOnUse">
<stop stop-color="#97E0FF"/>
<stop offset="1" stop-color="#1075FF"/>
</linearGradient>
<linearGradient id="paint1_linear_696_1378" x1="-1.62494" y1="-0.575669" x2="37.0222" y2="41.7771" gradientUnits="userSpaceOnUse">
<stop stop-color="#97E0FF"/>
<stop offset="1" stop-color="#1075FF"/>
</linearGradient>
<linearGradient id="paint2_linear_696_1378" x1="0.386832" y1="-2.4096" x2="39.034" y2="39.9432" gradientUnits="userSpaceOnUse">
<stop stop-color="#97E0FF"/>
<stop offset="1" stop-color="#1075FF"/>
</linearGradient>
<linearGradient id="paint3_linear_696_1378" x1="-14.75" y1="11.4019" x2="23.8967" y2="53.7547" gradientUnits="userSpaceOnUse">
<stop stop-color="#97E0FF"/>
<stop offset="1" stop-color="#1075FF"/>
</linearGradient>
<linearGradient id="paint4_linear_696_1378" x1="0.145076" y1="-2.18826" x2="38.7922" y2="40.1645" gradientUnits="userSpaceOnUse">
<stop stop-color="#EFEFEF"/>
<stop offset="1" stop-color="#EFEFEF"/>
</linearGradient>
</defs>
</svg>
