<svg width="1728" height="270" viewBox="0 0 1728 270" fill="none" xmlns="http://www.w3.org/2000/svg">
<g clip-path="url(#clip0_262_303)">
<g opacity="0.3">
<path d="M1012.67 450.002C1003.2 450.002 993.983 449.555 985.124 448.664C966.543 446.792 949.377 442.951 934.102 437.245C917.684 431.114 903.284 422.76 891.299 412.416C867.212 391.624 855.161 366.725 843.506 342.644C841.216 337.916 838.849 333.027 836.445 328.283C820.045 295.949 799.255 267.627 772.892 241.697C720.303 189.972 646.344 145.828 559.009 114.039C458.006 77.276 349.412 58.963 253.228 62.4742C196.696 64.539 122.001 84.1729 88.6179 117.704C68.8066 137.604 67.2091 159.688 84.0013 181.565L83.6678 181.657C74.8632 170.184 71.027 158.682 72.2691 147.47C73.4086 137.186 78.802 127.132 88.3028 117.589C103.413 102.411 128.332 88.9586 160.367 78.6849C189.968 69.1927 222.937 63.3569 253.206 62.2518C303.542 60.4159 357.077 64.4906 412.323 74.3659C462.403 83.3188 511.82 96.6017 559.199 113.847C646.586 145.654 720.589 189.822 773.208 241.578C799.585 267.525 820.386 295.863 836.797 328.214C839.204 332.958 841.571 337.85 843.857 342.578C855.502 366.641 867.545 391.523 891.6 412.284C914.862 432.365 946.351 444.529 985.186 448.439C1038.97 453.854 1104.27 442.528 1159.88 418.14C1240.01 382.995 1295.62 331.84 1349.41 282.371C1358.84 273.7 1368.58 264.734 1378.23 256.076C1403.29 233.594 1437.22 204.461 1477.55 178.507C1518.77 151.979 1560.65 132.488 1605.6 118.919C1633.12 110.613 1662.28 105.017 1692.27 102.288C1719.97 99.765 1749.3 99.6087 1779.43 101.819C1831.11 105.612 1886.78 116.326 1949.64 134.571C2073.42 170.499 2197.05 214.108 2317.12 264.188C2431.25 311.788 2543.18 365.651 2649.8 424.275L2649.55 424.438C2428.53 302.912 2192.99 205.454 1949.48 134.769C1811.91 94.834 1702.69 89.8589 1605.77 119.115C1507.17 148.877 1438.29 202.588 1378.54 256.197C1368.89 264.853 1359.14 273.819 1349.72 282.49C1295.92 331.977 1240.29 383.147 1160.1 418.316C1134.19 429.681 1105.04 438.546 1075.8 443.95C1060.36 446.806 1045 448.672 1030.17 449.5C1024.25 449.837 1018.41 450.002 1012.67 450.002Z" fill="white" fill-opacity="0.82"/>
<path d="M1021.93 437.672C997.781 437.672 975.408 434.91 955.414 429.457C933.118 423.377 913.878 413.955 898.226 401.456C896.841 400.348 895.466 399.204 894.14 398.05C870.309 377.349 857.723 352.773 845.555 329.005C843.093 324.202 840.55 319.233 837.971 314.412C822.607 285.707 804.108 260.406 781.409 237.07C778.613 234.197 775.719 231.318 772.799 228.513C719.436 177.233 644.877 133.648 557.182 102.471C455.45 66.3355 346.548 48.7797 250.536 53.0393C194.414 55.5555 120.064 75.5107 86.5382 108.784C66.463 128.709 64.1914 150.836 79.9613 172.777L79.6242 172.865C71.3582 161.366 67.9617 149.841 69.5335 138.617C70.9771 128.308 76.5904 118.232 86.2231 108.67C101.487 93.5178 126.333 80.0499 158.067 69.7234C187.398 60.1783 220.224 54.1752 250.503 52.8192C300.777 50.5892 354.371 54.2743 409.793 63.7709C459.994 72.3738 509.645 85.3309 557.365 102.281C645.111 133.477 719.711 177.088 773.106 228.397C776.027 231.203 778.925 234.085 781.721 236.96C804.434 260.312 822.945 285.625 838.315 314.346C840.898 319.167 843.441 324.135 845.903 328.941C858.068 352.694 870.643 377.252 894.441 397.925C895.763 399.074 897.137 400.219 898.519 401.324C930.865 427.161 975.309 437.672 1022.05 437.672C1022.3 437.672 1022.56 437.672 1022.81 437.672C1022.52 437.67 1022.23 437.672 1021.93 437.672ZM1031.9 437.518C1075.36 436.178 1120.19 426.146 1158.66 411.223C1241.63 378.901 1301.26 328.978 1358.93 280.701C1361.31 278.711 1363.68 276.725 1366.06 274.739C1371.27 270.381 1377.45 265.221 1383.76 260.019C1412.06 236.691 1446.32 209.549 1485.77 185.118C1527.74 159.122 1569.68 139.832 1613.97 126.142C1641.18 117.739 1669.94 111.82 1699.44 108.549C1726.78 105.517 1755.67 104.661 1785.3 106.002C1836.49 108.32 1891.53 117.107 1953.57 132.869C2014.06 148.212 2063.78 162.656 2110.05 178.323C2175.59 200.539 2238.02 226.136 2290.45 248.244C2412.34 299.791 2531.93 358.322 2645.91 422.214L2645.66 422.375C2531.69 358.492 2412.11 299.965 2290.24 248.424C2237.82 226.319 2175.4 200.726 2109.87 178.516C2063.62 162.854 2013.91 148.415 1953.43 133.076C1818.29 98.7394 1710.47 96.5974 1614.14 126.34C1514.15 157.242 1442.95 211.614 1384.06 260.151C1377.74 265.353 1371.57 270.511 1366.35 274.872C1363.98 276.855 1361.6 278.843 1359.23 280.833C1301.54 329.126 1241.89 379.066 1158.85 411.412C1138.27 419.399 1116.36 425.743 1093.74 430.267C1072.68 434.474 1051.92 436.906 1031.9 437.518Z" fill="white" fill-opacity="0.82"/>
<path d="M1032.15 425.625C1029.24 425.625 1026.35 425.587 1023.49 425.51C999.356 424.869 977.024 421.543 957.113 415.619C935.338 409.141 916.472 399.545 901.043 387.097C899.672 385.987 898.306 384.84 896.987 383.687C873.423 363.086 860.314 338.839 847.64 315.392C844.998 310.505 842.265 305.451 839.495 300.546C823.373 271.937 804.386 246.84 781.442 223.818C778.602 220.972 775.664 218.117 772.699 215.334C718.563 164.501 643.403 121.475 555.35 90.9094C452.893 55.4017 343.683 38.601 247.839 43.609C193.876 46.473 119.741 65.2901 84.4935 99.8337C64.1288 119.791 61.1646 141.979 75.9196 163.996L75.5789 164.078C67.8478 152.543 64.8983 140.992 66.8035 129.748C68.5549 119.406 74.4027 109.304 84.182 99.7192C99.6076 84.6026 124.373 71.1303 155.803 60.7553C184.858 51.1641 217.534 44.9981 247.806 43.3911C298.022 40.7693 351.674 44.0625 407.268 53.1805C457.594 61.4356 507.476 74.0647 555.533 90.7201C643.638 121.306 718.838 164.355 773.007 215.217C775.971 218.002 778.914 220.857 781.753 223.708C804.708 246.743 823.706 271.856 839.835 300.48C842.605 305.387 845.339 310.441 847.98 315.328C860.651 338.761 873.75 362.992 897.284 383.568C898.603 384.721 899.962 385.866 901.332 386.971C964.027 437.554 1075.14 432.123 1157.43 404.304C1243.87 374.831 1308.1 325.844 1370.22 278.471L1370.86 277.984C1376.87 273.392 1383.1 268.646 1389.29 263.96C1454.63 214.517 1526.45 163.706 1622.33 133.36C1649.25 124.859 1677.62 118.616 1706.63 114.805C1733.62 111.261 1762.07 109.705 1791.19 110.18C1841.97 111.008 1896.37 117.872 1957.51 131.163C2021.76 145.082 2070.12 157.877 2114.29 172.65C2177.23 193.741 2238.19 220.393 2291.98 243.908C2411.74 296.544 2529.51 355.84 2642.03 420.143L2641.77 420.302C2529.27 356.005 2411.51 296.716 2291.76 244.084C2237.98 220.573 2177.03 193.926 2114.11 172.841C2069.95 158.073 2021.62 145.283 1957.39 131.368C1824.86 102.557 1718.45 103.25 1622.5 133.552C1526.68 163.878 1454.89 214.667 1389.57 264.092C1383.38 268.778 1377.16 273.527 1371.14 278.117L1370.51 278.603C1339.55 302.21 1307.54 326.621 1272.97 348.425C1234.13 372.929 1196.39 391.268 1157.61 404.492C1117.03 418.206 1072.83 425.625 1032.15 425.625Z" fill="white" fill-opacity="0.82"/>
<path d="M2637.89 418.226C2526.85 353.515 2410.91 293.464 2293.29 239.743C2288.31 237.484 2283.32 235.214 2278.31 232.938C2227.37 209.776 2174.69 185.825 2118.36 167.166C2063.71 149.115 2008.32 138.078 1961.35 129.662C1831.69 106.288 1726.69 109.817 1630.88 140.763C1532.54 172.626 1456.33 225.526 1395.1 268.034C1391.43 270.586 1387.76 273.141 1384.09 275.699C1381.37 277.588 1378.66 279.477 1375.94 281.363C1341.08 305.592 1309.37 327.253 1274.33 347.019C1234.3 369.598 1195.72 386.134 1156.37 397.575C1119.5 408.298 1080.1 413.971 1043.46 413.973C1036.79 413.973 1030.21 413.786 1023.75 413.405C1000.15 412.016 978.306 408.113 958.82 401.804C937.558 394.92 919.066 385.142 903.849 372.739C902.49 371.628 901.134 370.478 899.822 369.323C876.537 348.83 862.918 324.924 849.75 301.805C846.914 296.826 843.979 291.675 841.011 286.675C824.12 258.157 804.642 233.26 781.471 210.559C778.587 207.735 775.601 204.906 772.596 202.148C717.684 151.761 641.926 109.295 553.517 79.3391C450.335 44.4587 340.821 28.4174 245.146 34.1674C179.739 38.176 112.856 61.4795 82.4962 90.8345C61.8128 110.834 58.1451 133.092 71.8815 155.202L71.5371 155.279C64.3446 143.702 61.8384 132.116 64.0881 120.843C66.1583 110.464 72.2479 100.329 82.1847 90.7178C97.7715 75.6452 122.456 62.1729 153.571 51.7605C182.348 42.1296 214.855 35.803 245.109 33.9494C295.266 30.9336 348.973 33.8372 404.74 42.5765C455.186 50.4838 505.306 62.7871 553.7 79.1453C642.165 109.119 717.962 151.609 772.908 202.027C775.916 204.787 778.902 207.618 781.786 210.443C804.972 233.156 824.457 258.067 841.359 286.598C844.327 291.6 847.262 296.749 850.098 301.73C863.259 324.836 876.871 348.727 900.126 369.195C901.438 370.349 902.79 371.496 904.146 372.605C969.596 425.953 1080.84 419.289 1156.21 397.375C1246.14 371.227 1314.95 323.409 1375.67 281.218C1378.38 279.329 1381.1 277.441 1383.81 275.554C1387.48 272.996 1391.15 270.44 1394.83 267.889C1429.78 243.626 1464.29 220.047 1502.24 198.32C1545.87 173.332 1587.9 154.442 1630.71 140.57C1657.35 131.965 1685.31 125.398 1713.82 121.055C1740.47 116.993 1768.48 114.739 1797.09 114.351C1847.54 113.669 1901.31 118.609 1961.46 129.451C2008.45 137.871 2063.86 148.913 2118.54 166.975C2174.89 185.64 2227.58 209.597 2278.54 232.764C2283.54 235.04 2288.54 237.31 2293.52 239.569C2411.14 293.295 2527.1 353.352 2638.15 418.069L2637.89 418.226Z" fill="white" fill-opacity="0.82"/>
<path d="M2634.01 416.152C2522.33 349.79 2408.22 288.975 2294.82 235.401C2288.04 232.196 2281.1 228.892 2274.39 225.698C2226.31 202.821 2176.6 179.165 2122.61 161.491C2068.69 143.904 2012.84 134.667 1965.31 127.953C1838.81 109.909 1735.2 116.271 1639.26 147.974C1547.75 178.324 1476.05 223.963 1406.72 268.098L1399.11 272.943C1393.09 276.771 1386.88 280.727 1380.75 284.608C1311.34 328.49 1241.86 369.617 1155.13 390.653C1134.09 395.758 1112.48 399.296 1090.9 401.174C1067.72 403.188 1045.21 403.217 1023.98 401.257C1000.93 399.129 979.579 394.658 960.526 387.968C939.791 380.688 921.669 370.731 906.668 358.377C905.316 357.259 903.971 356.108 902.671 354.954C879.672 334.583 865.562 311.028 851.917 288.249C848.872 283.166 845.721 277.909 842.541 272.804C824.865 244.374 804.904 219.677 781.513 197.302C778.589 194.507 775.559 191.7 772.506 188.964C716.821 139.024 640.466 97.1167 551.694 67.7705C447.782 33.5219 337.961 18.2358 242.451 24.7319C177.641 29.2337 111.062 52.7001 80.5483 81.7997C59.5205 101.85 55.1274 124.193 67.8415 146.416L67.4934 146.489C60.8396 134.861 58.7841 123.231 61.3819 111.925C63.7781 101.502 70.1205 91.3272 80.2332 81.6853C95.9885 66.6633 120.585 53.2042 151.37 42.761C179.862 33.0949 212.193 26.6163 242.407 24.5162C292.505 21.1085 346.267 23.6203 402.209 31.981C452.78 39.5404 503.131 51.5157 551.866 67.579C640.689 96.9406 717.088 138.874 772.807 188.843C775.859 191.581 778.893 194.39 781.817 197.186C805.222 219.571 825.195 244.281 842.878 272.727C846.058 277.832 849.209 283.091 852.254 288.174C865.891 310.94 879.994 334.484 902.968 354.831C904.265 355.98 905.609 357.129 906.958 358.247C970.833 410.853 1076.96 409.376 1154.99 390.451C1241.65 369.432 1311.1 328.32 1380.47 284.458C1386.6 280.577 1392.82 276.621 1398.83 272.793L1406.45 267.948C1440.48 246.285 1475.67 223.881 1513.89 203.041C1557.18 179.438 1598.13 161.363 1639.08 147.781C1665.44 139.068 1693.01 132.178 1721 127.304C1747.32 122.721 1774.9 119.766 1802.97 118.523C1853.21 116.297 1906.33 119.313 1965.39 127.737C2012.94 134.456 2068.82 143.695 2122.78 161.297C2176.8 178.978 2226.52 202.641 2274.61 225.524C2281.32 228.718 2288.26 232.02 2295.05 235.227C2408.45 288.806 2522.58 349.625 2634.26 415.993L2634.01 416.152Z" fill="white" fill-opacity="0.82"/>
<path d="M2630.12 414.078C2519.41 346.979 2407.11 285.403 2296.35 231.062C2288.02 226.979 2279.49 222.733 2271.24 218.627C2225.76 195.997 2178.73 172.597 2126.85 155.82C2073.18 138.535 2017.08 131.172 1969.27 126.25C1846.28 113.392 1744.07 122.589 1647.63 155.191C1563.47 183.762 1494.37 224.254 1427.54 263.411C1420.51 267.532 1413.24 271.792 1406.15 275.919C1397.83 280.767 1391.47 284.45 1385.54 287.857C1353.77 306.098 1315.94 327.101 1276.25 344.571C1234.18 363.082 1194.16 375.894 1153.89 383.739C1132.71 387.865 1111.2 390.467 1089.93 391.47C1067.09 392.549 1044.98 391.757 1024.21 389.113C1001.71 386.249 980.855 381.21 962.224 374.137C942.02 366.467 924.275 356.332 909.48 344.018C908.146 342.902 906.809 341.748 905.512 340.591C882.817 320.356 868.234 297.165 854.128 274.737C850.856 269.535 847.474 264.158 844.062 258.934C825.592 230.583 805.143 206.088 781.543 184.046C778.575 181.275 775.501 178.494 772.405 175.78C715.946 126.287 638.991 84.9391 549.86 56.2027C445.226 22.5837 335.097 8.05701 239.755 15.295C185.506 19.504 114.651 38.8935 78.6481 72.7194C57.2429 92.831 52.1059 115.276 63.7978 137.626L63.4497 137.692C57.3345 126.005 55.7369 114.325 58.6975 102.975C61.4308 92.4986 68.0371 82.2799 78.3403 72.6006C94.2641 57.6402 118.769 44.2032 149.214 33.7379C177.419 24.0432 209.556 17.4171 239.711 15.0771C289.751 11.2776 343.572 13.3975 399.682 21.3796C450.374 28.5912 500.96 40.2407 550.032 56.009C639.214 84.7608 716.214 126.133 772.706 175.655C775.802 178.369 778.88 181.153 781.847 183.927C805.458 205.98 825.918 230.488 844.4 258.852C847.814 264.078 851.196 269.456 854.468 274.658C868.564 297.074 883.143 320.252 905.812 340.465C907.109 341.621 908.443 342.772 909.777 343.886C962.916 388.12 1054.13 402.939 1153.78 383.526C1244.01 365.946 1317.62 326.544 1385.29 287.694C1391.22 284.287 1397.57 280.604 1405.89 275.756C1412.98 271.629 1420.25 267.369 1427.28 263.248C1460.18 243.971 1494.2 224.038 1530.48 205.373C1571.51 184.264 1609.78 167.785 1647.45 154.995C1673.57 146.167 1700.73 138.954 1728.19 133.556C1754.2 128.442 1781.35 124.79 1808.87 122.697C1858.97 118.888 1911.47 119.978 1969.34 126.027C2017.17 130.954 2073.31 138.32 2127.02 155.62C2178.93 172.408 2225.97 195.814 2271.47 218.451C2279.72 222.556 2288.26 226.803 2296.58 230.886C2407.35 285.233 2519.66 346.814 2630.38 413.918L2630.12 414.078Z" fill="white" fill-opacity="0.82"/>
<path d="M2626.24 412.005C2516.48 344.164 2406.01 281.824 2297.87 226.722C2288.67 222.035 2279.23 217.115 2270.09 212.358C2226.56 189.697 2181.56 166.266 2131.09 150.146C2077.39 133.068 2021.16 127.619 1973.23 124.542C1855.81 116.8 1752.04 129.184 1656 162.403C1579.53 188.973 1513.98 224.518 1450.58 258.895C1437.78 265.838 1424.54 273.018 1411.67 279.862C1403.79 284.052 1396.82 287.73 1390.33 291.107C1360.17 306.794 1320.06 326.907 1277.19 343.345C1234.11 359.859 1193.37 370.811 1152.64 376.823C1108.21 383.381 1063.87 383.429 1024.42 376.966C1002.48 373.371 982.126 367.767 963.912 360.306C944.248 352.252 926.88 341.94 912.286 329.663C910.964 328.545 909.637 327.389 908.348 326.232C885.975 306.151 870.938 283.341 856.399 261.283C852.882 255.947 849.247 250.43 845.579 245.07C826.299 216.794 805.363 192.497 781.572 170.797C778.561 168.049 775.442 165.293 772.302 162.603C715.07 113.557 637.518 72.7661 548.028 44.6438C442.672 11.6566 332.235 -2.11282 237.058 5.86707C172.557 11.3925 108.154 34.5947 76.805 63.5997C54.9894 83.7838 49.094 106.345 59.7563 128.845L59.4046 128.905C53.8316 117.147 52.6957 105.405 56.0263 94.0069C59.1041 83.4712 65.9925 73.1997 76.4973 63.4786C92.5896 48.5886 116.999 35.1824 147.088 24.7084C174.997 14.9939 206.933 8.22252 237.007 5.64694C286.988 1.45557 340.867 3.18582 397.15 10.7871C447.967 17.6509 498.787 28.9746 548.196 44.4457C637.738 72.5856 715.334 113.399 772.603 162.475C775.743 165.165 778.861 167.924 781.876 170.673C805.678 192.387 826.625 216.695 845.916 244.984C849.584 250.344 853.219 255.863 856.736 261.199C871.268 283.246 886.297 306.045 908.648 326.106C909.938 327.264 911.26 328.415 912.583 329.534C964.81 373.481 1054.52 391.079 1152.55 376.609C1241.92 363.417 1319.54 327.638 1390.09 290.942C1396.57 287.565 1403.55 283.889 1411.42 279.699C1424.29 272.855 1437.53 265.677 1450.33 258.734C1513.74 224.351 1579.31 188.797 1655.82 162.216C1681.7 153.263 1708.46 145.728 1735.37 139.815C1761.1 134.162 1787.81 129.81 1814.75 126.88C1864.84 121.431 1916.7 120.597 1973.27 124.326C2021.22 127.406 2077.5 132.856 2131.26 149.954C2181.76 166.086 2226.78 189.526 2270.33 212.195C2279.46 216.952 2288.91 221.87 2298.11 226.557C2406.25 281.663 2516.74 344.007 2626.5 411.853L2626.24 412.005Z" fill="white" fill-opacity="0.82"/>
<path d="M2622.35 409.931C2513.58 341.341 2404.92 278.242 2299.4 222.383C2289.71 217.249 2279.73 211.814 2270.09 206.557C2228.15 183.705 2184.78 160.074 2135.33 144.473C2081.41 127.54 2025.13 124.033 1977.19 122.836C1864.21 119.806 1761.88 135.108 1664.38 169.616C1595.99 193.932 1535.04 224.707 1476.08 254.467C1455.81 264.701 1436.66 274.368 1417.19 283.805C1409.27 287.646 1402.05 291.098 1395.13 294.354C1350.45 315.343 1313.27 330.52 1278.13 342.112C1234.05 356.656 1192.6 365.748 1151.4 369.904C1135.42 371.515 1119.49 372.319 1103.86 372.319C1076.14 372.319 1049.33 369.8 1024.64 364.812C979.958 355.784 943.105 339.127 915.101 315.302C913.782 314.172 912.467 313.017 911.192 311.863C889.16 291.956 873.701 269.551 858.752 247.881C854.963 242.391 851.05 236.716 847.104 231.197C827 202.987 805.572 178.893 781.61 157.538C778.554 154.815 775.392 152.083 772.208 149.417C714.203 100.818 636.049 60.5858 546.2 33.0733C440.123 0.72008 329.381 -12.2943 234.37 -3.57255C169.601 2.49657 107.056 25.2585 75.0358 54.4176C52.7769 74.6854 46.101 97.3813 55.7228 120.053L55.3674 120.108C50.344 108.269 49.6771 96.4567 53.3888 84.9987C56.8256 74.3926 64.0035 64.0639 74.7317 54.2965C90.9927 39.488 115.296 26.1259 145.019 15.6518C172.627 5.92188 204.339 -0.981555 234.315 -3.79048C284.237 -8.37369 338.175 -7.03526 394.627 0.187362C445.567 6.70556 496.618 17.7035 546.368 32.8752C636.269 60.4053 714.466 100.659 772.508 149.287C775.692 151.955 778.854 154.687 781.914 157.412C805.891 178.778 827.329 202.885 847.441 231.107C851.387 236.625 855.304 242.303 859.089 247.793C874.031 269.452 889.482 291.849 911.496 311.738C912.771 312.889 914.082 314.045 915.401 315.172C967.694 359.665 1053.69 379.535 1151.34 369.684C1244.29 360.306 1326.62 326.253 1394.9 294.178C1401.82 290.922 1409.04 287.472 1416.96 283.631C1436.43 274.194 1455.58 264.53 1475.85 254.296C1534.81 224.529 1595.78 193.75 1664.19 169.425C1689.88 160.333 1716.24 152.474 1742.56 146.064C1768.05 139.856 1794.32 134.804 1820.64 131.051C1870.84 123.894 1922.06 121.134 1977.21 122.613C2025.19 123.811 2081.51 127.322 2135.5 144.274C2184.99 159.886 2228.37 183.529 2270.33 206.39C2279.98 211.647 2289.95 217.082 2299.64 222.213C2405.16 278.077 2513.83 341.183 2622.61 409.777L2622.35 409.931Z" fill="white" fill-opacity="0.82"/>
<path d="M2618.47 407.857C2509.15 337.538 2405.28 275.449 2300.93 218.042C2290.97 212.565 2281.17 206.971 2270.79 201.05C2230.22 177.9 2188.26 153.965 2139.58 138.8C2084.98 121.874 2026.23 120.465 1981.15 121.13C1873.31 122.512 1772.43 140.733 1672.75 176.833C1612.94 198.597 1557.72 224.734 1504.32 250.012C1476.25 263.297 1449.74 275.843 1422.71 287.75C1414.68 291.287 1407.23 294.51 1399.92 297.603C1354.63 316.746 1316.23 330.495 1279.07 340.877C1233.97 353.478 1191.8 360.709 1150.15 362.985C1128.75 364.154 1107.5 363.934 1086.99 362.331C1065.27 360.634 1044.36 357.378 1024.85 352.656C981.602 342.189 945.625 324.792 917.914 300.945C916.606 299.813 915.302 298.655 914.034 297.502C892.372 277.8 876.525 255.821 861.199 234.567C857.11 228.897 852.882 223.032 848.628 217.331C827.68 189.182 805.77 165.289 781.642 144.286C778.539 141.587 775.333 138.879 772.112 136.237C713.334 88.0851 634.583 48.4124 544.375 21.5097C461.113 -3.21805 375.251 -16.1202 296.514 -16.1202C274.255 -16.1202 252.583 -15.0899 231.679 -13.0052C167.691 -6.49805 105.538 16.3454 73.3314 45.1918C50.5998 65.5543 43.1142 88.4043 51.6844 111.27L51.3253 111.318C46.8515 99.3868 46.6646 87.4929 50.7684 75.9689C54.5716 65.2857 62.0609 54.8888 73.0236 45.0686C89.4531 30.3525 113.643 17.0454 142.984 6.58236C170.681 -3.29509 201.33 -10.1435 231.614 -13.221C281.477 -18.196 335.474 -17.2472 392.098 -10.4054C443.16 -4.23727 494.449 6.43267 544.536 21.3094C634.795 48.2275 713.594 87.9222 772.409 136.103C775.633 138.745 778.843 141.455 781.946 144.156C806.085 165.17 828.007 189.074 848.965 217.236C853.219 222.938 857.451 228.802 861.54 234.475C876.859 255.72 892.698 277.69 914.342 297.376C915.61 298.527 916.914 299.685 918.218 300.815C970.039 345.407 1054.56 367.984 1150.12 362.763C1246.82 357.477 1334.3 325.065 1399.71 297.418C1407.02 294.325 1414.47 291.102 1422.5 287.567C1449.53 275.664 1476.03 263.117 1504.1 249.834C1557.51 224.553 1612.73 198.41 1672.56 176.639C1723.89 158.053 1774.25 144.508 1826.53 135.227C1876.96 126.276 1927.54 121.592 1981.15 120.905C2011.74 120.454 2036.69 121.237 2059.69 123.368C2089.38 126.12 2115.57 131.102 2139.75 138.599C2188.48 153.778 2230.46 177.726 2271.05 200.887C2281.43 206.808 2291.23 212.4 2301.18 217.877C2405.54 275.286 2509.42 337.379 2618.74 407.703L2618.47 407.857Z" fill="white" fill-opacity="0.82"/>
<path d="M2614.58 405.784C2506.26 334.693 2404.17 271.865 2302.45 213.701C2292.39 207.946 2282.47 202.018 2271.97 195.742C2232.61 172.227 2191.91 147.909 2143.82 133.125C2088.77 116.278 2030.08 116.951 1985.11 119.419C1883.34 124.81 1783.91 145.95 1681.12 184.042C1630.48 202.901 1582.26 224.483 1535.62 245.356C1498.76 261.855 1463.95 277.441 1428.23 291.686C1420.16 294.908 1412.24 297.99 1404.71 300.843C1359.33 318.023 1318.54 330.709 1280.01 339.629C1233.87 350.31 1190.98 355.685 1148.91 356.06C1127.5 356.249 1106.33 355.087 1086.01 352.601C1064.7 349.995 1044.2 345.92 1025.06 340.487C983.299 328.629 948.194 310.492 920.725 286.579C919.435 285.449 918.138 284.289 916.874 283.129C895.619 263.667 879.428 242.153 863.768 221.348C859.338 215.462 854.754 209.373 850.149 203.453C828.344 175.358 805.946 151.667 781.675 131.022C778.528 128.348 775.278 125.664 772.013 123.047C712.462 75.3415 633.11 36.2279 542.543 9.93499C435.026 -21.1481 323.665 -32.6479 228.983 -22.4468C165.823 -15.5236 104.084 7.37923 71.6977 35.8977C48.4531 56.3681 40.1358 79.3898 47.6398 102.478L47.2807 102.519C43.3675 90.4846 43.668 78.4982 48.1784 66.8949C52.3663 56.1237 60.1744 45.6519 71.3936 35.7722C87.9843 21.1619 112.053 7.92077 140.999 -2.52023C168.377 -12.3955 198.777 -19.3606 228.917 -22.6648C278.726 -28.0295 332.778 -27.4747 389.57 -21.0116C440.756 -15.1868 492.276 -4.84266 542.7 9.73468C633.323 36.0408 712.718 75.1786 772.303 122.913C775.571 125.53 778.825 128.216 781.972 130.893C806.257 151.548 828.663 175.25 850.478 203.357C855.088 209.276 859.668 215.365 864.101 221.254C879.754 242.05 895.938 263.555 917.178 283.004C918.442 284.161 919.739 285.322 921.025 286.449C973.392 332.034 1054.32 356.681 1148.9 355.835C1225.64 355.153 1306.87 337.617 1404.52 300.652C1412.04 297.799 1419.95 294.719 1428.02 291.496C1463.73 277.254 1498.54 261.672 1535.4 245.173C1582.04 224.298 1630.27 202.712 1680.93 183.848C1732.75 164.641 1782.3 150.104 1832.41 139.399C1883.18 128.555 1933.12 121.944 1985.08 119.192C2030.1 116.72 2088.85 116.049 2143.99 132.922C2192.13 147.724 2232.85 172.053 2272.23 195.579C2282.73 201.855 2292.65 207.781 2302.71 213.533C2404.43 271.7 2506.53 334.533 2614.85 405.628L2614.58 405.784Z" fill="white" fill-opacity="0.82"/>
<path d="M2610.7 403.71C2503.39 331.847 2403.07 268.274 2303.98 209.362C2293.93 203.381 2283.99 197.166 2273.48 190.586C2235.24 166.651 2195.69 141.901 2148.07 127.452C2092.5 110.666 2033.91 113.429 1989.08 117.711C1893.32 126.681 1798.13 150.051 1689.5 191.256C1648.75 206.78 1608.93 223.809 1570.43 240.277C1523.66 260.279 1479.49 279.173 1433.75 295.628C1425.51 298.596 1417.35 301.444 1409.51 304.09C1363.32 319.663 1321.26 330.881 1280.95 338.383C1258.37 342.585 1236.08 345.63 1214.69 347.433C1191.88 349.354 1169.33 349.929 1147.66 349.141C1103.7 347.54 1062.52 340.536 1025.28 328.323C985.061 315.132 950.832 296.258 923.546 272.219C922.263 271.081 920.977 269.919 919.721 268.765C898.92 249.589 882.439 228.586 866.504 208.276C861.679 202.128 856.692 195.771 851.676 189.585C828.992 161.535 806.107 138.045 781.712 117.768C778.52 115.115 775.223 112.456 771.918 109.865C711.593 62.6044 631.644 24.05 540.718 -1.62877C432.483 -32.0756 320.818 -42.8182 226.293 -31.8797C125.082 -19.9858 26.4575 31.4047 43.6052 93.6918L43.2424 93.7271C38.9519 78.1459 41.4654 62.7959 50.7097 48.0997C59.1516 34.6781 73.0053 22.0467 91.886 10.5601C109.44 -0.120845 130.501 -9.3423 154.478 -16.8489C177.283 -23.9879 202.092 -29.2623 226.22 -32.0976C275.97 -37.8542 330.08 -37.6891 387.045 -31.6045C438.356 -26.1254 490.11 -16.107 540.872 -1.82689C631.849 23.8695 711.846 62.4459 772.207 109.733C775.516 112.326 778.813 114.985 782.008 117.64C806.414 137.926 829.311 161.43 852.006 189.49C857.022 195.676 862.009 202.033 866.834 208.184C882.765 228.487 899.239 249.481 920.028 268.646C921.281 269.8 922.564 270.962 923.846 272.098C976.289 318.295 1055.78 345.577 1147.69 348.923C1225.49 351.752 1311.07 337.027 1409.33 303.901C1417.17 301.255 1425.32 298.409 1433.56 295.441C1479.29 278.99 1523.46 260.098 1570.22 240.099C1608.73 223.629 1648.55 206.597 1689.3 191.071C1797.98 149.848 1893.21 126.47 1989.02 117.493C2019.14 114.616 2044.08 113.695 2067.52 114.6C2097.47 115.756 2123.87 119.895 2148.23 127.254C2195.9 141.719 2235.47 166.484 2273.74 190.432C2284.25 197.01 2294.18 203.224 2304.24 209.203C2403.33 268.12 2503.66 331.695 2610.96 403.563L2610.7 403.71Z" fill="white" fill-opacity="0.82"/>
<path d="M2606.81 401.636C2500.53 328.989 2401.97 264.677 2305.51 205.02C2295.53 198.848 2285.67 192.382 2275.23 185.534C2238.02 161.141 2199.54 135.916 2152.31 121.776C2095.53 104.85 2034.22 110.373 1993.04 116C1881.27 131.084 1781.11 166.151 1697.87 198.469C1667.96 210.132 1638.12 222.486 1609.25 234.433C1551.36 258.399 1496.68 281.035 1439.28 299.571C1430.83 302.298 1422.44 304.911 1414.31 307.339C1367.22 321.382 1323.9 331.129 1281.9 337.134C1234.28 343.943 1188.7 345.656 1146.43 342.222C1102.99 338.693 1062.31 329.923 1025.51 316.153C986.905 301.712 953.552 282.101 926.365 257.862C925.097 256.723 923.818 255.559 922.569 254.401C902.285 235.577 885.599 215.151 869.459 195.396C864.171 188.922 858.701 182.23 853.205 175.716C829.297 147.314 806.591 124.691 781.753 104.513C778.518 101.885 775.18 99.2522 771.827 96.6832C710.722 49.8715 630.172 11.8762 538.887 -13.195C429.933 -43.0034 317.961 -52.9909 223.598 -41.315C122.024 -28.5802 25.4144 22.1125 39.5648 84.906L39.2021 84.9346C35.6919 69.3557 38.7294 54.021 48.2266 39.3579C56.9323 25.923 70.8665 13.2785 89.6483 1.77863C107.162 -8.94634 128.113 -18.236 151.922 -25.8373C174.591 -33.0753 199.353 -38.5017 223.524 -41.5329C273.22 -47.6813 327.385 -47.9058 384.518 -42.2021C435.953 -37.0686 487.942 -27.376 539.041 -13.3953C630.381 11.6891 710.975 49.7064 772.109 96.5467C775.462 99.1179 778.803 101.753 782.042 104.381C806.895 124.568 829.609 147.204 853.527 175.617C859.023 182.131 864.494 188.825 869.781 195.299C885.917 215.048 902.6 235.467 922.869 254.282C924.119 255.44 925.394 256.602 926.661 257.741C979.511 304.858 1057.57 334.783 1146.47 342.004C1226.2 348.48 1313.75 337.075 1414.14 307.141C1422.27 304.715 1430.67 302.104 1439.1 299.377C1496.49 280.846 1551.16 258.214 1609.05 234.25C1637.91 222.303 1667.75 209.947 1697.67 198.282C1753.64 176.553 1800.2 160.498 1844.2 147.759C1895.98 132.763 1944.64 122.305 1992.95 115.784C2022.41 111.76 2048.08 109.938 2071.43 110.215C2101.51 110.572 2128.02 114.287 2152.47 121.578C2199.77 135.735 2238.26 160.976 2275.49 185.384C2285.94 192.231 2295.8 198.696 2305.77 204.864C2402.24 264.523 2500.8 328.84 2607.09 401.489L2606.81 401.636Z" fill="white" fill-opacity="0.82"/>
<path d="M2602.93 399.56C2497.67 326.128 2400.88 261.073 2307.04 200.677C2297.2 194.344 2287.46 187.654 2277.15 180.57C2240.92 155.686 2203.47 129.955 2156.56 116.101C2099.16 99.2149 2038.01 106.979 1997 114.29C1895.74 132.189 1805.41 166.27 1706.25 205.681C1688.36 212.816 1670.27 220.179 1652.78 227.303C1585.49 254.696 1515.92 283.021 1444.8 303.511C1436.16 306.003 1427.51 308.383 1419.1 310.584C1371.69 322.982 1325.85 331.492 1282.84 335.88C1234.12 340.85 1187.81 340.654 1145.18 335.301C1102.35 329.923 1062.16 319.385 1025.72 303.98C988.84 288.39 956.355 268.043 929.167 243.505C927.911 242.364 926.643 241.198 925.401 240.04C905.729 221.656 888.937 201.895 872.698 182.785C866.846 175.899 860.797 168.78 854.718 161.852C829.876 133.479 806.698 111.049 781.775 91.2637C778.503 88.6661 775.117 86.0552 771.717 83.5061C709.85 37.1347 628.707 -0.301466 537.055 -24.7607C427.387 -53.9307 315.11 -63.161 220.901 -50.7498C122.551 -37.6518 24.1575 11.2622 35.5197 76.1184L35.1569 76.1404C32.4272 60.5614 35.9887 45.2444 45.7386 30.6143C54.7045 17.164 68.723 4.50847 87.4022 -7.00458C121.866 -28.2432 170.495 -44.2668 220.82 -50.9677C270.457 -57.5057 324.681 -58.1221 381.986 -52.7992C433.546 -48.0091 485.766 -38.6446 537.201 -24.9632C628.905 -0.490779 710.096 36.9696 772.003 83.363C775.407 85.9144 778.792 88.5252 782.068 91.125C807.002 110.922 830.191 133.36 855.041 161.744C861.119 168.674 867.172 175.793 873.024 182.679C889.259 201.785 906.047 221.542 925.709 239.916C926.947 241.074 928.215 242.239 929.472 243.379C983.864 292.474 1058.48 324.184 1145.25 335.083C1225.59 345.174 1317.67 336.864 1418.95 310.382C1427.35 308.18 1435.99 305.803 1444.63 303.313C1515.73 282.829 1585.29 254.509 1652.56 227.12C1670.06 219.996 1688.15 212.633 1706.04 205.498C1749.44 188.246 1799.95 168.458 1850.08 151.937C1902.52 134.657 1950.54 122.274 1996.89 114.081C2026.07 108.879 2051.74 106.18 2075.35 105.832C2105.12 105.392 2132.49 108.782 2156.71 115.906C2177.72 122.111 2198.87 131.372 2221.37 144.219C2241.23 155.563 2259.63 168.203 2277.42 180.425C2287.72 187.507 2297.46 194.197 2307.3 200.528C2401.15 260.926 2497.94 325.982 2603.2 399.417L2602.93 399.56Z" fill="white" fill-opacity="0.82"/>
<path d="M2599.04 397.486C2494.82 323.261 2399.8 257.465 2308.57 196.338C2298.9 189.866 2289.33 182.974 2279.2 175.678C2243.92 150.277 2207.44 124.011 2160.8 110.43C2117.22 97.7792 2064.93 98.4837 2000.96 112.583C1911.51 132.186 1831.56 164.975 1746.9 199.693C1736.36 204.016 1725.47 208.485 1714.62 212.899C1710.37 214.631 1706.12 216.368 1701.88 218.103C1621.22 251.055 1537.81 285.129 1450.32 307.455C1441.48 309.714 1432.59 311.86 1423.9 313.833C1375.45 324.824 1328.31 331.82 1283.8 334.625C1233.96 337.764 1186.9 335.664 1143.94 328.382C1101.78 321.234 1062.09 308.928 1025.96 291.806C990.936 275.21 959.323 254.13 931.993 229.147C930.747 228.004 929.491 226.836 928.256 225.675C909.331 207.869 892.594 188.904 876.402 170.565C869.848 163.137 863.065 155.457 856.254 147.981C830.452 119.628 806.804 97.3918 781.823 78.0067C778.503 75.4311 775.078 72.8468 771.633 70.3218C708.982 24.3995 627.238 -12.4797 535.227 -36.327C424.848 -64.8564 312.26 -73.3316 218.208 -60.1852C121.665 -46.5787 23.4106 2.73597 31.4824 67.3324L31.116 67.35C29.1704 51.7688 33.2521 36.4694 43.2549 21.8767C52.4846 8.41105 66.5837 -4.25992 85.164 -15.7818C119.481 -37.0644 167.942 -53.3258 218.124 -60.3987C267.706 -67.3286 321.984 -68.3368 379.458 -63.3926C431.143 -58.9502 483.601 -49.9115 535.374 -36.5295C627.436 -12.6669 709.231 24.2322 771.908 70.1787C775.352 72.7037 778.786 75.2924 782.105 77.868C807.097 97.2641 830.76 119.507 856.569 147.871C863.384 155.347 870.163 163.029 876.721 170.457C892.905 188.792 909.643 207.752 928.56 225.552C929.795 226.712 931.048 227.879 932.293 229.021C987.866 279.82 1061.08 314.101 1144.04 328.164C1225.92 342.045 1320.04 337.152 1423.77 313.621C1432.45 311.649 1441.33 309.505 1450.17 307.249C1537.64 284.931 1621.03 250.863 1701.67 217.916C1705.92 216.179 1710.17 214.444 1714.41 212.712C1725.26 208.298 1736.15 203.829 1746.7 199.508C1831.37 164.784 1911.35 131.986 2000.83 112.374C2029.73 106.003 2055.39 102.431 2079.27 101.447C2109.16 100.216 2136.64 103.173 2160.96 110.23C2181.85 116.312 2202.73 125.615 2224.81 138.671C2244.28 150.191 2262.18 163.076 2279.49 175.535C2289.62 182.828 2299.18 189.719 2308.84 196.188C2400.08 257.318 2495.1 323.116 2599.33 397.343L2599.04 397.486Z" fill="white" fill-opacity="0.82"/>
<path d="M2595.16 395.413C2500.03 326.247 2404.12 257.807 2310.09 191.997C2300.52 185.336 2291.03 178.179 2280.99 170.605C2248.33 145.963 2211.3 118.034 2165.05 104.758C2120.95 92.1287 2068.58 94.1297 2004.92 110.873C1929.23 130.716 1862.24 159.893 1791.33 190.782C1769.12 200.455 1746.15 210.46 1722.99 220.111C1682.56 236.993 1638.82 254.857 1592.97 271.127C1543.87 288.553 1499.01 301.724 1455.83 311.396C1446.76 313.428 1437.63 315.341 1428.68 317.078C1379.2 326.682 1330.78 332.148 1284.77 333.324C1233.83 334.623 1186.03 330.634 1142.69 321.459C1062.66 304.306 992.713 268.417 934.795 214.788C933.561 213.643 932.315 212.472 931.087 211.312C913.123 194.291 896.678 176.335 880.777 158.968C873.291 150.795 865.553 142.341 857.767 134.115C830.983 105.768 806.859 83.7283 781.848 64.7549C778.481 62.2013 775.011 59.6411 771.526 57.1426C708.113 11.6627 625.768 -24.6551 533.398 -47.8926C422.305 -75.7837 309.412 -83.4994 215.515 -69.6199C118.385 -55.1812 22.5928 -6.52042 27.4403 58.5471L27.0739 58.5559C25.9124 42.9703 30.5217 27.6886 40.77 13.1332C50.2672 -0.350028 64.4469 -13.0342 82.9209 -24.5649C100.325 -35.4285 120.953 -44.9274 144.231 -52.7994C166.831 -60.4403 190.782 -66.1726 215.423 -69.8356C264.95 -77.1551 319.287 -78.5552 376.929 -73.9918C428.739 -69.8907 481.427 -61.1799 533.537 -48.0973C625.962 -24.8467 708.355 11.4932 771.805 56.9951C775.289 59.4959 778.766 62.0582 782.134 64.6118C807.155 83.5962 831.29 105.645 858.085 134.001C865.871 142.229 873.61 150.682 881.095 158.858C896.997 176.222 913.438 194.177 931.395 211.191C932.619 212.353 933.868 213.522 935.099 214.667C992.973 268.254 1062.86 304.114 1142.81 321.25C1225.17 338.684 1323.98 337.17 1428.57 316.867C1437.51 315.13 1446.64 313.219 1455.7 311.189C1552.25 289.566 1640.58 254.249 1722.78 219.928C1745.94 210.277 1768.9 200.274 1791.11 190.602C1862.04 159.706 1929.04 130.522 2004.77 110.671C2068.52 93.9007 2121 91.8997 2165.2 104.557C2185.92 110.503 2206.49 119.824 2228.09 133.047C2247.13 144.708 2264.49 157.804 2281.28 170.466C2291.32 178.041 2300.8 185.195 2310.37 191.852C2404.4 257.664 2500.31 326.104 2595.44 395.272L2595.16 395.413Z" fill="white" fill-opacity="0.82"/>
<path d="M2591.27 393.339C2497.6 323.79 2403.51 254.588 2311.62 187.656C2302.35 180.923 2293.15 173.64 2283.4 165.931C2251.54 140.715 2215.42 112.133 2169.29 99.0808C2124.67 86.4736 2072.19 89.7713 2008.87 109.159C1942.53 129.442 1881.57 158.081 1822.63 185.781C1793.07 199.669 1762.5 214.031 1731.36 227.32C1682.2 248.317 1640.84 264.334 1601.2 277.729C1552.31 294.246 1506.56 306.547 1461.35 315.335C1452.07 317.14 1442.69 318.817 1433.47 320.321C1385.46 328.151 1338.31 332.113 1293.21 332.116C1290.7 332.116 1288.21 332.102 1285.72 332.078C1233.57 331.567 1185.03 325.663 1141.44 314.533C1120.41 309.131 1099.8 302.274 1080.21 294.151C1061.8 286.517 1043.7 277.524 1026.42 267.425C995.342 249.255 966.286 227.338 937.604 200.426C936.373 199.269 935.146 198.108 933.925 196.944C917.283 181.066 901.539 164.467 886.315 148.415C877.525 139.15 868.438 129.567 859.286 120.24C831.106 91.5037 807.234 70.3003 781.876 51.4942C778.465 48.9649 774.951 46.4289 771.422 43.9546C707.24 -1.07399 624.297 -36.8327 531.568 -59.4604C419.764 -86.7109 306.564 -93.6693 212.82 -79.0568C117.512 -64.158 21.8439 -15.1274 23.4011 49.7574L23.0347 49.7596C22.3093 19.5372 42.2452 -9.20138 80.6845 -33.348C98.0593 -44.2623 118.578 -53.8293 141.676 -61.7894C164.151 -69.5337 188.055 -75.4158 212.729 -79.2725C262.196 -86.9838 316.593 -88.7735 374.404 -84.591C426.337 -80.8333 479.261 -72.4483 531.704 -59.6673C624.491 -37.0242 707.482 -1.2435 771.704 43.8115C775.233 46.288 778.754 48.8262 782.165 51.3555C807.535 70.1727 831.417 91.3826 859.604 120.13C868.757 129.459 877.848 139.042 886.634 148.307C901.858 164.357 917.599 180.953 934.237 196.827C935.457 197.992 936.681 199.152 937.912 200.308C998.859 257.494 1065.48 294.792 1141.59 314.331C1247 341.249 1358.45 332.331 1433.38 320.109C1442.59 318.606 1451.96 316.931 1461.24 315.126C1565.22 294.913 1660.1 257.488 1731.15 227.142C1762.29 213.857 1792.85 199.495 1822.4 185.609C1881.36 157.905 1942.33 129.257 2008.71 108.965C2037.04 100.289 2062.69 94.9621 2087.1 92.6815C2117.21 89.8681 2144.92 91.955 2169.44 98.8849C2190.1 104.729 2210.47 114.125 2231.72 127.606C2250.44 139.484 2267.35 152.862 2283.7 165.801C2293.44 173.508 2302.63 180.788 2311.9 187.518C2403.79 254.45 2497.88 323.651 2591.56 393.201L2591.27 393.339Z" fill="white" fill-opacity="0.82"/>
<path d="M2587.39 391.266L2313.15 183.317C2304.19 176.526 2295.3 169.136 2285.88 161.315C2254.81 135.502 2219.58 106.246 2173.53 93.41C2129 80.9988 2074.94 85.7228 2012.83 107.452C1953.13 128.341 1898.68 156.12 1846.02 182.985C1811.7 200.497 1776.2 218.603 1739.74 234.538C1630.13 282.435 1534.34 310.725 1438.28 323.57C1398.43 328.897 1359.11 331.578 1320.99 331.578C1309.43 331.578 1297.99 331.332 1286.68 330.839C1233.3 328.514 1184.02 320.699 1140.21 307.614C1099.6 295.485 1062.46 278.363 1026.66 255.266C998.072 236.823 970.669 214.836 940.423 186.071C924.458 170.891 909 155.118 894.051 139.865C860.217 105.348 825.233 69.6552 781.921 38.2419C715.485 -9.93899 628.281 -47.723 529.737 -71.0264C417.226 -97.6342 303.718 -103.838 210.128 -88.4919C119.517 -73.635 21.1706 -26.7859 19.3605 40.9716L18.9941 40.9672C19.8039 10.6811 40.3627 -18.0532 78.4466 -42.1293C112.881 -63.8985 159.612 -80.4394 210.033 -88.7055C259.446 -96.8064 313.9 -98.988 371.876 -95.1863C423.935 -91.7742 477.092 -83.7128 529.873 -71.2312C578.633 -59.7005 624.943 -44.5222 667.519 -26.1167C710.45 -7.55713 749.036 14.0469 782.199 38.0966C825.53 69.5209 860.525 105.222 894.366 139.748C909.315 154.999 924.773 170.77 940.734 185.948C984.863 227.919 1047.44 279.653 1140.37 307.412C1246.95 339.246 1361.15 333.65 1438.19 323.35C1534.21 310.514 1629.95 282.235 1739.52 234.356C1775.97 218.427 1811.46 200.321 1845.78 182.813C1898.45 155.944 1952.92 128.158 2012.65 107.259C2074.86 85.4917 2129.04 80.7632 2173.69 93.2074C2194.31 98.9552 2214.49 108.432 2235.4 122.184C2253.8 134.289 2270.26 147.962 2286.18 161.183C2295.59 169.004 2304.49 176.39 2313.44 183.179L2587.68 391.127L2587.39 391.266Z" fill="white" fill-opacity="0.82"/>
<path d="M2585.18 375.279C2515.35 317.379 2455.43 270.396 2396.62 227.423C2368.08 206.548 2338.92 186.001 2309.97 166.351C2301.21 160.408 2292.53 154.086 2283.35 147.391C2260.27 130.566 2236.39 113.169 2208.92 100.258C2194.18 93.3129 2179.98 88.3401 2165.52 85.0557C2121.14 74.8744 2069.07 81.6061 2010.75 105.066C1980.57 117.189 1953.09 130.985 1930.19 142.881C1905.95 155.475 1882.03 169.363 1858.9 182.793C1825.66 202.099 1791.28 222.061 1754.33 239.205C1731.84 249.668 1709.05 259.017 1686.57 266.995C1641.62 282.955 1593.36 296.106 1543.15 306.082C1512.13 312.178 1480.95 316.785 1450.5 319.775C1424.26 322.341 1397.96 323.823 1372.35 324.177C1334.01 324.71 1296.66 322.678 1261.33 318.132C1223.77 313.298 1188.22 305.582 1155.68 295.196C1126.66 285.935 1099.25 274.275 1071.88 259.546C1020.88 232.121 980.209 200.411 950.472 175.848C935.864 163.725 921.6 151.362 907.805 139.407C868.083 104.976 830.563 72.4551 783.613 43.4876C745.32 20.0168 701.63 -0.237813 653.745 -16.7171C616.947 -29.3815 576.925 -39.7388 534.793 -47.503C524.757 -49.3499 514.53 -51.0714 504.407 -52.6145C460.82 -59.2472 411.751 -63.5662 358.568 -65.4528C304.948 -67.3988 258.558 -65.7147 216.755 -60.2994C193.122 -57.2616 170.226 -52.4956 148.692 -46.1359C72.6713 -23.6822 23.8555 14.0115 18.1103 54.6969L17.6523 54.6726C19.1839 43.8266 23.6797 33.1435 31.0114 22.916C37.9767 13.2014 47.5435 3.83249 59.4442 -4.93108C81.9303 -21.4852 112.723 -35.8204 148.491 -46.3847C170.057 -52.7554 192.99 -57.5279 216.66 -60.5702C258.507 -65.9899 304.934 -67.6761 358.597 -65.7279C411.81 -63.8414 460.904 -59.5179 504.52 -52.8809C514.655 -51.3355 524.885 -49.6141 534.928 -47.7649C577.094 -39.9964 617.149 -29.6302 653.976 -16.9548C701.894 -0.464542 745.62 19.8077 783.931 43.2939C830.912 72.279 868.438 104.808 908.175 139.248C921.966 151.204 936.23 163.565 950.835 175.685C980.557 200.237 1021.21 231.932 1072.18 259.339C1099.52 274.052 1126.9 285.702 1155.88 294.952C1219.58 315.277 1292.4 325.018 1372.33 323.902C1397.93 323.548 1424.2 322.066 1450.42 319.502C1480.85 316.512 1512.01 311.909 1543 305.818C1593.19 295.848 1641.41 282.706 1686.34 266.755C1708.8 258.784 1731.58 249.439 1754.04 238.985C1790.98 221.85 1825.35 201.892 1858.58 182.593C1881.71 169.16 1905.63 155.268 1929.89 142.669C1952.8 130.767 1980.29 116.966 2010.5 104.835C2036.46 94.3894 2061.6 87.1734 2085.22 83.3848C2114.24 78.7312 2141.31 79.2067 2165.68 84.7981C2180.18 88.0935 2194.42 93.0796 2209.21 100.04C2236.72 112.971 2260.6 130.379 2283.7 147.215C2292.89 153.907 2301.56 160.23 2310.31 166.169C2339.27 185.82 2368.43 206.37 2396.98 227.25C2455.79 270.227 2515.71 317.214 2585.55 375.119L2585.18 375.279Z" fill="white" fill-opacity="0.82"/>
<path d="M2582.97 359.289C2518.22 300.409 2457.46 251.139 2397.19 208.664C2367.81 187.916 2337.39 167.972 2306.79 149.386C2298.67 144.455 2290.66 139.33 2282.17 133.906C2256.76 117.662 2230.48 100.866 2201.05 89.245C2186.19 83.352 2171.95 79.2487 2157.51 76.6995C2102.22 66.9343 2046.06 85.4344 2008.67 102.673C1982.19 114.851 1958 128.621 1933.49 142.835C1912.05 155.277 1891.87 168.661 1870.51 182.829C1838.8 203.86 1806.02 225.608 1768.92 243.868C1746.9 254.762 1723.92 264.182 1700.62 271.865C1657.22 286.178 1609.7 297.292 1555.33 305.847C1524.9 310.633 1493.75 314.042 1462.72 315.977C1436.54 317.591 1410.41 318.168 1385.04 317.686C1347.31 316.977 1310.43 313.789 1275.42 308.213C1238.65 302.355 1203.56 293.797 1171.14 282.774C1142.73 273.119 1115.3 261.14 1087.28 246.153C1036.39 218.973 992.804 188.841 960.517 165.625C948.565 157.031 936.803 148.384 925.426 140.019C880.121 106.708 837.328 75.2422 785.307 48.7335C746.428 28.9214 702.778 12.1691 655.578 -1.05658C619.865 -11.0639 582.012 -18.5617 539.861 -23.9792C530.133 -25.2274 520.237 -26.3523 510.45 -27.3231C467.464 -31.5651 421.586 -33.1699 366.08 -34.8297C326.069 -36.0866 273.692 -36.9144 223.374 -32.111C199.543 -29.8788 176.507 -26.0023 154.9 -20.5936C78.828 -1.54528 27.224 31.7303 16.8548 68.4224L16.3125 68.3674C19.0605 58.6374 24.6298 49.0946 32.8555 40.0008C40.6965 31.3363 50.9998 23.0284 63.4758 15.3016C87.1857 0.623051 118.726 -11.896 154.688 -20.8995C176.335 -26.3193 199.415 -30.2024 223.286 -32.439C273.651 -37.249 326.069 -36.4191 366.106 -35.1621C421.63 -33.5023 467.522 -31.8975 510.538 -27.6533C520.332 -26.6803 530.236 -25.5554 539.975 -24.3072C582.166 -18.8831 620.056 -11.3787 655.809 -1.36036C703.057 11.8786 746.743 28.644 785.662 48.476C837.72 75.0045 880.531 106.479 925.851 139.803C937.224 148.166 948.986 156.813 960.938 165.405C993.218 188.612 1036.79 218.733 1087.65 245.9C1115.63 260.871 1143.03 272.838 1171.41 282.482C1235.16 304.154 1307.05 315.885 1385.06 317.351C1410.4 317.831 1436.51 317.256 1462.66 315.643C1493.66 313.71 1524.79 310.305 1555.19 305.521C1609.51 296.975 1657 285.87 1700.36 271.57C1723.63 263.896 1746.58 254.489 1768.57 243.606C1805.64 225.361 1838.41 203.623 1870.11 182.602C1891.48 168.428 1911.66 155.041 1933.12 142.592C1957.63 128.37 1981.83 114.596 2008.34 102.405C2032.58 91.2284 2056.48 83.1891 2079.39 78.5046C2107.17 72.8251 2133.51 72.1097 2157.67 76.3759C2172.16 78.9361 2186.45 83.0526 2201.36 88.9632C2230.84 100.606 2257.14 117.418 2282.58 133.675C2291.06 139.097 2299.08 144.219 2307.19 149.148C2337.8 167.741 2368.22 187.692 2397.62 208.446C2457.89 250.932 2518.68 300.211 2583.43 359.104L2582.97 359.289Z" fill="white" fill-opacity="0.82"/>
<path d="M2580.76 343.299C2520.16 282.641 2460.31 232.465 2397.77 189.907C2367.53 169.286 2335.85 149.948 2303.62 132.423C2296.73 128.676 2289.63 124.7 2282.78 120.857C2254.45 104.976 2225.16 88.5564 2193.18 78.2343C2178.17 73.3561 2163.88 70.1201 2149.51 68.3436C2094.33 61.5216 2041.34 81.9458 2006.6 100.279C1983.05 112.655 1961.52 126.682 1940.7 140.248L1936.8 142.789C1917.9 155.097 1900.17 168.595 1881.4 182.889C1851.5 205.648 1820.59 229.181 1783.51 248.531C1761.93 259.872 1738.77 269.362 1714.67 276.737C1672.65 289.595 1625.88 298.77 1567.5 305.612C1537.31 309.149 1506.17 311.359 1474.93 312.178C1448.81 312.837 1422.84 312.506 1397.73 311.192C1321.7 307.232 1250.66 293.491 1186.59 270.353C1158.89 260.35 1131.44 248.055 1102.68 232.76C1054.01 206.932 1010.73 180.384 970.564 155.405C965.178 152.057 959.851 148.73 954.564 145.43C899.71 111.202 847.9 78.8705 787.012 53.9864C747.261 37.7405 703.655 24.4927 657.411 14.6087C623.461 7.35303 586.666 2.4264 544.933 -0.452961C535.528 -1.09796 525.961 -1.62848 516.497 -2.02912C492.688 -3.01973 467.435 -3.18043 440.699 -3.34993C419.224 -3.48641 397.02 -3.6273 373.589 -4.20185C328.335 -5.40599 277.046 -6.76863 229.985 -3.91568C205.703 -2.44298 182.528 0.542053 161.101 4.95796C85.0581 20.6316 30.662 49.4935 15.5919 82.1637L14.9727 82.0602C18.9445 73.4463 25.5837 65.0438 34.7034 57.0859C43.4238 49.4759 54.4598 42.2246 67.5037 35.5347C92.4521 22.7405 124.747 12.0419 160.889 4.59254C182.364 0.165628 205.586 -2.82601 229.915 -4.30092C277.024 -7.15607 328.338 -5.79123 373.611 -4.58709C397.028 -4.01474 419.232 -3.87165 440.699 -3.73517C467.446 -3.56566 492.706 -3.40496 516.537 -2.41215C526.009 -2.00931 535.586 -1.47879 544.999 -0.83379C586.784 2.04778 623.622 6.981 657.62 14.2477C703.919 24.1427 747.572 37.4059 787.367 53.6694C848.311 78.5755 900.146 110.922 955.022 145.166C960.309 148.466 965.64 151.79 971.022 155.141C1011.18 180.115 1054.45 206.657 1103.1 232.476C1131.83 247.754 1159.25 260.037 1186.92 270.027C1250.91 293.137 1321.86 306.858 1397.79 310.813C1422.87 312.125 1448.81 312.456 1474.9 311.797C1506.11 310.979 1537.22 308.771 1567.37 305.237C1625.7 298.402 1672.41 289.238 1714.38 276.398C1738.43 269.038 1761.54 259.566 1783.08 248.245C1820.12 228.919 1851.01 205.4 1880.89 182.653C1899.67 168.353 1917.41 154.848 1936.33 142.531L1940.23 139.991C1961.06 126.417 1982.59 112.382 2006.17 99.9924C2041.02 81.6001 2094.2 61.1166 2149.63 67.9694C2164.07 69.7547 2178.41 73.0017 2193.48 77.8997C2225.53 88.2438 2254.85 104.681 2283.21 120.579C2290.06 124.423 2297.16 128.399 2304.04 132.143C2336.29 149.677 2367.99 169.027 2398.24 189.658C2460.81 232.234 2520.68 282.427 2581.3 343.105L2580.76 343.299Z" fill="white" fill-opacity="0.82"/>
<path d="M2578.54 327.306C2522.91 265.732 2462.28 213.192 2398.34 171.151C2367.26 150.661 2334.32 131.925 2300.45 115.463C2295.56 113.086 2290.55 110.618 2285.7 108.232C2253.69 92.4681 2220.58 76.1649 2185.33 67.2274C2170.19 63.3508 2155.86 60.9844 2141.52 59.9894C2086.5 56.1766 2036.65 78.4917 2004.52 97.8834C1984.57 109.863 1966.56 123.186 1949.15 136.07C1946.14 138.3 1943.13 140.526 1940.11 142.742C1923.55 154.92 1908.06 168.525 1891.66 182.926C1863.79 207.409 1834.96 232.725 1798.1 253.197C1776.45 265.219 1753.76 274.513 1728.71 281.615C1676.32 296.467 1623.97 301.964 1579.67 305.385C1549.7 307.696 1518.57 308.709 1487.13 308.387C1461.1 308.09 1435.29 306.851 1410.42 304.707C1336.67 298.365 1266.56 282.629 1202.04 257.937C1175.2 247.665 1147.74 235.052 1118.08 219.376C1088.13 203.579 1060.22 188.379 1033.22 173.678C1014.88 163.686 997.544 154.249 980.62 145.195C916.646 110.968 858.048 80.8758 788.728 59.2453C748.123 46.5765 704.562 36.829 659.252 30.2756C626.778 25.5779 592.065 23.2907 550.013 23.0727C540.941 23.0331 531.7 23.097 522.551 23.2643C508.654 23.535 494.276 24.1008 479.059 24.7017C449.857 25.853 416.753 27.1585 381.094 26.4276C367.516 26.148 353.662 25.754 340.263 25.3709C305.799 24.3869 270.163 23.3699 236.589 24.2791C211.934 24.9483 188.616 27.044 167.291 30.5089C91.3765 42.8475 34.1921 67.2979 14.3185 95.9132L13.6406 95.7437C18.8435 88.2503 26.5527 80.9902 36.5518 74.1639C46.1552 67.6082 57.924 61.4158 71.5249 55.7606C97.7336 44.8639 130.779 35.9859 167.094 30.084C188.469 26.6103 211.839 24.508 236.549 23.8388C270.159 22.9275 305.81 23.9467 340.292 24.9307C353.688 25.3137 367.541 25.7078 381.116 25.9873C416.742 26.7182 449.821 25.415 479.008 24.2637C494.232 23.6627 508.613 23.097 522.526 22.8262C531.686 22.6589 540.934 22.595 550.017 22.6347C592.128 22.8504 626.892 25.1442 659.421 29.8485C704.785 36.4107 748.405 46.1693 789.061 58.8557C820.374 68.6253 852.105 81.0034 886.067 96.6947C916.471 110.741 946.047 126.111 981.104 144.867C998.028 153.923 1015.36 163.36 1033.71 173.352C1060.7 188.051 1088.61 203.251 1118.56 219.046C1148.18 234.706 1175.62 247.307 1202.43 257.567C1266.86 282.227 1336.87 297.94 1410.51 304.273C1435.35 306.415 1461.13 307.652 1487.14 307.949C1518.54 308.271 1549.64 307.26 1579.56 304.949C1623.81 301.535 1676.1 296.044 1728.39 281.218C1753.37 274.137 1776.01 264.867 1797.59 252.876C1834.39 232.439 1863.2 207.143 1891.05 182.679C1907.46 168.269 1922.95 154.658 1939.54 142.467C1942.55 140.251 1945.56 138.025 1948.57 135.797C1966 122.904 1984.02 109.573 2003.99 97.5774C2024.9 84.9615 2046.34 75.2557 2067.73 68.7309C2093.07 61.002 2117.92 57.9157 2141.59 59.5579C2156 60.5573 2170.4 62.9348 2185.6 66.8268C2220.95 75.7885 2254.1 92.1115 2286.15 107.895C2291 110.281 2296 112.749 2300.89 115.124C2334.79 131.599 2367.75 150.353 2398.86 170.858C2432.81 193.182 2466.06 218.616 2497.68 246.455C2525.63 271.059 2553.05 298.193 2579.17 327.099L2578.54 327.306Z" fill="white" fill-opacity="0.82"/>
<path d="M2576.33 311.308C2524.84 247.969 2465.15 194.502 2398.92 152.393C2366.98 132.032 2332.79 113.902 2297.29 98.5014C2295.6 97.7684 2293.91 97.0353 2292.22 96.3001C2255.3 80.2654 2217.13 63.6849 2177.48 56.2201C2162.12 53.3275 2147.75 51.8284 2133.55 51.6347C2078.75 50.8906 2032.02 75.0702 2002.46 95.4834C1985.08 107.426 1969.64 120.515 1954.71 133.173C1951.02 136.303 1947.2 139.539 1943.44 142.691C1929.09 154.697 1915.74 168.348 1901.62 182.802C1875.94 209.093 1849.37 236.277 1812.7 257.859C1791.49 270.345 1768.61 279.71 1742.76 286.49C1691.84 299.846 1640.13 303.352 1591.83 305.153C1562.06 306.263 1530.94 306.073 1499.34 304.592C1473.39 303.337 1447.75 301.191 1423.11 298.214C1351.87 289.629 1282.69 271.9 1217.51 245.516C1191.4 234.952 1164.7 222.391 1133.5 205.987C1074.19 174.895 1030.15 152.996 990.7 134.982C912.242 99.1552 852.361 78.0773 790.479 64.5038C749.05 55.4166 705.533 49.1714 661.128 45.9398C630.321 43.6988 597.627 43.8991 555.125 46.5958C546.415 47.1549 537.504 47.8131 528.637 48.555C520.261 49.266 511.753 50.0805 502.744 50.9413C469.478 54.1222 431.772 57.728 388.617 57.0544C365.87 56.7 342.637 55.7292 320.169 54.7914C294.634 53.726 268.232 52.6231 243.199 52.4734C218.1 52.3237 194.64 53.5301 173.487 56.0616C97.8252 65.1114 37.8451 85.1546 13.0434 109.675L12.3398 109.418C18.7812 103.047 27.5602 96.9297 38.4314 91.2348C48.9251 85.7358 61.4195 80.6044 75.5699 75.9794C103.057 66.9935 136.862 59.936 173.326 55.5751C194.537 53.0391 218.049 51.8284 243.206 51.9781C268.261 52.1278 294.678 53.2307 320.224 54.2983C342.684 55.2361 365.907 56.2069 388.635 56.5613C431.713 57.2327 469.379 53.6313 502.608 50.4548C511.622 49.5918 520.137 48.7795 528.516 48.0663C537.394 47.3244 546.313 46.6662 555.029 46.1049C597.598 43.406 630.347 43.2035 661.22 45.4511C705.687 48.6871 749.266 54.9411 790.754 64.0415C852.72 77.6326 912.664 98.7326 991.191 134.59C1030.65 152.611 1074.71 174.516 1134.03 205.617C1165.22 222.008 1191.88 234.556 1217.96 245.109C1283.06 271.455 1352.13 289.16 1423.26 297.732C1447.87 300.704 1473.49 302.846 1499.4 304.101C1530.96 305.58 1562.04 305.769 1591.78 304.662C1640 302.864 1691.62 299.366 1742.43 286.041C1768.18 279.287 1790.98 269.954 1812.12 257.511C1848.71 235.976 1875.25 208.82 1900.91 182.558C1915.04 168.095 1928.39 154.433 1942.76 142.41C1946.53 139.259 1950.34 136.023 1954.03 132.893C1968.97 120.224 1984.42 107.126 2001.84 95.1642C2021.12 81.8416 2041.34 71.3037 2061.93 63.8412C2086.04 55.0996 2110.15 50.8312 2133.56 51.146C2147.85 51.3397 2162.29 52.8476 2177.73 55.7534C2217.5 63.2446 2255.73 79.8472 2292.7 95.906C2294.39 96.6413 2296.08 97.3765 2297.77 98.1074C2333.31 113.526 2367.54 131.678 2399.51 152.06C2465.8 194.207 2525.54 247.715 2577.07 311.099L2576.33 311.308Z" fill="white" fill-opacity="0.82"/>
<path d="M1610.07 304.925C1608.01 304.925 1605.99 304.923 1603.99 304.916C1574.37 304.841 1543.26 303.454 1511.54 300.791C1485.69 298.578 1460.2 295.525 1435.79 291.719C1400.91 286.29 1365.9 278.489 1331.73 268.532C1298.74 258.917 1265.51 246.994 1232.97 233.092C1201.08 219.473 1171.29 204.297 1148.91 192.596C1096.53 165.295 1046.69 142.476 1000.78 124.771C926.419 96.0959 860.155 78.615 792.235 69.759C751.261 64.4163 707.3 61.5986 664.973 61.5986C664.317 61.5986 663.665 61.5986 663.009 61.6008C626.647 61.6757 592.125 65.7349 560.24 70.1112C551.941 71.2581 543.357 72.5107 534.724 73.8381C529.994 74.5734 525.256 75.3306 520.244 76.1319C484.89 81.7916 444.816 88.2041 396.133 87.678C366.483 87.3566 336.2 85.5118 306.914 83.7266C288.004 82.573 268.452 81.3821 249.802 80.6623C224.165 79.6739 200.573 79.9909 179.673 81.6089C104.414 87.4292 41.6383 103.068 11.7435 123.443L11.0547 123.08C26.3886 112.63 49.4537 103.583 79.6086 96.1862C108.408 89.1243 142.971 83.8939 179.556 81.0651C200.51 79.4449 224.165 79.1236 249.861 80.1164C268.529 80.8362 288.091 82.0293 307.009 83.1828C336.277 84.9681 366.542 86.8129 396.151 87.1321C444.71 87.6582 484.714 81.2545 520.009 75.6058C525.025 74.8023 529.763 74.045 534.497 73.3098C543.137 71.9824 551.729 70.7276 560.035 69.5807C591.975 65.1978 626.556 61.1319 663.005 61.0549C706.006 60.9646 750.755 63.7911 792.43 69.2263C827.483 73.7985 861.467 80.528 896.316 89.8001C929.878 98.731 964.21 110.019 1001.27 124.313C1047.21 142.031 1097.09 164.868 1149.5 192.187C1171.87 203.881 1201.63 219.046 1233.49 232.65C1299.53 260.858 1367.67 280.554 1436.02 291.193C1460.4 294.994 1485.85 298.043 1511.67 300.253C1543.35 302.913 1574.41 304.3 1603.99 304.372C1650.28 304.487 1704.03 303.549 1756.46 290.858C1782.99 284.435 1805.95 275.041 1826.64 262.144C1862.98 239.492 1887.06 210.419 1910.36 182.301C1922.35 167.838 1933.67 154.176 1945.97 142.351C1949.92 138.562 1953.9 134.659 1957.74 130.884C1970.74 118.129 1984.18 104.943 1999.67 92.7543C2017.36 78.7317 2036.35 67.3573 2056.11 58.9482C2079.01 49.1984 2102.36 43.7435 2125.5 42.7352C2139.79 42.1123 2154.29 42.7485 2169.83 44.6812C2211.38 49.8456 2252.57 64.85 2294.62 81.0893C2331.28 95.2484 2367.77 113.288 2400.14 133.261C2436.1 155.383 2469.89 181.334 2500.56 210.394C2527.88 236.284 2552.91 264.783 2574.95 295.1L2574.11 295.32C2526.78 230.213 2468.03 175.818 2399.49 133.647C2367.16 113.702 2330.73 95.6887 2294.13 81.5538C2252.15 65.3431 2211.04 50.3673 2169.64 45.2206C2154.19 43.2988 2139.77 42.667 2125.57 43.2856C2083.04 45.1413 2038.59 62.827 2000.4 93.0889C1984.94 105.256 1971.51 118.431 1958.52 131.172C1954.68 134.95 1950.69 138.855 1946.75 142.643C1934.47 154.447 1923.15 168.098 1911.18 182.547C1899.75 196.343 1887.93 210.61 1874.37 224.325C1858.99 239.873 1843.6 252.368 1827.3 262.527C1806.52 275.482 1783.46 284.917 1756.8 291.371C1733.29 297.064 1708.02 300.826 1679.55 302.877C1655.43 304.606 1631.22 304.925 1610.07 304.925Z" fill="white" fill-opacity="0.82"/>
<path d="M1668.82 306.027C1650.14 306.027 1632.19 305.358 1616.14 304.68C1586.62 303.434 1555.52 300.848 1523.73 296.991C1497.98 293.823 1472.66 289.865 1448.45 285.222C1382.18 272.536 1316.74 251.418 1248.41 220.668C1218.61 207.259 1190.52 192.832 1164.31 179.205C1112.56 152.382 1060.93 130.633 1010.85 114.558C937.206 90.918 868.301 78.3505 794.002 75.0089C751.667 73.1047 707.025 73.8818 664.896 77.2543C629.633 80.0764 596.39 86.8873 565.356 93.6191C557.591 95.3119 549.333 97.161 540.814 99.1136C538.685 99.6045 536.538 100.104 534.362 100.608C498.619 108.912 458.176 118.307 406.271 118.307C405.395 118.307 404.523 118.305 403.64 118.298C368.524 118.085 332.672 115.073 297.995 112.159C284.248 111.003 270.032 109.81 256.391 108.844C229.746 106.959 206.67 106.402 185.84 107.146C110.079 109.854 46.1306 120.808 10.399 137.206L9.78711 136.724C27.4514 128.618 52.9933 121.581 83.6428 116.372C113.79 111.25 149.108 107.851 185.777 106.541C206.666 105.795 229.801 106.352 256.504 108.24C270.16 109.207 284.38 110.402 298.131 111.556C332.774 114.466 368.594 117.475 403.644 117.689C456.629 118.014 497.732 108.463 533.992 100.038C536.164 99.5341 538.315 99.0344 540.444 98.5413C548.97 96.5865 557.232 94.7374 565.004 93.0445C596.089 86.2996 629.395 79.4798 664.753 76.6489C706.948 73.272 751.664 72.4927 794.067 74.3991C830.887 76.0545 865.992 79.9641 901.387 86.348C937.84 92.9234 973.799 101.973 1011.32 114.019C1061.46 130.115 1113.15 151.891 1164.95 178.741C1191.16 192.363 1219.23 206.782 1249 220.177C1317.24 250.886 1382.58 271.972 1448.75 284.639C1472.92 289.273 1498.21 293.226 1523.92 296.39C1555.67 300.242 1586.72 302.827 1616.2 304.068C1665.8 306.159 1718.57 307.234 1770.48 295.661C1797.8 289.57 1820.91 280.117 1841.15 266.762C1877.19 242.972 1899.63 210.522 1919.42 181.891C1929.38 167.485 1938.79 153.879 1949.17 142.28C1952.92 138.095 1956.69 133.769 1960.33 129.587C1971.74 116.5 1983.53 102.968 1997.48 90.3302C2013.63 75.6076 2031.39 63.3968 2050.28 54.0366C2071.97 43.2874 2094.56 36.6482 2117.43 34.3081C2131.73 32.8442 2146.28 32.6109 2161.92 33.5883C2205.61 36.3246 2250 49.8452 2291.46 64.0505C2329.75 77.1662 2367.54 94.5921 2400.77 114.444C2437.73 136.462 2471.78 162.673 2501.98 192.345C2528.98 218.88 2552.82 248.061 2572.83 279.083L2571.89 279.301C2529.36 213.361 2469.94 156.503 2400.06 114.871C2366.9 95.0566 2329.18 77.6637 2290.97 64.5745C2249.6 50.4022 2205.33 36.9145 2161.82 34.1892C2146.27 33.2162 2131.81 33.4496 2117.61 34.9025C2075.38 39.2237 2033.02 59.0249 1998.33 90.6604C1984.4 103.272 1972.62 116.79 1961.23 129.864C1957.59 134.049 1953.82 138.375 1950.07 142.564C1939.71 154.136 1930.31 167.73 1920.36 182.12C1900.53 210.795 1878.06 243.298 1841.89 267.167C1821.55 280.595 1798.3 290.1 1770.83 296.227C1747 301.541 1721.28 304.618 1692.21 305.629C1684.36 305.915 1676.53 306.027 1668.82 306.027Z" fill="white" fill-opacity="0.82"/>
<path d="M1705.7 308.411C1705.43 308.411 1705.17 308.411 1704.9 308.411C1678.5 308.372 1652.58 306.43 1628.28 304.445C1598.81 302.036 1567.73 298.248 1535.92 293.189C1510.29 289.07 1485.13 284.203 1461.13 278.726C1397.5 264.226 1334.82 241.832 1263.86 208.246C1238.31 196.154 1213.16 183.133 1188.84 170.543C1185.8 168.967 1182.76 167.393 1179.71 165.819C1127.69 139.002 1074.28 118.321 1020.95 104.351C947.919 85.2232 874.268 77.3424 795.785 80.2592C752.751 81.8596 708.149 86.2337 666.8 92.9082C634.176 98.176 605.105 106.627 570.488 117.127C563.471 119.265 555.978 121.572 546.913 124.39L546.408 124.548C528.919 130.021 509.097 136.222 486.864 140.937C461.329 146.353 436.557 148.959 411.154 148.928C371.542 148.869 331.117 144.44 292.025 140.154C282.448 139.103 272.54 138.018 262.977 137.036C235.552 134.225 212.337 132.805 192.005 132.698C117.142 132.301 50.4491 138.967 9.03103 150.982L8.55469 150.388C28.8424 144.501 56.209 139.724 87.6939 136.572C119.237 133.413 155.313 131.846 192.016 132.039C212.406 132.147 235.68 133.569 263.164 136.387C272.734 137.369 282.642 138.454 292.223 139.504C331.267 143.784 371.641 148.208 411.158 148.268C411.333 148.268 411.513 148.268 411.689 148.268C468.214 148.268 511.277 134.795 545.902 123.963L546.411 123.804C555.48 120.984 562.973 118.677 569.993 116.54C604.669 106.022 633.791 97.5552 666.518 92.272C707.936 85.5843 752.611 81.2036 795.719 79.601C834.125 78.1745 870.351 79.262 906.475 82.9294C945.401 86.8808 982.991 93.6896 1021.39 103.748C1074.82 117.744 1128.33 138.458 1180.43 165.319C1183.47 166.893 1186.52 168.469 1189.56 170.046C1213.87 182.631 1239.01 195.647 1264.54 207.731C1335.4 241.275 1397.99 263.638 1461.52 278.114C1485.48 283.585 1510.61 288.443 1536.2 292.557C1567.97 297.609 1599 301.391 1628.43 303.795C1681.14 308.105 1732.75 311.095 1784.52 300.493C1812.62 294.739 1835.89 285.227 1855.67 271.411C1891.39 246.454 1910.91 211.873 1928.13 181.361C1936.19 167.076 1943.8 153.582 1952.39 142.243C1955.7 137.88 1959.01 133.367 1962.22 129.001C1972.24 115.353 1982.61 101.242 1995.32 87.9375C2009.95 72.5082 2026.49 59.4586 2044.46 49.1519C2064.95 37.4055 2086.79 29.5863 2109.37 25.9145C2123.37 23.6383 2137.66 22.5288 2153.01 22.5288C2153.34 22.5288 2153.68 22.5288 2154.01 22.531C2201.74 22.6807 2250.86 35.7083 2288.32 47.0408C2328.22 59.1152 2367.33 75.9247 2401.41 95.6532C2439.37 117.57 2473.69 144.039 2503.42 174.327C2530.09 201.507 2552.74 231.373 2570.72 263.099L2569.68 263.312C2542.92 216.107 2491.86 148.785 2400.65 96.1309C2366.65 76.4465 2327.63 59.6766 2287.82 47.6308C2250.47 36.3291 2201.51 23.3389 2154.01 23.1914C2138.37 23.1364 2123.87 24.2415 2109.66 26.5529C2067.83 33.3572 2027.56 55.2739 1996.27 88.2655C1983.59 101.54 1973.24 115.635 1963.22 129.268C1960.02 133.635 1956.7 138.15 1953.39 142.516C1944.83 153.826 1937.22 167.303 1929.17 181.572C1911.92 212.14 1892.37 246.787 1856.5 271.84C1836.6 285.749 1813.17 295.324 1784.88 301.116C1760.91 306.023 1734.99 308.411 1705.7 308.411Z" fill="white" fill-opacity="0.82"/>
<path d="M1735.03 311.511C1729.34 311.511 1723.53 311.4 1717.58 311.18C1691.53 310.218 1666.22 307.332 1640.43 304.206C1610.53 300.583 1580.33 295.736 1548.11 289.387C1522.61 284.319 1497.61 278.548 1473.8 272.227C1413.39 256.219 1353.41 232.654 1279.32 195.821C1260.92 186.674 1242.53 177.081 1224.74 167.802C1215.05 162.752 1205.04 157.528 1195.13 152.428C1142.49 125.431 1087.29 105.821 1031.05 94.1405C956.747 78.7069 880.382 75.8803 797.582 85.5002C753.838 90.5832 709.276 98.5542 668.719 108.551C636.138 116.581 607.757 127.859 577.708 139.799L575.63 140.624C570.937 142.495 566.192 144.393 561.388 146.313C558.622 147.42 555.837 148.534 553.027 149.656C535.506 156.694 516.581 164.036 494.879 169.686C469.682 176.246 444.759 179.474 418.678 179.553C375.26 179.681 330.973 173.618 288.148 167.749C282.036 166.911 275.712 166.045 269.575 165.224C240.801 161.372 218.117 159.155 198.178 158.244C124.597 154.882 55.1561 157.251 7.65571 164.744L7.35156 164.053C54.9765 156.54 124.56 154.163 198.269 157.531C218.264 158.444 241.006 160.668 269.835 164.526C275.976 165.35 282.3 166.215 288.415 167.054C330.716 172.85 374.443 178.84 417.286 178.84C417.748 178.84 418.209 178.84 418.675 178.837C474.089 178.67 513.536 164.656 552.371 149.062C555.182 147.939 557.966 146.825 560.733 145.718C565.536 143.796 570.277 141.901 574.975 140.028L577.052 139.202C607.152 127.242 635.581 115.945 668.268 107.888C708.898 97.8718 753.537 89.8875 797.359 84.7958C880.367 75.1517 956.938 77.987 1031.44 93.4625C1087.82 105.174 1143.15 124.827 1195.9 151.884C1205.82 156.987 1215.83 162.208 1225.52 167.261C1243.3 176.537 1261.69 186.128 1280.08 195.268C1354.08 232.059 1413.98 255.592 1474.28 271.574C1498.06 277.883 1523.02 283.648 1548.48 288.707C1580.65 295.047 1610.81 299.887 1640.67 303.504C1685.99 308.997 1742.4 315.834 1798.57 305.303C1827.45 299.89 1850.88 290.318 1870.19 276.04C1905.57 249.888 1921.98 213.106 1936.45 180.656C1942.74 166.558 1948.68 153.242 1955.61 142.192C1958.31 137.886 1961.02 133.432 1963.64 129.124C1972.41 114.677 1981.49 99.7386 1993.15 85.5311C2006.3 69.3842 2021.61 55.4958 2038.64 44.2514C2057.94 31.5099 2079.03 22.513 2101.3 17.5094C2115.6 14.2976 2130.25 12.3186 2146.1 11.4579C2167.32 10.3044 2189.91 11.5371 2215.16 15.2178C2236.52 18.3349 2259.42 23.1734 2285.17 30.013C2326.7 41.044 2367.11 57.2393 2402.04 76.8467C2441.02 98.6599 2475.61 125.391 2504.85 156.293C2531.19 184.121 2552.64 214.671 2568.61 247.099L2567.47 247.302C2533.74 178.84 2474.7 118.49 2401.23 77.3706C2366.39 57.8161 2326.09 41.667 2284.68 30.669C2229.2 15.9332 2185.21 10.0534 2146.21 12.1711C2130.47 13.0252 2115.92 14.991 2101.72 18.1786C2048.72 30.0813 2014 61.5473 1994.22 85.8458C1982.59 100.018 1973.52 114.939 1964.75 129.369C1962.13 133.679 1959.43 138.135 1956.73 142.443C1949.81 153.46 1943.88 166.761 1937.6 180.841C1923.1 213.361 1906.66 250.221 1871.12 276.491C1851.65 290.882 1828.03 300.53 1798.92 305.987C1779.19 309.686 1758.15 311.511 1735.03 311.511Z" fill="white" fill-opacity="0.82"/>
<path d="M1760.43 315.064C1721.68 315.064 1684.43 309.083 1652.56 303.967C1622.58 299.155 1592.4 293.141 1560.28 285.583C1534.93 279.574 1510.09 272.895 1486.46 265.729C1415.62 244.275 1352.46 213.48 1294.77 183.397C1282.99 177.255 1271.09 170.924 1259.58 164.802C1243.61 156.3 1227.08 147.51 1210.53 139.04C1157.11 111.776 1100.12 93.2339 1041.16 83.9288C964.884 71.894 885.796 74.1196 799.376 90.7354C754.88 99.2898 710.363 110.858 670.634 124.189C639.991 134.47 614.065 147.449 586.618 161.19C584.672 162.163 582.723 163.14 580.762 164.117L579.7 164.65C573.028 167.994 566.128 171.45 559.134 174.919C542.374 183.269 523.919 191.905 502.572 198.502C477.792 206.161 452.811 209.98 426.192 210.178C379.468 210.528 331.847 202.637 285.798 195.004C282.57 194.47 279.356 193.937 276.158 193.411C245.79 188.405 223.637 185.437 204.335 183.786C132.601 177.653 60.4053 175.725 6.25833 178.497L6.14844 177.728C60.3833 174.95 132.685 176.881 204.515 183.023C223.872 184.678 246.072 187.652 276.495 192.667C279.693 193.193 282.907 193.725 286.138 194.263C332.1 201.879 379.63 209.751 426.174 209.408C483.981 208.976 524.692 191.073 558.313 174.325C565.308 170.856 572.207 167.4 578.879 164.058L579.942 163.525C581.902 162.546 583.851 161.57 585.797 160.597C613.292 146.832 639.262 133.831 670.007 123.516C709.809 110.16 754.411 98.5721 798.984 90.0023C839.955 82.1259 878.439 77.5779 916.629 76.0986C959.23 74.4498 1001.23 76.8338 1041.48 83.1847C1100.63 92.5184 1157.78 111.113 1211.36 138.452C1227.92 146.927 1244.45 155.719 1260.43 164.223C1271.93 170.345 1283.83 176.674 1295.6 182.813C1353.24 212.864 1416.32 243.626 1487.03 265.04C1510.63 272.195 1535.43 278.865 1560.75 284.866C1592.81 292.412 1622.95 298.417 1652.89 303.223C1698.86 310.602 1756.07 319.786 1812.6 310.122C1842.26 305.05 1865.84 295.419 1884.69 280.679C1919.71 253.296 1932.81 214.251 1944.37 179.8C1949.01 165.958 1953.4 152.884 1958.81 142.148C1960.81 138.177 1962.82 134.073 1964.76 130.104C1972.36 114.58 1980.22 98.5259 1990.96 83.1319C2002.66 66.2542 2016.73 51.5227 2032.79 39.3515C2050.91 25.6173 2071.24 15.4426 2093.21 9.10935C2107.48 4.99723 2122.18 2.14649 2138.16 0.392011C2159.69 -1.97004 2183.58 -1.89079 2209.17 0.627557C2231.57 2.83331 2256.07 6.99165 2281.99 12.9903C2325.14 22.9778 2366.86 38.5568 2402.66 58.0431C2442.65 79.755 2477.51 106.744 2506.27 138.262C2532.25 166.737 2552.52 197.974 2566.49 231.104L2565.24 231.294C2535.64 161.093 2477.6 99.7675 2401.8 58.6155C2366.12 39.193 2324.53 23.6647 2281.53 13.7102C2225.79 0.808066 2178.97 -3.30185 2138.39 1.15148C2122.53 2.89275 2107.93 5.72368 2093.77 9.80498C2041.49 24.8732 2009.65 58.1576 1992.15 83.4291C1981.43 98.7835 1973.58 114.816 1965.99 130.32C1964.05 134.289 1962.04 138.395 1960.04 142.37C1954.65 153.071 1950.26 166.127 1945.63 179.952C1940.06 196.526 1933.76 215.31 1924.61 232.92C1914.13 253.098 1901.4 268.873 1885.71 281.148C1876.64 288.245 1866.21 294.285 1854.71 299.102C1842.35 304.282 1828.3 308.24 1812.95 310.864C1795.38 313.868 1777.75 315.064 1760.43 315.064Z" fill="white" fill-opacity="0.82"/>
<path d="M1783.33 318.962C1770.52 318.962 1757.1 318.213 1742.92 316.719C1715 313.776 1688.28 308.435 1664.7 303.726C1634.98 297.789 1603.94 290.404 1572.46 281.777C1547.27 274.834 1522.6 267.248 1499.12 259.226C1431.75 236.229 1373.71 205.65 1310.21 170.97C1304.57 167.888 1298.84 164.744 1293.3 161.702C1271.48 149.729 1248.92 137.348 1225.94 125.65C1171.63 98.0676 1112.86 80.5955 1051.27 73.7185C973.575 65.0429 889.427 72.5275 801.172 95.9675C755.884 107.996 711.407 123.159 672.55 139.821C643.293 152.366 619.209 167.157 593.711 182.817C591.121 184.409 588.519 186.005 585.903 187.607C579.392 191.601 572.379 195.887 565.245 200.177C550.285 209.205 532.053 219.492 510.27 227.313C485.886 236.07 460.843 240.484 433.714 240.803C384.052 241.391 333.5 231.511 284.61 221.957L282.749 221.594C258.812 216.918 233.49 212.194 210.502 209.326C140.431 200.584 67.4035 194.515 4.87695 192.237L4.96122 191.414C67.5537 193.694 140.647 199.768 210.78 208.518C233.834 211.395 259.2 216.126 283.174 220.808L285.035 221.171C333.818 230.703 384.268 240.559 433.689 239.975C490.763 239.302 530.181 220.168 564.274 199.589C571.408 195.301 578.414 191.015 584.925 187.024C587.541 185.424 590.142 183.826 592.733 182.236C618.275 166.549 642.402 151.732 671.755 139.145C710.685 122.45 755.247 107.258 800.618 95.208C842.026 84.2123 882.773 76.6352 921.722 72.6904C966.225 68.1843 1009.9 68.2547 1051.52 72.9018C1113.35 79.8052 1172.33 97.3389 1226.83 125.017C1249.83 136.725 1272.4 149.11 1294.23 161.09C1299.77 164.13 1305.5 167.274 1311.15 170.355C1374.58 205.003 1432.56 235.548 1499.81 258.506C1523.25 266.515 1547.89 274.09 1573.04 281.024C1604.48 289.638 1635.46 297.012 1665.14 302.94C1711.66 312.235 1769.56 323.798 1826.65 314.938C1857.1 310.212 1880.84 300.523 1899.22 285.317C1933.85 256.666 1943.87 213.482 1951.92 178.782C1955.06 165.266 1958.02 152.5 1962.03 142.11C1963.3 138.834 1964.58 135.46 1965.81 132.195C1972.22 115.236 1978.86 97.6978 1988.81 80.7386C2004.17 54.3466 2033.35 19.0414 2085.14 0.71953C2099.45 -4.33917 2114.2 -8.06385 2130.25 -10.6658C2172.24 -17.5715 2222.23 -15.3371 2278.84 -4.02878C2323.61 4.9153 2366.64 19.8779 2403.3 39.2431C2444.3 60.8516 2479.43 88.0999 2507.71 120.237C2520.69 134.978 2532.15 150.722 2541.8 167.031C2551.01 182.61 2558.61 198.788 2564.38 215.116L2563.04 215.287C2537.59 143.343 2480.53 81.0424 2402.39 39.8617C2365.87 20.5691 2323 5.66376 2278.4 -3.24731C2222.06 -14.505 2172.33 -16.7328 2130.61 -9.87116C2114.68 -7.28898 2100.03 -3.59292 2085.84 1.42836C2034.41 19.6225 2005.39 54.7472 1990.1 81.0093C1980.18 97.9245 1973.56 115.438 1967.15 132.376C1965.91 135.64 1964.64 139.017 1963.37 142.295C1959.37 152.65 1956.41 165.398 1953.28 178.895C1949.23 196.356 1944.64 216.146 1936.79 234.824C1927.77 256.287 1915.84 272.963 1900.33 285.801C1891.48 293.125 1881.12 299.302 1869.56 304.158C1857.1 309.39 1842.78 313.287 1826.99 315.735C1813.14 317.888 1798.67 318.962 1783.33 318.962Z" fill="white" fill-opacity="0.82"/>
<path d="M1804.44 323.079C1789.08 323.079 1772.89 321.884 1755.6 319.486C1727.58 315.605 1700.62 309.164 1676.83 303.48C1646.88 296.326 1615.87 287.743 1584.64 277.967C1559.62 270.097 1535.1 261.604 1511.79 252.722C1447.62 228.298 1392.59 196.818 1334.32 163.494C1331.44 161.846 1328.56 160.195 1325.67 158.544C1298.57 143.064 1270.55 127.055 1241.35 112.262C1186.09 84.3295 1125.54 67.925 1061.39 63.5047C980.8 57.9507 893.857 70.6327 802.967 101.194C757.504 116.48 711.868 135.749 674.466 155.448C646.224 170.323 623.573 187.06 599.592 204.781C596.752 206.879 593.905 208.983 591.036 211.092C585.306 215.312 578.487 220.316 571.349 225.434C558.129 234.937 540.117 247.014 517.964 256.099C493.969 265.941 468.87 270.958 441.232 271.431C418.516 271.772 393.446 269.665 364.588 264.988C339.812 260.972 315.846 255.724 289.326 249.781C265.118 244.288 239.568 238.615 216.646 234.869C148.748 223.77 77.0286 214.051 3.48438 205.976L3.74817 205.111C77.3364 213.188 149.096 222.915 217.031 234.019C240.015 237.777 265.601 243.458 289.839 248.955C334.291 258.921 389.614 271.327 441.192 270.55C500.161 269.538 538.058 247.995 570.224 224.866C577.358 219.752 584.173 214.751 589.9 210.533C592.769 208.424 595.616 206.319 598.452 204.224C622.473 186.474 645.165 169.709 673.499 154.786C710.978 135.046 756.701 115.741 802.252 100.426C893.417 69.772 980.661 57.057 1061.56 62.6308C1092.57 64.7683 1123.04 69.7323 1152.1 77.3842C1183.29 85.5931 1213.63 97.1039 1242.29 111.591C1271.53 126.399 1299.57 142.416 1326.68 157.907C1329.57 159.561 1332.45 161.209 1335.34 162.858C1393.55 196.154 1448.53 227.602 1512.57 251.98C1535.86 260.849 1560.33 269.331 1585.32 277.187C1616.5 286.948 1647.47 295.52 1677.37 302.664C1724.37 313.891 1782.86 327.863 1840.69 319.759C1872.02 315.37 1895.91 305.622 1913.73 289.962C1948.05 260.05 1954.16 214.357 1959.07 177.642C1960.83 164.511 1962.49 152.109 1965.24 142.08C1965.81 140.01 1966.38 137.93 1966.95 135.839C1972.08 116.949 1977.4 97.4143 1986.63 78.3506C1999.82 50.9306 2026.2 13.7498 2077.06 -7.66489C2091.25 -13.6393 2106.05 -18.2358 2122.32 -21.7183C2144.93 -26.6031 2170.13 -28.8991 2197.21 -28.5469C2221.93 -28.2255 2248.33 -25.7005 2275.67 -21.0447C2322.05 -13.1484 2366.4 1.19776 2403.92 20.4419C2445.93 41.9447 2481.33 69.4572 2509.14 102.211C2521.9 117.24 2532.94 133.307 2541.97 149.967C2550.62 165.922 2557.45 182.463 2562.26 199.13L2560.82 199.28C2539.84 126.655 2482.3 61.715 2402.97 21.1112C2365.61 1.95061 2321.45 -12.3361 2275.27 -20.2016C2218.32 -29.9007 2165.61 -30.1385 2122.81 -20.8928C2106.66 -17.4367 2091.97 -12.8755 2077.9 -6.94724C2027.39 14.32 2001.15 51.3093 1988.04 78.5928C1978.83 97.6058 1973.52 117.112 1968.39 135.978C1967.82 138.069 1967.25 140.151 1966.69 142.221C1963.94 152.212 1962.29 164.599 1960.53 177.711C1955.6 214.53 1949.47 260.356 1914.93 290.459C1906.34 298.008 1896.07 304.326 1884.41 309.233C1871.86 314.511 1857.26 318.342 1841.02 320.618C1829.3 322.256 1817.16 323.079 1804.44 323.079Z" fill="white" fill-opacity="0.82"/>
<path d="M1824.27 327.365C1806.78 327.365 1788.24 325.666 1768.27 322.254C1740.01 317.426 1712.88 309.887 1688.95 303.236C1658.71 294.832 1627.71 285.047 1596.81 274.159C1571.97 265.375 1547.62 255.973 1524.44 246.219C1467.37 222.207 1418.59 192.79 1366.94 161.646C1358.5 156.554 1349.77 151.29 1341.11 146.115C1310.66 127.932 1284.66 112.939 1256.75 98.8741C1200.51 70.5714 1138.18 55.2346 1071.5 53.2886C987.712 50.8429 897.962 68.7179 804.749 106.416C758.443 125.145 712.848 148.105 676.366 171.07C648.882 188.37 627.396 207.203 604.65 227.14C601.832 229.61 599.003 232.089 596.156 234.57C591.085 238.997 584.373 244.83 577.444 250.679C548.286 275.352 510.191 300.753 448.742 302.052C446.825 302.09 444.902 302.107 442.982 302.107C394.998 302.107 346.01 290.698 295.893 277.958L292.764 277.157C267.941 270.791 244.491 264.779 222.785 260.403C140.986 243.91 61.8759 229.989 2.09375 219.704L2.52246 218.804C62.3193 229.093 141.451 243.016 223.28 259.515C245.044 263.903 268.519 269.923 293.376 276.296L296.502 277.098C348.454 290.303 399.19 302.083 448.687 301.119C509.455 299.833 547.231 274.628 576.173 250.14C583.098 244.295 589.803 238.466 594.874 234.041C597.721 231.558 600.546 229.082 603.364 226.612C626.146 206.643 647.665 187.78 675.237 170.425C711.793 147.412 757.48 124.405 803.877 105.639C846.94 88.2218 890.018 74.8486 931.913 65.8869C979.981 55.6044 1026.97 51.052 1071.57 52.353C1138.6 54.3078 1201.24 69.7195 1257.75 98.1543C1285.7 112.241 1311.72 127.25 1342.2 145.448C1350.86 150.623 1359.6 155.889 1368.04 160.981C1419.63 192.095 1468.37 221.483 1525.33 245.447C1548.48 255.19 1572.79 264.576 1597.6 273.346C1628.45 284.221 1659.4 293.991 1689.6 302.382C1737.01 315.557 1796.01 331.953 1854.73 324.572C1886.82 320.537 1910.87 310.732 1928.23 294.598C1962.12 263.324 1964.15 215.059 1965.79 176.278C1966.32 163.625 1966.83 151.671 1968.45 142.04L1968.48 141.82C1972.11 120.254 1975.86 97.954 1984.45 75.9515C1991.89 56.7601 2002.25 39.5059 2015.25 24.6644C2029.91 7.93199 2047.98 -5.76921 2068.97 -16.0605C2083.01 -22.9463 2097.86 -28.4167 2114.37 -32.782C2158.99 -44.645 2213.66 -46.4766 2272.49 -38.074C2296.16 -34.6927 2319.51 -29.5702 2341.9 -22.8517C2364.41 -16.0935 2385.49 -7.85388 2404.54 1.63393C2447.57 23.0333 2483.25 50.8055 2510.56 84.1801C2535.12 114.178 2552.26 148.398 2560.14 183.137L2558.6 183.263C2541.74 108.91 2485.23 42.9709 2403.55 2.35377C2365.35 -16.6703 2319.9 -30.3363 2272.13 -37.1583C2213.64 -45.5124 2159.31 -43.7007 2115.01 -31.919C2098.62 -27.5868 2083.89 -22.1605 2069.95 -15.3297C2030.77 3.88591 2001.73 35.5259 1985.97 76.1694C1977.4 98.1147 1973.66 120.384 1970.04 141.919L1970 142.139C1968.39 151.735 1967.88 163.671 1967.35 176.307C1965.7 215.207 1963.66 263.617 1929.53 295.111C1921.16 302.891 1910.97 309.345 1899.23 314.294C1886.58 319.63 1871.72 323.396 1855.04 325.494C1845.12 326.74 1834.88 327.365 1824.27 327.365Z" fill="white" fill-opacity="0.82"/>
<path d="M449.881 332.756C428.424 332.756 405.059 330.244 378.689 325.115C352.487 320.019 326.575 312.983 302.473 306.142C298.11 304.896 293.779 303.652 289.477 302.417C268.065 296.269 247.839 290.461 228.937 285.938C153.564 267.906 81.7198 251.7 12.2389 236.031L0.726563 233.433L1.30546 232.506L12.8178 235.104C82.3024 250.778 154.158 266.984 229.545 285.02C248.499 289.554 268.75 295.368 290.188 301.525C294.486 302.76 298.817 304.004 303.177 305.248C352.652 319.292 405.216 332.903 456.198 331.69C518.867 330.123 556.423 300.792 582.137 275.417C588.725 268.928 595.071 262.46 599.864 257.551C602.509 254.846 605.136 252.142 607.756 249.446C629.484 227.091 650.006 205.976 676.995 186.067C712.621 159.791 758.263 133.08 805.522 110.858C849.366 90.2398 893.609 73.9498 937.027 62.4412C986.829 49.2397 1035.47 42.3891 1081.61 42.0787C1151.02 41.4579 1215.5 55.8063 1273.22 84.721C1305.21 100.769 1333.9 118.129 1357.74 132.994C1370.72 141.084 1383.69 149.377 1396.24 157.396C1440.66 185.787 1486.59 215.142 1538.1 238.919C1561.11 249.543 1585.27 259.836 1609.88 269.511C1640.35 281.458 1671.29 292.425 1701.85 302.107C1749.61 317.239 1809.05 336.071 1868.77 329.388C1901.64 325.709 1925.84 315.847 1942.74 299.238C1976.18 266.546 1973.92 215.637 1972.1 174.732C1971.57 162.636 1971.06 151.208 1971.67 142.009C1973.04 121.27 1975.11 97.1674 1982.28 73.5602C1988.33 53.5565 1997.45 35.4592 2009.4 19.7724C2022.92 2.02731 2040.25 -12.8494 2060.89 -24.4461C2074.57 -32.131 2089.9 -38.6536 2106.45 -43.8356C2130.07 -51.2542 2156.57 -55.9188 2185.22 -57.6975C2212.06 -59.3639 2240.35 -58.4878 2269.32 -55.0955C2293.75 -52.2338 2317.82 -47.5273 2340.88 -41.1037C2364.08 -34.6406 2385.71 -26.588 2405.17 -17.1707C2427.6 -6.32682 2448.22 6.47844 2466.47 20.8907C2483.75 34.5457 2499.07 49.7746 2512 66.1526C2536.19 96.7932 2552.11 131.72 2558.03 167.151L2556.39 167.25C2543.67 91.1644 2488.18 24.2279 2404.14 -16.398C2365.64 -35.0258 2317.66 -48.4232 2269 -54.1225C2208.84 -61.169 2152.9 -57.3079 2107.21 -42.9573C2090.79 -37.8171 2075.59 -31.3452 2062.01 -23.7219C2023.12 -1.87129 1996.83 30.9178 1983.9 73.7385C1976.75 97.2819 1974.69 121.343 1973.32 142.049C1972.71 151.215 1973.21 162.625 1973.75 174.706C1974.65 194.885 1975.66 217.76 1972.26 239.872C1968.31 265.531 1959.12 285.119 1944.15 299.755C1936 307.764 1925.88 314.357 1914.07 319.35C1901.32 324.743 1886.18 328.448 1869.08 330.361C1860.45 331.327 1851.83 331.765 1843.26 331.765C1791.94 331.765 1742.2 316.008 1701.08 302.98C1670.48 293.283 1639.49 282.301 1608.99 270.337C1584.33 260.648 1560.15 250.34 1537.1 239.7C1485.48 215.875 1439.5 186.489 1395.04 158.072C1382.5 150.055 1369.52 141.765 1356.56 133.679C1332.75 118.831 1304.1 101.495 1272.16 85.4783C1214.76 56.7177 1150.66 42.4529 1081.63 43.0649C973.224 43.7957 872.2 80.7542 806.54 111.633C759.377 133.811 713.826 160.465 678.278 186.688C651.369 206.537 630.876 227.619 609.181 249.939C606.562 252.636 603.931 255.339 601.286 258.046C596.489 262.958 590.14 269.43 583.548 275.926C572.754 286.578 555.808 302.084 533.362 313.708C522.461 319.352 510.861 323.788 498.883 326.894C485.528 330.356 471.187 332.302 456.267 332.674C454.153 332.729 452.024 332.756 449.881 332.756Z" fill="white" fill-opacity="0.82"/>
<path d="M456.769 363.404C435.287 363.404 411.969 360.698 385.738 355.177C358.58 349.463 331.73 341.428 309.05 334.319C302.081 332.131 295.127 329.912 288.4 327.766C269.596 321.767 251.833 316.099 235.085 311.472C174.94 294.851 115.187 278.625 57.3977 262.932C38.2825 257.741 18.5188 252.374 -0.636719 247.161L0.0814154 246.208C19.2369 251.421 39.0007 256.788 58.1159 261.979C115.905 277.672 175.665 293.901 235.814 310.523C252.606 315.163 270.391 320.836 289.217 326.844C295.94 328.99 302.895 331.207 309.856 333.395C356.895 348.131 411.456 363.73 463.701 362.261C527.847 360.417 563.876 328.389 588.102 300.694C594.313 293.599 600.318 286.475 604.854 281.062C607.184 278.284 609.5 275.508 611.812 272.739C632.594 247.831 652.223 224.305 678.757 201.712C713.269 172.329 758.875 141.917 807.167 116.08C874.42 80.253 978.364 36.5518 1091.63 31.8123C1163.67 28.7172 1229.97 42.0001 1288.69 71.2957C1315.07 84.4642 1341.15 99.6535 1373.28 120.551C1389.52 131.111 1405.63 142.056 1421.21 152.638C1461.74 180.17 1503.65 208.64 1550.88 232.404C1573.75 243.919 1597.74 255.117 1622.17 265.688C1651.76 278.476 1682.68 290.64 1714.09 301.845C1762.34 318.952 1822.38 340.246 1882.82 334.218C1915.95 330.982 1940.99 320.779 1957.25 303.895C1990.22 269.723 1983.15 213.818 1977.98 172.998C1976.53 161.542 1975.16 150.723 1974.89 141.994C1974.29 122.596 1974.34 97.0185 1980.12 71.1856C1990.09 26.4212 2014.55 -8.57145 2052.81 -32.8149C2066.22 -41.3561 2081.61 -48.7769 2098.52 -54.8724C2122.59 -63.5545 2149.74 -69.3947 2179.23 -72.2279C2207.02 -74.8959 2236.26 -74.8541 2266.14 -72.1024C2291.36 -69.7293 2316.16 -65.4279 2339.85 -59.3213C2363.78 -53.1532 2385.96 -45.2944 2405.8 -35.9628C2428.73 -25.1806 2449.68 -12.3313 2468.06 2.23058C2485.49 16.0308 2500.75 31.4755 2513.44 48.1397C2537.26 79.4253 2551.94 115.056 2555.92 151.18L2554.18 151.249C2545.62 73.4266 2491.15 5.49077 2404.73 -35.1373C2365.55 -53.5692 2316.23 -66.3304 2265.88 -71.0677C2203.81 -76.7802 2146.25 -70.8696 2099.42 -53.9743C2082.64 -47.9294 2067.39 -40.5681 2054.08 -32.0951C2016.07 -8.0123 1991.77 26.7822 1981.85 71.3265C1976.09 97.0889 1976.04 122.616 1976.63 141.977C1976.91 150.674 1978.27 161.481 1979.72 172.921C1982.39 194.021 1985.42 217.939 1983.69 241.288C1981.67 268.477 1973.52 289.128 1958.76 304.421C1950.82 312.669 1940.78 319.405 1928.91 324.442C1916.05 329.904 1900.64 333.54 1883.11 335.253C1855.92 337.963 1826.66 335.528 1793.65 327.808C1764.96 321.096 1737.47 311.348 1713.21 302.75C1681.76 291.53 1650.79 279.347 1621.16 266.542C1596.69 255.956 1572.67 244.742 1549.76 233.212C1502.44 209.4 1460.48 180.899 1419.9 153.338C1404.33 142.758 1388.23 131.82 1372.01 121.269C1339.93 100.409 1313.89 85.2479 1287.57 72.1102C1229.21 42.982 1163.33 29.7783 1091.75 32.8535C978.969 37.5754 875.369 81.1423 808.317 116.861C760.121 142.646 714.61 172.994 680.172 202.316C653.71 224.844 634.111 248.337 613.362 273.208C611.05 275.979 608.734 278.755 606.404 281.533C601.864 286.951 595.855 294.081 589.637 301.183C565.198 329.124 528.807 361.438 463.778 363.307C461.466 363.371 459.125 363.404 456.769 363.404Z" fill="white" fill-opacity="0.82"/>
<path d="M463.796 394.053C405.099 394.053 343.51 372.394 288.912 353.191C272.135 347.292 256.288 341.718 241.229 337.005L-2 260.889L-1.15359 259.913L242.075 336.029C257.175 340.754 273.04 346.334 289.839 352.242C346.548 372.187 410.825 394.792 471.205 392.833C536.765 390.709 571.302 355.985 594.067 325.974C601.512 316.158 608.701 306.17 615.655 296.511C634.675 270.095 654.34 242.778 680.512 217.355C701.294 197.168 727.111 175.998 755.17 156.135C785.952 134.344 818.91 114.351 853.121 96.7142C890.842 77.2697 929.197 61.1845 967.116 48.9075C1009.06 35.3296 1050.38 26.4648 1089.93 22.5574C1169.18 14.7316 1241.25 26.6079 1304.14 57.8604C1356.41 83.8297 1400.83 115.943 1443.79 147C1481.19 174.032 1519.85 201.983 1563.64 225.876C1614.21 253.472 1668.95 278.94 1726.33 301.567C1774.68 320.633 1834.85 344.364 1896.86 339.03C1949.24 334.526 1979.52 313.472 1989.43 274.663C1997.87 241.651 1989.84 202.491 1983.4 171.027C1981.2 160.305 1979.13 150.176 1978.11 141.963C1972.49 96.6856 1976.07 59.3089 1989.06 27.6997C1997.16 7.97786 2009.12 -9.60211 2024.6 -24.5515C2041.89 -41.2509 2064.09 -55.1722 2090.59 -65.928C2113.5 -75.2331 2139.33 -81.9913 2167.36 -86.0153C2194.04 -89.8457 2222.12 -91.1291 2250.84 -89.8303C2307.32 -87.2767 2362.57 -74.8259 2406.41 -54.7738C2429.84 -44.0554 2451.12 -31.1599 2469.65 -16.4483C2487.21 -2.50496 2502.42 13.1576 2514.86 30.108C2538.3 62.0386 2551.76 98.3763 2553.79 135.189L2551.96 135.227C2547.64 56.8324 2492.81 -13.8683 2405.3 -53.8955C2312.36 -96.4035 2180.43 -101.081 2091.6 -65.0145C2003.61 -29.2866 1967.08 38.3895 1979.93 141.882C1980.94 150.068 1983.02 160.184 1985.21 170.893C1991.67 202.425 1999.71 241.669 1991.24 274.83C1986.62 292.892 1977.35 307.408 1963.67 317.976C1955.97 323.918 1946.7 328.774 1936.1 332.406C1924.82 336.272 1911.7 338.867 1897.12 340.122C1891.16 340.635 1885.09 340.892 1878.93 340.892C1856.45 340.892 1832.52 337.478 1806.29 330.561C1776.74 322.769 1748.23 311.524 1725.32 302.49C1667.86 279.829 1613.05 254.329 1562.4 226.693C1518.51 202.749 1479.81 174.765 1442.37 147.704C1399.47 116.687 1355.1 84.6134 1302.96 58.7101C1240.49 27.6711 1168.92 15.8719 1090.22 23.6449C931.032 39.3669 767.053 135.381 682.058 217.936C655.956 243.289 636.317 270.568 617.322 296.949C610.364 306.613 603.172 316.607 595.719 326.432C580.605 346.356 565.678 360.623 548.743 371.326C538.172 378.005 526.704 383.27 514.657 386.975C501.261 391.094 486.671 393.436 471.289 393.936C468.805 394.013 466.302 394.053 463.796 394.053Z" fill="white" fill-opacity="0.82"/>
</g>
</g>
<defs>
<clipPath id="clip0_262_303">
<rect width="1728" height="234" fill="white" transform="translate(0 18)"/>
</clipPath>
</defs>
</svg>
