<svg width="42" height="42" viewBox="0 0 42 42" fill="none" xmlns="http://www.w3.org/2000/svg">
<g clip-path="url(#clip0_696_1368)">
<path d="M37.625 33.25H4.375C3.21468 33.25 2.10188 33.7109 1.28141 34.5314C0.460936 35.3519 0 36.4647 0 37.625C0 38.7853 0.460936 39.8981 1.28141 40.7186C2.10188 41.5391 3.21468 42 4.375 42H37.625C38.7853 42 39.8981 41.5391 40.7186 40.7186C41.5391 39.8981 42 38.7853 42 37.625C42 36.4647 41.5391 35.3519 40.7186 34.5314C39.8981 33.7109 38.7853 33.25 37.625 33.25ZM37.625 38.5H4.375C4.14294 38.5 3.92038 38.4078 3.75628 38.2437C3.59219 38.0796 3.5 37.8571 3.5 37.625C3.5 37.3929 3.59219 37.1704 3.75628 37.0063C3.92038 36.8422 4.14294 36.75 4.375 36.75H37.625C37.8571 36.75 38.0796 36.8422 38.2437 37.0063C38.4078 37.1704 38.5 37.3929 38.5 37.625C38.5 37.8571 38.4078 38.0796 38.2437 38.2437C38.0796 38.4078 37.8571 38.5 37.625 38.5Z" fill="#EFEFEF"/>
<path d="M3.5 24.5V29.75C3.5 30.2141 3.68437 30.6592 4.01256 30.9874C4.34075 31.3156 4.78587 31.5 5.25 31.5C5.71413 31.5 6.15925 31.3156 6.48744 30.9874C6.81563 30.6592 7 30.2141 7 29.75V24.5C7 24.0359 6.81563 23.5908 6.48744 23.2626C6.15925 22.9344 5.71413 22.75 5.25 22.75C4.78587 22.75 4.34075 22.9344 4.01256 23.2626C3.68437 23.5908 3.5 24.0359 3.5 24.5Z" fill="url(#paint0_linear_696_1368)"/>
<path d="M19.25 24.5V29.75C19.25 30.2141 19.4344 30.6592 19.7626 30.9874C20.0908 31.3156 20.5359 31.5 21 31.5C21.4641 31.5 21.9092 31.3156 22.2374 30.9874C22.5656 30.6592 22.75 30.2141 22.75 29.75V24.5C22.75 24.0359 22.5656 23.5908 22.2374 23.2626C21.9092 22.9344 21.4641 22.75 21 22.75C20.5359 22.75 20.0908 22.9344 19.7626 23.2626C19.4344 23.5908 19.25 24.0359 19.25 24.5Z" fill="url(#paint1_linear_696_1368)"/>
<path d="M35 24.5V29.75C35 30.2141 35.1844 30.6592 35.5126 30.9874C35.8408 31.3156 36.2859 31.5 36.75 31.5C37.2141 31.5 37.6592 31.3156 37.9874 30.9874C38.3156 30.6592 38.5 30.2141 38.5 29.75V24.5C38.5 24.0359 38.3156 23.5908 37.9874 23.2626C37.6592 22.9344 37.2141 22.75 36.75 22.75C36.2859 22.75 35.8408 22.9344 35.5126 23.2626C35.1844 23.5908 35 24.0359 35 24.5Z" fill="url(#paint2_linear_696_1368)"/>
<path d="M4.2701 20.9994H37.7301C38.5588 20.9988 39.3695 20.7572 40.0633 20.3041C40.7572 19.851 41.3044 19.2059 41.6382 18.4474C41.972 17.6889 42.0781 16.8497 41.9435 16.032C41.8089 15.2143 41.4394 14.4534 40.8801 13.8419C38.8326 11.6194 36.6626 9.46689 34.4226 7.45439C32.5151 5.73939 30.5201 4.07689 28.4901 2.51939C26.315 0.93295 23.6923 0.078125 21.0001 0.078125C18.3079 0.078125 15.6852 0.93295 13.5101 2.51939C11.4801 4.07689 9.4851 5.73939 7.5776 7.45439C5.3376 9.46689 3.1676 11.6194 1.1201 13.8419C0.560785 14.4534 0.191336 15.2143 0.0567412 16.032C-0.0778532 16.8497 0.028215 17.6889 0.36203 18.4474C0.695845 19.2059 1.243 19.851 1.93687 20.3041C2.63075 20.7572 3.44139 20.9988 4.2701 20.9994ZM12.2501 10.4994H29.7501C30.2142 10.4994 30.6594 10.6838 30.9875 11.012C31.3157 11.3401 31.5001 11.7853 31.5001 12.2494C31.5001 12.7135 31.3157 13.1586 30.9875 13.4868C30.6594 13.815 30.2142 13.9994 29.7501 13.9994H12.2501C11.786 13.9994 11.3409 13.815 11.0127 13.4868C10.6845 13.1586 10.5001 12.7135 10.5001 12.2494C10.5001 11.7853 10.6845 11.3401 11.0127 11.012C11.3409 10.6838 11.786 10.4994 12.2501 10.4994Z" fill="#EFEFEF"/>
</g>
<defs>
<linearGradient id="paint0_linear_696_1368" x1="5.25" y1="22.75" x2="5.25" y2="31.5" gradientUnits="userSpaceOnUse">
<stop stop-color="#84D1FF"/>
<stop offset="1" stop-color="#4AA3FF"/>
</linearGradient>
<linearGradient id="paint1_linear_696_1368" x1="21" y1="22.75" x2="21" y2="31.5" gradientUnits="userSpaceOnUse">
<stop stop-color="#84D1FF"/>
<stop offset="1" stop-color="#4AA3FF"/>
</linearGradient>
<linearGradient id="paint2_linear_696_1368" x1="36.75" y1="22.75" x2="36.75" y2="31.5" gradientUnits="userSpaceOnUse">
<stop stop-color="#84D1FF"/>
<stop offset="1" stop-color="#4AA3FF"/>
</linearGradient>
<clipPath id="clip0_696_1368">
<rect width="42" height="42" fill="white"/>
</clipPath>
</defs>
</svg>
