<svg width="42" height="42" viewBox="0 0 42 42" fill="none" xmlns="http://www.w3.org/2000/svg">
<g clip-path="url(#clip0_696_1374)">
<path d="M21.0181 8.02563e-06C9.42017 -0.0100227 0.0100388 9.38387 8.02563e-06 20.9819C-0.0100227 32.5798 9.38387 41.99 20.9819 42C32.5798 42.01 41.99 32.6161 42 21.0181C42 21.0121 42 21.006 42 21C41.9901 9.41328 32.6049 0.0199845 21.0181 8.02563e-06ZM30.0855 20.8187L27.0933 23.7384L27.7824 27.8912C27.9184 28.6868 27.5872 29.49 26.9301 29.9586C26.2764 30.4282 25.4146 30.4911 24.6995 30.1218L21.0181 28.254L17.3005 30.0674C16.5892 30.4546 15.7174 30.3908 15.07 29.9042C14.4196 29.4311 14.0958 28.6287 14.2358 27.8368L14.943 23.7021L11.9508 20.8187C11.3615 20.2609 11.1494 19.412 11.4068 18.6425C11.6622 17.8837 12.3199 17.3309 13.1114 17.2099L17.2461 16.6115L19.0596 12.8576C19.5662 11.8009 20.8335 11.3551 21.8901 11.8617C22.3258 12.0706 22.6771 12.4219 22.886 12.8576L24.6994 16.6115L28.8704 17.2099C29.6592 17.3238 30.3176 17.8702 30.5751 18.6244C30.8317 19.39 30.6431 20.2347 30.0855 20.8187Z" fill="#EFEFEF"/>
</g>
<defs>
<clipPath id="clip0_696_1374">
<rect width="42" height="42" fill="white"/>
</clipPath>
</defs>
</svg>
