<svg width="1728" height="270" viewBox="0 0 1728 270" fill="none" xmlns="http://www.w3.org/2000/svg">
<g clip-path="url(#clip0_262_303)">
<g clip-path="url(#clip1_262_303)">
<g opacity="0.18">
<path d="M1015.67 450.002C1006.2 450.002 996.983 449.555 988.124 448.664C969.543 446.792 952.377 442.951 937.102 437.245C920.684 431.114 906.284 422.76 894.299 412.416C870.212 391.624 858.161 366.725 846.506 342.644C844.216 337.916 841.849 333.027 839.445 328.283C823.045 295.949 802.255 267.627 775.892 241.697C723.303 189.972 649.344 145.828 562.009 114.039C461.006 77.276 352.412 58.963 256.228 62.4742C199.696 64.539 125.001 84.1729 91.6179 117.704C71.8066 137.604 70.2091 159.688 87.0013 181.565L86.6678 181.657C77.8632 170.184 74.027 158.682 75.2691 147.47C76.4086 137.186 81.802 127.132 91.3028 117.589C106.413 102.411 131.332 88.9586 163.367 78.6849C192.968 69.1927 225.937 63.3569 256.206 62.2518C306.542 60.4159 360.077 64.4906 415.323 74.3659C465.403 83.3188 514.82 96.6017 562.199 113.847C649.586 145.654 723.589 189.822 776.208 241.578C802.585 267.525 823.386 295.863 839.797 328.214C842.204 332.958 844.571 337.85 846.857 342.578C858.502 366.641 870.545 391.523 894.6 412.284C917.862 432.365 949.351 444.529 988.186 448.439C1041.97 453.854 1107.27 442.528 1162.88 418.14C1243.01 382.995 1298.62 331.84 1352.41 282.371C1361.84 273.7 1371.58 264.734 1381.23 256.076C1406.29 233.594 1440.22 204.461 1480.55 178.507C1521.77 151.979 1563.65 132.488 1608.6 118.919C1636.12 110.613 1665.28 105.017 1695.27 102.288C1722.97 99.765 1752.3 99.6087 1782.43 101.819C1834.11 105.612 1889.78 116.326 1952.64 134.571C2076.42 170.499 2200.05 214.108 2320.12 264.188C2434.25 311.788 2546.18 365.651 2652.8 424.275L2652.55 424.438C2431.53 302.912 2195.99 205.454 1952.48 134.769C1814.91 94.834 1705.69 89.8589 1608.77 119.115C1510.17 148.877 1441.29 202.588 1381.54 256.197C1371.89 264.853 1362.14 273.819 1352.72 282.49C1298.92 331.977 1243.29 383.147 1163.1 418.316C1137.19 429.681 1108.04 438.546 1078.8 443.95C1063.36 446.806 1048 448.672 1033.17 449.5C1027.25 449.837 1021.41 450.002 1015.67 450.002Z" fill="#01387A"/>
<path d="M1024.93 437.672C1000.78 437.672 978.408 434.91 958.414 429.457C936.118 423.377 916.878 413.955 901.226 401.456C899.841 400.348 898.466 399.204 897.14 398.05C873.309 377.349 860.723 352.773 848.555 329.005C846.093 324.202 843.55 319.233 840.971 314.412C825.607 285.707 807.108 260.406 784.409 237.07C781.613 234.197 778.719 231.318 775.799 228.513C722.436 177.233 647.877 133.648 560.182 102.471C458.45 66.3355 349.548 48.7797 253.536 53.0393C197.414 55.5555 123.064 75.5107 89.5382 108.784C69.463 128.709 67.1914 150.836 82.9613 172.777L82.6242 172.865C74.3582 161.366 70.9617 149.841 72.5335 138.617C73.9771 128.308 79.5904 118.232 89.2231 108.67C104.487 93.5178 129.333 80.0499 161.067 69.7234C190.398 60.1783 223.224 54.1752 253.503 52.8192C303.777 50.5892 357.371 54.2743 412.793 63.7709C462.994 72.3738 512.645 85.3309 560.365 102.281C648.111 133.477 722.711 177.088 776.106 228.397C779.027 231.203 781.925 234.085 784.721 236.96C807.434 260.312 825.945 285.625 841.315 314.346C843.898 319.167 846.441 324.135 848.903 328.941C861.068 352.694 873.643 377.252 897.441 397.925C898.763 399.074 900.137 400.219 901.519 401.324C933.865 427.161 978.309 437.672 1025.05 437.672C1025.3 437.672 1025.56 437.672 1025.81 437.672C1025.52 437.67 1025.23 437.672 1024.93 437.672ZM1034.9 437.518C1078.36 436.178 1123.19 426.146 1161.66 411.223C1244.63 378.901 1304.26 328.978 1361.93 280.701C1364.31 278.711 1366.68 276.725 1369.06 274.739C1374.27 270.381 1380.45 265.221 1386.76 260.019C1415.06 236.691 1449.32 209.549 1488.77 185.118C1530.74 159.122 1572.68 139.832 1616.97 126.142C1644.18 117.739 1672.94 111.82 1702.44 108.549C1729.78 105.517 1758.67 104.661 1788.3 106.002C1839.49 108.32 1894.53 117.107 1956.57 132.869C2017.06 148.212 2066.78 162.656 2113.05 178.323C2178.59 200.539 2241.02 226.136 2293.45 248.244C2415.34 299.791 2534.93 358.322 2648.91 422.214L2648.66 422.375C2534.69 358.492 2415.11 299.965 2293.24 248.424C2240.82 226.319 2178.4 200.726 2112.87 178.516C2066.62 162.854 2016.91 148.415 1956.43 133.076C1821.29 98.7394 1713.47 96.5974 1617.14 126.34C1517.15 157.242 1445.95 211.614 1387.06 260.151C1380.74 265.353 1374.57 270.511 1369.35 274.872C1366.98 276.855 1364.6 278.843 1362.23 280.833C1304.54 329.126 1244.89 379.066 1161.85 411.412C1141.27 419.399 1119.36 425.743 1096.74 430.267C1075.68 434.474 1054.92 436.906 1034.9 437.518Z" fill="#01387A"/>
<path d="M1035.15 425.625C1032.24 425.625 1029.35 425.587 1026.49 425.51C1002.36 424.869 980.024 421.543 960.113 415.619C938.338 409.141 919.472 399.545 904.043 387.097C902.672 385.987 901.306 384.84 899.987 383.687C876.423 363.086 863.314 338.839 850.64 315.392C847.998 310.505 845.265 305.451 842.495 300.546C826.373 271.937 807.386 246.84 784.442 223.818C781.602 220.972 778.664 218.117 775.699 215.334C721.563 164.501 646.403 121.475 558.35 90.9094C455.893 55.4017 346.683 38.601 250.839 43.609C196.876 46.473 122.741 65.2901 87.4935 99.8337C67.1288 119.791 64.1646 141.979 78.9196 163.996L78.5789 164.078C70.8478 152.543 67.8983 140.992 69.8035 129.748C71.5549 119.406 77.4027 109.304 87.182 99.7192C102.608 84.6026 127.373 71.1303 158.803 60.7553C187.858 51.1641 220.534 44.9981 250.806 43.3911C301.022 40.7693 354.674 44.0625 410.268 53.1805C460.594 61.4356 510.476 74.0647 558.533 90.7201C646.638 121.306 721.838 164.355 776.007 215.217C778.971 218.002 781.914 220.857 784.753 223.708C807.708 246.743 826.706 271.856 842.835 300.48C845.605 305.387 848.339 310.441 850.98 315.328C863.651 338.761 876.75 362.992 900.284 383.568C901.603 384.721 902.962 385.866 904.332 386.971C967.027 437.554 1078.14 432.123 1160.43 404.304C1246.87 374.831 1311.1 325.844 1373.22 278.471L1373.86 277.984C1379.87 273.392 1386.1 268.646 1392.29 263.96C1457.63 214.517 1529.45 163.706 1625.33 133.36C1652.25 124.859 1680.62 118.616 1709.63 114.805C1736.62 111.261 1765.07 109.705 1794.19 110.18C1844.97 111.008 1899.37 117.872 1960.51 131.163C2024.76 145.082 2073.12 157.877 2117.29 172.65C2180.23 193.741 2241.19 220.393 2294.98 243.908C2414.74 296.544 2532.51 355.84 2645.03 420.143L2644.77 420.302C2532.27 356.005 2414.51 296.716 2294.76 244.084C2240.98 220.573 2180.03 193.926 2117.11 172.841C2072.95 158.073 2024.62 145.283 1960.39 131.368C1827.86 102.557 1721.45 103.25 1625.5 133.552C1529.68 163.878 1457.89 214.667 1392.57 264.092C1386.38 268.778 1380.16 273.527 1374.14 278.117L1373.51 278.603C1342.55 302.21 1310.54 326.621 1275.97 348.425C1237.13 372.929 1199.39 391.268 1160.61 404.492C1120.03 418.206 1075.83 425.625 1035.15 425.625Z" fill="#01387A"/>
<path d="M2640.89 418.226C2529.85 353.515 2413.91 293.464 2296.29 239.743C2291.31 237.484 2286.32 235.214 2281.31 232.938C2230.37 209.776 2177.69 185.825 2121.36 167.166C2066.71 149.115 2011.32 138.078 1964.35 129.662C1834.69 106.288 1729.69 109.817 1633.88 140.763C1535.54 172.626 1459.33 225.526 1398.1 268.034C1394.43 270.586 1390.76 273.141 1387.09 275.699C1384.37 277.588 1381.66 279.477 1378.94 281.363C1344.08 305.592 1312.37 327.253 1277.33 347.019C1237.3 369.598 1198.72 386.134 1159.37 397.575C1122.5 408.298 1083.1 413.971 1046.46 413.973C1039.79 413.973 1033.21 413.786 1026.75 413.405C1003.15 412.016 981.306 408.113 961.82 401.804C940.558 394.92 922.066 385.142 906.849 372.739C905.49 371.628 904.134 370.478 902.822 369.323C879.537 348.83 865.918 324.924 852.75 301.805C849.914 296.826 846.979 291.675 844.011 286.675C827.12 258.157 807.642 233.26 784.471 210.559C781.587 207.735 778.601 204.906 775.596 202.148C720.684 151.761 644.926 109.295 556.517 79.3391C453.335 44.4587 343.821 28.4174 248.146 34.1674C182.739 38.176 115.856 61.4795 85.4962 90.8345C64.8128 110.834 61.1451 133.092 74.8815 155.202L74.5371 155.279C67.3446 143.702 64.8384 132.116 67.0881 120.843C69.1583 110.464 75.2479 100.329 85.1847 90.7178C100.771 75.6452 125.456 62.1729 156.571 51.7605C185.348 42.1296 217.855 35.803 248.109 33.9494C298.266 30.9336 351.973 33.8372 407.74 42.5765C458.186 50.4838 508.306 62.7871 556.7 79.1453C645.165 109.119 720.962 151.609 775.908 202.027C778.916 204.787 781.902 207.618 784.786 210.443C807.972 233.156 827.457 258.067 844.359 286.598C847.327 291.6 850.262 296.749 853.098 301.73C866.259 324.836 879.871 348.727 903.126 369.195C904.438 370.349 905.79 371.496 907.146 372.605C972.596 425.953 1083.84 419.289 1159.21 397.375C1249.14 371.227 1317.95 323.409 1378.67 281.218C1381.38 279.329 1384.1 277.441 1386.81 275.554C1390.48 272.996 1394.15 270.44 1397.83 267.889C1432.78 243.626 1467.29 220.047 1505.24 198.32C1548.87 173.332 1590.9 154.442 1633.71 140.57C1660.35 131.965 1688.31 125.398 1716.82 121.055C1743.47 116.993 1771.48 114.739 1800.09 114.351C1850.54 113.669 1904.31 118.609 1964.46 129.451C2011.45 137.871 2066.86 148.913 2121.54 166.975C2177.89 185.64 2230.58 209.597 2281.54 232.764C2286.54 235.04 2291.54 237.31 2296.52 239.569C2414.14 293.295 2530.1 353.352 2641.15 418.069L2640.89 418.226Z" fill="#01387A"/>
<path d="M2637.01 416.152C2525.33 349.79 2411.22 288.975 2297.82 235.401C2291.04 232.196 2284.1 228.892 2277.39 225.698C2229.31 202.821 2179.6 179.165 2125.61 161.491C2071.69 143.904 2015.84 134.667 1968.31 127.953C1841.81 109.909 1738.2 116.271 1642.26 147.974C1550.75 178.324 1479.05 223.963 1409.72 268.098L1402.11 272.943C1396.09 276.771 1389.88 280.727 1383.75 284.608C1314.34 328.49 1244.86 369.617 1158.13 390.653C1137.09 395.758 1115.48 399.296 1093.9 401.174C1070.72 403.188 1048.21 403.217 1026.98 401.257C1003.93 399.129 982.579 394.658 963.526 387.968C942.791 380.688 924.669 370.731 909.668 358.377C908.316 357.259 906.971 356.108 905.671 354.954C882.672 334.583 868.562 311.028 854.917 288.249C851.872 283.166 848.721 277.909 845.541 272.804C827.865 244.374 807.904 219.677 784.513 197.302C781.589 194.507 778.559 191.7 775.506 188.964C719.821 139.024 643.466 97.1167 554.694 67.7705C450.782 33.5219 340.961 18.2358 245.451 24.7319C180.641 29.2337 114.062 52.7001 83.5483 81.7997C62.5205 101.85 58.1274 124.193 70.8415 146.416L70.4934 146.489C63.8396 134.861 61.7841 123.231 64.3819 111.925C66.7781 101.502 73.1205 91.3272 83.2332 81.6853C98.9885 66.6633 123.585 53.2042 154.37 42.761C182.862 33.0949 215.193 26.6163 245.407 24.5162C295.505 21.1085 349.267 23.6203 405.209 31.981C455.78 39.5404 506.131 51.5157 554.866 67.579C643.689 96.9406 720.088 138.874 775.807 188.843C778.859 191.581 781.893 194.39 784.817 197.186C808.222 219.571 828.195 244.281 845.878 272.727C849.058 277.832 852.209 283.091 855.254 288.174C868.891 310.94 882.994 334.484 905.968 354.831C907.265 355.98 908.609 357.129 909.958 358.247C973.833 410.853 1079.96 409.376 1157.99 390.451C1244.65 369.432 1314.1 328.32 1383.47 284.458C1389.6 280.577 1395.82 276.621 1401.83 272.793L1409.45 267.948C1443.48 246.285 1478.67 223.881 1516.89 203.041C1560.18 179.438 1601.13 161.363 1642.08 147.781C1668.44 139.068 1696.01 132.178 1724 127.304C1750.32 122.721 1777.9 119.766 1805.97 118.523C1856.21 116.297 1909.33 119.313 1968.39 127.737C2015.94 134.456 2071.82 143.695 2125.78 161.297C2179.8 178.978 2229.52 202.641 2277.61 225.524C2284.32 228.718 2291.26 232.02 2298.05 235.227C2411.45 288.806 2525.58 349.625 2637.26 415.993L2637.01 416.152Z" fill="#01387A"/>
<path d="M2633.12 414.078C2522.41 346.979 2410.11 285.403 2299.35 231.062C2291.02 226.979 2282.49 222.733 2274.24 218.627C2228.76 195.997 2181.73 172.597 2129.85 155.82C2076.18 138.535 2020.08 131.172 1972.27 126.25C1849.28 113.392 1747.07 122.589 1650.63 155.191C1566.47 183.762 1497.37 224.254 1430.54 263.411C1423.51 267.532 1416.24 271.792 1409.15 275.919C1400.83 280.767 1394.47 284.45 1388.54 287.857C1356.77 306.098 1318.94 327.101 1279.25 344.571C1237.18 363.082 1197.16 375.894 1156.89 383.739C1135.71 387.865 1114.2 390.467 1092.93 391.47C1070.09 392.549 1047.98 391.757 1027.21 389.113C1004.71 386.249 983.855 381.21 965.224 374.137C945.02 366.467 927.275 356.332 912.48 344.018C911.146 342.902 909.809 341.748 908.512 340.591C885.817 320.356 871.234 297.165 857.128 274.737C853.856 269.535 850.474 264.158 847.062 258.934C828.592 230.583 808.143 206.088 784.543 184.046C781.575 181.275 778.501 178.494 775.405 175.78C718.946 126.287 641.991 84.9391 552.86 56.2027C448.226 22.5837 338.097 8.05701 242.755 15.295C188.506 19.504 117.651 38.8935 81.6481 72.7194C60.2429 92.831 55.1059 115.276 66.7978 137.626L66.4497 137.692C60.3345 126.005 58.7369 114.325 61.6975 102.975C64.4308 92.4986 71.0371 82.2799 81.3403 72.6006C97.2641 57.6402 121.769 44.2032 152.214 33.7379C180.419 24.0432 212.556 17.4171 242.711 15.0771C292.751 11.2776 346.572 13.3975 402.682 21.3796C453.374 28.5912 503.96 40.2407 553.032 56.009C642.214 84.7608 719.214 126.133 775.706 175.655C778.802 178.369 781.88 181.153 784.847 183.927C808.458 205.98 828.918 230.488 847.4 258.852C850.814 264.078 854.196 269.456 857.468 274.658C871.564 297.074 886.143 320.252 908.812 340.465C910.109 341.621 911.443 342.772 912.777 343.886C965.916 388.12 1057.13 402.939 1156.78 383.526C1247.01 365.946 1320.62 326.544 1388.29 287.694C1394.22 284.287 1400.57 280.604 1408.89 275.756C1415.98 271.629 1423.25 267.369 1430.28 263.248C1463.18 243.971 1497.2 224.038 1533.48 205.373C1574.51 184.264 1612.78 167.785 1650.45 154.995C1676.57 146.167 1703.73 138.954 1731.19 133.556C1757.2 128.442 1784.35 124.79 1811.87 122.697C1861.97 118.888 1914.47 119.978 1972.34 126.027C2020.17 130.954 2076.31 138.32 2130.02 155.62C2181.93 172.408 2228.97 195.814 2274.47 218.451C2282.72 222.556 2291.26 226.803 2299.58 230.886C2410.35 285.233 2522.66 346.814 2633.38 413.918L2633.12 414.078Z" fill="#01387A"/>
<path d="M2629.24 412.005C2519.48 344.164 2409.01 281.824 2300.87 226.722C2291.67 222.035 2282.23 217.115 2273.09 212.358C2229.56 189.697 2184.56 166.266 2134.09 150.146C2080.39 133.068 2024.16 127.619 1976.23 124.542C1858.81 116.8 1755.04 129.184 1659 162.403C1582.53 188.973 1516.98 224.518 1453.58 258.895C1440.78 265.838 1427.54 273.018 1414.67 279.862C1406.79 284.052 1399.82 287.73 1393.33 291.107C1363.17 306.794 1323.06 326.907 1280.19 343.345C1237.11 359.859 1196.37 370.811 1155.64 376.823C1111.21 383.381 1066.87 383.429 1027.42 376.966C1005.48 373.371 985.126 367.767 966.912 360.306C947.248 352.252 929.88 341.94 915.286 329.663C913.964 328.545 912.637 327.389 911.348 326.232C888.975 306.151 873.938 283.341 859.399 261.283C855.882 255.947 852.247 250.43 848.579 245.07C829.299 216.794 808.363 192.497 784.572 170.797C781.561 168.049 778.442 165.293 775.302 162.603C718.07 113.557 640.518 72.7661 551.028 44.6438C445.672 11.6566 335.235 -2.11282 240.058 5.86707C175.557 11.3925 111.154 34.5947 79.805 63.5997C57.9894 83.7838 52.094 106.345 62.7563 128.845L62.4046 128.905C56.8316 117.147 55.6957 105.405 59.0263 94.0069C62.1041 83.4712 68.9925 73.1997 79.4973 63.4786C95.5896 48.5886 119.999 35.1824 150.088 24.7084C177.997 14.9939 209.933 8.22252 240.007 5.64694C289.988 1.45557 343.867 3.18582 400.15 10.7871C450.967 17.6509 501.787 28.9746 551.196 44.4457C640.738 72.5856 718.334 113.399 775.603 162.475C778.743 165.165 781.861 167.924 784.876 170.673C808.678 192.387 829.625 216.695 848.916 244.984C852.584 250.344 856.219 255.863 859.736 261.199C874.268 283.246 889.297 306.045 911.648 326.106C912.938 327.264 914.26 328.415 915.583 329.534C967.81 373.481 1057.52 391.079 1155.55 376.609C1244.92 363.417 1322.54 327.638 1393.09 290.942C1399.57 287.565 1406.55 283.889 1414.42 279.699C1427.29 272.855 1440.53 265.677 1453.33 258.734C1516.74 224.351 1582.31 188.797 1658.82 162.216C1684.7 153.263 1711.46 145.728 1738.37 139.815C1764.1 134.162 1790.81 129.81 1817.75 126.88C1867.84 121.431 1919.7 120.597 1976.27 124.326C2024.22 127.406 2080.5 132.856 2134.26 149.954C2184.76 166.086 2229.78 189.526 2273.33 212.195C2282.46 216.952 2291.91 221.87 2301.11 226.557C2409.25 281.663 2519.74 344.007 2629.5 411.853L2629.24 412.005Z" fill="#01387A"/>
<path d="M2625.35 409.931C2516.58 341.341 2407.92 278.242 2302.4 222.383C2292.71 217.249 2282.73 211.814 2273.09 206.557C2231.15 183.705 2187.78 160.074 2138.33 144.473C2084.41 127.54 2028.13 124.033 1980.19 122.836C1867.21 119.806 1764.88 135.108 1667.38 169.616C1598.99 193.932 1538.04 224.707 1479.08 254.467C1458.81 264.701 1439.66 274.368 1420.19 283.805C1412.27 287.646 1405.05 291.098 1398.13 294.354C1353.45 315.343 1316.27 330.52 1281.13 342.112C1237.05 356.656 1195.6 365.748 1154.4 369.904C1138.42 371.515 1122.49 372.319 1106.86 372.319C1079.14 372.319 1052.33 369.8 1027.64 364.812C982.958 355.784 946.105 339.127 918.101 315.302C916.782 314.172 915.467 313.017 914.192 311.863C892.16 291.956 876.701 269.551 861.752 247.881C857.963 242.391 854.05 236.716 850.104 231.197C830 202.987 808.572 178.893 784.61 157.538C781.554 154.815 778.392 152.083 775.208 149.417C717.203 100.818 639.049 60.5858 549.2 33.0733C443.123 0.72008 332.381 -12.2943 237.37 -3.57255C172.601 2.49657 110.056 25.2585 78.0358 54.4176C55.7769 74.6854 49.101 97.3813 58.7228 120.053L58.3674 120.108C53.344 108.269 52.6771 96.4567 56.3888 84.9987C59.8256 74.3926 67.0035 64.0639 77.7317 54.2965C93.9927 39.488 118.296 26.1259 148.019 15.6518C175.627 5.92188 207.339 -0.981555 237.315 -3.79048C287.237 -8.37369 341.175 -7.03526 397.627 0.187362C448.567 6.70556 499.618 17.7035 549.368 32.8752C639.269 60.4053 717.466 100.659 775.508 149.287C778.692 151.955 781.854 154.687 784.914 157.412C808.891 178.778 830.329 202.885 850.441 231.107C854.387 236.625 858.304 242.303 862.089 247.793C877.031 269.452 892.482 291.849 914.496 311.738C915.771 312.889 917.082 314.045 918.401 315.172C970.694 359.665 1056.69 379.535 1154.34 369.684C1247.29 360.306 1329.62 326.253 1397.9 294.178C1404.82 290.922 1412.04 287.472 1419.96 283.631C1439.43 274.194 1458.58 264.53 1478.85 254.296C1537.81 224.529 1598.78 193.75 1667.19 169.425C1692.88 160.333 1719.24 152.474 1745.56 146.064C1771.05 139.856 1797.32 134.804 1823.64 131.051C1873.84 123.894 1925.06 121.134 1980.21 122.613C2028.19 123.811 2084.51 127.322 2138.5 144.274C2187.99 159.886 2231.37 183.529 2273.33 206.39C2282.98 211.647 2292.95 217.082 2302.64 222.213C2408.16 278.077 2516.83 341.183 2625.61 409.777L2625.35 409.931Z" fill="#01387A"/>
<path d="M2621.47 407.857C2512.15 337.538 2408.28 275.449 2303.93 218.042C2293.97 212.565 2284.17 206.971 2273.79 201.05C2233.22 177.9 2191.26 153.965 2142.58 138.8C2087.98 121.874 2029.23 120.465 1984.15 121.13C1876.31 122.512 1775.43 140.733 1675.75 176.833C1615.94 198.597 1560.72 224.734 1507.32 250.012C1479.25 263.297 1452.74 275.843 1425.71 287.75C1417.68 291.287 1410.23 294.51 1402.92 297.603C1357.63 316.746 1319.23 330.495 1282.07 340.877C1236.97 353.478 1194.8 360.709 1153.15 362.985C1131.75 364.154 1110.5 363.934 1089.99 362.331C1068.27 360.634 1047.36 357.378 1027.85 352.656C984.602 342.189 948.625 324.792 920.914 300.945C919.606 299.813 918.302 298.655 917.034 297.502C895.372 277.8 879.525 255.821 864.199 234.567C860.11 228.897 855.882 223.032 851.628 217.331C830.68 189.182 808.77 165.289 784.642 144.286C781.539 141.587 778.333 138.879 775.112 136.237C716.334 88.0851 637.583 48.4124 547.375 21.5097C464.113 -3.21805 378.251 -16.1202 299.514 -16.1202C277.255 -16.1202 255.583 -15.0899 234.679 -13.0052C170.691 -6.49805 108.538 16.3454 76.3314 45.1918C53.5998 65.5543 46.1142 88.4043 54.6844 111.27L54.3253 111.318C49.8515 99.3868 49.6646 87.4929 53.7684 75.9689C57.5716 65.2857 65.0609 54.8888 76.0236 45.0686C92.4531 30.3525 116.643 17.0454 145.984 6.58236C173.681 -3.29509 204.33 -10.1435 234.614 -13.221C284.477 -18.196 338.474 -17.2472 395.098 -10.4054C446.16 -4.23727 497.449 6.43267 547.536 21.3094C637.795 48.2275 716.594 87.9222 775.409 136.103C778.633 138.745 781.843 141.455 784.946 144.156C809.085 165.17 831.007 189.074 851.965 217.236C856.219 222.938 860.451 228.802 864.54 234.475C879.859 255.72 895.698 277.69 917.342 297.376C918.61 298.527 919.914 299.685 921.218 300.815C973.039 345.407 1057.56 367.984 1153.12 362.763C1249.82 357.477 1337.3 325.065 1402.71 297.418C1410.02 294.325 1417.47 291.102 1425.5 287.567C1452.53 275.664 1479.03 263.117 1507.1 249.834C1560.51 224.553 1615.73 198.41 1675.56 176.639C1726.89 158.053 1777.25 144.508 1829.53 135.227C1879.96 126.276 1930.54 121.592 1984.15 120.905C2014.74 120.454 2039.69 121.237 2062.69 123.368C2092.38 126.12 2118.57 131.102 2142.75 138.599C2191.48 153.778 2233.46 177.726 2274.05 200.887C2284.43 206.808 2294.23 212.4 2304.18 217.877C2408.54 275.286 2512.42 337.379 2621.74 407.703L2621.47 407.857Z" fill="#01387A"/>
<path d="M2617.58 405.784C2509.26 334.693 2407.17 271.865 2305.45 213.701C2295.39 207.946 2285.47 202.018 2274.97 195.742C2235.61 172.227 2194.91 147.909 2146.82 133.125C2091.77 116.278 2033.08 116.951 1988.11 119.419C1886.34 124.81 1786.91 145.95 1684.12 184.042C1633.48 202.901 1585.26 224.483 1538.62 245.356C1501.76 261.855 1466.95 277.441 1431.23 291.686C1423.16 294.908 1415.24 297.99 1407.71 300.843C1362.33 318.023 1321.54 330.709 1283.01 339.629C1236.87 350.31 1193.98 355.685 1151.91 356.06C1130.5 356.249 1109.33 355.087 1089.01 352.601C1067.7 349.995 1047.2 345.92 1028.06 340.487C986.299 328.629 951.194 310.492 923.725 286.579C922.435 285.449 921.138 284.289 919.874 283.129C898.619 263.667 882.428 242.153 866.768 221.348C862.338 215.462 857.754 209.373 853.149 203.453C831.344 175.358 808.946 151.667 784.675 131.022C781.528 128.348 778.278 125.664 775.013 123.047C715.462 75.3415 636.11 36.2279 545.543 9.93499C438.026 -21.1481 326.665 -32.6479 231.983 -22.4468C168.823 -15.5236 107.084 7.37923 74.6977 35.8977C51.4531 56.3681 43.1358 79.3898 50.6398 102.478L50.2807 102.519C46.3675 90.4846 46.668 78.4982 51.1784 66.8949C55.3663 56.1237 63.1744 45.6519 74.3936 35.7722C90.9843 21.1619 115.053 7.92077 143.999 -2.52023C171.377 -12.3955 201.777 -19.3606 231.917 -22.6648C281.726 -28.0295 335.778 -27.4747 392.57 -21.0116C443.756 -15.1868 495.276 -4.84266 545.7 9.73468C636.323 36.0408 715.718 75.1786 775.303 122.913C778.571 125.53 781.825 128.216 784.972 130.893C809.257 151.548 831.663 175.25 853.478 203.357C858.088 209.276 862.668 215.365 867.101 221.254C882.754 242.05 898.938 263.555 920.178 283.004C921.442 284.161 922.739 285.322 924.025 286.449C976.392 332.034 1057.32 356.681 1151.9 355.835C1228.64 355.153 1309.87 337.617 1407.52 300.652C1415.04 297.799 1422.95 294.719 1431.02 291.496C1466.73 277.254 1501.54 261.672 1538.4 245.173C1585.04 224.298 1633.27 202.712 1683.93 183.848C1735.75 164.641 1785.3 150.104 1835.41 139.399C1886.18 128.555 1936.12 121.944 1988.08 119.192C2033.1 116.72 2091.85 116.049 2146.99 132.922C2195.13 147.724 2235.85 172.053 2275.23 195.579C2285.73 201.855 2295.65 207.781 2305.71 213.533C2407.43 271.7 2509.53 334.533 2617.85 405.628L2617.58 405.784Z" fill="#01387A"/>
<path d="M2613.7 403.71C2506.39 331.847 2406.07 268.274 2306.98 209.362C2296.93 203.381 2286.99 197.166 2276.48 190.586C2238.24 166.651 2198.69 141.901 2151.07 127.452C2095.5 110.666 2036.91 113.429 1992.08 117.711C1896.32 126.681 1801.13 150.051 1692.5 191.256C1651.75 206.78 1611.93 223.809 1573.43 240.277C1526.66 260.279 1482.49 279.173 1436.75 295.628C1428.51 298.596 1420.35 301.444 1412.51 304.09C1366.32 319.663 1324.26 330.881 1283.95 338.383C1261.37 342.585 1239.08 345.63 1217.69 347.433C1194.88 349.354 1172.33 349.929 1150.66 349.141C1106.7 347.54 1065.52 340.536 1028.28 328.323C988.061 315.132 953.832 296.258 926.546 272.219C925.263 271.081 923.977 269.919 922.721 268.765C901.92 249.589 885.439 228.586 869.504 208.276C864.679 202.128 859.692 195.771 854.676 189.585C831.992 161.535 809.107 138.045 784.712 117.768C781.52 115.115 778.223 112.456 774.918 109.865C714.593 62.6044 634.644 24.05 543.718 -1.62877C435.483 -32.0756 323.818 -42.8182 229.293 -31.8797C128.082 -19.9858 29.4575 31.4047 46.6052 93.6918L46.2424 93.7271C41.9519 78.1459 44.4654 62.7959 53.7097 48.0997C62.1516 34.6781 76.0053 22.0467 94.886 10.5601C112.44 -0.120845 133.501 -9.3423 157.478 -16.8489C180.283 -23.9879 205.092 -29.2623 229.22 -32.0976C278.97 -37.8542 333.08 -37.6891 390.045 -31.6045C441.356 -26.1254 493.11 -16.107 543.872 -1.82689C634.849 23.8695 714.846 62.4459 775.207 109.733C778.516 112.326 781.813 114.985 785.008 117.64C809.414 137.926 832.311 161.43 855.006 189.49C860.022 195.676 865.009 202.033 869.834 208.184C885.765 228.487 902.239 249.481 923.028 268.646C924.281 269.8 925.564 270.962 926.846 272.098C979.289 318.295 1058.78 345.577 1150.69 348.923C1228.49 351.752 1314.07 337.027 1412.33 303.901C1420.17 301.255 1428.32 298.409 1436.56 295.441C1482.29 278.99 1526.46 260.098 1573.22 240.099C1611.73 223.629 1651.55 206.597 1692.3 191.071C1800.98 149.848 1896.21 126.47 1992.02 117.493C2022.14 114.616 2047.08 113.695 2070.52 114.6C2100.47 115.756 2126.87 119.895 2151.23 127.254C2198.9 141.719 2238.47 166.484 2276.74 190.432C2287.25 197.01 2297.18 203.224 2307.24 209.203C2406.33 268.12 2506.66 331.695 2613.96 403.563L2613.7 403.71Z" fill="#01387A"/>
<path d="M2609.81 401.636C2503.53 328.989 2404.97 264.677 2308.51 205.02C2298.53 198.848 2288.67 192.382 2278.23 185.534C2241.02 161.141 2202.54 135.916 2155.31 121.776C2098.53 104.85 2037.22 110.373 1996.04 116C1884.27 131.084 1784.11 166.151 1700.87 198.469C1670.96 210.132 1641.12 222.486 1612.25 234.433C1554.36 258.399 1499.68 281.035 1442.28 299.571C1433.83 302.298 1425.44 304.911 1417.31 307.339C1370.22 321.382 1326.9 331.129 1284.9 337.134C1237.28 343.943 1191.7 345.656 1149.43 342.222C1105.99 338.693 1065.31 329.923 1028.51 316.153C989.905 301.712 956.552 282.101 929.365 257.862C928.097 256.723 926.818 255.559 925.569 254.401C905.285 235.577 888.599 215.151 872.459 195.396C867.171 188.922 861.701 182.23 856.205 175.716C832.297 147.314 809.591 124.691 784.753 104.513C781.518 101.885 778.18 99.2522 774.827 96.6832C713.722 49.8715 633.172 11.8762 541.887 -13.195C432.933 -43.0034 320.961 -52.9909 226.598 -41.315C125.024 -28.5802 28.4144 22.1125 42.5648 84.906L42.2021 84.9346C38.6919 69.3557 41.7294 54.021 51.2266 39.3579C59.9323 25.923 73.8665 13.2785 92.6483 1.77863C110.162 -8.94634 131.113 -18.236 154.922 -25.8373C177.591 -33.0753 202.353 -38.5017 226.524 -41.5329C276.22 -47.6813 330.385 -47.9058 387.518 -42.2021C438.953 -37.0686 490.942 -27.376 542.041 -13.3953C633.381 11.6891 713.975 49.7064 775.109 96.5467C778.462 99.1179 781.803 101.753 785.042 104.381C809.895 124.568 832.609 147.204 856.527 175.617C862.023 182.131 867.494 188.825 872.781 195.299C888.917 215.048 905.6 235.467 925.869 254.282C927.119 255.44 928.394 256.602 929.661 257.741C982.511 304.858 1060.57 334.783 1149.47 342.004C1229.2 348.48 1316.75 337.075 1417.14 307.141C1425.27 304.715 1433.67 302.104 1442.1 299.377C1499.49 280.846 1554.16 258.214 1612.05 234.25C1640.91 222.303 1670.75 209.947 1700.67 198.282C1756.64 176.553 1803.2 160.498 1847.2 147.759C1898.98 132.763 1947.64 122.305 1995.95 115.784C2025.41 111.76 2051.08 109.938 2074.43 110.215C2104.51 110.572 2131.02 114.287 2155.47 121.578C2202.77 135.735 2241.26 160.976 2278.49 185.384C2288.94 192.231 2298.8 198.696 2308.77 204.864C2405.24 264.523 2503.8 328.84 2610.09 401.489L2609.81 401.636Z" fill="#01387A"/>
<path d="M2605.93 399.56C2500.67 326.128 2403.88 261.073 2310.04 200.677C2300.2 194.344 2290.46 187.654 2280.15 180.57C2243.92 155.686 2206.47 129.955 2159.56 116.101C2102.16 99.2149 2041.01 106.979 2000 114.29C1898.74 132.189 1808.41 166.27 1709.25 205.681C1691.36 212.816 1673.27 220.179 1655.78 227.303C1588.49 254.696 1518.92 283.021 1447.8 303.511C1439.16 306.003 1430.51 308.383 1422.1 310.584C1374.69 322.982 1328.85 331.492 1285.84 335.88C1237.12 340.85 1190.81 340.654 1148.18 335.301C1105.35 329.923 1065.16 319.385 1028.72 303.98C991.84 288.39 959.355 268.043 932.167 243.505C930.911 242.364 929.643 241.198 928.401 240.04C908.729 221.656 891.937 201.895 875.698 182.785C869.846 175.899 863.797 168.78 857.718 161.852C832.876 133.479 809.698 111.049 784.775 91.2637C781.503 88.6661 778.117 86.0552 774.717 83.5061C712.85 37.1347 631.707 -0.301466 540.055 -24.7607C430.387 -53.9307 318.11 -63.161 223.901 -50.7498C125.551 -37.6518 27.1575 11.2622 38.5197 76.1184L38.1569 76.1404C35.4272 60.5614 38.9887 45.2444 48.7386 30.6143C57.7045 17.164 71.723 4.50847 90.4022 -7.00458C124.866 -28.2432 173.495 -44.2668 223.82 -50.9677C273.457 -57.5057 327.681 -58.1221 384.986 -52.7992C436.546 -48.0091 488.766 -38.6446 540.201 -24.9632C631.905 -0.490779 713.096 36.9696 775.003 83.363C778.407 85.9144 781.792 88.5252 785.068 91.125C810.002 110.922 833.191 133.36 858.041 161.744C864.119 168.674 870.172 175.793 876.024 182.679C892.259 201.785 909.047 221.542 928.709 239.916C929.947 241.074 931.215 242.239 932.472 243.379C986.864 292.474 1061.48 324.184 1148.25 335.083C1228.59 345.174 1320.67 336.864 1421.95 310.382C1430.35 308.18 1438.99 305.803 1447.63 303.313C1518.73 282.829 1588.29 254.509 1655.56 227.12C1673.06 219.996 1691.15 212.633 1709.04 205.498C1752.44 188.246 1802.95 168.458 1853.08 151.937C1905.52 134.657 1953.54 122.274 1999.89 114.081C2029.07 108.879 2054.74 106.18 2078.35 105.832C2108.12 105.392 2135.49 108.782 2159.71 115.906C2180.72 122.111 2201.87 131.372 2224.37 144.219C2244.23 155.563 2262.63 168.203 2280.42 180.425C2290.72 187.507 2300.46 194.197 2310.3 200.528C2404.15 260.926 2500.94 325.982 2606.2 399.417L2605.93 399.56Z" fill="#01387A"/>
<path d="M2602.04 397.486C2497.82 323.261 2402.8 257.465 2311.57 196.338C2301.9 189.866 2292.33 182.974 2282.2 175.678C2246.92 150.277 2210.44 124.011 2163.8 110.43C2120.22 97.7792 2067.93 98.4837 2003.96 112.583C1914.51 132.186 1834.56 164.975 1749.9 199.693C1739.36 204.016 1728.47 208.485 1717.62 212.899C1713.37 214.631 1709.12 216.368 1704.88 218.103C1624.22 251.055 1540.81 285.129 1453.32 307.455C1444.48 309.714 1435.59 311.86 1426.9 313.833C1378.45 324.824 1331.31 331.82 1286.8 334.625C1236.96 337.764 1189.9 335.664 1146.94 328.382C1104.78 321.234 1065.09 308.928 1028.96 291.806C993.936 275.21 962.323 254.13 934.993 229.147C933.747 228.004 932.491 226.836 931.256 225.675C912.331 207.869 895.594 188.904 879.402 170.565C872.848 163.137 866.065 155.457 859.254 147.981C833.452 119.628 809.804 97.3918 784.823 78.0067C781.503 75.4311 778.078 72.8468 774.633 70.3218C711.982 24.3995 630.238 -12.4797 538.227 -36.327C427.848 -64.8564 315.26 -73.3316 221.208 -60.1852C124.665 -46.5787 26.4106 2.73597 34.4824 67.3324L34.116 67.35C32.1704 51.7688 36.2521 36.4694 46.2549 21.8767C55.4846 8.41105 69.5837 -4.25992 88.164 -15.7818C122.481 -37.0644 170.942 -53.3258 221.124 -60.3987C270.706 -67.3286 324.984 -68.3368 382.458 -63.3926C434.143 -58.9502 486.601 -49.9115 538.374 -36.5295C630.436 -12.6669 712.231 24.2322 774.908 70.1787C778.352 72.7037 781.786 75.2924 785.105 77.868C810.097 97.2641 833.76 119.507 859.569 147.871C866.384 155.347 873.163 163.029 879.721 170.457C895.905 188.792 912.643 207.752 931.56 225.552C932.795 226.712 934.048 227.879 935.293 229.021C990.866 279.82 1064.08 314.101 1147.04 328.164C1228.92 342.045 1323.04 337.152 1426.77 313.621C1435.45 311.649 1444.33 309.505 1453.17 307.249C1540.64 284.931 1624.03 250.863 1704.67 217.916C1708.92 216.179 1713.17 214.444 1717.41 212.712C1728.26 208.298 1739.15 203.829 1749.7 199.508C1834.37 164.784 1914.35 131.986 2003.83 112.374C2032.73 106.003 2058.39 102.431 2082.27 101.447C2112.16 100.216 2139.64 103.173 2163.96 110.23C2184.85 116.312 2205.73 125.615 2227.81 138.671C2247.28 150.191 2265.18 163.076 2282.49 175.535C2292.62 182.828 2302.18 189.719 2311.84 196.188C2403.08 257.318 2498.1 323.116 2602.33 397.343L2602.04 397.486Z" fill="#01387A"/>
<path d="M2598.16 395.413C2503.03 326.247 2407.12 257.807 2313.09 191.997C2303.52 185.336 2294.03 178.179 2283.99 170.605C2251.33 145.963 2214.3 118.034 2168.05 104.758C2123.95 92.1287 2071.58 94.1297 2007.92 110.873C1932.23 130.716 1865.24 159.893 1794.33 190.782C1772.12 200.455 1749.15 210.46 1725.99 220.111C1685.56 236.993 1641.82 254.857 1595.97 271.127C1546.87 288.553 1502.01 301.724 1458.83 311.396C1449.76 313.428 1440.63 315.341 1431.68 317.078C1382.2 326.682 1333.78 332.148 1287.77 333.324C1236.83 334.623 1189.03 330.634 1145.69 321.459C1065.66 304.306 995.713 268.417 937.795 214.788C936.561 213.643 935.315 212.472 934.087 211.312C916.123 194.291 899.678 176.335 883.777 158.968C876.291 150.795 868.553 142.341 860.767 134.115C833.983 105.768 809.859 83.7283 784.848 64.7549C781.481 62.2013 778.011 59.6411 774.526 57.1426C711.113 11.6627 628.768 -24.6551 536.398 -47.8926C425.305 -75.7837 312.412 -83.4994 218.515 -69.6199C121.385 -55.1812 25.5928 -6.52042 30.4403 58.5471L30.0739 58.5559C28.9124 42.9703 33.5217 27.6886 43.77 13.1332C53.2672 -0.350028 67.4469 -13.0342 85.9209 -24.5649C103.325 -35.4285 123.953 -44.9274 147.231 -52.7994C169.831 -60.4403 193.782 -66.1726 218.423 -69.8356C267.95 -77.1551 322.287 -78.5552 379.929 -73.9918C431.739 -69.8907 484.427 -61.1799 536.537 -48.0973C628.962 -24.8467 711.355 11.4932 774.805 56.9951C778.289 59.4959 781.766 62.0582 785.134 64.6118C810.155 83.5962 834.29 105.645 861.085 134.001C868.871 142.229 876.61 150.682 884.095 158.858C899.997 176.222 916.438 194.177 934.395 211.191C935.619 212.353 936.868 213.522 938.099 214.667C995.973 268.254 1065.86 304.114 1145.81 321.25C1228.17 338.684 1326.98 337.17 1431.57 316.867C1440.51 315.13 1449.64 313.219 1458.7 311.189C1555.25 289.566 1643.58 254.249 1725.78 219.928C1748.94 210.277 1771.9 200.274 1794.11 190.602C1865.04 159.706 1932.04 130.522 2007.77 110.671C2071.52 93.9007 2124 91.8997 2168.2 104.557C2188.92 110.503 2209.49 119.824 2231.09 133.047C2250.13 144.708 2267.49 157.804 2284.28 170.466C2294.32 178.041 2303.8 185.195 2313.37 191.852C2407.4 257.664 2503.31 326.104 2598.44 395.272L2598.16 395.413Z" fill="#01387A"/>
<path d="M2594.27 393.339C2500.6 323.79 2406.51 254.588 2314.62 187.656C2305.35 180.923 2296.15 173.64 2286.4 165.931C2254.54 140.715 2218.42 112.133 2172.29 99.0808C2127.67 86.4736 2075.19 89.7713 2011.87 109.159C1945.53 129.442 1884.57 158.081 1825.63 185.781C1796.07 199.669 1765.5 214.031 1734.36 227.32C1685.2 248.317 1643.84 264.334 1604.2 277.729C1555.31 294.246 1509.56 306.547 1464.35 315.335C1455.07 317.14 1445.69 318.817 1436.47 320.321C1388.46 328.151 1341.31 332.113 1296.21 332.116C1293.7 332.116 1291.21 332.102 1288.72 332.078C1236.57 331.567 1188.03 325.663 1144.44 314.533C1123.41 309.131 1102.8 302.274 1083.21 294.151C1064.8 286.517 1046.7 277.524 1029.42 267.425C998.342 249.255 969.286 227.338 940.604 200.426C939.373 199.269 938.146 198.108 936.925 196.944C920.283 181.066 904.539 164.467 889.315 148.415C880.525 139.15 871.438 129.567 862.286 120.24C834.106 91.5037 810.234 70.3003 784.876 51.4942C781.465 48.9649 777.951 46.4289 774.422 43.9546C710.24 -1.07399 627.297 -36.8327 534.568 -59.4604C422.764 -86.7109 309.564 -93.6693 215.82 -79.0568C120.512 -64.158 24.8439 -15.1274 26.4011 49.7574L26.0347 49.7596C25.3093 19.5372 45.2452 -9.20138 83.6845 -33.348C101.059 -44.2623 121.578 -53.8293 144.676 -61.7894C167.151 -69.5337 191.055 -75.4158 215.729 -79.2725C265.196 -86.9838 319.593 -88.7735 377.404 -84.591C429.337 -80.8333 482.261 -72.4483 534.704 -59.6673C627.491 -37.0242 710.482 -1.2435 774.704 43.8115C778.233 46.288 781.754 48.8262 785.165 51.3555C810.535 70.1727 834.417 91.3826 862.604 120.13C871.757 129.459 880.848 139.042 889.634 148.307C904.858 164.357 920.599 180.953 937.237 196.827C938.457 197.992 939.681 199.152 940.912 200.308C1001.86 257.494 1068.48 294.792 1144.59 314.331C1250 341.249 1361.45 332.331 1436.38 320.109C1445.59 318.606 1454.96 316.931 1464.24 315.126C1568.22 294.913 1663.1 257.488 1734.15 227.142C1765.29 213.857 1795.85 199.495 1825.4 185.609C1884.36 157.905 1945.33 129.257 2011.71 108.965C2040.04 100.289 2065.69 94.9621 2090.1 92.6815C2120.21 89.8681 2147.92 91.955 2172.44 98.8849C2193.1 104.729 2213.47 114.125 2234.72 127.606C2253.44 139.484 2270.35 152.862 2286.7 165.801C2296.44 173.508 2305.63 180.788 2314.9 187.518C2406.79 254.45 2500.88 323.651 2594.56 393.201L2594.27 393.339Z" fill="#01387A"/>
<path d="M2590.39 391.266L2316.15 183.317C2307.19 176.526 2298.3 169.136 2288.88 161.315C2257.81 135.502 2222.58 106.246 2176.53 93.41C2132 80.9988 2077.94 85.7228 2015.83 107.452C1956.13 128.341 1901.68 156.12 1849.02 182.985C1814.7 200.497 1779.2 218.603 1742.74 234.538C1633.13 282.435 1537.34 310.725 1441.28 323.57C1401.43 328.897 1362.11 331.578 1323.99 331.578C1312.43 331.578 1300.99 331.332 1289.68 330.839C1236.3 328.514 1187.02 320.699 1143.21 307.614C1102.6 295.485 1065.46 278.363 1029.66 255.266C1001.07 236.823 973.669 214.836 943.423 186.071C927.458 170.891 912 155.118 897.051 139.865C863.217 105.348 828.233 69.6552 784.921 38.2419C718.485 -9.93899 631.281 -47.723 532.737 -71.0264C420.226 -97.6342 306.718 -103.838 213.128 -88.4919C122.517 -73.635 24.1706 -26.7859 22.3605 40.9716L21.9941 40.9672C22.8039 10.6811 43.3627 -18.0532 81.4466 -42.1293C115.881 -63.8985 162.612 -80.4394 213.033 -88.7055C262.446 -96.8064 316.9 -98.988 374.876 -95.1863C426.935 -91.7742 480.092 -83.7128 532.873 -71.2312C581.633 -59.7005 627.943 -44.5222 670.519 -26.1167C713.45 -7.55713 752.036 14.0469 785.199 38.0966C828.53 69.5209 863.525 105.222 897.366 139.748C912.315 154.999 927.773 170.77 943.734 185.948C987.863 227.919 1050.44 279.653 1143.37 307.412C1249.95 339.246 1364.15 333.65 1441.19 323.35C1537.21 310.514 1632.95 282.235 1742.52 234.356C1778.97 218.427 1814.46 200.321 1848.78 182.813C1901.45 155.944 1955.92 128.158 2015.65 107.259C2077.86 85.4917 2132.04 80.7632 2176.69 93.2074C2197.31 98.9552 2217.49 108.432 2238.4 122.184C2256.8 134.289 2273.26 147.962 2289.18 161.183C2298.59 169.004 2307.49 176.39 2316.44 183.179L2590.68 391.127L2590.39 391.266Z" fill="#01387A"/>
<path d="M2588.18 375.279C2518.35 317.379 2458.43 270.396 2399.62 227.423C2371.08 206.548 2341.92 186.001 2312.97 166.351C2304.21 160.408 2295.53 154.086 2286.35 147.391C2263.27 130.566 2239.39 113.169 2211.92 100.258C2197.18 93.3129 2182.98 88.3401 2168.52 85.0557C2124.14 74.8744 2072.07 81.6061 2013.75 105.066C1983.57 117.189 1956.09 130.985 1933.19 142.881C1908.95 155.475 1885.03 169.363 1861.9 182.793C1828.66 202.099 1794.28 222.061 1757.33 239.205C1734.84 249.668 1712.05 259.017 1689.57 266.995C1644.62 282.955 1596.36 296.106 1546.15 306.082C1515.13 312.178 1483.95 316.785 1453.5 319.775C1427.26 322.341 1400.96 323.823 1375.35 324.177C1337.01 324.71 1299.66 322.678 1264.33 318.132C1226.77 313.298 1191.22 305.582 1158.68 295.196C1129.66 285.935 1102.25 274.275 1074.88 259.546C1023.88 232.121 983.209 200.411 953.472 175.848C938.864 163.725 924.6 151.362 910.805 139.407C871.083 104.976 833.563 72.4551 786.613 43.4876C748.32 20.0168 704.63 -0.237813 656.745 -16.7171C619.947 -29.3815 579.925 -39.7388 537.793 -47.503C527.757 -49.3499 517.53 -51.0714 507.407 -52.6145C463.82 -59.2472 414.751 -63.5662 361.568 -65.4528C307.948 -67.3988 261.558 -65.7147 219.755 -60.2994C196.122 -57.2616 173.226 -52.4956 151.692 -46.1359C75.6713 -23.6822 26.8555 14.0115 21.1103 54.6969L20.6523 54.6726C22.1839 43.8266 26.6797 33.1435 34.0114 22.916C40.9767 13.2014 50.5435 3.83249 62.4442 -4.93108C84.9303 -21.4852 115.723 -35.8204 151.491 -46.3847C173.057 -52.7554 195.99 -57.5279 219.66 -60.5702C261.507 -65.9899 307.934 -67.6761 361.597 -65.7279C414.81 -63.8414 463.904 -59.5179 507.52 -52.8809C517.655 -51.3355 527.885 -49.6141 537.928 -47.7649C580.094 -39.9964 620.149 -29.6302 656.976 -16.9548C704.894 -0.464542 748.62 19.8077 786.931 43.2939C833.912 72.279 871.438 104.808 911.175 139.248C924.966 151.204 939.23 163.565 953.835 175.685C983.557 200.237 1024.21 231.932 1075.18 259.339C1102.52 274.052 1129.9 285.702 1158.88 294.952C1222.58 315.277 1295.4 325.018 1375.33 323.902C1400.93 323.548 1427.2 322.066 1453.42 319.502C1483.85 316.512 1515.01 311.909 1546 305.818C1596.19 295.848 1644.41 282.706 1689.34 266.755C1711.8 258.784 1734.58 249.439 1757.04 238.985C1793.98 221.85 1828.35 201.892 1861.58 182.593C1884.71 169.16 1908.63 155.268 1932.89 142.669C1955.8 130.767 1983.29 116.966 2013.5 104.835C2039.46 94.3894 2064.6 87.1734 2088.22 83.3848C2117.24 78.7312 2144.31 79.2067 2168.68 84.7981C2183.18 88.0935 2197.42 93.0796 2212.21 100.04C2239.72 112.971 2263.6 130.379 2286.7 147.215C2295.89 153.907 2304.56 160.23 2313.31 166.169C2342.27 185.82 2371.43 206.37 2399.98 227.25C2458.79 270.227 2518.71 317.214 2588.55 375.119L2588.18 375.279Z" fill="#01387A"/>
<path d="M2585.97 359.289C2521.22 300.409 2460.46 251.139 2400.19 208.664C2370.81 187.916 2340.39 167.972 2309.79 149.386C2301.67 144.455 2293.66 139.33 2285.17 133.906C2259.76 117.662 2233.48 100.866 2204.05 89.245C2189.19 83.352 2174.95 79.2487 2160.51 76.6995C2105.22 66.9343 2049.06 85.4344 2011.67 102.673C1985.19 114.851 1961 128.621 1936.49 142.835C1915.05 155.277 1894.87 168.661 1873.51 182.829C1841.8 203.86 1809.02 225.608 1771.92 243.868C1749.9 254.762 1726.92 264.182 1703.62 271.865C1660.22 286.178 1612.7 297.292 1558.33 305.847C1527.9 310.633 1496.75 314.042 1465.72 315.977C1439.54 317.591 1413.41 318.168 1388.04 317.686C1350.31 316.977 1313.43 313.789 1278.42 308.213C1241.65 302.355 1206.56 293.797 1174.14 282.774C1145.73 273.119 1118.3 261.14 1090.28 246.153C1039.39 218.973 995.804 188.841 963.517 165.625C951.565 157.031 939.803 148.384 928.426 140.019C883.121 106.708 840.328 75.2422 788.307 48.7335C749.428 28.9214 705.778 12.1691 658.578 -1.05658C622.865 -11.0639 585.012 -18.5617 542.861 -23.9792C533.133 -25.2274 523.237 -26.3523 513.45 -27.3231C470.464 -31.5651 424.586 -33.1699 369.08 -34.8297C329.069 -36.0866 276.692 -36.9144 226.374 -32.111C202.543 -29.8788 179.507 -26.0023 157.9 -20.5936C81.828 -1.54528 30.224 31.7303 19.8548 68.4224L19.3125 68.3674C22.0605 58.6374 27.6298 49.0946 35.8555 40.0008C43.6965 31.3363 53.9998 23.0284 66.4758 15.3016C90.1857 0.623051 121.726 -11.896 157.688 -20.8995C179.335 -26.3193 202.415 -30.2024 226.286 -32.439C276.651 -37.249 329.069 -36.4191 369.106 -35.1621C424.63 -33.5023 470.522 -31.8975 513.538 -27.6533C523.332 -26.6803 533.236 -25.5554 542.975 -24.3072C585.166 -18.8831 623.056 -11.3787 658.809 -1.36036C706.057 11.8786 749.743 28.644 788.662 48.476C840.72 75.0045 883.531 106.479 928.851 139.803C940.224 148.166 951.986 156.813 963.938 165.405C996.218 188.612 1039.79 218.733 1090.65 245.9C1118.63 260.871 1146.03 272.838 1174.41 282.482C1238.16 304.154 1310.05 315.885 1388.06 317.351C1413.4 317.831 1439.51 317.256 1465.66 315.643C1496.66 313.71 1527.79 310.305 1558.19 305.521C1612.51 296.975 1660 285.87 1703.36 271.57C1726.63 263.896 1749.58 254.489 1771.57 243.606C1808.64 225.361 1841.41 203.623 1873.11 182.602C1894.48 168.428 1914.66 155.041 1936.12 142.592C1960.63 128.37 1984.83 114.596 2011.34 102.405C2035.58 91.2284 2059.48 83.1891 2082.39 78.5046C2110.17 72.8251 2136.51 72.1097 2160.67 76.3759C2175.16 78.9361 2189.45 83.0526 2204.36 88.9632C2233.84 100.606 2260.14 117.418 2285.58 133.675C2294.06 139.097 2302.08 144.219 2310.19 149.148C2340.8 167.741 2371.22 187.692 2400.62 208.446C2460.89 250.932 2521.68 300.211 2586.43 359.104L2585.97 359.289Z" fill="#01387A"/>
<path d="M2583.76 343.299C2523.16 282.641 2463.31 232.465 2400.77 189.907C2370.53 169.286 2338.85 149.948 2306.62 132.423C2299.73 128.676 2292.63 124.7 2285.78 120.857C2257.45 104.976 2228.16 88.5564 2196.18 78.2343C2181.17 73.3561 2166.88 70.1201 2152.51 68.3436C2097.33 61.5216 2044.34 81.9458 2009.6 100.279C1986.05 112.655 1964.52 126.682 1943.7 140.248L1939.8 142.789C1920.9 155.097 1903.17 168.595 1884.4 182.889C1854.5 205.648 1823.59 229.181 1786.51 248.531C1764.93 259.872 1741.77 269.362 1717.67 276.737C1675.65 289.595 1628.88 298.77 1570.5 305.612C1540.31 309.149 1509.17 311.359 1477.93 312.178C1451.81 312.837 1425.84 312.506 1400.73 311.192C1324.7 307.232 1253.66 293.491 1189.59 270.353C1161.89 260.35 1134.44 248.055 1105.68 232.76C1057.01 206.932 1013.73 180.384 973.564 155.405C968.178 152.057 962.851 148.73 957.564 145.43C902.71 111.202 850.9 78.8705 790.012 53.9864C750.261 37.7405 706.655 24.4927 660.411 14.6087C626.461 7.35303 589.666 2.4264 547.933 -0.452961C538.528 -1.09796 528.961 -1.62848 519.497 -2.02912C495.688 -3.01973 470.435 -3.18043 443.699 -3.34993C422.224 -3.48641 400.02 -3.6273 376.589 -4.20185C331.335 -5.40599 280.046 -6.76863 232.985 -3.91568C208.703 -2.44298 185.528 0.542053 164.101 4.95796C88.0581 20.6316 33.662 49.4935 18.5919 82.1637L17.9727 82.0602C21.9445 73.4463 28.5837 65.0438 37.7034 57.0859C46.4238 49.4759 57.4598 42.2246 70.5037 35.5347C95.4521 22.7405 127.747 12.0419 163.889 4.59254C185.364 0.165628 208.586 -2.82601 232.915 -4.30092C280.024 -7.15607 331.338 -5.79123 376.611 -4.58709C400.028 -4.01474 422.232 -3.87165 443.699 -3.73517C470.446 -3.56566 495.706 -3.40496 519.537 -2.41215C529.009 -2.00931 538.586 -1.47879 547.999 -0.83379C589.784 2.04778 626.622 6.981 660.62 14.2477C706.919 24.1427 750.572 37.4059 790.367 53.6694C851.311 78.5755 903.146 110.922 958.022 145.166C963.309 148.466 968.64 151.79 974.022 155.141C1014.18 180.115 1057.45 206.657 1106.1 232.476C1134.83 247.754 1162.25 260.037 1189.92 270.027C1253.91 293.137 1324.86 306.858 1400.79 310.813C1425.87 312.125 1451.81 312.456 1477.9 311.797C1509.11 310.979 1540.22 308.771 1570.37 305.237C1628.7 298.402 1675.41 289.238 1717.38 276.398C1741.43 269.038 1764.54 259.566 1786.08 248.245C1823.12 228.919 1854.01 205.4 1883.89 182.653C1902.67 168.353 1920.41 154.848 1939.33 142.531L1943.23 139.991C1964.06 126.417 1985.59 112.382 2009.17 99.9924C2044.02 81.6001 2097.2 61.1166 2152.63 67.9694C2167.07 69.7547 2181.41 73.0017 2196.48 77.8997C2228.53 88.2438 2257.85 104.681 2286.21 120.579C2293.06 124.423 2300.16 128.399 2307.04 132.143C2339.29 149.677 2370.99 169.027 2401.24 189.658C2463.81 232.234 2523.68 282.427 2584.3 343.105L2583.76 343.299Z" fill="#01387A"/>
<path d="M2581.54 327.306C2525.91 265.732 2465.28 213.192 2401.34 171.151C2370.26 150.661 2337.32 131.925 2303.45 115.463C2298.56 113.086 2293.55 110.618 2288.7 108.232C2256.69 92.4681 2223.58 76.1649 2188.33 67.2274C2173.19 63.3508 2158.86 60.9844 2144.52 59.9894C2089.5 56.1766 2039.65 78.4917 2007.52 97.8834C1987.57 109.863 1969.56 123.186 1952.15 136.07C1949.14 138.3 1946.13 140.526 1943.11 142.742C1926.55 154.92 1911.06 168.525 1894.66 182.926C1866.79 207.409 1837.96 232.725 1801.1 253.197C1779.45 265.219 1756.76 274.513 1731.71 281.615C1679.32 296.467 1626.97 301.964 1582.67 305.385C1552.7 307.696 1521.57 308.709 1490.13 308.387C1464.1 308.09 1438.29 306.851 1413.42 304.707C1339.67 298.365 1269.56 282.629 1205.04 257.937C1178.2 247.665 1150.74 235.052 1121.08 219.376C1091.13 203.579 1063.22 188.379 1036.22 173.678C1017.88 163.686 1000.54 154.249 983.62 145.195C919.646 110.968 861.048 80.8758 791.728 59.2453C751.123 46.5765 707.562 36.829 662.252 30.2756C629.778 25.5779 595.065 23.2907 553.013 23.0727C543.941 23.0331 534.7 23.097 525.551 23.2643C511.654 23.535 497.276 24.1008 482.059 24.7017C452.857 25.853 419.753 27.1585 384.094 26.4276C370.516 26.148 356.662 25.754 343.263 25.3709C308.799 24.3869 273.163 23.3699 239.589 24.2791C214.934 24.9483 191.616 27.044 170.291 30.5089C94.3765 42.8475 37.1921 67.2979 17.3185 95.9132L16.6406 95.7437C21.8435 88.2503 29.5527 80.9902 39.5518 74.1639C49.1552 67.6082 60.924 61.4158 74.5249 55.7606C100.734 44.8639 133.779 35.9859 170.094 30.084C191.469 26.6103 214.839 24.508 239.549 23.8388C273.159 22.9275 308.81 23.9467 343.292 24.9307C356.688 25.3137 370.541 25.7078 384.116 25.9873C419.742 26.7182 452.821 25.415 482.008 24.2637C497.232 23.6627 511.613 23.097 525.526 22.8262C534.686 22.6589 543.934 22.595 553.017 22.6347C595.128 22.8504 629.892 25.1442 662.421 29.8485C707.785 36.4107 751.405 46.1693 792.061 58.8557C823.374 68.6253 855.105 81.0034 889.067 96.6947C919.471 110.741 949.047 126.111 984.104 144.867C1001.03 153.923 1018.36 163.36 1036.71 173.352C1063.7 188.051 1091.61 203.251 1121.56 219.046C1151.18 234.706 1178.62 247.307 1205.43 257.567C1269.86 282.227 1339.87 297.94 1413.51 304.273C1438.35 306.415 1464.13 307.652 1490.14 307.949C1521.54 308.271 1552.64 307.26 1582.56 304.949C1626.81 301.535 1679.1 296.044 1731.39 281.218C1756.37 274.137 1779.01 264.867 1800.59 252.876C1837.39 232.439 1866.2 207.143 1894.05 182.679C1910.46 168.269 1925.95 154.658 1942.54 142.467C1945.55 140.251 1948.56 138.025 1951.57 135.797C1969 122.904 1987.02 109.573 2006.99 97.5774C2027.9 84.9615 2049.34 75.2557 2070.73 68.7309C2096.07 61.002 2120.92 57.9157 2144.59 59.5579C2159 60.5573 2173.4 62.9348 2188.6 66.8268C2223.95 75.7885 2257.1 92.1115 2289.15 107.895C2294 110.281 2299 112.749 2303.89 115.124C2337.79 131.599 2370.75 150.353 2401.86 170.858C2435.81 193.182 2469.06 218.616 2500.68 246.455C2528.63 271.059 2556.05 298.193 2582.17 327.099L2581.54 327.306Z" fill="#01387A"/>
<path d="M2579.33 311.308C2527.84 247.969 2468.15 194.502 2401.92 152.393C2369.98 132.032 2335.79 113.902 2300.29 98.5014C2298.6 97.7684 2296.91 97.0353 2295.22 96.3001C2258.3 80.2654 2220.13 63.6849 2180.48 56.2201C2165.12 53.3275 2150.75 51.8284 2136.55 51.6347C2081.75 50.8906 2035.02 75.0702 2005.46 95.4834C1988.08 107.426 1972.64 120.515 1957.71 133.173C1954.02 136.303 1950.2 139.539 1946.44 142.691C1932.09 154.697 1918.74 168.348 1904.62 182.802C1878.94 209.093 1852.37 236.277 1815.7 257.859C1794.49 270.345 1771.61 279.71 1745.76 286.49C1694.84 299.846 1643.13 303.352 1594.83 305.153C1565.06 306.263 1533.94 306.073 1502.34 304.592C1476.39 303.337 1450.75 301.191 1426.11 298.214C1354.87 289.629 1285.69 271.9 1220.51 245.516C1194.4 234.952 1167.7 222.391 1136.5 205.987C1077.19 174.895 1033.15 152.996 993.7 134.982C915.242 99.1552 855.361 78.0773 793.479 64.5038C752.05 55.4166 708.533 49.1714 664.128 45.9398C633.321 43.6988 600.627 43.8991 558.125 46.5958C549.415 47.1549 540.504 47.8131 531.637 48.555C523.261 49.266 514.753 50.0805 505.744 50.9413C472.478 54.1222 434.772 57.728 391.617 57.0544C368.87 56.7 345.637 55.7292 323.169 54.7914C297.634 53.726 271.232 52.6231 246.199 52.4734C221.1 52.3237 197.64 53.5301 176.487 56.0616C100.825 65.1114 40.8451 85.1546 16.0434 109.675L15.3398 109.418C21.7812 103.047 30.5602 96.9297 41.4314 91.2348C51.9251 85.7358 64.4195 80.6044 78.5699 75.9794C106.057 66.9935 139.862 59.936 176.326 55.5751C197.537 53.0391 221.049 51.8284 246.206 51.9781C271.261 52.1278 297.678 53.2307 323.224 54.2983C345.684 55.2361 368.907 56.2069 391.635 56.5613C434.713 57.2327 472.379 53.6313 505.608 50.4548C514.622 49.5918 523.137 48.7795 531.516 48.0663C540.394 47.3244 549.313 46.6662 558.029 46.1049C600.598 43.406 633.347 43.2035 664.22 45.4511C708.687 48.6871 752.266 54.9411 793.754 64.0415C855.72 77.6326 915.664 98.7326 994.191 134.59C1033.65 152.611 1077.71 174.516 1137.03 205.617C1168.22 222.008 1194.88 234.556 1220.96 245.109C1286.06 271.455 1355.13 289.16 1426.26 297.732C1450.87 300.704 1476.49 302.846 1502.4 304.101C1533.96 305.58 1565.04 305.769 1594.78 304.662C1643 302.864 1694.62 299.366 1745.43 286.041C1771.18 279.287 1793.98 269.954 1815.12 257.511C1851.71 235.976 1878.25 208.82 1903.91 182.558C1918.04 168.095 1931.39 154.433 1945.76 142.41C1949.53 139.259 1953.34 136.023 1957.03 132.893C1971.97 120.224 1987.42 107.126 2004.84 95.1642C2024.12 81.8416 2044.34 71.3037 2064.93 63.8412C2089.04 55.0996 2113.15 50.8312 2136.56 51.146C2150.85 51.3397 2165.29 52.8476 2180.73 55.7534C2220.5 63.2446 2258.73 79.8472 2295.7 95.906C2297.39 96.6413 2299.08 97.3765 2300.77 98.1074C2336.31 113.526 2370.54 131.678 2402.51 152.06C2468.8 194.207 2528.54 247.715 2580.07 311.099L2579.33 311.308Z" fill="#01387A"/>
<path d="M1613.07 304.925C1611.01 304.925 1608.99 304.923 1606.99 304.916C1577.37 304.841 1546.26 303.454 1514.54 300.791C1488.69 298.578 1463.2 295.525 1438.79 291.719C1403.91 286.29 1368.9 278.489 1334.73 268.532C1301.74 258.917 1268.51 246.994 1235.97 233.092C1204.08 219.473 1174.29 204.297 1151.91 192.596C1099.53 165.295 1049.69 142.476 1003.78 124.771C929.419 96.0959 863.155 78.615 795.235 69.759C754.261 64.4163 710.3 61.5986 667.973 61.5986C667.317 61.5986 666.665 61.5986 666.009 61.6008C629.647 61.6757 595.125 65.7349 563.24 70.1112C554.941 71.2581 546.357 72.5107 537.724 73.8381C532.994 74.5734 528.256 75.3306 523.244 76.1319C487.89 81.7916 447.816 88.2041 399.133 87.678C369.483 87.3566 339.2 85.5118 309.914 83.7266C291.004 82.573 271.452 81.3821 252.802 80.6623C227.165 79.6739 203.573 79.9909 182.673 81.6089C107.414 87.4292 44.6383 103.068 14.7435 123.443L14.0547 123.08C29.3886 112.63 52.4537 103.583 82.6086 96.1862C111.408 89.1243 145.971 83.8939 182.556 81.0651C203.51 79.4449 227.165 79.1236 252.861 80.1164C271.529 80.8362 291.091 82.0293 310.009 83.1828C339.277 84.9681 369.542 86.8129 399.151 87.1321C447.71 87.6582 487.714 81.2545 523.009 75.6058C528.025 74.8023 532.763 74.045 537.497 73.3098C546.137 71.9824 554.729 70.7276 563.035 69.5807C594.975 65.1978 629.556 61.1319 666.005 61.0549C709.006 60.9646 753.755 63.7911 795.43 69.2263C830.483 73.7985 864.467 80.528 899.316 89.8001C932.878 98.731 967.21 110.019 1004.27 124.313C1050.21 142.031 1100.09 164.868 1152.5 192.187C1174.87 203.881 1204.63 219.046 1236.49 232.65C1302.53 260.858 1370.67 280.554 1439.02 291.193C1463.4 294.994 1488.85 298.043 1514.67 300.253C1546.35 302.913 1577.41 304.3 1606.99 304.372C1653.28 304.487 1707.03 303.549 1759.46 290.858C1785.99 284.435 1808.95 275.041 1829.64 262.144C1865.98 239.492 1890.06 210.419 1913.36 182.301C1925.35 167.838 1936.67 154.176 1948.97 142.351C1952.92 138.562 1956.9 134.659 1960.74 130.884C1973.74 118.129 1987.18 104.943 2002.67 92.7543C2020.36 78.7317 2039.35 67.3573 2059.11 58.9482C2082.01 49.1984 2105.36 43.7435 2128.5 42.7352C2142.79 42.1123 2157.29 42.7485 2172.83 44.6812C2214.38 49.8456 2255.57 64.85 2297.62 81.0893C2334.28 95.2484 2370.77 113.288 2403.14 133.261C2439.1 155.383 2472.89 181.334 2503.56 210.394C2530.88 236.284 2555.91 264.783 2577.95 295.1L2577.11 295.32C2529.78 230.213 2471.03 175.818 2402.49 133.647C2370.16 113.702 2333.73 95.6887 2297.13 81.5538C2255.15 65.3431 2214.04 50.3673 2172.64 45.2206C2157.19 43.2988 2142.77 42.667 2128.57 43.2856C2086.04 45.1413 2041.59 62.827 2003.4 93.0889C1987.94 105.256 1974.51 118.431 1961.52 131.172C1957.68 134.95 1953.69 138.855 1949.75 142.643C1937.47 154.447 1926.15 168.098 1914.18 182.547C1902.75 196.343 1890.93 210.61 1877.37 224.325C1861.99 239.873 1846.6 252.368 1830.3 262.527C1809.52 275.482 1786.46 284.917 1759.8 291.371C1736.29 297.064 1711.02 300.826 1682.55 302.877C1658.43 304.606 1634.22 304.925 1613.07 304.925Z" fill="#01387A"/>
<path d="M1671.82 306.027C1653.14 306.027 1635.19 305.358 1619.14 304.68C1589.62 303.434 1558.52 300.848 1526.73 296.991C1500.98 293.823 1475.66 289.865 1451.45 285.222C1385.18 272.536 1319.74 251.418 1251.41 220.668C1221.61 207.259 1193.52 192.832 1167.31 179.205C1115.56 152.382 1063.93 130.633 1013.85 114.558C940.206 90.918 871.301 78.3505 797.002 75.0089C754.667 73.1047 710.025 73.8818 667.896 77.2543C632.633 80.0764 599.39 86.8873 568.356 93.6191C560.591 95.3119 552.333 97.161 543.814 99.1136C541.685 99.6045 539.538 100.104 537.362 100.608C501.619 108.912 461.176 118.307 409.271 118.307C408.395 118.307 407.523 118.305 406.64 118.298C371.524 118.085 335.672 115.073 300.995 112.159C287.248 111.003 273.032 109.81 259.391 108.844C232.746 106.959 209.67 106.402 188.84 107.146C113.079 109.854 49.1306 120.808 13.399 137.206L12.7871 136.724C30.4514 128.618 55.9933 121.581 86.6428 116.372C116.79 111.25 152.108 107.851 188.777 106.541C209.666 105.795 232.801 106.352 259.504 108.24C273.16 109.207 287.38 110.402 301.131 111.556C335.774 114.466 371.594 117.475 406.644 117.689C459.629 118.014 500.732 108.463 536.992 100.038C539.164 99.5341 541.315 99.0344 543.444 98.5413C551.97 96.5865 560.232 94.7374 568.004 93.0445C599.089 86.2996 632.395 79.4798 667.753 76.6489C709.948 73.272 754.664 72.4927 797.067 74.3991C833.887 76.0545 868.992 79.9641 904.387 86.348C940.84 92.9234 976.799 101.973 1014.32 114.019C1064.46 130.115 1116.15 151.891 1167.95 178.741C1194.16 192.363 1222.23 206.782 1252 220.177C1320.24 250.886 1385.58 271.972 1451.75 284.639C1475.92 289.273 1501.21 293.226 1526.92 296.39C1558.67 300.242 1589.72 302.827 1619.2 304.068C1668.8 306.159 1721.57 307.234 1773.48 295.661C1800.8 289.57 1823.91 280.117 1844.15 266.762C1880.19 242.972 1902.63 210.522 1922.42 181.891C1932.38 167.485 1941.79 153.879 1952.17 142.28C1955.92 138.095 1959.69 133.769 1963.33 129.587C1974.74 116.5 1986.53 102.968 2000.48 90.3302C2016.63 75.6076 2034.39 63.3968 2053.28 54.0366C2074.97 43.2874 2097.56 36.6482 2120.43 34.3081C2134.73 32.8442 2149.28 32.6109 2164.92 33.5883C2208.61 36.3246 2253 49.8452 2294.46 64.0505C2332.75 77.1662 2370.54 94.5921 2403.77 114.444C2440.73 136.462 2474.78 162.673 2504.98 192.345C2531.98 218.88 2555.82 248.061 2575.83 279.083L2574.89 279.301C2532.36 213.361 2472.94 156.503 2403.06 114.871C2369.9 95.0566 2332.18 77.6637 2293.97 64.5745C2252.6 50.4022 2208.33 36.9145 2164.82 34.1892C2149.27 33.2162 2134.81 33.4496 2120.61 34.9025C2078.38 39.2237 2036.02 59.0249 2001.33 90.6604C1987.4 103.272 1975.62 116.79 1964.23 129.864C1960.59 134.049 1956.82 138.375 1953.07 142.564C1942.71 154.136 1933.31 167.73 1923.36 182.12C1903.53 210.795 1881.06 243.298 1844.89 267.167C1824.55 280.595 1801.3 290.1 1773.83 296.227C1750 301.541 1724.28 304.618 1695.21 305.629C1687.36 305.915 1679.53 306.027 1671.82 306.027Z" fill="#01387A"/>
<path d="M1708.7 308.411C1708.43 308.411 1708.17 308.411 1707.9 308.411C1681.5 308.372 1655.58 306.43 1631.28 304.445C1601.81 302.036 1570.73 298.248 1538.92 293.189C1513.29 289.07 1488.13 284.203 1464.13 278.726C1400.5 264.226 1337.82 241.832 1266.86 208.246C1241.31 196.154 1216.16 183.133 1191.84 170.543C1188.8 168.967 1185.76 167.393 1182.71 165.819C1130.69 139.002 1077.28 118.321 1023.95 104.351C950.919 85.2232 877.268 77.3424 798.785 80.2592C755.751 81.8596 711.149 86.2337 669.8 92.9082C637.176 98.176 608.105 106.627 573.488 117.127C566.471 119.265 558.978 121.572 549.913 124.39L549.408 124.548C531.919 130.021 512.097 136.222 489.864 140.937C464.329 146.353 439.557 148.959 414.154 148.928C374.542 148.869 334.117 144.44 295.025 140.154C285.448 139.103 275.54 138.018 265.977 137.036C238.552 134.225 215.337 132.805 195.005 132.698C120.142 132.301 53.4491 138.967 12.031 150.982L11.5547 150.388C31.8424 144.501 59.209 139.724 90.6939 136.572C122.237 133.413 158.313 131.846 195.016 132.039C215.406 132.147 238.68 133.569 266.164 136.387C275.734 137.369 285.642 138.454 295.223 139.504C334.267 143.784 374.641 148.208 414.158 148.268C414.333 148.268 414.513 148.268 414.689 148.268C471.214 148.268 514.277 134.795 548.902 123.963L549.411 123.804C558.48 120.984 565.973 118.677 572.993 116.54C607.669 106.022 636.791 97.5552 669.518 92.272C710.936 85.5843 755.611 81.2036 798.719 79.601C837.125 78.1745 873.351 79.262 909.475 82.9294C948.401 86.8808 985.991 93.6896 1024.39 103.748C1077.82 117.744 1131.33 138.458 1183.43 165.319C1186.47 166.893 1189.52 168.469 1192.56 170.046C1216.87 182.631 1242.01 195.647 1267.54 207.731C1338.4 241.275 1400.99 263.638 1464.52 278.114C1488.48 283.585 1513.61 288.443 1539.2 292.557C1570.97 297.609 1602 301.391 1631.43 303.795C1684.14 308.105 1735.75 311.095 1787.52 300.493C1815.62 294.739 1838.89 285.227 1858.67 271.411C1894.39 246.454 1913.91 211.873 1931.13 181.361C1939.19 167.076 1946.8 153.582 1955.39 142.243C1958.7 137.88 1962.01 133.367 1965.22 129.001C1975.24 115.353 1985.61 101.242 1998.32 87.9375C2012.95 72.5082 2029.49 59.4586 2047.46 49.1519C2067.95 37.4055 2089.79 29.5863 2112.37 25.9145C2126.37 23.6383 2140.66 22.5288 2156.01 22.5288C2156.34 22.5288 2156.68 22.5288 2157.01 22.531C2204.74 22.6807 2253.86 35.7083 2291.32 47.0408C2331.22 59.1152 2370.33 75.9247 2404.41 95.6532C2442.37 117.57 2476.69 144.039 2506.42 174.327C2533.09 201.507 2555.74 231.373 2573.72 263.099L2572.68 263.312C2545.92 216.107 2494.86 148.785 2403.65 96.1309C2369.65 76.4465 2330.63 59.6766 2290.82 47.6308C2253.47 36.3291 2204.51 23.3389 2157.01 23.1914C2141.37 23.1364 2126.87 24.2415 2112.66 26.5529C2070.83 33.3572 2030.56 55.2739 1999.27 88.2655C1986.59 101.54 1976.24 115.635 1966.22 129.268C1963.02 133.635 1959.7 138.15 1956.39 142.516C1947.83 153.826 1940.22 167.303 1932.17 181.572C1914.92 212.14 1895.37 246.787 1859.5 271.84C1839.6 285.749 1816.17 295.324 1787.88 301.116C1763.91 306.023 1737.99 308.411 1708.7 308.411Z" fill="#01387A"/>
<path d="M1738.03 311.511C1732.34 311.511 1726.53 311.4 1720.58 311.18C1694.53 310.218 1669.22 307.332 1643.43 304.206C1613.53 300.583 1583.33 295.736 1551.11 289.387C1525.61 284.319 1500.61 278.548 1476.8 272.227C1416.39 256.219 1356.41 232.654 1282.32 195.821C1263.92 186.674 1245.53 177.081 1227.74 167.802C1218.05 162.752 1208.04 157.528 1198.13 152.428C1145.49 125.431 1090.29 105.821 1034.05 94.1405C959.747 78.7069 883.382 75.8803 800.582 85.5002C756.838 90.5832 712.276 98.5542 671.719 108.551C639.138 116.581 610.757 127.859 580.708 139.799L578.63 140.624C573.937 142.495 569.192 144.393 564.388 146.313C561.622 147.42 558.837 148.534 556.027 149.656C538.506 156.694 519.581 164.036 497.879 169.686C472.682 176.246 447.759 179.474 421.678 179.553C378.26 179.681 333.973 173.618 291.148 167.749C285.036 166.911 278.712 166.045 272.575 165.224C243.801 161.372 221.117 159.155 201.178 158.244C127.597 154.882 58.1561 157.251 10.6557 164.744L10.3516 164.053C57.9765 156.54 127.56 154.163 201.269 157.531C221.264 158.444 244.006 160.668 272.835 164.526C278.976 165.35 285.3 166.215 291.415 167.054C333.716 172.85 377.443 178.84 420.286 178.84C420.748 178.84 421.209 178.84 421.675 178.837C477.089 178.67 516.536 164.656 555.371 149.062C558.182 147.939 560.966 146.825 563.733 145.718C568.536 143.796 573.277 141.901 577.975 140.028L580.052 139.202C610.152 127.242 638.581 115.945 671.268 107.888C711.898 97.8718 756.537 89.8875 800.359 84.7958C883.367 75.1517 959.938 77.987 1034.44 93.4625C1090.82 105.174 1146.15 124.827 1198.9 151.884C1208.82 156.987 1218.83 162.208 1228.52 167.261C1246.3 176.537 1264.69 186.128 1283.08 195.268C1357.08 232.059 1416.98 255.592 1477.28 271.574C1501.06 277.883 1526.02 283.648 1551.48 288.707C1583.65 295.047 1613.81 299.887 1643.67 303.504C1688.99 308.997 1745.4 315.834 1801.57 305.303C1830.45 299.89 1853.88 290.318 1873.19 276.04C1908.57 249.888 1924.98 213.106 1939.45 180.656C1945.74 166.558 1951.68 153.242 1958.61 142.192C1961.31 137.886 1964.02 133.432 1966.64 129.124C1975.41 114.677 1984.49 99.7386 1996.15 85.5311C2009.3 69.3842 2024.61 55.4958 2041.64 44.2514C2060.94 31.5099 2082.03 22.513 2104.3 17.5094C2118.6 14.2976 2133.25 12.3186 2149.1 11.4579C2170.32 10.3044 2192.91 11.5371 2218.16 15.2178C2239.52 18.3349 2262.42 23.1734 2288.17 30.013C2329.7 41.044 2370.11 57.2393 2405.04 76.8467C2444.02 98.6599 2478.61 125.391 2507.85 156.293C2534.19 184.121 2555.64 214.671 2571.61 247.099L2570.47 247.302C2536.74 178.84 2477.7 118.49 2404.23 77.3706C2369.39 57.8161 2329.09 41.667 2287.68 30.669C2232.2 15.9332 2188.21 10.0534 2149.21 12.1711C2133.47 13.0252 2118.92 14.991 2104.72 18.1786C2051.72 30.0813 2017 61.5473 1997.22 85.8458C1985.59 100.018 1976.52 114.939 1967.75 129.369C1965.13 133.679 1962.43 138.135 1959.73 142.443C1952.81 153.46 1946.88 166.761 1940.6 180.841C1926.1 213.361 1909.66 250.221 1874.12 276.491C1854.65 290.882 1831.03 300.53 1801.92 305.987C1782.19 309.686 1761.15 311.511 1738.03 311.511Z" fill="#01387A"/>
<path d="M1763.43 315.064C1724.68 315.064 1687.43 309.083 1655.56 303.967C1625.58 299.155 1595.4 293.141 1563.28 285.583C1537.93 279.574 1513.09 272.895 1489.46 265.729C1418.62 244.275 1355.46 213.48 1297.77 183.397C1285.99 177.255 1274.09 170.924 1262.58 164.802C1246.61 156.3 1230.08 147.51 1213.53 139.04C1160.11 111.776 1103.12 93.2339 1044.16 83.9288C967.884 71.894 888.796 74.1196 802.376 90.7354C757.88 99.2898 713.363 110.858 673.634 124.189C642.991 134.47 617.065 147.449 589.618 161.19C587.672 162.163 585.723 163.14 583.762 164.117L582.7 164.65C576.028 167.994 569.128 171.45 562.134 174.919C545.374 183.269 526.919 191.905 505.572 198.502C480.792 206.161 455.811 209.98 429.192 210.178C382.468 210.528 334.847 202.637 288.798 195.004C285.57 194.47 282.356 193.937 279.158 193.411C248.79 188.405 226.637 185.437 207.335 183.786C135.601 177.653 63.4053 175.725 9.25833 178.497L9.14844 177.728C63.3833 174.95 135.685 176.881 207.515 183.023C226.872 184.678 249.072 187.652 279.495 192.667C282.693 193.193 285.907 193.725 289.138 194.263C335.1 201.879 382.63 209.751 429.174 209.408C486.981 208.976 527.692 191.073 561.313 174.325C568.308 170.856 575.207 167.4 581.879 164.058L582.942 163.525C584.902 162.546 586.851 161.57 588.797 160.597C616.292 146.832 642.262 133.831 673.007 123.516C712.809 110.16 757.411 98.5721 801.984 90.0023C842.955 82.1259 881.439 77.5779 919.629 76.0986C962.23 74.4498 1004.23 76.8338 1044.48 83.1847C1103.63 92.5184 1160.78 111.113 1214.36 138.452C1230.92 146.927 1247.45 155.719 1263.43 164.223C1274.93 170.345 1286.83 176.674 1298.6 182.813C1356.24 212.864 1419.32 243.626 1490.03 265.04C1513.63 272.195 1538.43 278.865 1563.75 284.866C1595.81 292.412 1625.95 298.417 1655.89 303.223C1701.86 310.602 1759.07 319.786 1815.6 310.122C1845.26 305.05 1868.84 295.419 1887.69 280.679C1922.71 253.296 1935.81 214.251 1947.37 179.8C1952.01 165.958 1956.4 152.884 1961.81 142.148C1963.81 138.177 1965.82 134.073 1967.76 130.104C1975.36 114.58 1983.22 98.5259 1993.96 83.1319C2005.66 66.2542 2019.73 51.5227 2035.79 39.3515C2053.91 25.6173 2074.24 15.4426 2096.21 9.10935C2110.48 4.99723 2125.18 2.14649 2141.16 0.392011C2162.69 -1.97004 2186.58 -1.89079 2212.17 0.627557C2234.57 2.83331 2259.07 6.99165 2284.99 12.9903C2328.14 22.9778 2369.86 38.5568 2405.66 58.0431C2445.65 79.755 2480.51 106.744 2509.27 138.262C2535.25 166.737 2555.52 197.974 2569.49 231.104L2568.24 231.294C2538.64 161.093 2480.6 99.7675 2404.8 58.6155C2369.12 39.193 2327.53 23.6647 2284.53 13.7102C2228.79 0.808066 2181.97 -3.30185 2141.39 1.15148C2125.53 2.89275 2110.93 5.72368 2096.77 9.80498C2044.49 24.8732 2012.65 58.1576 1995.15 83.4291C1984.43 98.7835 1976.58 114.816 1968.99 130.32C1967.05 134.289 1965.04 138.395 1963.04 142.37C1957.65 153.071 1953.26 166.127 1948.63 179.952C1943.06 196.526 1936.76 215.31 1927.61 232.92C1917.13 253.098 1904.4 268.873 1888.71 281.148C1879.64 288.245 1869.21 294.285 1857.71 299.102C1845.35 304.282 1831.3 308.24 1815.95 310.864C1798.38 313.868 1780.75 315.064 1763.43 315.064Z" fill="#01387A"/>
<path d="M1786.33 318.962C1773.52 318.962 1760.1 318.213 1745.92 316.719C1718 313.776 1691.28 308.435 1667.7 303.726C1637.98 297.789 1606.94 290.404 1575.46 281.777C1550.27 274.834 1525.6 267.248 1502.12 259.226C1434.75 236.229 1376.71 205.65 1313.21 170.97C1307.57 167.888 1301.84 164.744 1296.3 161.702C1274.48 149.729 1251.92 137.348 1228.94 125.65C1174.63 98.0676 1115.86 80.5955 1054.27 73.7185C976.575 65.0429 892.427 72.5275 804.172 95.9675C758.884 107.996 714.407 123.159 675.55 139.821C646.293 152.366 622.209 167.157 596.711 182.817C594.121 184.409 591.519 186.005 588.903 187.607C582.392 191.601 575.379 195.887 568.245 200.177C553.285 209.205 535.053 219.492 513.27 227.313C488.886 236.07 463.843 240.484 436.714 240.803C387.052 241.391 336.5 231.511 287.61 221.957L285.749 221.594C261.812 216.918 236.49 212.194 213.502 209.326C143.431 200.584 70.4035 194.515 7.87695 192.237L7.96122 191.414C70.5537 193.694 143.647 199.768 213.78 208.518C236.834 211.395 262.2 216.126 286.174 220.808L288.035 221.171C336.818 230.703 387.268 240.559 436.689 239.975C493.763 239.302 533.181 220.168 567.274 199.589C574.408 195.301 581.414 191.015 587.925 187.024C590.541 185.424 593.142 183.826 595.733 182.236C621.275 166.549 645.402 151.732 674.755 139.145C713.685 122.45 758.247 107.258 803.618 95.208C845.026 84.2123 885.773 76.6352 924.722 72.6904C969.225 68.1843 1012.9 68.2547 1054.52 72.9018C1116.35 79.8052 1175.33 97.3389 1229.83 125.017C1252.83 136.725 1275.4 149.11 1297.23 161.09C1302.77 164.13 1308.5 167.274 1314.15 170.355C1377.58 205.003 1435.56 235.548 1502.81 258.506C1526.25 266.515 1550.89 274.09 1576.04 281.024C1607.48 289.638 1638.46 297.012 1668.14 302.94C1714.66 312.235 1772.56 323.798 1829.65 314.938C1860.1 310.212 1883.84 300.523 1902.22 285.317C1936.85 256.666 1946.87 213.482 1954.92 178.782C1958.06 165.266 1961.02 152.5 1965.03 142.11C1966.3 138.834 1967.58 135.46 1968.81 132.195C1975.22 115.236 1981.86 97.6978 1991.81 80.7386C2007.17 54.3466 2036.35 19.0414 2088.14 0.71953C2102.45 -4.33917 2117.2 -8.06385 2133.25 -10.6658C2175.24 -17.5715 2225.23 -15.3371 2281.84 -4.02878C2326.61 4.9153 2369.64 19.8779 2406.3 39.2431C2447.3 60.8516 2482.43 88.0999 2510.71 120.237C2523.69 134.978 2535.15 150.722 2544.8 167.031C2554.01 182.61 2561.61 198.788 2567.38 215.116L2566.04 215.287C2540.59 143.343 2483.53 81.0424 2405.39 39.8617C2368.87 20.5691 2326 5.66376 2281.4 -3.24731C2225.06 -14.505 2175.33 -16.7328 2133.61 -9.87116C2117.68 -7.28898 2103.03 -3.59292 2088.84 1.42836C2037.41 19.6225 2008.39 54.7472 1993.1 81.0093C1983.18 97.9245 1976.56 115.438 1970.15 132.376C1968.91 135.64 1967.64 139.017 1966.37 142.295C1962.37 152.65 1959.41 165.398 1956.28 178.895C1952.23 196.356 1947.64 216.146 1939.79 234.824C1930.77 256.287 1918.84 272.963 1903.33 285.801C1894.48 293.125 1884.12 299.302 1872.56 304.158C1860.1 309.39 1845.78 313.287 1829.99 315.735C1816.14 317.888 1801.67 318.962 1786.33 318.962Z" fill="#01387A"/>
<path d="M1807.44 323.079C1792.08 323.079 1775.89 321.884 1758.6 319.486C1730.58 315.605 1703.62 309.164 1679.83 303.48C1649.88 296.326 1618.87 287.743 1587.64 277.967C1562.62 270.097 1538.1 261.604 1514.79 252.722C1450.62 228.298 1395.59 196.818 1337.32 163.494C1334.44 161.846 1331.56 160.195 1328.67 158.544C1301.57 143.064 1273.55 127.055 1244.35 112.262C1189.09 84.3295 1128.54 67.925 1064.39 63.5047C983.8 57.9507 896.857 70.6327 805.967 101.194C760.504 116.48 714.868 135.749 677.466 155.448C649.224 170.323 626.573 187.06 602.592 204.781C599.752 206.879 596.905 208.983 594.036 211.092C588.306 215.312 581.487 220.316 574.349 225.434C561.129 234.937 543.117 247.014 520.964 256.099C496.969 265.941 471.87 270.958 444.232 271.431C421.516 271.772 396.446 269.665 367.588 264.988C342.812 260.972 318.846 255.724 292.326 249.781C268.118 244.288 242.568 238.615 219.646 234.869C151.748 223.77 80.0286 214.051 6.48438 205.976L6.74817 205.111C80.3364 213.188 152.096 222.915 220.031 234.019C243.015 237.777 268.601 243.458 292.839 248.955C337.291 258.921 392.614 271.327 444.192 270.55C503.161 269.538 541.058 247.995 573.224 224.866C580.358 219.752 587.173 214.751 592.9 210.533C595.769 208.424 598.616 206.319 601.452 204.224C625.473 186.474 648.165 169.709 676.499 154.786C713.978 135.046 759.701 115.741 805.252 100.426C896.417 69.772 983.661 57.057 1064.56 62.6308C1095.57 64.7683 1126.04 69.7323 1155.1 77.3842C1186.29 85.5931 1216.63 97.1039 1245.29 111.591C1274.53 126.399 1302.57 142.416 1329.68 157.907C1332.57 159.561 1335.45 161.209 1338.34 162.858C1396.55 196.154 1451.53 227.602 1515.57 251.98C1538.86 260.849 1563.33 269.331 1588.32 277.187C1619.5 286.948 1650.47 295.52 1680.37 302.664C1727.37 313.891 1785.86 327.863 1843.69 319.759C1875.02 315.37 1898.91 305.622 1916.73 289.962C1951.05 260.05 1957.16 214.357 1962.07 177.642C1963.83 164.511 1965.49 152.109 1968.24 142.08C1968.81 140.01 1969.38 137.93 1969.95 135.839C1975.08 116.949 1980.4 97.4143 1989.63 78.3506C2002.82 50.9306 2029.2 13.7498 2080.06 -7.66489C2094.25 -13.6393 2109.05 -18.2358 2125.32 -21.7183C2147.93 -26.6031 2173.13 -28.8991 2200.21 -28.5469C2224.93 -28.2255 2251.33 -25.7005 2278.67 -21.0447C2325.05 -13.1484 2369.4 1.19776 2406.92 20.4419C2448.93 41.9447 2484.33 69.4572 2512.14 102.211C2524.9 117.24 2535.94 133.307 2544.97 149.967C2553.62 165.922 2560.45 182.463 2565.26 199.13L2563.82 199.28C2542.84 126.655 2485.3 61.715 2405.97 21.1112C2368.61 1.95061 2324.45 -12.3361 2278.27 -20.2016C2221.32 -29.9007 2168.61 -30.1385 2125.81 -20.8928C2109.66 -17.4367 2094.97 -12.8755 2080.9 -6.94724C2030.39 14.32 2004.15 51.3093 1991.04 78.5928C1981.83 97.6058 1976.52 117.112 1971.39 135.978C1970.82 138.069 1970.25 140.151 1969.69 142.221C1966.94 152.212 1965.29 164.599 1963.53 177.711C1958.6 214.53 1952.47 260.356 1917.93 290.459C1909.34 298.008 1899.07 304.326 1887.41 309.233C1874.86 314.511 1860.26 318.342 1844.02 320.618C1832.3 322.256 1820.16 323.079 1807.44 323.079Z" fill="#01387A"/>
<path d="M1827.27 327.365C1809.78 327.365 1791.24 325.666 1771.27 322.254C1743.01 317.426 1715.88 309.887 1691.95 303.236C1661.71 294.832 1630.71 285.047 1599.81 274.159C1574.97 265.375 1550.62 255.973 1527.44 246.219C1470.37 222.207 1421.59 192.79 1369.94 161.646C1361.5 156.554 1352.77 151.29 1344.11 146.115C1313.66 127.932 1287.66 112.939 1259.75 98.8741C1203.51 70.5714 1141.18 55.2346 1074.5 53.2886C990.712 50.8429 900.962 68.7179 807.749 106.416C761.443 125.145 715.848 148.105 679.366 171.07C651.882 188.37 630.396 207.203 607.65 227.14C604.832 229.61 602.003 232.089 599.156 234.57C594.085 238.997 587.373 244.83 580.444 250.679C551.286 275.352 513.191 300.753 451.742 302.052C449.825 302.09 447.902 302.107 445.982 302.107C397.998 302.107 349.01 290.698 298.893 277.958L295.764 277.157C270.941 270.791 247.491 264.779 225.785 260.403C143.986 243.91 64.8759 229.989 5.09375 219.704L5.52246 218.804C65.3193 229.093 144.451 243.016 226.28 259.515C248.044 263.903 271.519 269.923 296.376 276.296L299.502 277.098C351.454 290.303 402.19 302.083 451.687 301.119C512.455 299.833 550.231 274.628 579.173 250.14C586.098 244.295 592.803 238.466 597.874 234.041C600.721 231.558 603.546 229.082 606.364 226.612C629.146 206.643 650.665 187.78 678.237 170.425C714.793 147.412 760.48 124.405 806.877 105.639C849.94 88.2218 893.018 74.8486 934.913 65.8869C982.981 55.6044 1029.97 51.052 1074.57 52.353C1141.6 54.3078 1204.24 69.7195 1260.75 98.1543C1288.7 112.241 1314.72 127.25 1345.2 145.448C1353.86 150.623 1362.6 155.889 1371.04 160.981C1422.63 192.095 1471.37 221.483 1528.33 245.447C1551.48 255.19 1575.79 264.576 1600.6 273.346C1631.45 284.221 1662.4 293.991 1692.6 302.382C1740.01 315.557 1799.01 331.953 1857.73 324.572C1889.82 320.537 1913.87 310.732 1931.23 294.598C1965.12 263.324 1967.15 215.059 1968.79 176.278C1969.32 163.625 1969.83 151.671 1971.45 142.04L1971.48 141.82C1975.11 120.254 1978.86 97.954 1987.45 75.9515C1994.89 56.7601 2005.25 39.5059 2018.25 24.6644C2032.91 7.93199 2050.98 -5.76921 2071.97 -16.0605C2086.01 -22.9463 2100.86 -28.4167 2117.37 -32.782C2161.99 -44.645 2216.66 -46.4766 2275.49 -38.074C2299.16 -34.6927 2322.51 -29.5702 2344.9 -22.8517C2367.41 -16.0935 2388.49 -7.85388 2407.54 1.63393C2450.57 23.0333 2486.25 50.8055 2513.56 84.1801C2538.12 114.178 2555.26 148.398 2563.14 183.137L2561.6 183.263C2544.74 108.91 2488.23 42.9709 2406.55 2.35377C2368.35 -16.6703 2322.9 -30.3363 2275.13 -37.1583C2216.64 -45.5124 2162.31 -43.7007 2118.01 -31.919C2101.62 -27.5868 2086.89 -22.1605 2072.95 -15.3297C2033.77 3.88591 2004.73 35.5259 1988.97 76.1694C1980.4 98.1147 1976.66 120.384 1973.04 141.919L1973 142.139C1971.39 151.735 1970.88 163.671 1970.35 176.307C1968.7 215.207 1966.66 263.617 1932.53 295.111C1924.16 302.891 1913.97 309.345 1902.23 314.294C1889.58 319.63 1874.72 323.396 1858.04 325.494C1848.12 326.74 1837.88 327.365 1827.27 327.365Z" fill="#01387A"/>
<path d="M452.881 332.756C431.424 332.756 408.059 330.244 381.689 325.115C355.487 320.019 329.575 312.983 305.473 306.142C301.11 304.896 296.779 303.652 292.477 302.417C271.065 296.269 250.839 290.461 231.937 285.938C156.564 267.906 84.7198 251.7 15.2389 236.031L3.72656 233.433L4.30546 232.506L15.8178 235.104C85.3024 250.778 157.158 266.984 232.545 285.02C251.499 289.554 271.75 295.368 293.188 301.525C297.486 302.76 301.817 304.004 306.177 305.248C355.652 319.292 408.216 332.903 459.198 331.69C521.867 330.123 559.423 300.792 585.137 275.417C591.725 268.928 598.071 262.46 602.864 257.551C605.509 254.846 608.136 252.142 610.756 249.446C632.484 227.091 653.006 205.976 679.995 186.067C715.621 159.791 761.263 133.08 808.522 110.858C852.366 90.2398 896.609 73.9498 940.027 62.4412C989.829 49.2397 1038.47 42.3891 1084.61 42.0787C1154.02 41.4579 1218.5 55.8063 1276.22 84.721C1308.21 100.769 1336.9 118.129 1360.74 132.994C1373.72 141.084 1386.69 149.377 1399.24 157.396C1443.66 185.787 1489.59 215.142 1541.1 238.919C1564.11 249.543 1588.27 259.836 1612.88 269.511C1643.35 281.458 1674.29 292.425 1704.85 302.107C1752.61 317.239 1812.05 336.071 1871.77 329.388C1904.64 325.709 1928.84 315.847 1945.74 299.238C1979.18 266.546 1976.92 215.637 1975.1 174.732C1974.57 162.636 1974.06 151.208 1974.67 142.009C1976.04 121.27 1978.11 97.1674 1985.28 73.5602C1991.33 53.5565 2000.45 35.4592 2012.4 19.7724C2025.92 2.02731 2043.25 -12.8494 2063.89 -24.4461C2077.57 -32.131 2092.9 -38.6536 2109.45 -43.8356C2133.07 -51.2542 2159.57 -55.9188 2188.22 -57.6975C2215.06 -59.3639 2243.35 -58.4878 2272.32 -55.0955C2296.75 -52.2338 2320.82 -47.5273 2343.88 -41.1037C2367.08 -34.6406 2388.71 -26.588 2408.17 -17.1707C2430.6 -6.32682 2451.22 6.47844 2469.47 20.8907C2486.75 34.5457 2502.07 49.7746 2515 66.1526C2539.19 96.7932 2555.11 131.72 2561.03 167.151L2559.39 167.25C2546.67 91.1644 2491.18 24.2279 2407.14 -16.398C2368.64 -35.0258 2320.66 -48.4232 2272 -54.1225C2211.84 -61.169 2155.9 -57.3079 2110.21 -42.9573C2093.79 -37.8171 2078.59 -31.3452 2065.01 -23.7219C2026.12 -1.87129 1999.83 30.9178 1986.9 73.7385C1979.75 97.2819 1977.69 121.343 1976.32 142.049C1975.71 151.215 1976.21 162.625 1976.75 174.706C1977.65 194.885 1978.66 217.76 1975.26 239.872C1971.31 265.531 1962.12 285.119 1947.15 299.755C1939 307.764 1928.88 314.357 1917.07 319.35C1904.32 324.743 1889.18 328.448 1872.08 330.361C1863.45 331.327 1854.83 331.765 1846.26 331.765C1794.94 331.765 1745.2 316.008 1704.08 302.98C1673.48 293.283 1642.49 282.301 1611.99 270.337C1587.33 260.648 1563.15 250.34 1540.1 239.7C1488.48 215.875 1442.5 186.489 1398.04 158.072C1385.5 150.055 1372.52 141.765 1359.56 133.679C1335.75 118.831 1307.1 101.495 1275.16 85.4783C1217.76 56.7177 1153.66 42.4529 1084.63 43.0649C976.224 43.7957 875.2 80.7542 809.54 111.633C762.377 133.811 716.826 160.465 681.278 186.688C654.369 206.537 633.876 227.619 612.181 249.939C609.562 252.636 606.931 255.339 604.286 258.046C599.489 262.958 593.14 269.43 586.548 275.926C575.754 286.578 558.808 302.084 536.362 313.708C525.461 319.352 513.861 323.788 501.883 326.894C488.528 330.356 474.187 332.302 459.267 332.674C457.153 332.729 455.024 332.756 452.881 332.756Z" fill="#01387A"/>
<path d="M459.769 363.404C438.287 363.404 414.969 360.698 388.738 355.177C361.58 349.463 334.73 341.428 312.05 334.319C305.081 332.131 298.127 329.912 291.4 327.766C272.596 321.767 254.833 316.099 238.085 311.472C177.94 294.851 118.187 278.625 60.3977 262.932C41.2825 257.741 21.5188 252.374 2.36328 247.161L3.08142 246.208C22.2369 251.421 42.0007 256.788 61.1159 261.979C118.905 277.672 178.665 293.901 238.814 310.523C255.606 315.163 273.391 320.836 292.217 326.844C298.94 328.99 305.895 331.207 312.856 333.395C359.895 348.131 414.456 363.73 466.701 362.261C530.847 360.417 566.876 328.389 591.102 300.694C597.313 293.599 603.318 286.475 607.854 281.062C610.184 278.284 612.5 275.508 614.812 272.739C635.594 247.831 655.223 224.305 681.757 201.712C716.269 172.329 761.875 141.917 810.167 116.08C877.42 80.253 981.364 36.5518 1094.63 31.8123C1166.67 28.7172 1232.97 42.0001 1291.69 71.2957C1318.07 84.4642 1344.15 99.6535 1376.28 120.551C1392.52 131.111 1408.63 142.056 1424.21 152.638C1464.74 180.17 1506.65 208.64 1553.88 232.404C1576.75 243.919 1600.74 255.117 1625.17 265.688C1654.76 278.476 1685.68 290.64 1717.09 301.845C1765.34 318.952 1825.38 340.246 1885.82 334.218C1918.95 330.982 1943.99 320.779 1960.25 303.895C1993.22 269.723 1986.15 213.818 1980.98 172.998C1979.53 161.542 1978.16 150.723 1977.89 141.994C1977.29 122.596 1977.34 97.0185 1983.12 71.1856C1993.09 26.4212 2017.55 -8.57145 2055.81 -32.8149C2069.22 -41.3561 2084.61 -48.7769 2101.52 -54.8724C2125.59 -63.5545 2152.74 -69.3947 2182.23 -72.2279C2210.02 -74.8959 2239.26 -74.8541 2269.14 -72.1024C2294.36 -69.7293 2319.16 -65.4279 2342.85 -59.3213C2366.78 -53.1532 2388.96 -45.2944 2408.8 -35.9628C2431.73 -25.1806 2452.68 -12.3313 2471.06 2.23058C2488.49 16.0308 2503.75 31.4755 2516.44 48.1397C2540.26 79.4253 2554.94 115.056 2558.92 151.18L2557.18 151.249C2548.62 73.4266 2494.15 5.49077 2407.73 -35.1373C2368.55 -53.5692 2319.23 -66.3304 2268.88 -71.0677C2206.81 -76.7802 2149.25 -70.8696 2102.42 -53.9743C2085.64 -47.9294 2070.39 -40.5681 2057.08 -32.0951C2019.07 -8.0123 1994.77 26.7822 1984.85 71.3265C1979.09 97.0889 1979.04 122.616 1979.63 141.977C1979.91 150.674 1981.27 161.481 1982.72 172.921C1985.39 194.021 1988.42 217.939 1986.69 241.288C1984.67 268.477 1976.52 289.128 1961.76 304.421C1953.82 312.669 1943.78 319.405 1931.91 324.442C1919.05 329.904 1903.64 333.54 1886.11 335.253C1858.92 337.963 1829.66 335.528 1796.65 327.808C1767.96 321.096 1740.47 311.348 1716.21 302.75C1684.76 291.53 1653.79 279.347 1624.16 266.542C1599.69 255.956 1575.67 244.742 1552.76 233.212C1505.44 209.4 1463.48 180.899 1422.9 153.338C1407.33 142.758 1391.23 131.82 1375.01 121.269C1342.93 100.409 1316.89 85.2479 1290.57 72.1102C1232.21 42.982 1166.33 29.7783 1094.75 32.8535C981.969 37.5754 878.369 81.1423 811.317 116.861C763.121 142.646 717.61 172.994 683.172 202.316C656.71 224.844 637.111 248.337 616.362 273.208C614.05 275.979 611.734 278.755 609.404 281.533C604.864 286.951 598.855 294.081 592.637 301.183C568.198 329.124 531.807 361.438 466.778 363.307C464.466 363.371 462.125 363.404 459.769 363.404Z" fill="#01387A"/>
<path d="M466.796 394.053C408.099 394.053 346.51 372.394 291.912 353.191C275.135 347.292 259.288 341.718 244.229 337.005L1 260.889L1.84641 259.913L245.075 336.029C260.175 340.754 276.04 346.334 292.839 352.242C349.548 372.187 413.825 394.792 474.205 392.833C539.765 390.709 574.302 355.985 597.067 325.974C604.512 316.158 611.701 306.17 618.655 296.511C637.675 270.095 657.34 242.778 683.512 217.355C704.294 197.168 730.111 175.998 758.17 156.135C788.952 134.344 821.91 114.351 856.121 96.7142C893.842 77.2697 932.197 61.1845 970.116 48.9075C1012.06 35.3296 1053.38 26.4648 1092.93 22.5574C1172.18 14.7316 1244.25 26.6079 1307.14 57.8604C1359.41 83.8297 1403.83 115.943 1446.79 147C1484.19 174.032 1522.85 201.983 1566.64 225.876C1617.21 253.472 1671.95 278.94 1729.33 301.567C1777.68 320.633 1837.85 344.364 1899.86 339.03C1952.24 334.526 1982.52 313.472 1992.43 274.663C2000.87 241.651 1992.84 202.491 1986.4 171.027C1984.2 160.305 1982.13 150.176 1981.11 141.963C1975.49 96.6856 1979.07 59.3089 1992.06 27.6997C2000.16 7.97786 2012.12 -9.60211 2027.6 -24.5515C2044.89 -41.2509 2067.09 -55.1722 2093.59 -65.928C2116.5 -75.2331 2142.33 -81.9913 2170.36 -86.0153C2197.04 -89.8457 2225.12 -91.1291 2253.84 -89.8303C2310.32 -87.2767 2365.57 -74.8259 2409.41 -54.7738C2432.84 -44.0554 2454.12 -31.1599 2472.65 -16.4483C2490.21 -2.50496 2505.42 13.1576 2517.86 30.108C2541.3 62.0386 2554.76 98.3763 2556.79 135.189L2554.96 135.227C2550.64 56.8324 2495.81 -13.8683 2408.3 -53.8955C2315.36 -96.4035 2183.43 -101.081 2094.6 -65.0145C2006.61 -29.2866 1970.08 38.3895 1982.93 141.882C1983.94 150.068 1986.02 160.184 1988.21 170.893C1994.67 202.425 2002.71 241.669 1994.24 274.83C1989.62 292.892 1980.35 307.408 1966.67 317.976C1958.97 323.918 1949.7 328.774 1939.1 332.406C1927.82 336.272 1914.7 338.867 1900.12 340.122C1894.16 340.635 1888.09 340.892 1881.93 340.892C1859.45 340.892 1835.52 337.478 1809.29 330.561C1779.74 322.769 1751.23 311.524 1728.32 302.49C1670.86 279.829 1616.05 254.329 1565.4 226.693C1521.51 202.749 1482.81 174.765 1445.37 147.704C1402.47 116.687 1358.1 84.6134 1305.96 58.7101C1243.49 27.6711 1171.92 15.8719 1093.22 23.6449C934.032 39.3669 770.053 135.381 685.058 217.936C658.956 243.289 639.317 270.568 620.322 296.949C613.364 306.613 606.172 316.607 598.719 326.432C583.605 346.356 568.678 360.623 551.743 371.326C541.172 378.005 529.704 383.27 517.657 386.975C504.261 391.094 489.671 393.436 474.289 393.936C471.805 394.013 469.302 394.053 466.796 394.053Z" fill="#01387A"/>
</g>
</g>
</g>
<defs>
<clipPath id="clip0_262_303">
<rect width="1728" height="270" fill="white"/>
</clipPath>
<clipPath id="clip1_262_303">
<rect width="1728" height="234" fill="white" transform="translate(3 18)"/>
</clipPath>
</defs>
</svg>
