<svg width="42" height="42" viewBox="0 0 42 42" fill="none" xmlns="http://www.w3.org/2000/svg">
<g clip-path="url(#clip0_696_1332)">
<path d="M20.9992 41.6761C32.4187 41.6761 41.6761 32.4187 41.6761 20.9992C41.6761 9.57964 32.4187 0.322266 20.9992 0.322266C9.57964 0.322266 0.322266 9.57964 0.322266 20.9992C0.322266 32.4187 9.57964 41.6761 20.9992 41.6761Z" fill="#EFEFEF"/>
<path d="M11.372 13.1816C12.8709 13.1816 14.0859 11.9666 14.0859 10.4678C14.0859 8.96894 12.8709 7.75391 11.372 7.75391C9.87323 7.75391 8.6582 8.96894 8.6582 10.4678C8.6582 11.9666 9.87323 13.1816 11.372 13.1816Z" fill="#82CFFF"/>
<path d="M11.3717 13.8274C9.49787 13.8274 8.01172 12.2767 8.01172 10.4674C8.01172 8.65819 9.56249 7.10742 11.3717 7.10742C13.181 7.10742 14.7317 8.65819 14.7317 10.4674C14.7317 12.2767 13.2456 13.8274 11.3717 13.8274ZM11.3717 8.33511C10.2086 8.33511 9.30403 9.30435 9.30403 10.4028C9.30403 11.5013 10.2733 12.4705 11.3717 12.4705C12.4702 12.4705 13.4394 11.5013 13.4394 10.4028C13.4394 9.30435 12.5348 8.33511 11.3717 8.33511Z" fill="black"/>
<path d="M21.0635 13.1816C22.5623 13.1816 23.7773 11.9666 23.7773 10.4678C23.7773 8.96894 22.5623 7.75391 21.0635 7.75391C19.5646 7.75391 18.3496 8.96894 18.3496 10.4678C18.3496 11.9666 19.5646 13.1816 21.0635 13.1816Z" fill="#4FA7FF"/>
<path d="M21.0631 13.8274C19.1893 13.8274 17.7031 12.2767 17.7031 10.4674C17.7031 8.65819 19.2539 7.10742 21.0631 7.10742C22.8724 7.10742 24.4231 8.65819 24.4231 10.4674C24.4231 12.2767 22.937 13.8274 21.0631 13.8274ZM21.0631 8.33511C19.9 8.33511 18.9954 9.30435 18.9954 10.4028C18.9954 11.5013 19.9647 12.4705 21.0631 12.4705C22.1616 12.4705 23.1308 11.5013 23.1308 10.4028C23.1308 9.30435 22.2262 8.33511 21.0631 8.33511Z" fill="black"/>
<path d="M30.8213 13.1816C32.3201 13.1816 33.5351 11.9666 33.5351 10.4678C33.5351 8.96894 32.3201 7.75391 30.8213 7.75391C29.3225 7.75391 28.1074 8.96894 28.1074 10.4678C28.1074 11.9666 29.3225 13.1816 30.8213 13.1816Z" fill="#76BFE9"/>
<path d="M30.8209 13.8274C28.9471 13.8274 27.4609 12.2767 27.4609 10.4674C27.4609 8.65819 29.0117 7.10742 30.8209 7.10742C32.6302 7.10742 34.1809 8.65819 34.1809 10.4674C34.1809 12.2767 32.6948 13.8274 30.8209 13.8274ZM30.8209 8.33511C29.6579 8.33511 28.7532 9.30435 28.7532 10.4028C28.7532 11.5013 29.7225 12.4705 30.8209 12.4705C31.9194 12.4705 32.9532 11.6305 32.9532 10.4674C32.9532 9.30435 31.984 8.33511 30.8209 8.33511Z" fill="black"/>
<path d="M11.372 21.3867C12.8709 21.3867 14.0859 20.1716 14.0859 18.6728C14.0859 17.174 12.8709 15.959 11.372 15.959C9.87323 15.959 8.6582 17.174 8.6582 18.6728C8.6582 20.1716 9.87323 21.3867 11.372 21.3867Z" fill="#4FA7FF"/>
<path d="M11.3717 22.097C9.49787 22.097 8.01172 20.5462 8.01172 18.737C8.01172 16.9277 9.56249 15.377 11.3717 15.377C13.181 15.377 14.7317 16.9277 14.7317 18.737C14.7317 20.5462 13.2456 22.097 11.3717 22.097ZM11.3717 16.6046C10.2086 16.6046 9.30403 17.5739 9.30403 18.6723C9.30403 19.7708 10.2733 20.74 11.3717 20.74C12.4702 20.74 13.4394 19.7708 13.4394 18.6723C13.4394 17.5739 12.5348 16.6046 11.3717 16.6046Z" fill="black"/>
<path d="M21.0635 21.3867C22.5623 21.3867 23.7773 20.1716 23.7773 18.6728C23.7773 17.174 22.5623 15.959 21.0635 15.959C19.5646 15.959 18.3496 17.174 18.3496 18.6728C18.3496 20.1716 19.5646 21.3867 21.0635 21.3867Z" fill="#82CFFF"/>
<path d="M21.0631 22.097C19.1893 22.097 17.7031 20.5462 17.7031 18.737C17.7031 16.9277 19.2539 15.377 21.0631 15.377C22.8724 15.377 24.4231 16.9277 24.4231 18.737C24.4231 20.5462 22.937 22.097 21.0631 22.097ZM21.0631 16.6046C19.9 16.6046 18.9954 17.5739 18.9954 18.6723C18.9954 19.7708 19.9647 20.74 21.0631 20.74C22.1616 20.74 23.1308 19.7708 23.1308 18.6723C23.1308 17.5739 22.2262 16.6046 21.0631 16.6046Z" fill="black"/>
<path d="M30.8213 21.3867C32.3201 21.3867 33.5351 20.1716 33.5351 18.6728C33.5351 17.174 32.3201 15.959 30.8213 15.959C29.3225 15.959 28.1074 17.174 28.1074 18.6728C28.1074 20.1716 29.3225 21.3867 30.8213 21.3867Z" fill="#4FA7FF"/>
<path d="M30.8209 22.097C28.9471 22.097 27.4609 20.5462 27.4609 18.737C27.4609 16.9277 29.0117 15.377 30.8209 15.377C32.6302 15.377 34.2456 16.7985 34.2456 18.6723C34.2456 20.5462 32.6948 22.097 30.8209 22.097ZM30.8209 16.6046C29.6579 16.6046 28.7532 17.5739 28.7532 18.6723C28.7532 19.7708 29.7225 20.74 30.8209 20.74C31.9194 20.74 32.8886 19.7708 32.8886 18.6723C32.8886 17.5739 31.984 16.6046 30.8209 16.6046Z" fill="black"/>
<path d="M11.372 29.6582C12.8709 29.6582 14.0859 28.4431 14.0859 26.9443C14.0859 25.4455 12.8709 24.2305 11.372 24.2305C9.87323 24.2305 8.6582 25.4455 8.6582 26.9443C8.6582 28.4431 9.87323 29.6582 11.372 29.6582Z" fill="#76BFE9"/>
<path d="M11.3717 30.304C9.49787 30.304 8.01172 28.7532 8.01172 26.944C8.01172 25.1348 9.56249 23.584 11.3717 23.584C13.181 23.584 14.7317 25.1348 14.7317 26.944C14.7317 28.7532 13.2456 30.304 11.3717 30.304ZM11.3717 24.8117C10.2086 24.8117 9.30403 25.7809 9.30403 26.8794C9.30403 27.9778 10.2733 28.9471 11.3717 28.9471C12.4702 28.9471 13.4394 27.9778 13.4394 26.8794C13.4394 25.7809 12.5348 24.8117 11.3717 24.8117Z" fill="black"/>
<path d="M30.8213 29.6582C32.3201 29.6582 33.5351 28.4431 33.5351 26.9443C33.5351 25.4455 32.3201 24.2305 30.8213 24.2305C29.3225 24.2305 28.1074 25.4455 28.1074 26.9443C28.1074 28.4431 29.3225 29.6582 30.8213 29.6582Z" fill="#82CFFF"/>
<path d="M30.8209 30.304C28.9471 30.304 27.4609 28.7532 27.4609 26.944C27.4609 25.1348 29.0117 23.584 30.8209 23.584C32.6302 23.584 34.1809 25.1348 34.1809 26.944C34.1809 28.7532 32.6948 30.304 30.8209 30.304ZM30.8209 24.8117C29.6579 24.8117 28.7532 25.7809 28.7532 26.8794C28.7532 27.9778 29.7225 28.9471 30.8209 28.9471C31.9194 28.9471 32.8886 27.9778 32.8886 26.8794C32.8886 25.7809 31.984 24.8117 30.8209 24.8117Z" fill="black"/>
<path d="M15.7013 31.0801C14.7967 31.0801 14.0859 31.7908 14.0859 32.6955V36.1847H17.2521V32.6955C17.2521 31.7908 16.5413 31.0801 15.7013 31.0801Z" fill="black"/>
<path d="M19.8361 24.5527C18.9315 24.5527 18.2207 25.2635 18.2207 26.1681V36.1835H21.3869V26.1035C21.3869 25.2635 20.6761 24.5527 19.8361 24.5527Z" fill="black"/>
<path d="M23.9709 29.3984C23.0662 29.3984 22.3555 30.1092 22.3555 31.0138V36.1831H25.5216V31.0138C25.5862 30.1092 24.8755 29.3984 23.9709 29.3984Z" fill="black"/>
<path d="M28.1076 31.6602C27.203 31.6602 26.4922 32.3709 26.4922 33.2755V36.1832H29.723V33.2755C29.723 32.3709 29.0122 31.6602 28.1076 31.6602Z" fill="black"/>
</g>
<defs>
<clipPath id="clip0_696_1332">
<rect width="42" height="42" fill="white"/>
</clipPath>
</defs>
</svg>
