<svg width="56" height="56" viewBox="0 0 56 56" fill="none" xmlns="http://www.w3.org/2000/svg">
<circle cx="28" cy="28.0002" r="23.0588" fill="black"/>
<path fill-rule="evenodd" clip-rule="evenodd" d="M28 1.75C42.4974 1.75 54.25 13.5025 54.25 28C54.25 42.4975 42.4974 54.25 28 54.25C13.5026 54.25 1.75 42.4974 1.75 28C1.75 13.5026 13.5026 1.75 28 1.75ZM31.2363 26.2095H25.5661C25.0413 26.2095 24.6133 26.6373 24.6133 27.1622V42.0485C24.6133 42.5735 25.0413 43.0011 25.5661 43.0011H31.2363C31.7611 43.0011 32.1891 42.5735 32.1891 42.0485V27.1623C32.1891 26.6373 31.7611 26.2095 31.2363 26.2095ZM15.2278 32.1449C14.7031 32.1449 14.2752 32.5729 14.2752 33.0975V42.0486C14.2752 42.5736 14.7031 43.0012 15.2278 43.0012H20.8982C21.423 43.0012 21.8508 42.5736 21.8508 42.0486V33.0975C21.8508 32.5729 21.4228 32.1449 20.8982 32.1449H15.2278ZM23.1287 16.0804C22.2394 17.8987 19.3037 22.5203 13.7024 24.1339C13.5552 24.1766 13.4607 24.3138 13.4739 24.4665C13.487 24.6192 13.6033 24.7382 13.7557 24.755C18.7889 25.3088 22.7614 24.045 26.674 18.6533L27.6899 19.3905C27.7921 19.4645 27.9199 19.4722 28.0304 19.4111C28.1409 19.35 28.202 19.2372 28.1933 19.1113L27.7905 13.2954C27.7837 13.1946 27.7354 13.1108 27.6519 13.0545C27.5684 12.9978 27.4729 12.9841 27.3768 13.0147L22.0964 14.7068C21.9796 14.7443 21.8991 14.838 21.8798 14.9591C21.8603 15.0802 21.9075 15.1942 22.0068 15.2663L23.1287 16.0804ZM35.9042 20.2741C35.3794 20.2741 34.9515 20.7017 34.9515 21.2267V42.0486C34.9515 42.5736 35.3794 43.0012 35.9042 43.0012H41.5745C42.0993 43.0012 42.5272 42.5736 42.5272 42.0486V21.2267C42.5272 20.7017 42.0992 20.2741 41.5745 20.2741H35.9042Z" fill="white"/>
</svg>
