<svg width="56" height="56" viewBox="0 0 56 56" fill="none" xmlns="http://www.w3.org/2000/svg">
<path d="M49.5863 25.6333H44.8657C44.6513 25.6339 44.4399 25.6831 44.2473 25.7771C44.0547 25.8712 43.8859 26.0076 43.7536 26.1763C42.8306 22.7052 40.7849 19.6371 37.9355 17.4505C35.0862 15.2638 31.5934 14.0815 28.0017 14.0879C24.41 14.0943 20.9214 15.289 18.0799 17.4858C15.2383 19.6826 13.2036 22.7579 12.2929 26.2323C12.1616 26.0473 11.9879 25.8965 11.7863 25.7923C11.5848 25.6881 11.3613 25.6336 11.1344 25.6333H6.41382C6.03693 25.634 5.67567 25.784 5.40917 26.0505C5.14266 26.317 4.99264 26.6783 4.99194 27.0552V41.3046C4.99264 41.6815 5.14266 42.0427 5.40917 42.3092C5.67567 42.5757 6.03693 42.7258 6.41382 42.7264H11.1344C11.512 42.7267 11.8743 42.5771 12.1417 42.3105C12.4091 42.0439 12.5598 41.6821 12.5607 41.3046V40.2664C13.4174 42.9036 14.9343 45.278 16.9672 47.1638C19.0002 49.0495 21.4816 50.3841 24.1757 51.0405C26.8698 51.697 29.687 51.6535 32.3596 50.9143C35.0321 50.1751 37.4712 48.7646 39.4451 46.8171H30.9488C30.8516 47.1987 30.6305 47.5372 30.3201 47.7795C30.0097 48.0218 29.6276 48.1541 29.2338 48.1558H26.8538C26.3833 48.1558 25.9321 47.9689 25.5994 47.6362C25.2667 47.3035 25.0798 46.8523 25.0798 46.3818C25.0798 45.9112 25.2667 45.46 25.5994 45.1273C25.9321 44.7946 26.3833 44.6077 26.8538 44.6077H29.2338C29.6272 44.6084 30.0091 44.7399 30.3196 44.9815C30.6301 45.2231 30.8514 45.561 30.9488 45.9421H40.2719C41.6763 44.3375 42.7525 42.4732 43.4394 40.4545V41.3046C43.4404 41.6821 43.5911 42.0439 43.8585 42.3105C44.1259 42.5771 44.4881 42.7267 44.8657 42.7264H46.7583C46.6508 43.6125 46.2229 44.4285 45.5553 45.0209C44.8878 45.6133 44.0266 45.9411 43.1341 45.9425L40.2719 45.9421L39.4451 46.8171L43.1341 46.8175C44.2588 46.8158 45.3428 46.3963 46.1755 45.6403C47.0082 44.8843 47.5303 43.8458 47.6403 42.7264H49.5863C49.9632 42.7258 50.3245 42.5757 50.591 42.3092C50.8575 42.0427 51.0075 41.6815 51.0082 41.3046V27.0552C51.0075 26.6783 50.8575 26.317 50.591 26.0505C50.3245 25.784 49.9632 25.634 49.5863 25.6333ZM32.9219 23.2271C27.5626 29.804 16.0563 30.6991 12.5607 30.8177V29.937C16.0493 29.7939 27.7516 28.8209 32.6069 22.1989C32.6513 22.1421 32.7086 22.0966 32.774 22.0662C32.8394 22.0357 32.9111 22.0213 32.9832 22.0239C33.0565 22.0274 33.1279 22.0492 33.1905 22.0874C33.2532 22.1257 33.3053 22.1791 33.3419 22.2427C33.3813 22.3127 37.223 28.9071 43.4394 29.8583V30.7473C37.7524 29.9602 34.0271 24.9281 32.9219 23.2271Z" fill="white"/>
<path d="M51.8831 27.6406V40.7175C52.8897 40.6191 53.8238 40.15 54.5038 39.4013C55.1838 38.6525 55.5611 37.6777 55.5624 36.6662V31.6919C55.5611 30.6804 55.1838 29.7056 54.5038 28.9569C53.8238 28.2081 52.8897 27.739 51.8831 27.6406Z" fill="white"/>
<path d="M0.4375 31.6919V36.6662C0.438786 37.6777 0.816103 38.6525 1.49611 39.4013C2.17612 40.15 3.11023 40.6191 4.11687 40.7175V27.6406C3.11023 27.739 2.17612 28.2081 1.49611 28.9569C0.816103 29.7056 0.438786 30.6804 0.4375 31.6919Z" fill="white"/>
<path d="M28.0001 9.13117C36.7588 9.13117 43.9645 16.0305 44.6076 24.7587H49.2538C48.5976 13.4712 39.3138 4.49805 28.0001 4.49805C16.6863 4.49805 7.40259 13.4712 6.74634 24.7587H11.3926C12.0357 16.0305 19.2413 9.13117 28.0001 9.13117Z" fill="white"/>
<path d="M26.8537 45.4824C26.6152 45.4824 26.3865 45.5771 26.2179 45.7458C26.0493 45.9144 25.9546 46.143 25.9546 46.3815C25.9546 46.6199 26.0493 46.8486 26.2179 47.0172C26.3865 47.1858 26.6152 47.2805 26.8537 47.2805H29.2337C29.4721 47.2805 29.7008 47.1858 29.8694 47.0172C30.038 46.8486 30.1327 46.6199 30.1327 46.3815C30.1327 46.143 30.038 45.9144 29.8694 45.7458C29.7008 45.5771 29.4721 45.4824 29.2337 45.4824H26.8537Z" fill="white"/>
</svg>
