<svg width="56" height="56" viewBox="0 0 56 56" fill="none" xmlns="http://www.w3.org/2000/svg">
<path d="M27.9931 55.992C43.4532 55.992 55.9861 43.4591 55.9861 27.9989C55.9861 12.5388 43.4532 0.00585938 27.9931 0.00585938C12.5329 0.00585938 0 12.5388 0 27.9989C0 43.4591 12.5329 55.992 27.9931 55.992Z" fill="url(#paint0_radial_477_240)"/>
<path d="M37.5905 20.1211C37.0375 20.1211 37.0375 20.9611 37.5905 20.9611H40.7539C41.8611 20.9611 42.7687 21.8687 42.7687 22.9759V38.4465H13.2311V22.9759C13.2311 21.8687 14.1388 20.9611 15.246 20.9611H18.4095C18.9624 20.9611 18.9624 20.1211 18.4095 20.1211H15.246C13.6749 20.1211 12.3911 21.4049 12.3911 22.9759V38.8665C12.3911 39.0984 12.5792 39.2865 12.8111 39.2865H43.1887C43.4206 39.2865 43.6087 39.0984 43.6087 38.8665V22.9759C43.6087 21.4049 42.3249 20.1211 40.7539 20.1211H37.5905Z" fill="black"/>
<path d="M13.389 44.2237H42.6108C43.9679 44.2237 45.0799 43.1117 45.0799 41.7546V39.2853H10.9198V41.7546C10.9198 43.1117 12.0318 44.2237 13.389 44.2237ZM42.6108 45.0637H13.389C11.568 45.0637 10.0798 43.5755 10.0798 41.7546V38.8653C10.0798 38.6334 10.2679 38.4453 10.4998 38.4453H45.5C45.7319 38.4453 45.92 38.6334 45.92 38.8653V41.7546C45.92 43.5755 44.4318 45.0637 42.6108 45.0637Z" fill="black"/>
<path d="M23.7212 41.3346H32.2787C32.8413 41.3346 33.3032 40.8726 33.3032 40.31V39.2853H22.6967C22.6967 39.9905 22.5842 40.6196 22.998 41.0333C23.1838 41.2191 23.44 41.3346 23.7212 41.3346ZM32.2787 42.1746H23.7212C22.6948 42.1746 21.8567 41.3365 21.8567 40.31V38.8653C21.8567 38.6334 22.0448 38.4453 22.2767 38.4453H33.7232C33.9551 38.4453 34.1432 38.6334 34.1432 38.8653C34.1432 39.9777 34.3106 40.9126 33.5959 41.6272C33.2582 41.9649 32.7918 42.1746 32.2787 42.1746Z" fill="black"/>
<path d="M20.1665 10.9473H35.8335C37.0318 10.9473 38.0105 11.9259 38.0105 13.1242V34.5017C38.0105 35.7 37.0318 36.6786 35.8335 36.6786H20.1665C18.9681 36.6786 17.9895 35.7 17.9895 34.5017V13.1242C17.9895 11.9259 18.9682 10.9473 20.1665 10.9473ZM35.8335 11.7873H20.1665C19.432 11.7873 18.8295 12.3897 18.8295 13.1242V34.5017C18.8295 35.2362 19.432 35.8386 20.1665 35.8386H35.8335C36.568 35.8386 37.1705 35.2362 37.1705 34.5017V13.1242C37.1705 12.3897 36.568 11.7873 35.8335 11.7873Z" fill="black"/>
<path d="M27.9998 13.0176C32.452 13.0176 34.6958 18.4257 31.545 21.5766C28.3944 24.7272 22.9861 22.4837 22.9861 18.0313C22.9861 15.2624 25.2309 13.0176 27.9998 13.0176ZM30.951 15.08C28.3287 12.4574 23.8261 14.3245 23.8261 18.0313C23.8261 21.7379 28.3285 23.6054 30.951 20.9826C32.5809 19.3527 32.5811 16.7099 30.951 15.08Z" fill="black"/>
<path d="M28.9525 16.6723C29.3061 17.2102 30.3105 16.5048 29.2327 15.8036C27.9378 14.9612 25.8995 15.811 26.322 17.3032C26.748 18.8071 29.2629 18.1931 28.8555 19.2842C28.6234 19.9059 27.362 19.8742 27.0464 19.3942C26.7438 18.9341 26.0451 19.3938 26.3475 19.8536C27.0256 20.8846 29.1543 20.8767 29.6398 19.5762C29.7537 19.2712 29.761 18.9308 29.6271 18.6083C29.1063 17.3565 27.3523 17.865 27.1293 17.0768C26.8934 16.2431 28.5588 16.0742 28.9525 16.6723Z" fill="black"/>
<path d="M28.4199 15.1413C28.4199 14.5883 27.5799 14.5883 27.5799 15.1413C27.5799 15.6416 27.4603 16.3157 27.9999 16.3157C28.5394 16.3157 28.4199 15.6416 28.4199 15.1413ZM28.4199 20.1651C28.4199 19.6121 27.5799 19.6121 27.5799 20.1651C27.5799 20.6657 27.4603 21.3401 27.9999 21.3401C28.5394 21.3401 28.4199 20.6657 28.4199 20.1651Z" fill="black"/>
<path d="M20.8205 26.7627C20.4295 26.3717 19.8356 26.9657 20.2266 27.3567L21.2985 28.4287C21.4625 28.5926 21.7286 28.5926 21.8925 28.4287L23.8219 26.4992C24.2129 26.1082 23.619 25.5143 23.228 25.9053L21.5955 27.5377L20.8205 26.7627Z" fill="black"/>
<path d="M24.2643 27.7129C23.7114 27.7129 23.7114 28.5529 24.2643 28.5529H35.4761C36.0291 28.5529 36.0291 27.7129 35.4761 27.7129H24.2643Z" fill="black"/>
<path d="M20.8205 32.0342C20.4295 31.6432 19.8356 32.2372 20.2266 32.6282L21.2985 33.7001C21.4625 33.8641 21.7286 33.8641 21.8925 33.7001L23.8219 31.7707C24.2129 31.3797 23.619 30.7858 23.228 31.1767L21.5955 32.8092L20.8205 32.0342Z" fill="black"/>
<path d="M24.2643 32.9824C23.7114 32.9824 23.7114 33.8224 24.2643 33.8224H35.4761C36.0291 33.8224 36.0291 32.9824 35.4761 32.9824H24.2643Z" fill="black"/>
<defs>
<radialGradient id="paint0_radial_477_240" cx="0" cy="0" r="1" gradientUnits="userSpaceOnUse" gradientTransform="translate(27.9931 27.9989) scale(7.79102)">
<stop stop-color="white"/>
<stop offset="1" stop-color="white"/>
</radialGradient>
</defs>
</svg>
