<svg width="56" height="55" viewBox="0 0 56 55" fill="none" xmlns="http://www.w3.org/2000/svg">
<path d="M48.44 25.6499V11.1291C48.44 8.49395 46.2112 6.33395 43.4672 6.33395H39.7184V5.83719C39.7184 4.19926 38.337 2.86719 36.6384 2.86719C34.9398 2.86719 33.5584 4.19926 33.5584 5.83719V6.33395H16.8415V5.83719C16.8415 4.19926 15.4601 2.86719 13.7615 2.86719C12.0629 2.86719 10.6815 4.19926 10.6815 5.83719V6.33395H6.93276C4.18875 6.33395 1.95996 8.49395 1.95996 11.1291V32.2324C1.95996 34.8784 4.18875 37.0276 6.93276 37.0276H21.618C21.6141 37.1677 21.5961 37.3042 21.5961 37.4451C21.5961 46.0704 28.8739 53.0872 37.8186 53.0872C46.7632 53.0872 54.04 46.0704 54.04 37.4451C54.04 32.7379 51.8629 28.52 48.44 25.6499ZM37.0496 16.702C37.0496 17.1448 36.6688 17.512 36.2096 17.512C35.7391 17.512 35.3696 17.1448 35.3696 16.702C35.3696 16.2591 35.7391 15.892 36.2096 15.892C36.6688 15.892 37.0496 16.2591 37.0496 16.702ZM36.1647 21.292C36.53 21.292 36.8294 21.5276 36.9404 21.8454C36.4009 21.8735 35.8694 21.9262 35.3451 22.004C35.3969 21.6084 35.7311 21.292 36.1647 21.292ZM35.2384 5.83719C35.2384 5.09258 35.8662 4.48719 36.6384 4.48719C37.4106 4.48719 38.0384 5.09258 38.0384 5.83719V9.5365C38.0384 10.2811 37.4106 10.8865 36.6384 10.8865C35.8662 10.8865 35.2384 10.2811 35.2384 9.5365V5.83719ZM30.6096 15.892C31.0688 15.892 31.4496 16.2591 31.4496 16.702C31.4496 17.1448 31.0688 17.512 30.6096 17.512C30.1391 17.512 29.7696 17.1448 29.7696 16.702C29.7696 16.2591 30.1391 15.892 30.6096 15.892ZM30.5647 21.292C31.024 21.292 31.4047 21.6591 31.4047 22.102C31.4047 22.5448 31.024 22.912 30.5647 22.912C30.0944 22.912 29.7247 22.5448 29.7247 22.102C29.7247 21.6591 30.0944 21.292 30.5647 21.292ZM25.0096 15.892C25.4688 15.892 25.8496 16.2591 25.8496 16.702C25.8496 17.1448 25.4688 17.512 25.0096 17.512C24.5391 17.512 24.1696 17.1448 24.1696 16.702C24.1696 16.2591 24.5391 15.892 25.0096 15.892ZM24.9647 21.292C25.424 21.292 25.8047 21.6591 25.8047 22.102C25.8047 22.5448 25.424 22.912 24.9647 22.912C24.4944 22.912 24.1247 22.5448 24.1247 22.102C24.1247 21.6591 24.4944 21.292 24.9647 21.292ZM12.3615 5.83719C12.3615 5.09258 12.9893 4.48719 13.7615 4.48719C14.5337 4.48719 15.1615 5.09258 15.1615 5.83719V9.5365C15.1615 10.2811 14.5337 10.8865 13.7615 10.8865C12.9893 10.8865 12.3615 10.2811 12.3615 9.5365V5.83719ZM13.7647 28.312C13.2944 28.312 12.9247 27.9448 12.9247 27.502C12.9247 27.0484 13.2944 26.692 13.7647 26.692C14.224 26.692 14.6047 27.0484 14.6047 27.502C14.6047 27.9448 14.224 28.312 13.7647 28.312ZM13.7647 22.912C13.2944 22.912 12.9247 22.5448 12.9247 22.102C12.9247 21.6591 13.2944 21.292 13.7647 21.292C14.224 21.292 14.6047 21.6591 14.6047 22.102C14.6047 22.5448 14.224 22.912 13.7647 22.912ZM19.3647 28.312C18.8944 28.312 18.5247 27.9448 18.5247 27.502C18.5247 27.0484 18.8944 26.692 19.3647 26.692C19.824 26.692 20.2047 27.0484 20.2047 27.502C20.2047 27.9448 19.824 28.312 19.3647 28.312ZM19.3647 22.912C18.8944 22.912 18.5247 22.5448 18.5247 22.102C18.5247 21.6591 18.8944 21.292 19.3647 21.292C19.824 21.292 20.2047 21.6591 20.2047 22.102C20.2047 22.5448 19.824 22.912 19.3647 22.912ZM19.4096 17.512C18.9503 17.512 18.5696 17.1448 18.5696 16.702C18.5696 16.2591 18.9503 15.892 19.4096 15.892C19.8687 15.892 20.2496 16.2591 20.2496 16.702C20.2496 17.1448 19.8687 17.512 19.4096 17.512ZM24.1247 27.502C24.1247 27.0484 24.4944 26.692 24.9647 26.692C25.275 26.692 25.5338 26.8621 25.6759 27.1075C25.3365 27.4778 25.0161 27.863 24.7137 28.2631C24.3718 28.1584 24.1247 27.8604 24.1247 27.502ZM37.8186 51.4672C29.8003 51.4672 23.2761 45.177 23.2761 37.4451C23.2761 29.7132 29.8003 23.4225 37.8186 23.4225C45.8368 23.4225 52.36 29.7132 52.36 37.4451C52.36 45.177 45.8368 51.4672 37.8186 51.4672ZM45.9629 44.4258C40.8432 51.6661 28.7371 48.9931 26.7352 40.5849C26.0631 38.026 26.4843 35.2497 27.8809 33.1224C27.136 35.5228 27.1846 38.0197 27.9929 40.2282C30.5459 47.4532 40.1437 49.5129 45.9629 44.4258ZM35.9209 40.9551C35.3489 40.9551 34.884 40.5063 34.884 39.9547C34.884 39.5076 34.5078 39.1447 34.044 39.1447C33.5803 39.1447 33.204 39.5076 33.204 39.9547C33.204 41.3997 34.4225 42.5751 35.9209 42.5751H37.3986V45.3379C37.3986 45.5615 37.5867 45.7429 37.8186 45.7429C38.0504 45.7429 38.2386 45.5615 38.2386 45.3379V42.5751H39.7151C41.2136 42.5751 42.4331 41.3997 42.4331 39.9547V39.255C42.4331 37.8106 41.2136 36.6351 39.7151 36.6351H38.2386V33.9351H39.7151C40.2871 33.9351 40.7531 34.3839 40.7531 34.935C40.7531 35.3821 41.1293 35.745 41.5931 35.745C42.0568 35.745 42.4331 35.3821 42.4331 34.935C42.4331 33.4906 41.2136 32.3151 39.7151 32.3151H38.2386V29.5518C38.2386 29.3282 38.0504 29.1468 37.8186 29.1468C37.5867 29.1468 37.3986 29.3282 37.3986 29.5518V32.3151H35.9209C34.4225 32.3151 33.204 33.4906 33.204 34.935V35.6347C33.204 37.0797 34.4225 38.2551 35.9209 38.2551H37.3986V40.9551H35.9209ZM39.7151 38.2551C40.2871 38.2551 40.7531 38.7039 40.7531 39.255V39.9547C40.7531 40.5063 40.2871 40.9551 39.7151 40.9551H38.2386V38.2551H39.7151ZM35.9209 36.6351C35.3489 36.6351 34.884 36.1863 34.884 35.6347V34.935C34.884 34.3839 35.3489 33.9351 35.9209 33.9351H37.3986V36.6351H35.9209Z" fill="white"/>
</svg>
