<svg width="56" height="56" viewBox="0 0 56 56" fill="none" xmlns="http://www.w3.org/2000/svg">
<path d="M22.7425 2.01274L6.72001 14.954C4.66584 16.5974 5.84699 19.884 8.51741 19.884H40.4084C43.0275 19.884 44.1573 16.5974 42.2058 14.954L26.2346 2.01274C25.2076 1.19107 23.7696 1.19107 22.7425 2.01274Z" fill="white"/>
<path d="M12.5744 39.963C10.6743 39.963 9.08228 38.371 9.08228 36.4709V26.8163C9.08228 24.9162 10.6743 23.3242 12.5744 23.3242C14.4745 23.3242 16.0665 24.9162 16.0665 26.8163V36.5223C16.0151 38.371 14.4745 39.963 12.5744 39.963Z" fill="white"/>
<path d="M24.4372 39.963C22.537 39.963 20.9451 38.371 20.9451 36.4709V26.8163C20.9451 24.9162 22.537 23.3242 24.4372 23.3242C26.3373 23.3242 27.9292 24.9162 27.9292 26.8163V36.5223C27.9292 38.371 26.3373 39.963 24.4372 39.963Z" fill="white"/>
<path d="M39.8438 26.815V27.7838C38.8526 28.327 35.2798 30.2759 32.8606 31.5974V26.815C32.8606 24.9166 34.451 23.3262 36.3494 23.3262C38.2534 23.3262 39.8438 24.9166 39.8438 26.815Z" fill="white"/>
<path d="M32.0038 49.0527H6.9718C5.38139 49.0527 4.14941 47.8207 4.14941 46.2304C4.14941 44.6343 5.4318 43.4023 6.9718 43.4023H29.7526C30.2622 45.5248 31.007 47.4007 32.0038 49.0527Z" fill="white"/>
<path d="M41.5323 29.5391C41.6643 29.5391 41.7698 29.5918 41.9018 29.6446L51.4282 34.8169C51.6921 34.9488 51.8505 35.2391 51.8505 35.5294C51.8505 41.7308 50.5574 45.7684 48.631 48.592C46.7046 51.442 44.1976 53.0518 41.9545 54.4768C41.6906 54.6351 41.3212 54.6351 41.0573 54.4768C38.8142 53.0518 36.3073 51.442 34.3809 48.6184C32.4544 45.7948 31.1614 41.7572 31.1614 35.5558C31.1614 35.2655 31.3197 34.9752 31.5836 34.8433L41.1101 29.6446C41.2684 29.5655 41.4004 29.5391 41.5323 29.5391ZM41.5059 31.2807L32.8239 36.0044C32.8503 38.3794 33.0878 40.3586 33.4572 42.0739H41.5059V52.8143C43.617 51.4684 45.6754 50.0434 47.2851 47.6948C48.2615 46.2698 49.0532 44.4489 49.581 42.0739L41.5059 42.0739V31.2807Z" fill="white"/>
</svg>
