<svg width="34" height="34" viewBox="0 0 34 34" fill="none" xmlns="http://www.w3.org/2000/svg">
<path d="M11.0507 2.83301H22.9507C27.484 2.83301 31.1673 6.51634 31.1673 11.0497V22.9497C31.1673 25.1289 30.3016 27.2188 28.7607 28.7597C27.2198 30.3007 25.1298 31.1663 22.9507 31.1663H11.0507C6.51732 31.1663 2.83398 27.483 2.83398 22.9497V11.0497C2.83398 8.87048 3.69967 6.78054 5.24059 5.23961C6.78151 3.69869 8.87146 2.83301 11.0507 2.83301ZM10.7673 5.66634C9.41471 5.66634 8.11751 6.20366 7.16107 7.1601C6.20464 8.11653 5.66732 9.41374 5.66732 10.7663V23.233C5.66732 26.0522 7.94815 28.333 10.7673 28.333H23.234C24.5866 28.333 25.8838 27.7957 26.8402 26.8393C27.7967 25.8828 28.334 24.5856 28.334 23.233V10.7663C28.334 7.94717 26.0532 5.66634 23.234 5.66634H10.7673ZM24.4382 7.79134C24.9078 7.79134 25.3582 7.97791 25.6903 8.31001C26.0224 8.6421 26.209 9.09252 26.209 9.56217C26.209 10.0318 26.0224 10.4822 25.6903 10.8143C25.3582 11.1464 24.9078 11.333 24.4382 11.333C23.9685 11.333 23.5181 11.1464 23.186 10.8143C22.8539 10.4822 22.6673 10.0318 22.6673 9.56217C22.6673 9.09252 22.8539 8.6421 23.186 8.31001C23.5181 7.97791 23.9685 7.79134 24.4382 7.79134ZM17.0007 9.91634C18.8793 9.91634 20.6809 10.6626 22.0093 11.991C23.3377 13.3194 24.084 15.1211 24.084 16.9997C24.084 18.8783 23.3377 20.68 22.0093 22.0083C20.6809 23.3367 18.8793 24.083 17.0007 24.083C15.122 24.083 13.3204 23.3367 11.992 22.0083C10.6636 20.68 9.91732 18.8783 9.91732 16.9997C9.91732 15.1211 10.6636 13.3194 11.992 11.991C13.3204 10.6626 15.122 9.91634 17.0007 9.91634ZM17.0007 12.7497C15.8735 12.7497 14.7925 13.1974 13.9954 13.9945C13.1984 14.7915 12.7507 15.8725 12.7507 16.9997C12.7507 18.1268 13.1984 19.2078 13.9954 20.0049C14.7925 20.8019 15.8735 21.2497 17.0007 21.2497C18.1278 21.2497 19.2088 20.8019 20.0059 20.0049C20.8029 19.2078 21.2507 18.1268 21.2507 16.9997C21.2507 15.8725 20.8029 14.7915 20.0059 13.9945C19.2088 13.1974 18.1278 12.7497 17.0007 12.7497Z" fill="black"/>
</svg>
