<svg width="30" height="30" viewBox="0 0 30 30" fill="none" xmlns="http://www.w3.org/2000/svg">
<g clip-path="url(#clip0_383_15)">
<path d="M15 30C6.717 30 0 23.283 0 15C0 6.717 6.717 0 15 0C23.283 0 30 6.717 30 15C30 23.283 23.283 30 15 30Z" fill="url(#paint0_linear_383_15)"/>
<path d="M14.9998 6.60574C17.7328 6.60574 18.0568 6.61474 19.1368 6.66574C20.1358 6.71074 20.6788 6.87874 21.0388 7.01974C21.5158 7.20574 21.8578 7.42774 22.2148 7.78474C22.5718 8.14174 22.7938 8.48374 22.9798 8.96074C23.1208 9.32074 23.2858 9.86374 23.3338 10.8627C23.3818 11.9427 23.3938 12.2667 23.3938 14.9997C23.3938 17.7327 23.3848 18.0567 23.3338 19.1367C23.2888 20.1357 23.1208 20.6787 22.9798 21.0387C22.7938 21.5157 22.5718 21.8577 22.2148 22.2147C21.8578 22.5717 21.5158 22.7937 21.0388 22.9797C20.6788 23.1207 20.1358 23.2857 19.1368 23.3337C18.0568 23.3817 17.7328 23.3937 14.9998 23.3937C12.2668 23.3937 11.9428 23.3847 10.8628 23.3337C9.86381 23.2887 9.32081 23.1207 8.96081 22.9797C8.48381 22.7937 8.14181 22.5717 7.78481 22.2147C7.42781 21.8577 7.20581 21.5157 7.01981 21.0387C6.87881 20.6787 6.71381 20.1357 6.66581 19.1367C6.61781 18.0567 6.60581 17.7327 6.60581 14.9997C6.60581 12.2667 6.61481 11.9427 6.66581 10.8627C6.71081 9.86374 6.87881 9.32074 7.01981 8.96074C7.20581 8.48374 7.42781 8.14174 7.78481 7.78474C8.14181 7.42774 8.48381 7.20574 8.96081 7.01974C9.32081 6.87874 9.86381 6.71374 10.8628 6.66574C11.9428 6.61474 12.2668 6.60574 14.9998 6.60574ZM14.9998 4.76074C12.2188 4.76074 11.8708 4.77274 10.7788 4.82374C9.68981 4.87474 8.94581 5.04574 8.29181 5.30074C7.61981 5.55874 7.04681 5.90974 6.47981 6.47974C5.90981 7.04974 5.56181 7.61974 5.29781 8.29474C5.04581 8.94574 4.87181 9.68974 4.82081 10.7817C4.76981 11.8737 4.75781 12.2217 4.75781 15.0027C4.75781 17.7837 4.76981 18.1317 4.82081 19.2237C4.87181 20.3127 5.04281 21.0567 5.29781 21.7107C5.55881 22.3797 5.90981 22.9527 6.47981 23.5197C7.04981 24.0897 7.61981 24.4377 8.29481 24.7017C8.94581 24.9537 9.68981 25.1277 10.7818 25.1787C11.8738 25.2297 12.2218 25.2417 15.0028 25.2417C17.7838 25.2417 18.1318 25.2297 19.2238 25.1787C20.3128 25.1277 21.0568 24.9567 21.7108 24.7017C22.3798 24.4407 22.9528 24.0897 23.5198 23.5197C24.0898 22.9497 24.4378 22.3797 24.7018 21.7047C24.9538 21.0537 25.1278 20.3097 25.1788 19.2177C25.2298 18.1257 25.2418 17.7777 25.2418 14.9967C25.2418 12.2157 25.2298 11.8677 25.1788 10.7757C25.1278 9.68674 24.9568 8.94274 24.7018 8.28874C24.4408 7.61974 24.0898 7.04674 23.5198 6.47974C22.9498 5.90974 22.3798 5.56174 21.7048 5.29774C21.0538 5.04574 20.3098 4.87174 19.2178 4.82074C18.1288 4.77274 17.7808 4.76074 14.9998 4.76074Z" fill="white"/>
<path d="M14.9992 9.74121C12.0952 9.74121 9.74023 12.0962 9.74023 15.0002C9.74023 17.9042 12.0952 20.2592 14.9992 20.2592C17.9032 20.2592 20.2582 17.9042 20.2582 15.0002C20.2582 12.0962 17.9032 9.74121 14.9992 9.74121ZM14.9992 18.4142C13.1152 18.4142 11.5852 16.8872 11.5852 15.0002C11.5852 13.1132 13.1152 11.5862 14.9992 11.5862C16.8832 11.5862 18.4132 13.1132 18.4132 15.0002C18.4132 16.8872 16.8832 18.4142 14.9992 18.4142Z" fill="white"/>
<path d="M20.4663 10.7637C21.1456 10.7637 21.6963 10.213 21.6963 9.53371C21.6963 8.8544 21.1456 8.30371 20.4663 8.30371C19.787 8.30371 19.2363 8.8544 19.2363 9.53371C19.2363 10.213 19.787 10.7637 20.4663 10.7637Z" fill="white"/>
</g>
<defs>
<linearGradient id="paint0_linear_383_15" x1="4.39341" y1="25.6066" x2="25.6066" y2="4.39341" gradientUnits="userSpaceOnUse">
<stop stop-color="#FFD521"/>
<stop offset="0.0551048" stop-color="#FFD020"/>
<stop offset="0.1241" stop-color="#FEC01E"/>
<stop offset="0.2004" stop-color="#FCA71B"/>
<stop offset="0.2821" stop-color="#FA8316"/>
<stop offset="0.3681" stop-color="#F85510"/>
<stop offset="0.4563" stop-color="#F51E09"/>
<stop offset="0.5" stop-color="#F30005"/>
<stop offset="0.5035" stop-color="#F20007"/>
<stop offset="0.5966" stop-color="#E1003B"/>
<stop offset="0.6879" stop-color="#D30067"/>
<stop offset="0.7757" stop-color="#C70088"/>
<stop offset="0.8589" stop-color="#BF00A0"/>
<stop offset="0.9357" stop-color="#BB00AF"/>
<stop offset="1" stop-color="#B900B4"/>
</linearGradient>
<clipPath id="clip0_383_15">
<rect width="30" height="30" fill="white"/>
</clipPath>
</defs>
</svg>
