<svg width="30" height="30" viewBox="0 0 30 30" fill="none" xmlns="http://www.w3.org/2000/svg">
<g clip-path="url(#clip0_384_21)">
<path d="M15 30C23.2843 30 30 23.2843 30 15C30 6.71573 23.2843 0 15 0C6.71573 0 0 6.71573 0 15C0 23.2843 6.71573 30 15 30Z" fill="#0B69C7"/>
<path d="M28.8578 20.7534C27.7847 23.3363 26.0109 25.5677 23.7367 27.1957C21.4624 28.8237 18.7783 29.7835 15.9874 29.9665L8.52091 22.5001L10.2834 13.1172L8.01367 10.8554L10.8913 7.95996L16.761 13.8297L17.1143 13.4764L21.2453 13.1429L28.8578 20.7534Z" fill="url(#paint0_linear_384_21)"/>
<path d="M11.6442 9.54671C11.6446 9.95207 11.5248 10.3484 11.2998 10.6856C11.0748 11.0228 10.7549 11.2857 10.3805 11.441C10.006 11.5963 9.59396 11.6371 9.19637 11.5581C8.79878 11.4791 8.43355 11.284 8.14692 10.9973C7.86029 10.7107 7.66513 10.3455 7.58614 9.94788C7.50716 9.55029 7.5479 9.1382 7.7032 8.76378C7.85851 8.38935 8.1214 8.06941 8.4586 7.84444C8.79581 7.61948 9.19217 7.49961 9.59753 7.5C10.1402 7.50052 10.6605 7.71633 11.0442 8.10005C11.4279 8.48377 11.6437 9.00405 11.6442 9.54671Z" fill="white"/>
<path d="M10.6742 12.4482H8.51896C8.23882 12.4482 8.01172 12.6753 8.01172 12.9555V21.993C8.01172 22.2731 8.23882 22.5002 8.51896 22.5002H10.6742C10.9544 22.5002 11.1815 22.2731 11.1815 21.993V12.9555C11.1815 12.6753 10.9544 12.4482 10.6742 12.4482Z" fill="white"/>
<path d="M22.4502 17.6584V22.034C22.4502 22.1576 22.4011 22.276 22.3137 22.3634C22.2264 22.4507 22.1079 22.4998 21.9844 22.4998H19.6712C19.5477 22.4998 19.4292 22.4507 19.3419 22.3634C19.2545 22.276 19.2054 22.1576 19.2054 22.034V17.7945C19.2054 17.161 19.389 15.0314 17.5515 15.0314C16.1265 15.0314 15.8364 16.4959 15.7752 17.1531V22.0439C15.7726 22.165 15.7229 22.2804 15.6367 22.3655C15.5505 22.4506 15.4345 22.4988 15.3133 22.4998H13.0752C13.0139 22.5001 12.9532 22.4882 12.8966 22.4649C12.84 22.4416 12.7885 22.4073 12.7452 22.364C12.7019 22.3207 12.6676 22.2692 12.6443 22.2126C12.621 22.1559 12.6091 22.0953 12.6094 22.034V12.9156C12.6091 12.8543 12.621 12.7935 12.6443 12.7367C12.6676 12.68 12.7018 12.6284 12.7451 12.585C12.7884 12.5415 12.8398 12.507 12.8965 12.4835C12.9531 12.4599 13.0138 12.4478 13.0752 12.4478H15.3133C15.3754 12.4468 15.4371 12.4581 15.4948 12.4811C15.5524 12.5042 15.6049 12.5385 15.6492 12.582C15.6935 12.6256 15.7286 12.6775 15.7526 12.7347C15.7766 12.792 15.789 12.8535 15.789 12.9156V13.7051C16.3179 12.9156 17.1035 12.2998 18.7752 12.2998C22.4719 12.2978 22.4502 15.7577 22.4502 17.6584Z" fill="white"/>
</g>
<defs>
<linearGradient id="paint0_linear_384_21" x1="10.2893" y1="13.8889" x2="24.1624" y2="26.6606" gradientUnits="userSpaceOnUse">
<stop stop-color="#084A8C"/>
<stop offset="0.19" stop-color="#084A8C" stop-opacity="0.84"/>
<stop offset="0.6" stop-color="#084A8C" stop-opacity="0.42"/>
<stop offset="0.97" stop-color="#084A8C" stop-opacity="0"/>
</linearGradient>
<clipPath id="clip0_384_21">
<rect width="30" height="30" fill="white"/>
</clipPath>
</defs>
</svg>
