<svg width="28" height="34" viewBox="0 0 28 34" fill="none" xmlns="http://www.w3.org/2000/svg">
<path d="M4 2.125C1.79375 2.125 0 4.03086 0 6.375V27.625C0 29.9691 1.79375 31.875 4 31.875H24C26.2062 31.875 28 29.9691 28 27.625V6.375C28 4.03086 26.2062 2.125 24 2.125H4ZM22.5688 7.70312L16.0812 15.5789L23.7125 26.2969H17.7375L13.0625 19.7957L7.70625 26.2969H4.7375L11.675 17.8699L4.35625 7.70312H10.4812L14.7125 13.6465L19.6 7.70312H22.5688ZM20.2062 24.4109L9.5875 9.48945H7.81875L18.5562 24.4109H20.2H20.2062Z" fill="black"/>
</svg>
