<svg width="34" height="34" viewBox="0 0 34 34" fill="none" xmlns="http://www.w3.org/2000/svg">
<path fill-rule="evenodd" clip-rule="evenodd" d="M25.5 4.25C26.6272 4.25 27.7082 4.69777 28.5052 5.4948C29.3022 6.29183 29.75 7.37283 29.75 8.5V25.5C29.75 26.6272 29.3022 27.7082 28.5052 28.5052C27.7082 29.3022 26.6272 29.75 25.5 29.75H8.5C7.37283 29.75 6.29183 29.3022 5.4948 28.5052C4.69777 27.7082 4.25 26.6272 4.25 25.5V8.5C4.25 7.37283 4.69777 6.29183 5.4948 5.4948C6.29183 4.69777 7.37283 4.25 8.5 4.25H25.5ZM11.3333 14.1667C10.9576 14.1667 10.5973 14.3159 10.3316 14.5816C10.0659 14.8473 9.91667 15.2076 9.91667 15.5833V22.6667C9.91667 23.0424 10.0659 23.4027 10.3316 23.6684C10.5973 23.9341 10.9576 24.0833 11.3333 24.0833C11.7091 24.0833 12.0694 23.9341 12.3351 23.6684C12.6007 23.4027 12.75 23.0424 12.75 22.6667V15.5833C12.75 15.2076 12.6007 14.8473 12.3351 14.5816C12.0694 14.3159 11.7091 14.1667 11.3333 14.1667ZM15.5833 12.75C15.2076 12.75 14.8473 12.8993 14.5816 13.1649C14.3159 13.4306 14.1667 13.7909 14.1667 14.1667V22.6667C14.1667 23.0424 14.3159 23.4027 14.5816 23.6684C14.8473 23.9341 15.2076 24.0833 15.5833 24.0833C15.9591 24.0833 16.3194 23.9341 16.5851 23.6684C16.8507 23.4027 17 23.0424 17 22.6667V17.4817C17.4321 16.9943 18.1617 16.422 18.9734 16.0749C19.4452 15.8737 20.1549 15.7916 20.6479 15.9474C20.8115 15.9889 20.9571 16.0824 21.063 16.2137C21.1367 16.3129 21.25 16.5339 21.25 17V22.6667C21.25 23.0424 21.3993 23.4027 21.6649 23.6684C21.9306 23.9341 22.2909 24.0833 22.6667 24.0833C23.0424 24.0833 23.4027 23.9341 23.6684 23.6684C23.9341 23.4027 24.0833 23.0424 24.0833 22.6667V17C24.0833 16.0508 23.8425 15.2065 23.341 14.5293C22.8795 13.9153 22.2337 13.465 21.4979 13.2444C20.2201 12.8435 18.8048 13.0659 17.8599 13.4711C17.5574 13.6012 17.2627 13.7488 16.9773 13.9131C16.9179 13.5867 16.7459 13.2914 16.4911 13.0789C16.2364 12.8663 15.9151 12.7499 15.5833 12.75ZM11.3333 9.91667C10.9576 9.91667 10.5973 10.0659 10.3316 10.3316C10.0659 10.5973 9.91667 10.9576 9.91667 11.3333C9.91667 11.7091 10.0659 12.0694 10.3316 12.3351C10.5973 12.6007 10.9576 12.75 11.3333 12.75C11.7091 12.75 12.0694 12.6007 12.3351 12.3351C12.6007 12.0694 12.75 11.7091 12.75 11.3333C12.75 10.9576 12.6007 10.5973 12.3351 10.3316C12.0694 10.0659 11.7091 9.91667 11.3333 9.91667Z" fill="black"/>
</svg>
