<svg width="30" height="30" viewBox="0 0 30 30" fill="none" xmlns="http://www.w3.org/2000/svg">
<g clip-path="url(#clip0_384_39)">
<path d="M15 29.6484C23.0901 29.6484 29.6484 23.0901 29.6484 15C29.6484 6.90989 23.0901 0.351562 15 0.351562C6.90989 0.351562 0.351562 6.90989 0.351562 15C0.351562 23.0901 6.90989 29.6484 15 29.6484Z" fill="#FF0000"/>
<path opacity="0.49" d="M29.6094 13.9298L24.5156 8.83633C24.09 8.39778 23.5238 8.12263 22.916 8.05891C20.2772 7.75879 17.6384 7.75879 14.9996 7.75879C12.3609 7.75879 9.68385 7.75879 7.08328 8.05891C5.97422 8.17147 5.05641 8.99693 4.78869 10.085C4.40625 11.6608 4.40625 13.3868 4.40625 15.0002C4.40625 16.651 4.40625 18.3394 4.78869 19.9152C4.90475 20.3863 5.14499 20.8175 5.48438 21.1642L13.9297 29.6094C14.2831 29.6349 14.6399 29.648 15 29.6485C23.0901 29.6485 29.6484 23.0902 29.6484 15.0001C29.6484 14.6401 29.6354 14.2833 29.6094 13.9298Z" fill="url(#paint0_linear_384_39)"/>
<path d="M25.2103 10.085C24.9426 8.99693 24.0247 8.17147 22.9157 8.05891C20.277 7.75879 17.6381 7.75879 14.9993 7.75879C12.3605 7.75879 9.68355 7.75879 7.08328 8.05891C5.97422 8.17147 5.05641 8.99693 4.78869 10.085C4.40625 11.6608 4.40625 13.3868 4.40625 15.0002C4.40625 16.651 4.40625 18.3394 4.78869 19.9152C5.05641 21.0033 5.97422 21.8287 7.08328 21.9413C9.72205 22.2414 12.3609 22.2414 14.9993 22.2414C17.6377 22.2414 20.3152 22.2414 22.9157 21.9413C24.0247 21.8287 24.9426 21.0033 25.2103 19.9152C25.5928 18.3394 25.5928 16.6135 25.5928 15.0002C25.5928 13.3868 25.5928 11.6608 25.2103 10.085ZM18.7666 15.0575L12.8724 18.0046C12.8275 18.027 12.7775 18.0376 12.7273 18.0354C12.6771 18.0331 12.6283 18.0181 12.5856 17.9916C12.5428 17.9652 12.5075 17.9283 12.4831 17.8844C12.4586 17.8405 12.4457 17.7911 12.4457 17.7409V11.8467C12.4457 11.7964 12.4586 11.747 12.4831 11.7031C12.5075 11.6593 12.5428 11.6224 12.5856 11.5959C12.6283 11.5695 12.6771 11.5545 12.7273 11.5522C12.7775 11.55 12.8275 11.5606 12.8724 11.583L18.7665 14.5303C18.8154 14.5548 18.8565 14.5924 18.8853 14.6389C18.9141 14.6855 18.9293 14.7391 18.9293 14.7938C18.9293 14.8486 18.9141 14.9022 18.8854 14.9488C18.8566 14.9953 18.8155 15.033 18.7666 15.0575Z" fill="white"/>
</g>
<defs>
<linearGradient id="paint0_linear_384_39" x1="7.1601" y1="7.16014" x2="25.358" y2="25.3581" gradientUnits="userSpaceOnUse">
<stop stop-color="#1D1D1B"/>
<stop offset="0.369" stop-color="#1D1D1B" stop-opacity="0.856"/>
<stop offset="0.75" stop-color="#1D1D1B" stop-opacity="0.429"/>
<stop offset="1" stop-color="#1D1D1B" stop-opacity="0"/>
</linearGradient>
<clipPath id="clip0_384_39">
<rect width="30" height="30" fill="white"/>
</clipPath>
</defs>
</svg>
