<svg width="34" height="34" viewBox="0 0 34 34" fill="none" xmlns="http://www.w3.org/2000/svg">
<path fill-rule="evenodd" clip-rule="evenodd" d="M17.0007 5.87891C15.3134 5.87891 13.3457 5.91857 11.4275 5.97241L11.3496 5.97524C9.3974 6.03049 7.82207 6.07441 6.58107 6.27982C5.28765 6.49374 4.21382 6.90316 3.35532 7.78574C2.49398 8.67116 2.11857 9.76624 1.94148 11.0767C1.77148 12.3375 1.77148 13.9355 1.77148 15.9217V18.0807C1.77148 20.064 1.77148 21.662 1.94148 22.9242C2.11715 24.2347 2.49398 25.3297 3.35532 26.2152C4.21382 27.0992 5.28765 27.5072 6.58107 27.7211C7.82207 27.9265 9.3974 27.9704 11.3496 28.0257L11.4275 28.0285C13.3471 28.0823 15.3134 28.122 17.0007 28.122C18.6879 28.122 20.6557 28.0823 22.5738 28.0285L22.6517 28.0257C24.6039 27.9704 26.1792 27.9265 27.4202 27.7211C28.7137 27.5072 29.7875 27.0977 30.646 26.2152C31.5073 25.3297 31.8842 24.2347 32.0598 22.9242C32.2298 21.6634 32.2298 20.0654 32.2298 18.0792V15.9202C32.2298 13.9355 32.2298 12.3375 32.0598 11.0767C31.8842 9.76624 31.5073 8.67116 30.646 7.78574C29.7875 6.90174 28.7137 6.49374 27.4202 6.27982C26.1792 6.07441 24.6039 6.03049 22.6503 5.97524L22.5738 5.97241C20.7166 5.91604 18.8587 5.88487 17.0007 5.87891ZM15.4027 20.7553C15.2411 20.8476 15.0581 20.8959 14.8721 20.8952C14.686 20.8946 14.5034 20.8451 14.3424 20.7517C14.1815 20.6584 14.0479 20.5244 13.955 20.3631C13.8621 20.2019 13.8132 20.0191 13.8132 19.8331V14.1664C13.8132 13.9803 13.8621 13.7976 13.955 13.6363C14.0479 13.4751 14.1815 13.3411 14.3424 13.2477C14.5034 13.1544 14.686 13.1049 14.8721 13.1043C15.0581 13.1036 15.2411 13.1519 15.4027 13.2442L20.361 16.0775C20.5235 16.1705 20.6586 16.3047 20.7525 16.4667C20.8464 16.6286 20.8959 16.8125 20.8959 16.9997C20.8959 17.187 20.8464 17.3709 20.7525 17.5328C20.6586 17.6948 20.5235 17.829 20.361 17.922L15.4027 20.7553Z" fill="black"/>
</svg>
