<svg width="122" height="122" viewBox="0 0 122 122" fill="none" xmlns="http://www.w3.org/2000/svg">
<path d="M60.9258 121.848C94.5742 121.848 121.852 94.5703 121.852 60.9219C121.852 27.2735 94.5742 -0.00390625 60.9258 -0.00390625C27.2774 -0.00390625 0 27.2735 0 60.9219C0 94.5703 27.2774 121.848 60.9258 121.848Z" fill="#B9E7B7" fill-opacity="0.42"/>
<path d="M60.9242 105.38C85.4784 105.38 105.384 85.4745 105.384 60.9203C105.384 36.3661 85.4784 16.4609 60.9242 16.4609C36.37 16.4609 16.4648 36.3661 16.4648 60.9203C16.4648 85.4745 36.37 105.38 60.9242 105.38Z" fill="#88D686"/>
<path d="M61.7516 88.9095C76.757 88.9095 88.9212 76.7453 88.9212 61.7399C88.9212 46.7346 76.757 34.5703 61.7516 34.5703C46.7463 34.5703 34.582 46.7346 34.582 61.7399C34.582 76.7453 46.7463 88.9095 61.7516 88.9095Z" fill="#39B137"/>
<path opacity="0.96" d="M70.6701 54.1162C71.0925 55.2518 70.5012 56.0301 69.3553 56.7983C68.4325 57.4151 67.255 58.0866 66.0083 59.2324C64.7854 60.3541 63.5928 61.7085 62.5326 63.0401C61.625 64.1834 60.7614 65.3636 59.9433 66.5768C59.5348 67.1847 58.9625 68.0928 58.9625 68.0928C58.757 68.4234 58.4746 68.6943 58.1405 68.8787C57.8077 69.0631 57.4346 69.1572 57.0564 69.1496C56.6795 69.147 56.3088 69.0453 55.9798 68.8507C55.6508 68.6574 55.3759 68.3789 55.1793 68.0432C54.1922 66.3174 53.4308 65.6357 53.0816 65.3916C52.1462 64.7353 51.0469 64.64 51.0469 63.1126C51.0469 61.8993 52.0302 60.9162 53.2429 60.9162C54.0989 60.9493 54.8944 61.3003 55.6003 61.795C56.0504 62.1091 56.5282 62.5275 57.0236 63.0757C57.688 62.1308 58.3801 61.2062 59.0974 60.3045C60.2395 58.8687 61.5897 57.3273 63.0369 55.9983C64.4602 54.691 66.1053 53.4675 67.8488 52.8215C68.9846 52.3993 70.2478 52.9792 70.6701 54.1162Z" fill="white"/>
</svg>
