<svg width="98" height="98" viewBox="0 0 98 98" fill="none" xmlns="http://www.w3.org/2000/svg">
<path d="M49 98C76.062 98 98 76.062 98 49C98 21.938 76.062 0 49 0C21.938 0 0 21.938 0 49C0 76.062 21.938 98 49 98Z" fill="#B9E7B7" fill-opacity="0.42"/>
<path d="M49 85C68.8822 85 85 68.8822 85 49C85 29.1178 68.8822 13 49 13C29.1178 13 13 29.1178 13 49C13 68.8822 29.1178 85 49 85Z" fill="#F0F0F0"/>
<path d="M49.5 71C61.3741 71 71 61.3741 71 49.5C71 37.6259 61.3741 28 49.5 28C37.6259 28 28 37.6259 28 49.5C28 61.3741 37.6259 71 49.5 71Z" fill="#39B137"/>
<path opacity="0.96" d="M56.8895 43.218C57.2315 44.1836 56.7527 44.8453 55.8248 45.4984C55.0776 46.0228 54.1242 46.5937 53.1147 47.5679C52.1245 48.5216 51.1588 49.6732 50.3003 50.8052C49.5654 51.7773 48.8661 52.7807 48.2037 53.8123C47.8729 54.3291 47.4095 55.1011 47.4095 55.1011C47.2431 55.3822 47.0145 55.6126 46.7439 55.7693C46.4745 55.9261 46.1723 56.0061 45.8661 55.9996C45.5609 55.9975 45.2607 55.911 44.9943 55.7456C44.7279 55.5812 44.5054 55.3444 44.3461 55.0589C43.5469 53.5917 42.9303 53.0121 42.6475 52.8045C41.8901 52.2466 41 52.1655 41 50.8669C41 49.8353 41.7962 48.9995 42.7782 48.9995C43.4713 49.0276 44.1154 49.3261 44.6871 49.7467C45.0515 50.0137 45.4384 50.3695 45.8395 50.8355C46.3775 50.0321 46.9379 49.246 47.5187 48.4794C48.4435 47.2587 49.5368 45.9482 50.7087 44.8182C51.8611 43.7067 53.1933 42.6665 54.605 42.1172C55.5247 41.7583 56.5476 42.2513 56.8895 43.218Z" fill="white"/>
</svg>
