<svg width="25" height="26" viewBox="0 0 25 26" fill="none" xmlns="http://www.w3.org/2000/svg">
<path d="M12.5 25.0159C19.4036 25.0159 25 19.4159 25 12.5079C25 5.59999 19.4036 0 12.5 0C5.59644 0 0 5.59999 0 12.5079C0 19.4159 5.59644 25.0159 12.5 25.0159Z" fill="#39B137"/>
<path opacity="0.96" d="M19.138 6.7782C19.426 7.57545 19.0228 8.12036 18.2423 8.65875C17.613 9.09163 16.8108 9.56261 15.9619 10.3653C15.1282 11.1528 14.3163 12.1011 13.5934 13.0354C12.9761 13.837 12.3869 14.6647 11.8304 15.5153C11.551 15.9416 11.1619 16.5779 11.1619 16.5779C11.0217 16.8096 10.8293 16.9999 10.6021 17.1294C10.375 17.2588 10.1206 17.324 9.863 17.3197C9.60539 17.3175 9.35321 17.2457 9.1293 17.1098C8.90539 16.9738 8.71735 16.7791 8.58365 16.5442C7.91191 15.3336 7.39344 14.855 7.15539 14.6843C6.51735 14.2242 5.76953 14.1579 5.76953 13.0865C5.76953 12.236 6.43909 11.5465 7.26517 11.5465C7.84887 11.5693 8.39018 11.8162 8.87061 12.1621C9.17822 12.3829 9.50321 12.6754 9.84126 13.0604C10.2934 12.3981 10.7652 11.7498 11.2532 11.1168C12.0315 10.1108 12.9511 9.03071 13.938 8.09859C14.9065 7.18171 16.0271 6.32354 17.2152 5.87C17.9902 5.57416 18.85 5.98096 19.138 6.7782Z" fill="white"/>
</svg>
