<svg width="213" height="22" viewBox="0 0 213 22" fill="none" xmlns="http://www.w3.org/2000/svg">
<path d="M199.802 5.84218C199.512 5.86868 199.219 5.89179 198.935 5.92368C198.751 5.94398 198.67 5.9168 198.545 5.90684C198.504 5.90329 198.459 5.89419 198.421 5.8976C198.134 5.92395 197.847 5.95173 197.56 5.97951C197.474 6.01185 197.42 6.05175 197.286 6.0723C197.155 6.09198 196.999 6.10008 196.853 6.11412C196.66 6.13203 196.467 6.14994 196.273 6.16714C196.177 6.17574 196.098 6.19338 196.068 6.22068C196.062 6.22525 196.127 6.23256 196.163 6.23713C196.282 6.25237 196.397 6.27061 196.528 6.28026C196.652 6.2895 196.803 6.25593 196.936 6.26899C197.236 6.29839 197.239 6.29752 197.464 6.27722C197.657 6.25932 197.85 6.2407 198.044 6.22493C198.082 6.22152 198.127 6.2299 198.168 6.23345C198.292 6.24269 198.374 6.27415 198.555 6.25116C198.692 6.2333 198.845 6.22323 198.988 6.21005C199.11 6.22442 199.223 6.2421 199.353 6.25175C199.474 6.26114 199.51 6.27141 199.447 6.2954C199.39 6.31767 199.308 6.32978 199.199 6.33685C199.103 6.34261 199.006 6.35405 198.909 6.36264C198.86 6.36737 198.813 6.37125 198.766 6.37583C198.582 6.39328 198.582 6.39328 198.241 6.3653C198.108 6.35438 197.96 6.38708 197.832 6.37657C197.747 6.36961 197.672 6.35635 197.589 6.34853C197.554 6.34539 197.498 6.34757 197.454 6.35129C197.307 6.3639 197.161 6.3751 197.021 6.39168C196.921 6.40328 196.864 6.42626 196.877 6.44558C196.88 6.45325 196.951 6.46097 196.992 6.45955C197.086 6.45608 197.186 6.44092 197.277 6.44117C197.365 6.44157 197.457 6.45106 197.523 6.46336C197.657 6.48922 197.805 6.45226 197.932 6.45423C198.064 6.45661 198.175 6.47942 198.302 6.48993C198.334 6.49252 198.396 6.48219 198.445 6.47746C198.589 6.46499 198.733 6.45324 198.876 6.44077C198.998 6.45515 199.128 6.46693 199.238 6.48476C199.437 6.51722 199.65 6.52259 199.904 6.48866C200.047 6.46979 200.188 6.46673 200.304 6.48853C200.424 6.51088 200.558 6.50101 200.708 6.48753C200.845 6.47466 200.985 6.45167 201.127 6.46426C201.436 6.4925 201.439 6.49448 201.799 6.45861C201.907 6.44798 201.989 6.44228 202.072 6.45437C202.149 6.46534 202.232 6.47387 202.313 6.48398C202.456 6.47152 202.603 6.4589 202.746 6.44572C202.931 6.42827 203.034 6.43289 203.08 6.47045C203.108 6.49327 203.121 6.51471 203.187 6.52772C203.265 6.54367 203.347 6.53868 203.458 6.52718C203.563 6.5167 203.639 6.50491 203.682 6.477C203.699 6.46541 203.733 6.45361 203.765 6.44339C203.791 6.43561 203.831 6.42352 203.855 6.42372C203.899 6.42427 203.958 6.42904 203.974 6.43753C204.123 6.51615 204.123 6.51686 204.271 6.53413C204.434 6.55348 204.603 6.56968 204.752 6.59335C204.886 6.61423 205.017 6.59527 205.161 6.58778C205.27 6.58213 205.341 6.59697 205.334 6.61593C205.328 6.62691 205.288 6.64469 205.253 6.64795C204.966 6.67715 204.677 6.70437 204.387 6.72945C204.351 6.73271 204.307 6.72219 204.265 6.71793C204.182 6.70939 204.107 6.69329 204.019 6.6936C203.931 6.69391 203.829 6.70993 203.732 6.71853C203.635 6.72713 203.533 6.74173 203.445 6.74062C203.356 6.73951 203.285 6.72254 203.202 6.7133C203.163 6.70888 203.11 6.70238 203.078 6.70619C202.864 6.73442 202.704 6.71919 202.55 6.69582C202.517 6.69109 202.461 6.68973 202.42 6.69329C202.08 6.7231 201.744 6.7549 201.404 6.78613C201.266 6.79901 201.153 6.77991 201.121 6.73945C201.105 6.71673 201.074 6.69478 201.073 6.67129C201.07 6.6286 200.907 6.61352 200.79 6.62461C200.597 6.6418 200.4 6.65773 200.21 6.67833C200.055 6.69496 199.923 6.6933 199.815 6.67318C199.69 6.65042 199.55 6.66345 199.409 6.67861C199.304 6.6898 199.276 6.71481 199.286 6.77357C199.294 6.82094 199.245 6.83848 199.055 6.85624C198.815 6.87872 198.572 6.90137 198.329 6.92187C198.291 6.92528 198.246 6.91547 198.207 6.91106C198.124 6.90252 198.05 6.8857 197.961 6.88602C197.873 6.88562 197.771 6.90164 197.674 6.91095C197.578 6.91955 197.476 6.93486 197.387 6.93446C197.299 6.93406 197.224 6.91653 197.144 6.90714C197.105 6.90272 197.058 6.89591 197.02 6.89931C196.827 6.91509 196.633 6.93371 196.44 6.95162C196.223 6.97146 196.223 6.97146 195.912 6.94338C195.77 6.93079 195.63 6.95378 195.493 6.96665C195.346 6.97998 195.208 6.99 195.092 6.9675C195.015 6.95297 194.929 6.94601 194.838 6.9543C194.595 6.97552 194.355 6.99872 194.112 7.01994C194.071 7.0235 194.015 7.02284 193.982 7.01812C193.825 6.99633 193.671 6.98078 193.454 7.00703C193.267 7.02962 193.065 7.04087 192.878 7.06274C192.775 7.07449 192.73 7.09971 192.751 7.11643C192.764 7.12507 192.826 7.13254 192.867 7.1304C192.961 7.12622 193.063 7.1102 193.152 7.10988C193.334 7.10895 193.429 7.16399 193.666 7.13525C193.806 7.11796 193.952 7.10676 194.099 7.09628C194.137 7.09358 194.179 7.10497 194.221 7.10995C194.339 7.12305 194.444 7.1426 194.613 7.12094C194.753 7.10364 194.903 7.09301 195.046 7.07984C195.275 7.05867 195.275 7.05938 195.574 7.08736C195.716 7.10067 195.856 7.07697 195.994 7.06481C196.096 7.0559 196.193 7.04375 196.275 7.04943C196.403 7.05781 196.496 7.08722 196.651 7.07699C196.798 7.06722 196.941 7.04978 197.087 7.03858C197.178 7.03171 197.264 7.03867 197.339 7.05406C197.416 7.0693 197.499 7.07357 197.599 7.0641C197.742 7.05092 197.888 7.03617 198.035 7.02498C198.076 7.02213 198.123 7.02609 198.162 7.0298C198.245 7.03833 198.325 7.04915 198.405 7.05854C198.549 7.04679 198.695 7.03773 198.836 7.02186C198.944 7.0098 199.021 7.00868 199.109 7.01833C199.222 7.03174 199.315 7.06116 199.496 7.03532C199.587 7.02276 199.693 7.01939 199.783 7.00754C199.894 6.99249 199.971 6.99207 200.051 7.0093C200.204 7.04207 200.391 7.033 200.584 7.00726C200.795 6.97919 200.954 6.99087 201.115 7.01393C201.284 7.03796 201.284 7.03724 201.418 7.10951C201.458 7.1303 201.567 7.13532 201.658 7.12632C201.81 7.11126 201.942 7.10794 202.056 7.12918C202.175 7.15224 202.315 7.14136 202.459 7.12604C202.649 7.10544 202.839 7.08627 202.997 7.11944C203.075 7.1354 203.157 7.13609 203.26 7.12576C203.55 7.09783 203.843 7.07474 204.126 7.04427C204.299 7.02529 204.4 7.04287 204.519 7.05597C204.679 7.07406 204.854 7.08852 204.857 7.14474C204.858 7.15399 204.9 7.16253 204.935 7.16781C205.012 7.17878 205.095 7.18731 205.176 7.19742C205.294 7.21266 205.41 7.22449 205.571 7.20471C205.711 7.18812 205.86 7.17749 206.004 7.1636C206.147 7.14971 206.279 7.13928 206.41 7.1596C206.562 7.1824 206.722 7.20334 206.894 7.21725C207.015 7.22735 207.172 7.19135 207.302 7.20669C207.383 7.21609 207.46 7.22777 207.546 7.23473C207.581 7.23787 207.637 7.23141 207.684 7.22754C207.78 7.21966 207.88 7.21233 207.974 7.20033C208.082 7.18685 208.164 7.184 208.247 7.19609C208.324 7.20706 208.402 7.22372 208.49 7.22341C208.623 7.22294 208.768 7.18684 208.902 7.2127C208.97 7.22555 209.057 7.23678 209.145 7.23718C209.233 7.23758 209.335 7.22155 209.429 7.21738C209.47 7.21524 209.521 7.22403 209.545 7.23206C209.56 7.23628 209.54 7.25086 209.52 7.25905C209.494 7.26896 209.457 7.28234 209.419 7.28575C209.129 7.31368 208.839 7.33947 208.549 7.36669C208.377 7.38282 208.377 7.38282 208.024 7.35617C207.942 7.34977 207.851 7.35664 207.748 7.36696C207.611 7.38055 207.471 7.39998 207.326 7.39466C207.135 7.35604 206.903 7.36383 206.658 7.39517C206.555 7.40834 206.461 7.41323 206.384 7.40368C206.221 7.38504 206.049 7.369 205.903 7.34446C205.79 7.32536 205.737 7.32597 205.692 7.36257C205.678 7.37401 205.664 7.38616 205.668 7.39597C205.688 7.43063 205.722 7.46382 205.742 7.49848C205.749 7.50814 205.726 7.52075 205.712 7.53219C205.667 7.56452 205.605 7.56559 205.501 7.54603C205.396 7.52647 205.272 7.51652 205.108 7.53646C204.968 7.55376 204.815 7.56028 204.675 7.57828C204.459 7.60524 204.305 7.59041 204.147 7.56791C204.115 7.56318 204.059 7.56253 204.018 7.56609C203.581 7.60521 203.148 7.64632 202.712 7.68545C202.618 7.69389 202.532 7.68765 202.458 7.67225C202.38 7.65701 202.294 7.65148 202.201 7.65993C201.814 7.69504 201.427 7.72872 201.041 7.76738C200.883 7.78346 200.756 7.78077 200.646 7.76151C200.563 7.74729 200.486 7.74557 200.383 7.75305C200.272 7.76099 200.193 7.77223 200.139 7.79577C200.087 7.81845 200.126 7.82856 200.244 7.8381C200.372 7.84861 200.491 7.86457 200.612 7.87823C200.709 7.87034 200.805 7.8596 200.899 7.85542C200.94 7.85329 200.979 7.86411 201.021 7.86909C201.14 7.88361 201.25 7.8986 201.416 7.87851C201.556 7.86122 201.706 7.85129 201.849 7.8374C202.049 7.81919 202.049 7.81919 202.374 7.84722C202.457 7.85433 202.545 7.84903 202.65 7.83713C202.741 7.82741 202.836 7.83248 202.902 7.85047C202.929 7.85764 202.921 7.87233 202.868 7.9222C202.87 7.95707 202.931 7.93821 202.95 7.91436C202.98 7.87995 202.918 7.87249 202.801 7.89638C202.72 7.91347 202.68 7.93411 202.702 7.94799C202.714 7.9552 202.77 7.96226 202.868 7.9222C203.124 7.86606 203.32 7.85084 203.507 7.82968C203.618 7.81747 203.689 7.81665 203.778 7.83057C203.885 7.84713 203.992 7.86512 204.165 7.84472C204.352 7.82214 204.551 7.81032 204.741 7.78972C204.917 7.77059 205.01 7.79717 205.123 7.80987C205.259 7.8249 205.407 7.79221 205.531 7.7986C205.661 7.80469 205.754 7.83126 205.904 7.82916C206.12 7.79865 206.26 7.82705 206.426 7.84198C206.557 7.85305 206.708 7.82945 206.846 7.81444C207.001 7.79781 207.13 7.79892 207.241 7.81889C207.366 7.84165 207.503 7.82806 207.644 7.81432C207.972 7.78298 207.983 7.78024 208.176 7.80945C208.316 7.83073 208.448 7.81105 208.585 7.80031C208.707 7.81326 208.826 7.82779 208.953 7.8383C208.985 7.84089 209.047 7.83057 209.096 7.82583C209.24 7.81266 209.386 7.79933 209.53 7.78615C209.626 7.77755 209.728 7.76153 209.817 7.76122C209.905 7.76162 209.98 7.77844 210.06 7.78783C210.14 7.79723 210.223 7.80647 210.3 7.81673C210.419 7.83197 210.532 7.84396 210.695 7.82473C210.836 7.80815 210.982 7.79766 211.129 7.78362C211.313 7.76617 211.307 7.76861 211.654 7.79344C211.84 7.8073 212.029 7.76891 212.217 7.75629C212.31 7.74997 212.402 7.75307 212.468 7.77034C212.495 7.77751 212.487 7.79219 212.496 7.80383C212.013 7.84825 211.527 7.88997 211.05 7.93835C210.866 7.95723 210.767 7.93664 210.666 7.92049C210.5 7.89489 210.285 7.956 210.127 7.91998C210.032 7.89854 209.896 7.89063 209.735 7.91184C209.641 7.92384 209.542 7.92832 209.445 7.93976C209.199 7.96825 208.973 7.98072 208.774 7.94186C208.705 7.92829 208.608 7.92408 208.536 7.91138C208.453 7.89787 208.373 7.89202 208.276 7.90062C207.84 7.94046 207.407 7.98015 206.973 8.02125C206.935 8.02466 206.898 8.03733 206.866 8.04683C206.785 8.07104 206.813 8.08532 206.945 8.09125C206.99 8.09323 207.026 8.10064 207.067 8.10562C207.147 8.11502 207.222 8.13255 207.31 8.13295C207.399 8.13335 207.501 8.11804 207.597 8.10944C207.694 8.10084 207.796 8.08482 207.884 8.08451C207.973 8.08491 208.048 8.10173 208.13 8.11026C208.169 8.11468 208.217 8.12291 208.255 8.12021C208.448 8.10586 208.639 8.0881 208.832 8.07162C208.954 8.08457 209.058 8.10697 209.202 8.10589C209.294 8.10543 209.39 8.09256 209.484 8.08909C209.525 8.08767 209.579 8.0956 209.6 8.10378C209.612 8.10886 209.574 8.12508 209.546 8.13372C209.436 8.16657 209.283 8.16952 209.145 8.18524C208.996 8.20228 208.861 8.20647 208.745 8.18467C208.667 8.17014 208.582 8.16461 208.488 8.17306C208.245 8.19499 208.005 8.21819 207.762 8.23869C207.721 8.24225 207.67 8.23844 207.632 8.23545C207.321 8.20808 207.321 8.20666 207.104 8.22721C206.785 8.25738 206.785 8.25737 206.568 8.23081C206.527 8.22583 206.482 8.21461 206.447 8.21715C206.107 8.24626 205.77 8.2752 205.434 8.30914C205.322 8.31992 205.246 8.3239 205.163 8.30967C205.091 8.29768 205.008 8.28417 204.92 8.28448C204.828 8.28495 204.729 8.30081 204.633 8.30941C204.536 8.31801 204.434 8.33261 204.348 8.33134C204.26 8.33023 204.182 8.31428 204.105 8.30402C204.025 8.2932 203.94 8.29834 203.832 8.30968C203.498 8.34346 203.495 8.34148 203.16 8.31463C203.122 8.31163 203.072 8.30853 203.031 8.31209C202.788 8.33331 202.547 8.35651 202.304 8.37773C202.211 8.38617 202.119 8.38166 202.053 8.36438C202.026 8.35722 202.034 8.34252 202.015 8.31568C201.994 8.31035 202.018 8.32052 202.025 8.33089C202.069 8.32718 202.121 8.32584 202.153 8.31847C202.235 8.30067 202.275 8.28074 202.253 8.26687C202.241 8.25965 202.185 8.25259 202.149 8.25442C202.085 8.25778 202.03 8.27634 202.015 8.31568C201.831 8.34879 201.635 8.36401 201.445 8.38533C201.334 8.39825 201.263 8.39836 201.174 8.38444C201.067 8.36717 200.957 8.35075 200.784 8.37115C200.597 8.39373 200.398 8.40626 200.205 8.42631C199.982 8.4493 199.881 8.39029 199.694 8.40149C199.5 8.41299 199.307 8.43518 199.114 8.4538C198.944 8.46977 198.944 8.46977 198.589 8.44184C198.459 8.43149 198.308 8.46433 198.18 8.45311C198.094 8.44615 198.02 8.4329 197.937 8.42508C197.901 8.42193 197.846 8.42483 197.802 8.42854C197.559 8.44976 197.312 8.46829 197.079 8.49616C196.813 8.52856 196.609 8.51918 196.415 8.48712C196.175 8.50747 195.932 8.52442 195.695 8.55031C195.522 8.56929 195.421 8.551 195.302 8.5379C195.261 8.53363 195.225 8.52479 195.181 8.52423C195.137 8.52368 195.084 8.53212 195.037 8.5367C194.844 8.55461 194.645 8.56856 194.457 8.59114C194.227 8.61958 194.135 8.5658 193.955 8.56801C193.837 8.60914 193.776 8.66017 193.538 8.6761C193.345 8.68903 193.151 8.7105 192.958 8.72841C192.862 8.73701 192.765 8.74632 192.668 8.75492C192.513 8.76942 192.442 8.80099 192.477 8.842C192.496 8.86457 192.512 8.88729 192.528 8.91001C192.56 8.95046 192.489 8.98987 192.366 9.00126C192.026 9.0325 191.689 9.0643 191.35 9.09411C191.259 9.1024 191.17 9.09489 191.095 9.07949C191.018 9.06425 190.932 9.06014 190.838 9.06859C190.499 9.09983 190.162 9.13163 189.822 9.16145C189.784 9.16485 189.734 9.16033 189.695 9.15663C189.612 9.14809 189.532 9.13728 189.452 9.12788C189.259 9.14437 189.068 9.15856 188.878 9.17703C188.571 9.20587 188.571 9.20659 188.342 9.17921C188.301 9.17423 188.259 9.16285 188.221 9.16555C188.074 9.17604 187.931 9.19063 187.784 9.20468C187.354 9.24563 187.354 9.24563 187.226 9.23085C187.111 9.21688 187.006 9.19804 186.834 9.21844C186.647 9.24102 186.447 9.25568 186.254 9.27287C186.111 9.28534 185.967 9.29852 185.823 9.30743C185.785 9.31012 185.743 9.29874 185.702 9.29376C185.583 9.27781 185.467 9.26598 185.307 9.28648C185.213 9.29848 185.113 9.3051 185.017 9.3137C184.765 9.3368 184.765 9.33679 184.348 9.31563C184.307 9.3135 184.257 9.31112 184.216 9.31539C183.876 9.34592 183.539 9.37772 183.2 9.40753C183.159 9.4111 183.109 9.40942 183.067 9.408C182.601 9.39086 182.601 9.39086 182.109 9.43645C181.922 9.45334 181.916 9.45649 181.717 9.42901C181.628 9.41723 181.554 9.41322 181.451 9.42354C181.065 9.46078 180.675 9.49249 180.292 9.53242C180.119 9.54997 180.018 9.53382 179.9 9.52071C179.858 9.51645 179.813 9.50451 179.778 9.50706C179.391 9.54074 179.005 9.57727 178.618 9.61095C178.583 9.61421 178.538 9.60227 178.497 9.598C178.417 9.58932 178.339 9.57407 178.251 9.57439C178.159 9.57485 178.06 9.59072 177.961 9.59947C177.718 9.6214 177.718 9.62069 177.433 9.59337C177.395 9.58966 177.344 9.58443 177.306 9.58784C176.92 9.62223 176.53 9.65465 176.147 9.69529C175.927 9.71813 175.776 9.70528 175.619 9.68349C175.586 9.67877 175.53 9.67882 175.489 9.68239C175.053 9.72151 174.62 9.76262 174.183 9.80174C174.092 9.81004 174.004 9.80252 173.929 9.78784C173.81 9.76477 173.672 9.77551 173.526 9.78955C173.189 9.82206 173.186 9.82151 172.984 9.79774C172.943 9.79276 172.907 9.78534 172.863 9.78407C172.821 9.78265 172.769 9.78754 172.725 9.79125C172.532 9.80845 172.338 9.82635 172.145 9.84426C171.952 9.86217 171.755 9.87668 171.565 9.89871C171.331 9.92587 171.217 9.88542 171.051 9.87262C170.811 9.8944 170.565 9.91292 170.328 9.94024C170.147 9.9611 170.06 9.93421 169.938 9.92411C169.897 9.92055 169.852 9.91075 169.814 9.91416C169.378 9.95257 168.941 9.99241 168.508 10.0342C168.403 10.044 168.332 10.042 168.243 10.0295C168.044 10.0013 168.035 10.0032 167.707 10.0345C167.564 10.0484 167.426 10.0613 167.301 10.0385C167.191 10.0178 167.058 10.0183 166.903 10.0349C166.713 10.0555 166.517 10.0715 166.323 10.0887C166.13 10.1066 165.937 10.1273 165.743 10.141C165.588 10.1526 165.492 10.1241 165.368 10.1134C165.329 10.1104 165.276 10.1124 165.232 10.1161C165.039 10.1326 164.84 10.148 164.653 10.1699C164.425 10.1967 164.296 10.1642 164.133 10.1498C164.098 10.1466 164.039 10.1526 163.995 10.157C163.655 10.1875 163.319 10.2193 162.979 10.2505C162.857 10.2376 162.733 10.2255 162.612 10.2126C162.418 10.2298 162.225 10.2477 162.032 10.2649C161.885 10.2782 161.736 10.2881 161.598 10.306C161.42 10.3295 161.33 10.3006 161.209 10.2905C161.167 10.287 161.122 10.2772 161.084 10.2806C160.841 10.3011 160.598 10.3223 160.358 10.3469C160.13 10.371 160.035 10.3116 159.847 10.3221C159.653 10.3329 159.454 10.3526 159.267 10.3751C159.051 10.4014 158.897 10.3866 158.739 10.3641C158.707 10.3593 158.651 10.3587 158.61 10.3622C158.367 10.3835 158.127 10.4067 157.884 10.4279C157.843 10.4314 157.792 10.4305 157.751 10.4283C157.285 10.4105 157.285 10.4098 157.083 10.4289C156.939 10.442 156.793 10.4568 156.646 10.468C156.605 10.4715 156.555 10.4677 156.516 10.464C156.208 10.4365 156.208 10.4358 155.989 10.4558C155.795 10.4737 155.602 10.4916 155.409 10.5095C155.287 10.4966 155.163 10.4845 155.041 10.4715C154.801 10.4933 154.555 10.5133 154.318 10.5384C154.207 10.5499 154.133 10.5516 154.047 10.5383C153.94 10.5224 153.833 10.503 153.658 10.5243C153.471 10.5468 153.271 10.5587 153.081 10.5793C152.853 10.604 152.755 10.5441 152.57 10.5544C152.376 10.5652 152.177 10.5849 151.99 10.6075C151.774 10.6337 151.62 10.6189 151.462 10.5964C151.429 10.5917 151.374 10.591 151.333 10.5946C150.8 10.643 150.27 10.6913 149.737 10.7411C149.409 10.7718 149.409 10.7725 148.781 10.7659C148.737 10.7653 148.69 10.7649 148.646 10.7686C148.452 10.7851 148.253 10.8005 148.066 10.8224C147.838 10.8492 147.709 10.8174 147.546 10.8023C147.511 10.7991 147.455 10.8049 147.408 10.8087C147.262 10.8214 147.119 10.8353 146.972 10.8486C146.779 10.8665 146.586 10.8844 146.392 10.9023C146.271 10.8901 146.146 10.8773 146.025 10.865C145.785 10.8868 145.538 10.9046 145.302 10.9319C145.12 10.9528 145.033 10.9273 144.912 10.9165C144.87 10.913 144.826 10.9032 144.788 10.9059C144.351 10.9443 143.915 10.9834 143.482 11.0259C143.303 11.0438 143.219 11.016 143.097 11.0059C143.056 11.0031 143.009 10.9963 142.97 10.9997C142.681 11.0248 142.391 11.052 142.101 11.0792C141.937 11.0949 141.937 11.0949 141.576 11.0694C141.535 11.0666 141.487 11.064 141.446 11.0676C140.527 11.1511 139.61 11.2367 138.691 11.3202C138.597 11.3286 138.511 11.3224 138.437 11.307C138.359 11.2918 138.273 11.2862 138.18 11.2947C137.793 11.3298 137.404 11.3636 137.02 11.4021C136.862 11.4182 136.735 11.4155 136.625 11.3963C136.542 11.382 136.465 11.3789 136.363 11.3885C136.169 11.4071 135.976 11.4243 135.783 11.4422C135.59 11.4601 135.396 11.4781 135.203 11.496C135.01 11.5139 134.814 11.5284 134.623 11.5504C134.39 11.5776 134.272 11.5394 134.109 11.5257C133.82 11.5515 133.53 11.5773 133.243 11.6037C132.856 11.6388 132.47 11.6753 132.083 11.7097C132.048 11.713 132.003 11.7025 131.962 11.6982C131.84 11.6867 131.75 11.6663 131.572 11.6835C130.705 11.7664 129.833 11.844 128.963 11.9263C128.782 11.9436 128.7 11.9171 128.576 11.9072C128.535 11.9044 128.487 11.8968 128.449 11.9002C127.966 11.9432 127.483 11.9884 127 12.0328C126.803 12.0508 126.803 12.0508 126.472 12.0238C126.433 12.0208 126.383 12.017 126.342 12.0206C125.712 12.0776 125.086 12.1359 124.456 12.1937C124.363 12.2021 124.277 12.1966 124.199 12.1813C124.125 12.166 124.036 12.1599 123.945 12.1682C123.365 12.2212 122.783 12.2736 122.206 12.3286C122.051 12.3438 121.921 12.3442 121.808 12.3243C121.728 12.31 121.648 12.3063 121.548 12.3157C120.679 12.3959 119.809 12.4748 118.939 12.5571C118.773 12.573 118.654 12.5655 118.547 12.5476C118.461 12.5335 118.387 12.5338 118.282 12.5421C118.17 12.5515 118.103 12.5628 118.043 12.5874C117.966 12.6192 117.918 12.6567 117.73 12.6686C117.537 12.6808 117.34 12.6996 117.15 12.7216C116.969 12.7432 116.882 12.7156 116.766 12.7023C116.68 12.6933 116.601 12.6952 116.493 12.7073C116.393 12.7182 116.332 12.7335 116.275 12.7593C116.149 12.8144 116.137 12.815 115.977 12.7927C115.891 12.7807 115.813 12.7719 115.72 12.7796C115.333 12.814 114.947 12.8499 114.56 12.8864C114.338 12.9072 114.335 12.9088 114.165 12.8819C114.082 12.8684 114.002 12.864 113.906 12.8733C112.843 12.9715 111.78 13.0682 110.717 13.1685C110.553 13.1841 110.441 13.175 110.322 13.1598C110.283 13.1546 110.244 13.1466 110.2 13.1461C110.156 13.1455 110.106 13.151 110.059 13.1549C109.286 13.2258 108.51 13.2954 107.74 13.3698C107.565 13.3868 107.469 13.3689 107.348 13.3566C107.306 13.3524 107.271 13.3442 107.226 13.3437C107.182 13.3438 107.13 13.3516 107.083 13.3561C106.31 13.4271 105.534 13.4967 104.764 13.5711C104.579 13.5885 104.498 13.5627 104.377 13.5534C104.335 13.5498 104.291 13.5414 104.253 13.5448C104.01 13.5653 103.769 13.5885 103.526 13.6104C102.947 13.6642 102.367 13.7165 101.787 13.7709C101.565 13.7918 101.464 13.7335 101.276 13.7461C101.033 13.7623 100.793 13.7891 100.55 13.8117C100.357 13.8297 100.163 13.8469 99.97 13.8655C99.7797 13.8832 99.7797 13.8832 99.3016 13.8667C99.2603 13.8653 99.2101 13.8629 99.1691 13.8665C98.4926 13.9281 97.8133 13.9898 97.1399 14.0534C96.9847 14.0679 96.8553 14.0711 96.7421 14.0506C96.6617 14.0362 96.579 14.0312 96.4824 14.0405C95.4663 14.1341 94.4531 14.2275 93.437 14.3204C93.3989 14.3238 93.3486 14.3192 93.3101 14.3155C93.2271 14.307 93.1469 14.2962 93.0668 14.2868C93.0091 14.3062 92.9338 14.3251 92.8968 14.3456C92.8455 14.3733 92.7755 14.3841 92.6642 14.3941C92.5529 14.4042 92.4824 14.4064 92.3932 14.3925C92.2861 14.3753 92.1763 14.3631 92.0036 14.3792C90.9408 14.4795 89.8777 14.5755 88.8149 14.6751C88.6392 14.6914 88.5551 14.6643 88.4308 14.6544C88.3894 14.6515 88.3419 14.6462 88.3038 14.6496C87.8675 14.6887 87.4342 14.7291 86.9978 14.7689C85.7885 14.8804 84.5791 14.9898 83.3729 15.1039C83.1533 15.1246 83.0025 15.1146 82.845 15.0921C82.8123 15.0874 82.7563 15.0867 82.7153 15.0903C81.0228 15.2455 79.3303 15.4014 77.6408 15.5571C77.55 15.5654 77.4612 15.5586 77.3867 15.5439C77.3092 15.5287 77.2235 15.5238 77.1298 15.5323C76.3567 15.6032 75.5837 15.6741 74.8107 15.7458C74.6175 15.7637 74.6145 15.7645 74.4128 15.7408C74.3713 15.7358 74.3264 15.7246 74.2942 15.7277C74.2269 15.7348 74.1634 15.7559 74.118 15.7825C74.0726 15.8106 73.9996 15.8215 73.8913 15.8322C73.7801 15.843 73.7066 15.8446 73.6204 15.832C73.5105 15.8163 73.4094 15.8009 73.2337 15.8171C71.0114 16.0242 68.7888 16.2276 66.5665 16.4339C66.3878 16.4503 66.3038 16.4247 66.1795 16.4148C66.138 16.4119 66.0965 16.407 66.0524 16.4078C66.0053 16.4089 65.9557 16.4157 65.9089 16.4203C62.2838 16.7539 58.6588 17.0881 55.0338 17.4217C54.8171 17.4415 54.82 17.4414 54.5863 17.5192C54.5575 17.5286 54.5199 17.5412 54.4789 17.5448C53.3693 17.6482 52.2566 17.7504 51.1439 17.8525C50.6607 17.897 50.1776 17.9421 49.6944 17.9858C49.5216 18.0012 49.5216 18.0012 49.1125 18.0996C49.0777 18.1078 49.0371 18.1185 48.9961 18.1221C47.0636 18.3005 45.131 18.4788 43.1954 18.6559C43.0431 18.6696 42.9207 18.6888 42.8523 18.7266C42.804 18.7534 42.7403 18.771 42.6437 18.7803C41.2909 18.905 39.9382 19.0303 38.5823 19.1537C38.4213 19.1685 38.3256 19.1935 38.2482 19.2275C38.2224 19.2388 38.1996 19.2514 38.1619 19.2605C38.1271 19.2688 38.0744 19.2737 38.0305 19.2781C36.871 19.3848 35.7115 19.493 34.5489 19.5978C34.3761 19.6132 34.3073 19.6432 34.2239 19.6754C34.1951 19.6861 34.1754 19.7 34.1376 19.7084C34.0998 19.7161 34.044 19.719 33.9972 19.7228C33.0309 19.8117 32.0646 19.9012 31.0983 19.9901C30.9102 19.9963 30.8717 20.0397 30.7823 20.0693C30.7505 20.0796 30.7278 20.0922 30.69 20.0998C30.6492 20.1077 30.5963 20.1097 30.5465 20.1137C29.7734 20.1846 29.0005 20.2577 28.2244 20.3267C28.0458 20.3424 28.0128 20.3805 27.9175 20.4104C27.8857 20.4199 27.8542 20.4337 27.8162 20.4378C27.3331 20.4837 26.85 20.5281 26.3668 20.5718C26.2057 20.5866 26.2057 20.5859 25.9253 20.6712C25.8935 20.6807 25.8559 20.6912 25.8149 20.6955C25.0917 20.7631 24.3655 20.8294 23.6394 20.8965C23.5456 20.9049 23.4822 20.9254 23.4367 20.952C23.3912 20.9787 23.3247 20.9978 23.231 21.0063C22.6513 21.06 22.0715 21.1144 21.4916 21.166C21.3305 21.1801 21.226 21.2034 21.1575 21.2391C21.1062 21.266 21.0424 21.2815 20.9399 21.2911C20.3601 21.3441 19.7805 21.3993 19.1976 21.4496C19.0277 21.4642 18.9411 21.4929 18.8725 21.5265C18.8182 21.5536 18.7542 21.5655 18.6458 21.5754C17.5828 21.6721 16.5169 21.769 15.4572 21.8698C15.2786 21.887 15.186 21.8668 15.0675 21.8551C14.8986 21.8389 14.7414 21.82 14.7379 21.7645C14.7374 21.7559 14.6868 21.7486 14.6512 21.7433C14.3866 21.7035 14.3866 21.7035 14.3419 21.6487C14.3162 21.6151 14.2876 21.5809 14.2648 21.5464C14.223 21.49 14.1281 21.4799 13.8587 21.5047C13.7621 21.5133 13.6655 21.5233 13.5688 21.5312C13.4253 21.5436 13.3152 21.5258 13.2862 21.4845C13.27 21.4618 13.251 21.4392 13.2348 21.4165C13.3812 21.4031 13.3782 21.4026 13.6311 21.303C13.7375 21.2611 13.7375 21.2611 13.5269 21.2357C13.4467 21.2263 13.3695 21.2153 13.2835 21.2069C13.245 21.2032 13.1949 21.2022 13.1539 21.2058C12.9108 21.227 12.6707 21.2495 12.4306 21.272C12.0441 21.3078 12.0441 21.3078 11.6462 21.2557C11.6136 21.2517 11.563 21.2436 11.5685 21.2376C11.5992 21.2096 11.6777 21.1941 11.7773 21.186C11.9238 21.1741 12.0672 21.1595 12.2107 21.1464C12.3073 21.1378 12.4039 21.1285 12.5006 21.1199C12.5899 21.0881 12.6822 21.0569 12.7656 21.0247C12.898 20.975 12.8978 20.9735 12.711 20.9533C12.5924 20.9395 12.465 20.9282 12.3435 20.916C12.2001 20.9292 12.0537 20.9432 11.9102 20.9557C11.7286 20.9715 11.6543 20.9618 11.6045 20.918C11.5608 20.8796 11.6086 20.8422 11.7489 20.8263C11.8922 20.8103 12.027 20.7975 12.0981 20.7574C12.1664 20.7189 12.2888 20.6989 12.4412 20.6882C12.538 20.681 12.6345 20.671 12.7311 20.6617C12.857 20.6494 12.9223 20.6096 12.8933 20.5704C12.877 20.5448 12.8463 20.5243 12.7314 20.5246C12.222 20.5261 12.2162 20.5271 11.9607 20.4919C11.9369 20.4888 11.9186 20.4769 11.927 20.4701C11.941 20.4586 11.9723 20.4413 12.0074 20.4373C12.344 20.4041 12.6807 20.3723 13.0176 20.3441C13.1289 20.3347 13.2108 20.3254 13.2473 20.2971C13.2979 20.2581 13.2723 20.2258 13.168 20.2063C13.1352 20.2001 13.0817 20.1929 13.0465 20.1955C12.6599 20.2284 12.2764 20.2648 11.8897 20.2978C11.8545 20.301 11.7892 20.2923 11.774 20.2838C11.7436 20.2683 11.7861 20.2432 11.8884 20.23C12.0228 20.2123 12.1607 20.2044 12.2494 20.1641C12.3725 20.107 12.5252 20.0527 12.6631 19.997C12.686 19.9872 12.7232 19.9688 12.7143 19.9679C12.6399 19.956 12.554 19.9484 12.4768 19.9374C12.3461 19.9192 12.3439 19.8844 12.3711 19.8494C12.3929 19.8211 12.4803 19.8059 12.5889 19.8002C12.6359 19.7978 12.6946 19.7947 12.7324 19.7863C12.8312 19.7655 12.8622 19.7439 12.8114 19.7315C12.7815 19.7245 12.728 19.7152 12.6928 19.7184C12.0661 19.7746 11.4364 19.8302 10.8129 19.8919C10.6285 19.9101 10.5418 19.8875 10.429 19.8741C10.343 19.8635 10.2633 19.862 10.1583 19.8781C10.0591 19.8933 9.96191 19.8927 9.8988 19.8724C9.8477 19.8558 9.93472 19.8348 10.1713 19.8039C10.2151 19.7981 10.2649 19.7934 10.2967 19.7846C10.6324 19.69 10.6324 19.6893 10.8666 19.6671C11.095 19.6459 11.095 19.6452 11.2128 19.5977C11.2673 19.5756 11.3277 19.5531 11.3793 19.5305C11.3994 19.5216 11.4338 19.5055 11.4218 19.5018C11.3558 19.4831 11.2674 19.4828 11.165 19.4931C10.9368 19.5171 10.6661 19.5212 10.55 19.595C10.5046 19.6231 10.4317 19.634 10.3263 19.6438C9.26621 19.7404 8.2063 19.8398 7.14322 19.9351C6.97043 19.9505 6.89287 19.981 6.82717 20.0136C6.76998 20.0409 6.70583 20.0514 6.59455 20.0614C6.48327 20.0715 6.39529 20.0782 6.32925 20.0581C6.2902 20.0459 6.32125 20.0243 6.40807 19.9998C6.53251 19.9647 6.50679 19.9304 6.46361 19.8991C6.43287 19.8785 6.3409 19.8676 6.24412 19.8741C6.10046 19.8844 5.96302 19.8994 5.84089 19.8772C5.76941 19.8645 5.68062 19.8577 5.60047 19.8476C5.44601 19.8264 5.29149 19.8044 5.0784 19.8348C4.93119 19.8353 4.82684 19.815 4.70818 19.8012C4.50946 19.7787 4.49153 19.7746 4.63026 19.7324C4.78632 19.6851 4.65981 19.6402 4.74547 19.5972C4.83683 19.5511 4.96376 19.5081 5.07584 19.4637C5.10457 19.4522 5.13043 19.4416 5.15916 19.4301C5.09075 19.4194 5.02801 19.4048 4.94813 19.3989C4.84459 19.3915 4.79077 19.3786 4.79388 19.3341C4.77293 19.3288 4.7827 19.3447 4.80645 19.3478C4.83314 19.3507 4.89754 19.3437 4.92952 19.3371C5.01087 19.3193 5.05081 19.2993 5.02933 19.2855C5.0171 19.2783 4.96074 19.2712 4.92552 19.273C4.86094 19.2764 4.80615 19.2949 4.79094 19.3343C4.464 19.3806 4.12432 19.4125 3.78452 19.4416C3.74938 19.4449 3.70449 19.4329 3.66294 19.428C3.5264 19.4108 3.52643 19.4115 3.1297 19.425C3.08856 19.4264 3.03219 19.4194 3.01102 19.4105C2.92318 19.3715 2.92316 19.3237 2.87917 19.2796C2.95362 19.2457 3.02806 19.2126 3.10549 19.1793C3.26032 19.1119 3.4626 19.0493 3.58184 18.9781C3.55324 18.9446 3.51583 18.9116 3.64321 18.8764C4.00792 18.8217 4.005 18.8219 4.10267 18.7825C4.38136 18.671 4.65706 18.5588 4.94758 18.448C5.02528 18.419 5.02444 18.4055 4.88287 18.4021C4.83866 18.4016 4.79159 18.4033 4.74471 18.4072C4.59825 18.4198 4.45228 18.4402 4.30827 18.4449C4.1643 18.4502 4.05666 18.4244 3.93804 18.4113C3.81644 18.3976 3.69481 18.3833 3.57316 18.3689C3.43533 18.3782 3.29864 18.4053 3.15867 18.3805C3.05144 18.3611 2.91824 18.3501 2.79659 18.3358C2.88421 18.277 3.05191 18.2268 3.18103 18.1723C3.29867 18.1226 3.30158 18.1232 3.62239 18.0729C3.77406 18.0493 3.82187 17.9662 3.69124 17.9494C3.53389 17.929 3.36789 17.9112 3.20769 17.8924C3.06985 17.9018 2.93018 17.9283 2.79608 17.9032C2.69183 17.8843 2.57337 17.8741 2.40369 17.8922C2.11699 17.9228 1.82395 17.9459 1.53414 17.9738C1.4346 17.9833 1.32578 17.9861 1.28023 17.9642C1.24981 17.9486 1.33348 17.9207 1.43004 17.9107C1.57636 17.896 1.70791 17.8805 1.77907 17.8411C1.8473 17.8019 1.97578 17.7845 2.12811 17.7716C2.16912 17.768 2.21559 17.757 2.2356 17.7474C2.3387 17.7006 2.4539 17.659 2.68002 17.6486C2.77306 17.6295 2.82182 17.6091 2.7914 17.5936C2.77321 17.5852 2.71084 17.5763 2.6757 17.5796C2.43251 17.5994 2.18932 17.6192 1.95235 17.6444C1.84116 17.6559 1.75607 17.6617 1.68428 17.644C1.63349 17.6324 1.65871 17.6118 1.75135 17.5863C1.83243 17.5642 1.85465 17.5424 1.84727 17.5185C1.82908 17.463 1.73997 17.4512 1.45839 17.4695C1.25603 17.4828 1.20554 17.4762 1.15849 17.4301C1.14603 17.4193 1.11575 17.4052 1.13581 17.3963C1.25901 17.3413 1.33747 17.2773 1.57382 17.2421C1.66722 17.2287 1.76699 17.2235 1.82454 17.202C1.88209 17.1804 1.93362 17.1563 1.99415 17.1353C2.06914 17.11 2.12068 17.0873 2.08461 17.0756C2.02439 17.0545 1.93035 17.0572 1.82228 17.0714C1.72879 17.0834 1.62903 17.0893 1.53242 17.0986C1.35972 17.1155 1.2177 17.1043 1.19519 17.0741C1.13426 16.9944 1.07042 16.9157 1.01535 16.8357C1.00886 16.826 1.0227 16.8125 1.04565 16.8027C1.12597 16.7685 1.21229 16.7355 1.29559 16.7019C1.39331 16.6633 1.55225 16.6614 1.68688 16.648C1.87711 16.6288 1.87708 16.6295 2.1282 16.5479C2.22631 16.5157 2.40018 16.5173 2.50141 16.4878C2.53321 16.4783 2.58231 16.4629 2.57306 16.4562C2.56074 16.4476 2.50162 16.4435 2.45732 16.4415C2.41596 16.4394 2.36593 16.4399 2.32203 16.4443C1.78907 16.4927 1.25915 16.5424 0.726142 16.5902C0.635366 16.5985 0.534579 16.588 0.50091 16.5676C0.46733 16.5487 0.474551 16.5233 0.467212 16.5001C0.550517 16.4665 0.645659 16.4344 0.717088 16.3993C0.771349 16.3722 0.835273 16.3582 0.946732 16.3509C1.09337 16.3412 1.23669 16.3252 1.40067 16.3102C1.69947 16.1904 1.99206 16.066 2.31433 15.945C2.4438 15.8961 2.4089 15.8551 2.43251 15.8089C2.45635 15.7662 2.65342 15.7624 2.78476 15.7434C2.88981 15.728 2.92357 15.7034 2.88149 15.6898C2.85743 15.6818 2.80395 15.6739 2.76286 15.676C2.66599 15.6811 2.56952 15.6925 2.47287 15.7011C2.37622 15.7097 2.26455 15.7134 2.18605 15.7296C2.11044 15.745 2.06202 15.7718 2.01341 15.795C1.95906 15.8207 1.88621 15.8323 1.77475 15.8395C1.63101 15.8484 1.48758 15.8623 1.34405 15.8748C1.1838 15.8553 1.01769 15.8368 0.863226 15.8156C0.833515 15.8114 0.82659 15.7954 0.828858 15.7845C0.832995 15.7565 0.787907 15.7417 0.690192 15.7332C0.607287 15.7261 0.538743 15.7132 0.461532 15.703C0.51904 15.6807 0.582486 15.6588 0.628164 15.6358C0.728191 15.587 0.855408 15.549 1.07859 15.5388C1.16492 15.5065 1.23322 15.4686 1.3465 15.4435C1.45395 15.4193 1.64005 15.4282 1.71962 15.3819C1.75943 15.3591 1.81964 15.3325 1.89836 15.3198C2.02374 15.2997 2.18857 15.2983 2.25946 15.2546C2.30207 15.2295 2.36533 15.2055 2.45011 15.1954C2.54658 15.184 2.64627 15.1774 2.71587 15.1602C2.75359 15.1511 2.79398 15.1375 2.79336 15.1276C2.79296 15.1212 2.73367 15.1143 2.69231 15.1121C2.65383 15.1091 2.60365 15.1082 2.55971 15.1119C2.4132 15.1238 2.26986 15.1391 2.12335 15.151C2.08235 15.1546 2.03508 15.152 1.99078 15.1501C1.86091 15.1454 1.86881 15.1307 1.96995 15.0998C2.07113 15.0695 2.14256 15.0337 2.22586 15C2.31949 14.9902 2.43702 14.9862 2.50076 14.9693C2.60799 14.9416 2.68229 14.9056 2.76862 14.8733C2.86522 14.864 2.96493 14.8574 3.05544 14.8448C3.09342 14.84 3.11007 14.8234 3.14178 14.8125C3.19938 14.7916 3.24772 14.7634 3.32645 14.7507C3.4548 14.7312 3.61363 14.7279 3.6875 14.6848C3.73011 14.6598 3.79609 14.6321 3.87819 14.6264C4.10698 14.6116 4.20141 14.5674 4.31651 14.5243C4.40284 14.492 4.5916 14.4964 4.68674 14.4636C4.75021 14.4425 4.79582 14.418 4.85934 14.3975C4.88531 14.389 4.94084 14.3826 4.98474 14.3782C5.22478 14.355 5.46792 14.3345 5.70792 14.3105C5.74595 14.3064 5.78053 14.2939 5.80935 14.2839C5.86984 14.2621 5.90636 14.2345 5.98192 14.2185C6.05749 14.2024 6.16609 14.1968 6.2598 14.1883C6.56148 14.1619 6.58517 14.1635 6.71935 14.0959C6.82783 14.041 7.10304 14.0616 7.19066 14.0028C7.24154 13.9687 7.33677 13.9381 7.50974 13.9255C7.75307 13.9079 7.99292 13.8818 8.23599 13.8599C8.45268 13.84 8.44975 13.8402 8.68045 13.7618C8.78426 13.7264 8.94013 13.7226 9.07774 13.7097C9.22416 13.6964 9.35864 13.6808 9.42687 13.6416C9.49514 13.603 9.62357 13.5849 9.77297 13.5721C9.91062 13.56 10.0665 13.5555 10.1733 13.5213C10.4332 13.4393 10.4302 13.4387 10.6147 13.422C10.9046 13.3955 11.1945 13.369 11.4844 13.3417C11.6776 13.3238 11.8801 13.3119 12.0611 13.2867C12.1925 13.2685 12.2487 13.2256 12.3321 13.1934C12.5721 13.1702 12.8121 13.147 13.0522 13.1245C13.3889 13.0927 13.7286 13.0622 14.0683 13.031C14.2134 12.9963 14.2302 12.9354 14.4766 12.9197C14.6233 12.9107 14.7666 12.894 14.913 12.8806C15.156 12.858 15.3959 12.8326 15.6392 12.815C15.8239 12.8018 15.8538 12.7617 15.9491 12.7325C15.9809 12.7222 16.0095 12.7086 16.0475 12.7045C16.4279 12.6647 16.821 12.64 17.1919 12.5914C17.2299 12.5866 17.2642 12.5698 17.2724 12.5587C17.2779 12.5527 17.2273 12.5446 17.1947 12.5413C17.1562 12.5376 17.1059 12.5345 17.0649 12.5381C15.8556 12.6488 14.6463 12.7603 13.4369 12.871C13.2671 12.887 13.2671 12.8863 12.8581 12.9861C12.8232 12.9944 12.7825 13.0036 12.7386 13.008C12.5454 13.0267 12.3491 13.0419 12.1589 13.0625C12.0039 13.0791 11.8742 13.0773 11.7611 13.0575C11.6807 13.0431 11.5981 13.0417 11.4984 13.0483C11.387 13.0562 11.3141 13.0679 11.2507 13.0905C11.1673 13.1212 11.1253 13.1577 10.9467 13.1741C10.1238 13.2476 9.301 13.3247 8.48112 13.4002C8.36601 13.3962 8.30931 13.3842 8.33755 13.3648C8.3545 13.3533 8.38885 13.3372 8.42399 13.3339C8.76063 13.3014 9.10033 13.2709 9.43702 13.2391C9.48385 13.2345 9.54851 13.2326 9.57448 13.2241C9.70164 13.1853 9.74541 13.131 9.98883 13.1147C10.1296 13.1053 10.2728 13.0871 10.4072 13.0701C10.4451 13.0653 10.4794 13.0485 10.4876 13.0374C10.4902 13.0315 10.4425 13.0233 10.407 13.0201C10.2765 13.0062 10.1284 13.0389 9.99837 13.0314C9.95402 13.0287 9.89189 13.0248 9.88255 13.0167C9.87619 13.0092 9.9253 12.9938 9.96004 12.9841C9.99188 12.9753 10.0355 12.9667 10.0794 12.9622C10.4658 12.9257 10.8523 12.8885 11.239 12.8555C11.3972 12.8423 11.5076 12.8187 11.576 12.7823C11.6273 12.7553 11.6911 12.7391 11.7907 12.7304C12.4671 12.6688 13.1434 12.6043 13.8229 12.5447C13.9928 12.5301 14.0794 12.5021 14.148 12.4678C14.2022 12.4407 14.2663 12.4288 14.3746 12.4189C15.3439 12.3313 16.3071 12.2398 17.2765 12.1537C17.4552 12.1379 17.5061 12.1046 17.5955 12.0735C17.6272 12.0626 17.647 12.0501 17.6877 12.0423C17.7285 12.0345 17.7813 12.0324 17.8312 12.0284C18.6042 11.9575 19.3772 11.8844 20.1533 11.8155C20.3349 11.7996 20.3678 11.7622 20.4602 11.7324C20.492 11.7229 20.5206 11.7086 20.5586 11.7044C21.1383 11.65 21.7181 11.597 22.2978 11.5433C22.6843 11.5075 23.0708 11.4716 23.4574 11.4365C23.6477 11.4195 23.6477 11.4188 23.9018 11.3377C23.9307 11.3284 23.9712 11.317 24.0092 11.3129C25.1219 11.2093 26.2317 11.108 27.3443 11.0051C27.438 10.9967 27.5045 10.9768 27.55 10.9501C27.5954 10.9235 27.662 10.9036 27.7528 10.8953C28.6224 10.8144 29.492 10.7341 30.3647 10.6552C30.5228 10.6412 30.6333 10.6184 30.7017 10.5827C30.753 10.5557 30.8168 10.5396 30.9164 10.5308C31.7861 10.4513 32.6557 10.3696 33.5284 10.2914C33.6953 10.2763 33.776 10.2478 33.8564 10.215C33.8851 10.2036 33.9076 10.186 33.9428 10.1827C34.376 10.1402 34.8062 10.0971 35.2427 10.0608C35.4243 10.0456 35.4841 10.0125 35.5557 9.98026C35.613 9.95444 35.6801 9.9431 35.7914 9.93445C36.0347 9.91537 36.2746 9.89075 36.5116 9.86628C36.5467 9.86231 36.5898 9.84436 36.5921 9.83425C36.5968 9.81544 36.5285 9.80614 36.4165 9.80554C35.257 9.91229 34.0945 10.0192 32.935 10.1259C32.7447 10.1437 32.7447 10.1437 32.4906 10.2247C32.4617 10.2341 32.4211 10.2455 32.3802 10.2497C31.2675 10.3526 30.1578 10.4546 29.0451 10.5575C28.9514 10.5659 28.8849 10.5858 28.8395 10.6125C28.794 10.6391 28.7274 10.659 28.6367 10.6673C27.5738 10.7654 26.5109 10.8643 25.445 10.9604C25.2868 10.9744 25.1763 10.9965 25.1079 11.0329C25.0566 11.0599 24.9928 11.0761 24.8932 11.0848C23.8771 11.1777 22.864 11.2725 21.8449 11.3641C21.7424 11.373 21.6648 11.3563 21.6695 11.3368C21.6718 11.3267 21.7147 11.308 21.7499 11.3048C22.2797 11.2536 22.8066 11.202 23.3398 11.1564C23.5185 11.1414 23.5693 11.1073 23.6587 11.0762C23.6875 11.0655 23.7102 11.0521 23.7481 11.0452C23.7888 11.0373 23.8417 11.0353 23.8915 11.0313C25.1476 10.9152 26.4038 10.7985 27.663 10.6851C27.8446 10.6685 27.8776 10.6318 27.97 10.602C28.0017 10.5918 28.0303 10.5775 28.0684 10.5741C28.4548 10.5368 28.8413 10.5017 29.2279 10.4666C29.9043 10.4043 30.5806 10.342 31.26 10.2795C31.4562 10.2614 31.4562 10.2614 31.7044 10.1814C31.7333 10.172 31.7738 10.1599 31.8119 10.1565C33.601 9.99132 35.39 9.82612 37.1792 9.66163C37.2729 9.65318 37.3393 9.63331 37.3848 9.60667C37.4303 9.58074 37.4967 9.56015 37.5875 9.55114C40.0061 9.3282 42.4218 9.1054 44.8405 8.88388C44.9986 8.86922 45.1092 8.84847 45.1776 8.81136C45.226 8.78457 45.2927 8.76825 45.3922 8.75879C48.051 8.51407 50.7097 8.26935 53.3714 8.02376C55.1605 7.85927 56.9496 7.69336 58.7388 7.53029C58.9027 7.51533 58.9894 7.48869 59.0698 7.45524C59.0956 7.4439 59.121 7.42616 59.1561 7.4229C59.5395 7.3851 59.923 7.34873 60.3066 7.31235C60.4281 7.3253 60.5496 7.33754 60.6712 7.35049C60.7605 7.31872 60.8469 7.28638 60.9362 7.2546C61.5161 7.20372 62.0865 7.14192 62.673 7.1014C62.7111 7.09871 62.753 7.11009 62.7945 7.11507C63.0703 7.14569 63.2257 7.13404 63.3952 7.06525C63.4555 7.0407 63.5071 7.01874 63.6008 7.01029C63.8906 6.98236 64.1837 6.95854 64.4704 6.92863C64.6255 6.9127 64.7551 6.9131 64.8682 6.93291C64.9486 6.94729 65.0314 6.95084 65.128 6.94153C65.6609 6.89239 66.1909 6.8441 66.7237 6.79353C66.7618 6.79012 66.7962 6.77619 66.825 6.76612C66.8855 6.74441 66.9371 6.72174 66.9946 6.69947C67.0747 6.70745 67.1633 6.71212 67.2289 6.72441C67.3122 6.73864 67.3885 6.73466 67.4998 6.72388C69.6255 6.52688 71.7543 6.33186 73.8801 6.13415C74.0616 6.11757 74.1428 6.14333 74.267 6.15257C74.3085 6.15613 74.35 6.1611 74.3941 6.16023C74.4412 6.15921 74.4908 6.15235 74.5376 6.14777C76.1335 6.00048 77.7293 5.85389 79.3252 5.7066C79.536 5.68707 79.536 5.68706 79.8528 5.71484C79.8914 5.71855 79.9416 5.72236 79.9826 5.71808C80.7089 5.65245 81.435 5.58469 82.1582 5.51849C82.252 5.51005 82.332 5.5173 82.4181 5.52924C82.5874 5.55256 82.5991 5.55195 82.7195 5.49857C82.7768 5.47346 82.8376 5.45672 82.9341 5.44528C83.0393 5.43266 83.1246 5.43037 83.2076 5.4389C83.3261 5.45058 83.4131 5.47604 83.5917 5.45889C84.3646 5.38512 85.1407 5.31689 85.9106 5.24257C86.0862 5.22557 86.1817 5.24488 86.3002 5.25656C86.3417 5.26082 86.3805 5.2688 86.4247 5.26865C86.4688 5.26849 86.5214 5.26075 86.5682 5.25618C87.5345 5.16734 88.5037 5.07908 89.4669 4.98755C89.6484 4.97025 89.7296 4.99672 89.8539 5.00596C89.8953 5.00951 89.9429 5.01704 89.981 5.01363C90.5608 4.96133 91.1436 4.90744 91.7233 4.85371C91.9312 4.83433 91.9312 4.83504 92.2509 4.86195C92.2894 4.86566 92.3397 4.86875 92.3808 4.86519C93.0572 4.80358 93.7365 4.7411 94.4129 4.67878C94.6208 4.65939 94.6208 4.65939 95.2249 4.66508C95.2691 4.66564 95.3163 4.66747 95.3602 4.66376C96.1333 4.59283 96.9093 4.52246 97.6822 4.44941C97.8374 4.43491 97.9669 4.43387 98.0801 4.45369C98.1605 4.46806 98.2431 4.47162 98.3397 4.46231C99.2094 4.38208 100.082 4.30311 100.949 4.2209C101.116 4.20507 101.225 4.21507 101.344 4.2296C101.382 4.23473 101.421 4.24271 101.465 4.24326C101.51 4.24382 101.559 4.23837 101.606 4.23379C102.476 4.15356 103.349 4.07531 104.215 3.99238C104.391 3.97539 104.486 3.99469 104.605 4.00637C104.646 4.01064 104.691 4.02116 104.726 4.01862C105.066 3.9888 105.406 3.96041 105.742 3.92505C105.924 3.90562 106.005 3.93422 106.129 3.94347C106.171 3.94631 106.218 3.95454 106.256 3.95114C106.983 3.8855 107.709 3.81844 108.432 3.75083C108.534 3.74121 108.611 3.74364 108.695 3.75787C108.805 3.77712 108.932 3.78051 109.09 3.76444C109.426 3.73051 109.766 3.7014 110.106 3.67017C110.305 3.65195 110.305 3.65195 110.918 3.65719C110.962 3.65774 111.009 3.65956 111.053 3.65585C111.633 3.60283 112.216 3.55038 112.792 3.49538C112.947 3.48017 113.077 3.47985 113.19 3.49967C113.271 3.51404 113.35 3.51775 113.45 3.50829C113.983 3.45914 114.513 3.41014 115.046 3.36099C115.239 3.34308 115.432 3.31948 115.626 3.3094C115.766 3.30278 115.871 3.33159 115.999 3.3421C116.034 3.34525 116.093 3.33651 116.139 3.33264C116.816 3.27031 117.495 3.20997 118.169 3.14424C118.344 3.12725 118.44 3.14655 118.558 3.15823C118.6 3.1625 118.644 3.17302 118.68 3.17047C118.923 3.14997 119.163 3.12677 119.406 3.10484C119.696 3.07833 119.989 3.05452 120.275 3.02389C120.51 2.99886 120.601 3.05619 120.789 3.04855C120.933 3.0432 121.079 3.02346 121.223 3.01029C121.513 2.98378 121.803 2.95585 122.093 2.93077C122.195 2.92186 122.274 2.90634 122.304 2.87905C122.31 2.87376 122.259 2.86569 122.227 2.86096C121.832 2.80869 121.832 2.80869 121.439 2.84482C121.196 2.86746 120.956 2.88995 120.713 2.91116C120.672 2.91473 120.625 2.91148 120.583 2.90934C120.465 2.90336 120.476 2.88852 120.574 2.8577C120.673 2.82689 120.747 2.79162 120.83 2.75801C120.952 2.77025 121.07 2.78263 121.192 2.79487C121.288 2.78627 121.385 2.77697 121.482 2.76837C121.965 2.72466 122.448 2.68025 122.931 2.63797C122.966 2.63471 123.011 2.64665 123.053 2.65163C123.172 2.66616 123.278 2.67844 123.448 2.66176C123.881 2.61851 124.318 2.58081 124.751 2.54041C124.941 2.52266 124.941 2.52266 125.279 2.54936C125.317 2.55236 125.368 2.55546 125.409 2.5519C125.845 2.51277 126.278 2.47238 126.715 2.43254C126.808 2.42409 126.9 2.42861 126.969 2.44573C126.996 2.45289 126.991 2.46743 127.109 2.57833C127.462 2.65495 127.699 2.63262 127.939 2.61155C128.042 2.60265 128.132 2.59435 128.199 2.57661C128.234 2.56695 128.277 2.55327 128.276 2.54402C128.276 2.5369 128.211 2.52887 128.17 2.52959C127.878 2.53048 127.604 2.57473 127.32 2.59595C127.188 2.60567 127.072 2.58672 127.046 2.54738C127.039 2.5363 127.03 2.52466 127.02 2.51374C127.011 2.50281 127.004 2.49101 126.994 2.48009C126.88 2.48249 126.813 2.49881 126.765 2.5256C126.725 2.54766 126.667 2.57349 126.589 2.58829C126.51 2.6038 126.402 2.60732 126.305 2.61592C126.211 2.62436 126.109 2.63896 126.021 2.63856C125.932 2.63745 125.86 2.62047 125.777 2.61194C125.739 2.60752 125.691 2.60072 125.653 2.60413C125.317 2.63379 124.983 2.6633 124.649 2.69636C124.473 2.71407 124.383 2.68877 124.271 2.67607C124.182 2.66642 124.094 2.67456 124.081 2.70806C124.048 2.78832 124.185 2.81402 124.484 2.7835C124.729 2.75786 124.952 2.74412 125.149 2.78243C125.176 2.78746 125.238 2.7871 125.276 2.78369C125.516 2.76263 125.753 2.73958 125.993 2.71852C126.037 2.7148 126.084 2.7152 126.126 2.7159C126.727 2.72317 126.727 2.72389 126.929 2.70481C127.026 2.6955 127.119 2.68705 127.104 2.57935C127.281 2.45373 127.574 2.43063 127.858 2.39873C128.042 2.37844 128.124 2.40563 128.245 2.41573C128.286 2.41929 128.331 2.42838 128.369 2.42497C128.999 2.36864 129.625 2.31105 130.252 2.25203C130.357 2.24226 130.434 2.24256 130.517 2.25679C130.624 2.27477 130.743 2.28361 130.91 2.26636C131.243 2.23187 131.583 2.20348 131.923 2.17153C132.095 2.1554 132.095 2.15539 132.448 2.18134C132.486 2.18433 132.536 2.18743 132.577 2.18387C132.917 2.15405 133.254 2.12154 133.59 2.09117C133.684 2.08272 133.77 2.08826 133.844 2.10365C133.919 2.11905 134.008 2.12442 134.099 2.11613C134.438 2.0856 134.775 2.05381 135.112 2.02344C135.153 2.01987 135.203 2.02226 135.241 2.02526C135.602 2.05074 135.602 2.05073 135.766 2.03506C136.006 2.01186 136.253 1.99406 136.489 1.96745C136.72 1.94115 136.843 1.97616 137.003 1.99068C137.437 1.95171 137.873 1.91544 138.303 1.87306C138.479 1.85535 138.575 1.87394 138.693 1.88634C138.735 1.8906 138.776 1.90199 138.815 1.89929C138.961 1.88881 139.105 1.87349 139.248 1.86031C139.392 1.84714 139.538 1.83381 139.681 1.82063C139.847 1.83271 139.959 1.87545 140.193 1.84686C140.333 1.82957 140.482 1.81964 140.626 1.80647C140.769 1.79329 140.916 1.77996 141.059 1.76678C141.156 1.75818 141.256 1.75085 141.349 1.73956C141.522 1.71988 141.609 1.75032 141.733 1.75956C141.775 1.7624 141.822 1.76849 141.86 1.76508C142.15 1.74 142.443 1.71618 142.727 1.685C142.946 1.66074 143.097 1.6743 143.255 1.69609C143.287 1.70081 143.343 1.70147 143.384 1.69791C143.724 1.66809 144.061 1.63558 144.398 1.6052C144.488 1.59691 144.577 1.60371 144.652 1.6184C144.729 1.63364 144.815 1.63847 144.909 1.63002C145.245 1.59965 145.585 1.56769 145.922 1.53731C145.963 1.53375 146.013 1.53685 146.052 1.54056C146.383 1.56757 146.383 1.56828 146.576 1.54966C146.623 1.54508 146.673 1.54106 146.72 1.53648C146.96 1.51399 147.209 1.49745 147.443 1.46816C147.712 1.43489 147.91 1.44885 148.103 1.47949C148.344 1.45842 148.59 1.44061 148.824 1.41416C148.999 1.39432 149.095 1.41647 149.213 1.42815C149.255 1.43241 149.3 1.44293 149.335 1.43968C149.675 1.40986 150.014 1.38147 150.348 1.34627C150.529 1.32684 150.611 1.35473 150.735 1.36468C150.776 1.36823 150.821 1.37591 150.859 1.3725C151.053 1.35673 151.246 1.3381 151.439 1.32019C151.664 1.29918 151.664 1.29989 151.967 1.32772C152.109 1.34103 152.249 1.31732 152.386 1.30516C152.533 1.29183 152.67 1.28039 152.79 1.30345C152.864 1.31814 152.953 1.32494 153.044 1.31736C153.237 1.30087 153.433 1.28424 153.624 1.26363C153.776 1.24715 153.908 1.24597 154.021 1.2665C154.102 1.28087 154.185 1.28585 154.281 1.27654C154.715 1.23686 155.151 1.1963 155.584 1.15733C155.622 1.15392 155.675 1.15758 155.711 1.16215C155.794 1.17068 155.874 1.18078 155.954 1.19089C156.145 1.17456 156.341 1.16149 156.529 1.14175C156.728 1.1214 156.909 1.10837 157.067 1.13941C157.1 1.14627 157.148 1.15592 157.186 1.15322C157.333 1.14274 157.476 1.12814 157.619 1.11496C157.763 1.10178 157.909 1.08846 158.053 1.07528C158.221 1.08436 158.33 1.13009 158.564 1.10151C158.704 1.08421 158.854 1.07429 158.997 1.06111C159.141 1.04793 159.287 1.03389 159.431 1.02143C159.478 1.01756 159.53 1.01125 159.571 1.01196C159.616 1.01251 159.654 1.02049 159.693 1.02563C159.812 1.04015 159.922 1.05514 160.088 1.03433C160.229 1.01704 160.378 1.00711 160.522 0.993225C160.718 0.975163 160.718 0.975164 161.046 1.00304C161.18 1.01467 161.328 0.982687 161.455 0.991774C161.541 0.998019 161.615 1.01199 161.698 1.01981C161.734 1.02295 161.79 1.02218 161.831 1.01862C162.024 1.00214 162.22 0.985502 162.41 0.964899C162.565 0.948264 162.695 0.950081 162.805 0.970046C162.886 0.984424 162.966 0.988134 163.065 0.97867C163.548 0.933542 164.032 0.891253 164.512 0.844142C164.675 0.82776 164.808 0.83299 164.901 0.853873C165.059 0.889897 165.276 0.826493 165.44 0.853673C165.541 0.87054 165.642 0.890964 165.824 0.87082C166.157 0.834905 166.497 0.807219 166.834 0.776845C166.955 0.789796 167.077 0.802751 167.201 0.815548C167.395 0.79764 167.588 0.779726 167.781 0.762529C167.925 0.749351 168.071 0.73531 168.215 0.722845C168.262 0.718978 168.311 0.713534 168.355 0.714801C168.4 0.716067 168.436 0.723486 168.477 0.728463C168.682 0.752792 168.682 0.75351 169.016 0.721865C169.159 0.707975 169.297 0.696525 169.419 0.718727C169.532 0.739252 169.664 0.737359 169.817 0.721588C170.103 0.692386 170.393 0.666588 170.686 0.641351C170.777 0.633058 170.863 0.640728 170.94 0.655258C171.057 0.678477 171.197 0.668298 171.341 0.652986C171.531 0.633095 171.718 0.613361 171.882 0.644809C171.915 0.651669 171.966 0.661161 172.001 0.658616C172.241 0.640398 172.485 0.623454 172.719 0.597714C172.953 0.571974 173.07 0.610135 173.233 0.623082C173.473 0.601306 173.716 0.579377 173.956 0.557601C174.003 0.553022 174.058 0.543719 174.099 0.545139C174.274 0.551071 174.377 0.599246 174.613 0.570507C174.751 0.554077 174.9 0.543444 175.044 0.533825C175.082 0.531128 175.133 0.54062 175.16 0.548496C175.175 0.552714 175.161 0.566998 175.144 0.57503C175.092 0.597705 175.029 0.619574 174.983 0.642654C174.977 0.645806 175.034 0.655707 175.067 0.65972C175.147 0.668404 175.238 0.66154 175.343 0.650349C175.434 0.640632 175.528 0.645705 175.594 0.663693C175.621 0.670857 175.613 0.685549 175.56 0.735417C175.562 0.770285 175.623 0.751418 175.642 0.727577C175.672 0.693163 175.61 0.685698 175.494 0.709598C175.412 0.726684 175.373 0.747324 175.394 0.761198C175.406 0.768415 175.463 0.775478 175.56 0.735417C175.816 0.679279 176.009 0.66137 176.202 0.643462C176.252 0.63873 176.31 0.628554 176.346 0.630991C176.473 0.641501 176.592 0.656032 176.716 0.668829C176.857 0.657228 176.988 0.639677 177.128 0.660251C177.324 0.689308 177.333 0.685291 177.52 0.667688C177.617 0.658377 177.714 0.649785 177.81 0.641187C177.907 0.632588 177.984 0.639289 178.07 0.651227C178.245 0.67566 178.26 0.674892 178.372 0.623393C178.437 0.592127 178.484 0.580436 178.57 0.588815C178.854 0.617559 178.857 0.62025 179.097 0.594916C179.296 0.573856 179.484 0.561232 179.633 0.594157C179.735 0.617428 179.767 0.609345 179.844 0.575332C180.05 0.485346 180.147 0.481728 180.547 0.518035C180.734 0.535454 180.923 0.49635 181.111 0.483016C181.269 0.471921 181.381 0.483193 181.396 0.527413C181.407 0.554707 181.434 0.573262 181.54 0.577014C181.582 0.578433 181.632 0.580817 181.673 0.577255C181.916 0.556038 182.156 0.533549 182.399 0.510909C182.522 0.499512 182.588 0.462558 182.561 0.419661C182.532 0.37407 182.578 0.354542 182.753 0.331857C182.858 0.31853 182.944 0.315527 183.03 0.323907C183.124 0.333251 183.099 0.347434 183.018 0.377329C182.825 0.450184 182.851 0.487382 183.106 0.517654C183.195 0.528015 183.267 0.537878 183.289 0.558868C183.301 0.569643 183.29 0.585196 183.317 0.59236C183.464 0.632553 183.666 0.65277 183.89 0.663933C184.103 0.633568 184.252 0.657947 184.418 0.675011C184.548 0.688215 184.7 0.663199 184.837 0.648904C184.993 0.632981 185.122 0.631949 185.235 0.652474C185.316 0.666852 185.398 0.671113 185.495 0.662515C185.688 0.644606 185.885 0.629393 186.075 0.608079C186.238 0.589562 186.363 0.59738 186.467 0.616228C186.598 0.640107 186.741 0.61198 186.876 0.609223C187.058 0.604734 187.153 0.663329 187.39 0.633879C187.53 0.616584 187.677 0.605391 187.823 0.594907C187.861 0.59221 187.909 0.601866 187.942 0.608725C188.1 0.639769 188.282 0.628161 188.481 0.606389C188.618 0.591382 188.753 0.577244 188.889 0.597259C189.115 0.631193 189.365 0.658213 189.602 0.687978C189.636 0.719031 189.615 0.758675 189.784 0.769182C189.872 0.774562 189.956 0.785234 190.024 0.798087C190.107 0.813024 190.184 0.814036 190.289 0.803556C190.48 0.783665 190.679 0.771134 190.866 0.748549C191.039 0.728151 191.149 0.745992 191.256 0.762553C191.342 0.775914 191.422 0.780322 191.524 0.762167C191.629 0.744571 191.706 0.748426 191.792 0.76321C191.914 0.783277 191.922 0.779976 192.322 0.76703C192.363 0.765603 192.414 0.773676 192.438 0.781705C192.45 0.786075 192.425 0.801688 192.404 0.809874C192.379 0.819787 192.338 0.831884 192.3 0.836005C191.867 0.877113 191.43 0.916239 190.997 0.957347C190.953 0.961773 190.907 0.969202 190.875 0.977998C190.84 0.987659 190.797 1.00062 190.797 1.01058C190.798 1.0177 190.857 1.02319 190.898 1.02603C191.028 1.03567 191.18 1.00282 191.307 1.01476C191.393 1.02243 191.464 1.03584 191.55 1.04279C191.586 1.04594 191.641 1.04233 191.685 1.03861C191.832 1.02599 191.975 1.0114 192.122 0.999488C192.163 0.996638 192.21 1.00131 192.249 1.00502C192.533 1.03305 192.533 1.03305 192.776 1.01112C192.873 1.00252 192.975 0.986503 193.066 0.986038C193.155 0.985725 193.232 1.00097 193.312 1.00894C193.478 1.026 193.635 1.04281 193.65 1.09771C193.658 1.11875 193.756 1.13221 193.853 1.12859C193.947 1.12513 194.046 1.11211 194.143 1.1028C194.371 1.08235 194.371 1.08235 194.67 1.11033C194.753 1.11815 194.841 1.11499 194.947 1.10237C194.987 1.09739 195.038 1.09764 195.082 1.09891C195.226 1.1021 195.227 1.11561 195.135 1.14612C195.005 1.19071 195.017 1.19366 195.389 1.20644C195.531 1.2112 195.641 1.22832 195.759 1.24214C195.952 1.26423 195.949 1.26438 195.826 1.31293C195.797 1.32371 195.771 1.33505 195.742 1.34654C195.659 1.37872 195.593 1.41212 195.417 1.42413C195.224 1.43706 195.031 1.45853 194.837 1.47644C194.65 1.49404 194.601 1.51371 194.622 1.56118C194.646 1.61847 194.685 1.62288 195.022 1.60461C195.119 1.59957 195.204 1.60083 195.279 1.61622C195.245 1.64083 195.182 1.66198 195.088 1.67114C194.848 1.69434 194.605 1.71627 194.365 1.73804C194.172 1.75595 193.978 1.77386 193.785 1.79177C193.665 1.80301 193.591 1.84399 193.626 1.88358C193.645 1.90615 193.661 1.92887 193.677 1.95159C193.713 1.99687 193.775 2.00577 193.971 1.9934C194.021 1.99009 194.068 1.98195 194.115 1.98093C194.306 1.97598 194.401 2.03031 194.629 2.00629C194.819 1.9864 195.019 1.97388 195.206 1.9513C195.378 1.9309 195.477 1.95148 195.598 1.96443C195.64 1.9687 195.685 1.97992 195.72 1.97738C195.963 1.95687 196.206 1.93637 196.443 1.91048C196.554 1.89898 196.622 1.89974 196.711 1.91223C196.925 1.94251 196.931 1.94007 197.244 1.91091C197.472 1.88904 197.475 1.89031 197.772 1.91844C197.855 1.92626 197.943 1.92168 198.048 1.91049C198.186 1.89619 198.329 1.87732 198.473 1.88051C198.517 1.88107 198.574 1.8867 198.589 1.89519C198.598 1.90114 198.558 1.91893 198.523 1.92575C198.267 1.97619 197.964 1.98552 197.684 2.01513C197.596 2.02398 197.507 2.01504 197.432 1.99965C197.355 1.98441 197.272 1.98086 197.172 1.98961C196.979 2.00752 196.783 2.02273 196.593 2.04404C196.429 2.06256 196.313 2.05215 196.198 2.03605C196.159 2.03092 196.114 2.01968 196.076 2.02238C195.642 2.05922 195.206 2.09621 194.776 2.13859C194.603 2.15614 194.502 2.13857 194.383 2.12547C194.342 2.1212 194.3 2.10982 194.262 2.11251C194.115 2.123 193.972 2.13831 193.825 2.15164C193.292 2.20079 192.762 2.24978 192.229 2.29751C192.194 2.30076 192.149 2.28811 192.108 2.28384C192.028 2.27516 191.945 2.26734 191.862 2.25952C191.715 2.27285 191.572 2.28745 191.425 2.29935C191.32 2.3077 191.227 2.32255 191.214 2.35036C191.206 2.36861 191.304 2.37993 191.407 2.37316C191.506 2.36654 191.606 2.35281 191.688 2.35778C192.099 2.38209 192.099 2.38281 192.354 2.36027C192.577 2.34012 192.553 2.33422 192.752 2.36313C192.838 2.37578 192.915 2.38177 193.012 2.37246C193.252 2.34997 193.495 2.32733 193.738 2.30611C193.776 2.30271 193.826 2.30723 193.865 2.31094C194.155 2.33866 194.155 2.34008 194.392 2.31704C194.703 2.28804 194.714 2.28387 194.925 2.31643C195.071 2.33883 195.202 2.31132 195.34 2.30272C195.5 2.32222 195.675 2.33812 195.82 2.36195C195.993 2.39009 196.172 2.37436 196.365 2.35361C196.508 2.3383 196.649 2.32812 196.768 2.35118C196.881 2.37242 197.016 2.36825 197.169 2.35319C197.306 2.33961 197.446 2.31875 197.591 2.32692C197.63 2.3292 197.689 2.33683 197.686 2.34338C197.684 2.3535 197.647 2.36972 197.609 2.37597C197.341 2.4192 197.044 2.43391 196.76 2.46225C196.722 2.46637 196.672 2.46114 196.633 2.45743C196.55 2.4489 196.47 2.43808 196.39 2.42869C196.246 2.44044 196.1 2.4495 195.959 2.46537C195.851 2.47742 195.769 2.481 195.689 2.46804C195.614 2.45621 195.534 2.44111 195.445 2.44071C195.357 2.44031 195.255 2.45633 195.158 2.46564C195.062 2.47495 194.95 2.47862 194.875 2.49398C194.799 2.50933 194.753 2.53669 194.705 2.55921C194.65 2.58417 194.575 2.59526 194.463 2.6032C194.36 2.61069 194.278 2.61211 194.201 2.59616C194.168 2.5893 194.123 2.58518 194.079 2.58178C194.037 2.57894 193.99 2.57355 193.952 2.57696C193.516 2.61609 193.082 2.65649 192.646 2.69633C192.429 2.71617 192.432 2.71601 191.978 2.69755C191.936 2.69613 191.886 2.69375 191.845 2.69731C191.602 2.71853 191.362 2.74102 191.119 2.76366C190.873 2.78645 190.876 2.78487 190.453 2.76188C190.376 2.75732 190.265 2.77451 190.174 2.77782C189.983 2.78419 189.886 2.7293 189.663 2.7523C189.473 2.77219 189.274 2.78471 189.084 2.80745C188.911 2.82785 188.81 2.80813 188.691 2.79503C188.65 2.79076 188.605 2.77882 188.57 2.78208C188.133 2.8205 187.7 2.86089 187.119 2.89327C186.975 2.90075 187.04 2.91234 187.135 2.91243C187.27 2.91323 187.313 2.896 187.238 2.87135C187.184 2.85418 187.107 2.84818 187.046 2.85637C187.014 2.8609 186.973 2.87656 187.119 2.89327C187.273 2.91237 187.265 2.92777 187.292 2.93493C187.358 2.95221 187.45 2.95601 187.543 2.94827C187.69 2.93566 187.833 2.92106 187.98 2.90915C188.021 2.90559 188.071 2.90797 188.109 2.91168C188.435 2.939 188.438 2.94169 188.781 2.90675C188.889 2.89611 188.968 2.89199 189.054 2.90108C189.173 2.91347 189.26 2.94035 189.438 2.92107C189.675 2.89518 189.918 2.87468 190.161 2.85417C190.2 2.85076 190.241 2.86143 190.286 2.86483C190.407 2.87565 190.497 2.90309 190.676 2.88025C190.813 2.8624 190.962 2.85175 191.109 2.84198C191.147 2.83929 191.206 2.84762 191.225 2.85595C191.261 2.87049 191.218 2.892 191.119 2.91071C191.078 2.91854 191.023 2.92002 190.976 2.9246C190.782 2.9425 190.589 2.96112 190.396 2.97761C190.293 2.98651 190.197 3.00223 190.187 3.02917C190.179 3.04742 190.286 3.05757 190.386 3.05096C190.532 3.04118 190.679 3.02785 190.819 3.01127C191.068 2.98263 191.285 2.9756 191.491 3.00989C191.636 3.03371 191.627 3.02279 191.785 3.10736C191.825 3.12886 191.94 3.12503 192.039 3.11841C192.28 3.10233 192.392 3.1072 192.373 3.13033C192.348 3.15875 192.263 3.17171 192.155 3.18092C191.962 3.1967 191.768 3.21603 191.575 3.23394C191.528 3.23852 191.476 3.24554 191.432 3.2464C191.388 3.24727 191.346 3.24087 191.307 3.23645C191.224 3.22721 191.153 3.21024 191.064 3.20984C190.976 3.20944 190.874 3.22546 190.777 3.23477C190.681 3.24337 190.578 3.25939 190.49 3.25899C190.402 3.25859 190.327 3.24107 190.247 3.23238C190.208 3.22796 190.161 3.22044 190.123 3.22313C189.929 3.23891 189.736 3.25825 189.543 3.27544C189.306 3.29707 189.306 3.29707 189.015 3.26792C188.932 3.25938 188.847 3.26453 188.739 3.27587C188.505 3.29948 188.502 3.29749 188.071 3.27852C188.029 3.27639 187.979 3.27401 187.938 3.27828C187.502 3.31741 187.068 3.3578 186.635 3.39748C186.263 3.43183 186.263 3.43183 186.062 3.51369C185.913 3.57429 185.91 3.57444 186.061 3.59084C186.183 3.6045 186.293 3.62803 186.426 3.63183C186.55 3.63537 186.7 3.59541 186.837 3.62112C186.906 3.63397 186.995 3.64718 187.08 3.6456C187.216 3.64213 187.358 3.614 187.489 3.63859C187.555 3.65089 187.653 3.66222 187.735 3.65865C187.879 3.65259 188.025 3.63356 188.169 3.6211C188.212 3.61738 188.262 3.61479 188.304 3.61621C188.348 3.61819 188.387 3.62474 188.425 3.62988C188.544 3.64796 188.671 3.65277 188.823 3.63273C189.071 3.59982 189.295 3.59818 189.492 3.63364C189.518 3.63867 189.583 3.63602 189.624 3.63104C189.729 3.61843 189.82 3.61298 189.9 3.62237C189.933 3.62638 189.98 3.6339 189.975 3.64061C189.967 3.65174 189.933 3.66781 189.895 3.67335C189.62 3.71191 189.324 3.73018 189.04 3.75781C189.002 3.76122 188.954 3.7544 188.916 3.74998C188.833 3.74145 188.761 3.72378 188.673 3.72338C188.584 3.72298 188.482 3.73757 188.385 3.74617C188.289 3.75477 188.187 3.77079 188.098 3.7711C188.01 3.77071 187.927 3.75719 187.855 3.7452C187.772 3.73169 187.693 3.73368 187.584 3.74645C187.444 3.76303 187.297 3.77209 187.154 3.78456C187.074 3.77516 186.994 3.76434 186.911 3.7558C186.872 3.75138 186.825 3.746 186.784 3.74885C186.59 3.76463 186.397 3.78325 186.204 3.80116C186.01 3.81907 186.01 3.81907 185.679 3.79206C185.64 3.78906 185.59 3.78597 185.549 3.78953C185.306 3.81075 185.066 3.83394 184.823 3.85516C184.729 3.8636 184.643 3.85807 184.566 3.84283C184.491 3.82743 184.403 3.82134 184.312 3.82964C183.925 3.86474 183.539 3.89914 183.152 3.93709C182.997 3.9523 182.865 3.95277 182.757 3.93266C182.632 3.9099 182.495 3.92419 182.351 3.93737C182.026 3.96855 182.023 3.96799 181.813 3.94255C181.771 3.93757 181.729 3.92618 181.691 3.92888C181.354 3.95712 181.014 3.9848 180.681 4.01929C180.505 4.03771 180.41 4.01769 180.291 4.0053C180.25 4.00103 180.205 3.9898 180.17 3.99306C179.926 4.01357 179.683 4.03337 179.446 4.05997C179.209 4.08657 179.114 4.02513 178.935 4.03516C178.692 4.04855 178.452 4.07744 178.212 4.09993C178.019 4.11784 177.825 4.13574 177.632 4.15365C177.439 4.17156 177.246 4.18804 177.052 4.20738C176.95 4.2177 176.873 4.21527 176.787 4.20191C176.677 4.18408 176.547 4.1723 176.428 4.15706C176.247 4.13578 176.247 4.13578 176.03 4.15562C175.983 4.1602 175.934 4.16422 175.887 4.1688C175.533 4.20293 175.532 4.20152 175.078 4.18021C175.057 4.17914 175.005 4.18972 174.984 4.19648C174.924 4.21819 174.869 4.24101 174.815 4.26313C174.735 4.25587 174.638 4.25451 174.584 4.24089C174.431 4.20242 174.2 4.27798 174.045 4.24038C173.988 4.2262 173.89 4.2163 173.802 4.21661C173.71 4.21708 173.608 4.23239 173.515 4.24154C173.272 4.26489 173.272 4.26419 173.067 4.33836C172.963 4.37517 172.811 4.37742 172.673 4.39171C172.53 4.40703 172.392 4.41848 172.27 4.39556C172.159 4.37489 172.027 4.37535 171.872 4.39199C171.682 4.41259 171.486 4.42923 171.292 4.44571C171.251 4.44927 171.201 4.44832 171.16 4.44619C170.708 4.42757 170.708 4.42686 170.491 4.44742C170.395 4.45673 170.295 4.46334 170.201 4.47463C170.044 4.49427 169.922 4.48558 169.806 4.46877C169.768 4.46364 169.723 4.45242 169.685 4.45511C169.491 4.46875 169.301 4.48508 169.11 4.50142C168.964 4.51404 168.817 4.52452 168.677 4.54181C168.443 4.5704 168.326 4.5301 168.163 4.51715C167.923 4.53893 167.68 4.55801 167.44 4.58334C167.329 4.59484 167.255 4.59653 167.169 4.58388C167.059 4.56818 166.958 4.54918 166.782 4.56902C166.548 4.59547 166.302 4.61328 166.062 4.63435C165.899 4.62069 165.779 4.58196 165.548 4.6104C165.408 4.62769 165.258 4.63762 165.115 4.65079C164.921 4.6687 164.728 4.68591 164.535 4.70453C164.327 4.72391 164.33 4.72162 164.007 4.69629C163.821 4.681 163.632 4.71869 163.444 4.73273C163.297 4.74393 163.226 4.78048 163.264 4.82063C163.302 4.86078 163.225 4.89764 163.09 4.91036C162.753 4.94144 162.414 4.97339 162.077 5.00305C162.036 5.00662 161.986 5.00423 161.947 5.00124C161.583 4.97519 161.583 4.97591 161.422 4.99072C161.182 5.01391 160.936 5.03243 160.699 5.05833C160.535 5.07613 160.414 5.06746 160.307 5.04876C160.223 5.03453 160.147 5.03423 160.041 5.044C158.882 5.15217 157.722 5.25678 156.566 5.36621C156.393 5.38234 156.292 5.3669 156.173 5.35379C156.132 5.34953 156.093 5.33799 156.052 5.34013C155.955 5.34517 155.858 5.35662 155.762 5.36593C155.328 5.40561 154.895 5.44885 154.459 5.48442C154.274 5.49974 154.226 5.53507 154.149 5.56624C154.088 5.59008 154.018 5.60228 153.91 5.61078C153.805 5.61912 153.728 5.61954 153.645 5.60531C153.537 5.58662 153.416 5.57793 153.252 5.59645C153.062 5.61776 152.869 5.63283 152.673 5.65089C152.573 5.65965 152.498 5.67642 152.467 5.70372C152.461 5.7083 152.524 5.71577 152.559 5.72034C152.678 5.73558 152.791 5.75468 152.924 5.76275C153.06 5.77066 153.206 5.74594 153.346 5.73434C153.396 5.73032 153.443 5.72361 153.49 5.72188C153.534 5.7203 153.587 5.72111 153.62 5.72583C153.774 5.74991 153.937 5.76357 154.147 5.73336C154.33 5.73314 154.428 5.78731 154.659 5.75959C154.799 5.74301 154.945 5.7311 155.092 5.71991C155.13 5.71721 155.172 5.72788 155.213 5.73215C155.332 5.74383 155.428 5.7674 155.603 5.74614C155.79 5.72356 155.99 5.71104 156.18 5.69115C156.285 5.67995 156.362 5.68096 156.445 5.69519C156.552 5.71317 156.674 5.72469 156.837 5.70475C156.978 5.68746 157.127 5.67754 157.271 5.66365C157.458 5.64604 157.458 5.64676 157.795 5.67346C157.834 5.67646 157.884 5.67956 157.925 5.67599C158.168 5.65478 158.408 5.63158 158.651 5.61036C158.745 5.60191 158.837 5.60643 158.903 5.6237C158.93 5.63087 158.922 5.64557 158.931 5.65721C158.448 5.70162 157.965 5.74319 157.485 5.79172C157.303 5.81044 157.219 5.78555 157.098 5.77544C157.056 5.77189 157.012 5.76208 156.974 5.76549C156.634 5.79531 156.297 5.82568 155.961 5.8589C155.855 5.86938 155.776 5.87065 155.695 5.85414C155.489 5.80989 155.245 5.85261 155.016 5.87235C154.84 5.88721 154.786 5.91217 154.809 5.95807C154.839 6.0122 154.946 6.02378 155.215 5.99976C155.312 5.99117 155.409 5.98114 155.505 5.97326C155.599 5.96552 155.685 5.97034 155.762 5.98558C155.837 6.00098 155.926 6.00636 156.016 5.99878C156.21 5.98229 156.406 5.96566 156.593 5.94521C156.748 5.92857 156.878 5.92896 156.988 5.94964C157.11 5.97255 157.251 5.95881 157.391 5.94508C157.719 5.91374 157.722 5.9143 157.93 5.93919C157.971 5.94417 158.013 5.95555 158.051 5.95285C158.388 5.92461 158.728 5.89764 159.059 5.86331C159.232 5.84575 159.333 5.86333 159.449 5.87587C159.49 5.88014 159.532 5.89224 159.57 5.88883C159.813 5.86832 160.056 5.84781 160.293 5.82192C160.404 5.80971 160.472 5.81047 160.564 5.82281C160.784 5.85349 160.79 5.85176 161.097 5.8222C161.191 5.81305 161.293 5.79987 161.382 5.80099C161.47 5.8021 161.542 5.81907 161.625 5.8276C161.663 5.83131 161.711 5.83669 161.752 5.83313C161.945 5.81735 162.138 5.79874 162.332 5.78083C162.513 5.76353 162.513 5.76424 162.856 5.79064C162.995 5.80196 163.138 5.77882 163.276 5.76595C163.425 5.75175 163.56 5.74473 163.677 5.76653C163.793 5.78832 163.931 5.77971 164.077 5.76638C164.215 5.75351 164.355 5.73053 164.497 5.74241C164.822 5.76973 164.822 5.77043 165.021 5.75151C165.311 5.72429 165.598 5.69794 165.891 5.67199C165.929 5.66858 165.98 5.67453 166.018 5.67823C166.101 5.68677 166.173 5.70444 166.261 5.70484C166.35 5.70595 166.452 5.69207 166.546 5.68291C166.847 5.65366 166.867 5.64761 167.073 5.68403C167.246 5.7136 167.453 5.6471 167.615 5.68297C167.707 5.70314 167.832 5.71665 168.001 5.69569C168.142 5.6784 168.288 5.66791 168.435 5.65458C168.666 5.63327 168.666 5.63398 168.962 5.66141C169.001 5.66511 169.051 5.66963 169.089 5.66622C169.282 5.65044 169.479 5.63523 169.666 5.61264C169.885 5.58624 170.028 5.60596 170.194 5.62373C170.324 5.63765 170.476 5.61262 170.613 5.59833C170.763 5.58342 170.898 5.57853 171.011 5.60048C171.13 5.62283 171.268 5.61209 171.414 5.59876C171.552 5.5866 171.692 5.5629 171.834 5.5755C172.139 5.60388 172.139 5.60388 172.359 5.58389C172.552 5.56598 172.745 5.54736 172.939 5.53159C172.977 5.52818 173.024 5.53499 173.063 5.5394C173.146 5.54794 173.218 5.56562 173.306 5.56602C173.394 5.56642 173.496 5.55182 173.593 5.54322C173.69 5.53463 173.792 5.5186 173.88 5.51829C173.968 5.51798 174.052 5.53149 174.123 5.54348C174.207 5.55771 174.283 5.55587 174.394 5.54295C174.534 5.52637 174.681 5.5166 174.825 5.50413C174.905 5.51353 174.988 5.52277 175.065 5.53374C175.145 5.54527 175.23 5.53942 175.339 5.52878C175.699 5.49292 175.702 5.4949 176.007 5.52329C176.146 5.53604 176.289 5.51218 176.426 5.50002C176.573 5.48669 176.711 5.47667 176.827 5.49917C176.94 5.52041 177.078 5.51678 177.225 5.50061C177.318 5.49003 177.418 5.48128 177.514 5.47411C177.558 5.4711 177.611 5.4712 177.644 5.47521C177.802 5.49701 177.956 5.5161 178.169 5.48574C178.357 5.48166 178.455 5.53512 178.68 5.51197C178.87 5.49208 179.07 5.47956 179.257 5.45697C179.429 5.43657 179.554 5.45009 179.643 5.47041C179.805 5.50628 180.024 5.4349 180.185 5.47006C180.278 5.49023 180.397 5.50405 180.572 5.48421C180.765 5.46274 180.828 5.47447 180.886 5.5164C180.92 5.54034 180.916 5.56128 180.858 5.58426C180.801 5.60795 180.736 5.60776 180.64 5.58916C180.53 5.56848 180.401 5.57022 180.245 5.58401C180.093 5.59764 179.997 5.56553 179.87 5.55787C179.743 5.54949 179.595 5.58219 179.461 5.56985C179.147 5.54121 179.147 5.54121 178.936 5.56075C178.793 5.57392 178.643 5.58456 178.503 5.60185C178.337 5.62266 178.227 5.60625 178.111 5.59228C178.069 5.5873 178.027 5.57592 177.992 5.57847C177.655 5.60671 177.315 5.63439 176.982 5.66959C176.806 5.68801 176.711 5.66728 176.592 5.6556C176.551 5.65133 176.506 5.64081 176.471 5.64407C176.181 5.66916 175.894 5.69693 175.604 5.72415C175.549 5.74627 175.489 5.76797 175.437 5.79136C175.383 5.81561 175.307 5.82883 175.196 5.83393C175.011 5.84355 174.831 5.88291 174.643 5.85482C174.45 5.82632 174.436 5.82921 174.251 5.84809C174.017 5.87241 173.767 5.88255 173.549 5.92175C173.511 5.92872 173.471 5.94437 173.472 5.95434C173.469 5.96089 173.531 5.96694 173.57 5.97065C173.7 5.981 173.848 5.94831 173.978 5.95938C174.064 5.96634 174.136 5.97974 174.222 5.98741C174.257 5.99056 174.31 5.9871 174.357 5.98395C174.407 5.98064 174.453 5.97322 174.5 5.97148C174.544 5.9699 174.592 5.97172 174.627 5.97629C174.791 5.99493 174.962 6.01099 175.108 6.03552C175.251 6.0595 175.382 6.03128 175.523 6.02253C176.089 6.04301 176.089 6.04372 176.467 6.00836C176.561 5.99991 176.657 5.99061 176.754 5.98628C176.795 5.98414 176.834 5.99496 176.876 5.99993C176.995 6.01517 177.107 6.02858 177.271 6.00864C177.411 5.99135 177.561 5.98142 177.704 5.96753C177.898 5.94963 177.898 5.94963 178.229 5.97735C178.312 5.98446 178.4 5.97846 178.505 5.96727C178.596 5.95755 178.691 5.96334 178.756 5.98061C178.783 5.98778 178.776 6.00247 178.785 6.01411C178.495 6.04061 178.202 6.06372 177.921 6.09546C177.74 6.1156 177.656 6.08928 177.535 6.07918C177.493 6.07562 177.448 6.06582 177.41 6.06923C177.123 6.09487 176.836 6.12193 176.55 6.15113C176.514 6.15438 176.471 6.17304 176.469 6.18316C176.464 6.20197 176.539 6.21594 176.645 6.20973C176.785 6.20169 176.923 6.18241 177.051 6.20501C177.158 6.22513 177.291 6.22966 177.446 6.21017C177.539 6.19888 177.639 6.19368 177.733 6.1831C177.981 6.15304 178.207 6.14484 178.398 6.18345C178.543 6.18878 178.683 6.16935 178.821 6.15576C178.923 6.14544 179.022 6.13526 179.097 6.14496C179.254 6.16533 179.408 6.18585 179.622 6.15549C179.855 6.16334 180.033 6.19616 180.229 6.22024C180.321 6.23187 180.392 6.23746 180.497 6.22129C180.541 6.21473 180.594 6.21197 180.641 6.20739C180.737 6.1988 180.839 6.18277 180.928 6.18246C181.016 6.18286 181.091 6.19968 181.171 6.20837C181.21 6.21278 181.254 6.22117 181.292 6.21847C181.439 6.20727 181.582 6.19268 181.726 6.1795C181.869 6.16703 182.013 6.15457 182.156 6.1421C182.278 6.15434 182.402 6.16643 182.524 6.17867C182.717 6.16076 182.91 6.14284 183.101 6.1258C183.314 6.10611 183.314 6.10683 183.625 6.13491C183.765 6.14765 183.911 6.1272 184.042 6.11108C184.261 6.08468 184.41 6.10409 184.567 6.12446C184.6 6.12847 184.659 6.12897 184.697 6.12414C184.849 6.10623 184.981 6.10719 185.094 6.12771C185.175 6.14209 185.255 6.14651 185.351 6.13791C185.688 6.10682 186.025 6.07502 186.362 6.04536C186.403 6.0418 186.45 6.04576 186.488 6.04947C186.791 6.07729 186.794 6.07927 187.013 6.05643C187.209 6.03624 187.391 6.02249 187.549 6.05354C187.582 6.0604 187.632 6.0699 187.668 6.06736C187.908 6.04771 188.151 6.0272 188.388 6.00273C188.496 5.99139 188.573 5.98956 188.659 6.0015C188.769 6.01648 188.867 6.03635 189.046 6.01778C189.54 5.96563 189.543 5.96974 190.134 5.9883C190.175 5.98972 190.23 5.98112 190.277 5.97583C190.376 5.96352 190.45 5.96967 190.539 5.98146C190.738 6.00823 190.744 6.00578 190.932 5.98818C191.075 5.97429 191.225 5.96508 191.365 5.94707C191.581 5.92011 191.727 5.94038 191.89 5.95831C192.02 5.97223 192.169 5.94736 192.306 5.93377C192.456 5.91887 192.591 5.91397 192.704 5.93521C192.782 5.94974 192.864 5.95543 192.961 5.94683C193.298 5.91646 193.635 5.88465 193.971 5.85428C194.012 5.85072 194.063 5.85381 194.101 5.85681C194.438 5.88352 194.439 5.88565 194.769 5.85203C194.875 5.84155 194.963 5.83554 195.043 5.84636C195.12 5.85662 195.203 5.86586 195.283 5.87526C195.427 5.86279 195.573 5.85374 195.714 5.83786C195.822 5.82581 195.898 5.82469 195.984 5.8352C196.097 5.84861 196.193 5.87716 196.368 5.85163C196.459 5.83906 196.565 5.8357 196.655 5.82385C196.763 5.80895 196.837 5.81082 196.923 5.82489C197.03 5.84145 197.14 5.85857 197.31 5.83833C197.497 5.81574 197.696 5.80322 197.887 5.78333C197.992 5.77214 198.066 5.77401 198.152 5.78809C198.259 5.80607 198.38 5.81475 198.544 5.79695C198.878 5.76175 198.881 5.76515 199.21 5.79303C199.292 5.80013 199.38 5.79413 199.486 5.78294C199.576 5.77322 199.671 5.77901 199.737 5.79629C199.8 5.81585 199.795 5.83038 199.802 5.84218ZM173.243 0.78533C173.146 0.793929 173.049 0.803241 172.905 0.748663C172.895 0.738447 172.9 0.725333 172.879 0.717151C172.831 0.700382 172.757 0.69068 172.669 0.693128C172.51 0.698529 172.321 0.732651 172.325 0.751C172.329 0.766502 172.379 0.777424 172.477 0.785192C172.518 0.788035 172.551 0.794893 172.59 0.7986C172.702 0.809163 172.792 0.836608 172.953 0.81184C172.921 0.769248 172.937 0.790544 172.953 0.81184C172.94 0.839645 172.985 0.856569 173.091 0.858897C173.121 0.859504 173.165 0.855785 173.188 0.850294C173.278 0.829903 173.291 0.807797 173.22 0.755094C173.209 0.764956 173.219 0.780858 173.246 0.783753C173.272 0.786648 173.337 0.779735 173.369 0.773073C173.45 0.755276 173.49 0.735345 173.468 0.72147C173.456 0.714253 173.4 0.707195 173.365 0.709027C173.303 0.712235 173.248 0.73079 173.243 0.78533ZM197.495 7.80271C197.281 7.82738 197.034 7.83523 196.822 7.87413C196.784 7.8811 196.746 7.8959 196.744 7.90601C196.742 7.91257 196.801 7.91877 196.836 7.92192C196.916 7.92918 197.004 7.92103 197.107 7.91213C197.262 7.89905 197.355 7.92705 197.476 7.93716C197.515 7.94015 197.565 7.94111 197.606 7.93755C197.843 7.91664 198.078 7.89518 198.315 7.87284C198.356 7.86857 198.399 7.86129 198.434 7.85305C198.55 7.8263 198.538 7.8134 198.422 7.8037C198.295 7.79319 198.193 7.76991 198.063 7.76311C197.877 7.75352 197.691 7.78892 197.495 7.80271ZM180.857 9.18963C180.713 9.20281 180.573 9.21584 180.429 9.22901C180.382 9.23359 180.332 9.2369 180.289 9.24203C180.198 9.25175 180.131 9.27021 180.089 9.29598C180.157 9.31097 180.24 9.31736 180.331 9.31049C180.475 9.29874 180.615 9.28216 180.759 9.27254C180.914 9.2616 181.007 9.28889 181.129 9.29899C181.167 9.30199 181.214 9.30025 181.258 9.29867C181.475 9.29022 181.605 9.24634 181.561 9.19653C181.529 9.1575 181.416 9.13911 181.281 9.15112C181.141 9.16343 180.997 9.17661 180.857 9.18963ZM198.433 6.69872C198.467 6.68479 198.505 6.67426 198.522 6.66267C198.572 6.62363 198.55 6.59766 198.451 6.57424C198.332 6.54548 198.19 6.57644 198.058 6.58688C198.025 6.58927 197.991 6.60604 197.974 6.61621C197.963 6.62323 197.964 6.63675 197.981 6.63939C198.127 6.66037 198.281 6.67875 198.433 6.69872ZM172.836 5.92171C172.696 5.93474 172.552 5.94649 172.412 5.96165C172.377 5.96562 172.345 5.98082 172.325 5.99114C172.288 6.0102 172.331 6.03155 172.451 6.02742C172.589 6.02309 172.732 6.00351 172.876 5.99033C173.058 5.97374 173.164 5.94176 173.096 5.9225C173.03 5.9038 172.941 5.90412 172.836 5.92171ZM18.2221 12.4414C18.3159 12.433 18.4125 12.4251 18.5062 12.4152C18.5939 12.4057 18.6605 12.3865 18.7031 12.3607C18.6285 12.346 18.5457 12.3403 18.4548 12.3472C18.3113 12.359 18.1707 12.372 18.0303 12.3864C17.9425 12.3953 17.8583 12.4154 17.8393 12.4406C17.8199 12.4602 18.0172 12.4607 18.2221 12.4414ZM160.32 4.93739C160.359 4.94181 160.398 4.95263 160.436 4.95065C160.53 4.94576 160.627 4.93644 160.714 4.92474C160.752 4.91991 160.781 4.90558 160.798 4.8947C160.809 4.88769 160.806 4.87645 160.788 4.87168C160.7 4.84195 160.36 4.87177 160.307 4.91381C160.302 4.92123 160.317 4.92971 160.32 4.93739ZM150.815 1.52255C150.825 1.53348 150.829 1.54471 150.841 1.55548C150.866 1.57561 150.931 1.58791 151.026 1.5937C151.098 1.57209 151.135 1.55018 151.131 1.52898C151.127 1.51775 151.118 1.50681 151.105 1.49604C151.081 1.47591 151.015 1.46362 150.92 1.45784C150.848 1.47873 150.814 1.50049 150.815 1.52255ZM205.323 8.04077C205.297 8.0514 205.271 8.06202 205.242 8.07209C205.323 8.0886 205.396 8.09118 205.451 8.0769C205.486 8.06794 205.506 8.0562 205.532 8.04558C205.451 8.02906 205.381 8.02704 205.323 8.04077ZM203.503 8.23256C203.541 8.23697 203.577 8.24368 203.618 8.24581C203.686 8.24941 203.747 8.23411 203.793 8.20605C203.754 8.20163 203.718 8.19492 203.677 8.19279C203.609 8.18918 203.548 8.20449 203.503 8.23256ZM204.651 8.04215C204.632 8.0603 204.674 8.07239 204.783 8.07884C204.809 8.06821 204.844 8.05784 204.861 8.04696C204.889 8.02906 204.838 8.01672 204.732 8.01083C204.703 8.0209 204.677 8.03153 204.651 8.04215ZM198.406 7.59749C198.387 7.61563 198.429 7.62773 198.538 7.63417C198.564 7.62355 198.599 7.61317 198.616 7.6023C198.644 7.5844 198.593 7.57205 198.487 7.56617C198.458 7.57623 198.432 7.58686 198.406 7.59749ZM189.649 3.00146C189.624 3.01209 189.598 3.02272 189.569 3.03278C189.649 3.04929 189.723 3.05188 189.778 3.03759C189.813 3.02864 189.833 3.0169 189.859 3.00627C189.778 2.98976 189.707 2.98773 189.649 3.00146ZM181.395 0.750911C181.466 0.752226 181.524 0.739211 181.572 0.710285C181.534 0.705866 181.498 0.699161 181.457 0.697029C181.389 0.693427 181.328 0.708733 181.282 0.736794C181.321 0.741925 181.36 0.746339 181.395 0.750911ZM177.09 0.807151C177.064 0.817777 177.039 0.828403 177.01 0.83847C177.09 0.854982 177.164 0.857566 177.219 0.843278C177.254 0.83433 177.274 0.822585 177.3 0.81196C177.219 0.795448 177.148 0.794133 177.09 0.807151ZM147.927 1.67214C147.901 1.68276 147.875 1.69339 147.847 1.70346C147.927 1.71997 148.001 1.72255 148.056 1.70827C148.091 1.69932 148.111 1.68757 148.136 1.67695C148.056 1.66043 147.985 1.65912 147.927 1.67214ZM3.28058 15.0073C3.24201 15.0029 3.20349 14.9984 3.16782 14.9932C3.08389 15.0168 3.05859 15.036 3.1064 15.047C3.13629 15.0541 3.1806 15.0567 3.21916 15.0612C3.30603 15.0374 3.3255 15.0192 3.28058 15.0073Z" fill="#FFE492"/>
</svg>
