<svg width="34" height="34" viewBox="0 0 34 34" fill="none" xmlns="http://www.w3.org/2000/svg">
<path d="M11.0487 2.83398H22.9487C27.482 2.83398 31.1654 6.51732 31.1654 11.0507V22.9507C31.1654 25.1298 30.2997 27.2198 28.7588 28.7607C27.2178 30.3016 25.1279 31.1673 22.9487 31.1673H11.0487C6.51536 31.1673 2.83203 27.484 2.83203 22.9507V11.0507C2.83203 8.87146 3.69771 6.78151 5.23864 5.24059C6.77956 3.69967 8.8695 2.83398 11.0487 2.83398ZM10.7654 5.66732C9.41276 5.66732 8.11556 6.20464 7.15912 7.16107C6.20268 8.11751 5.66536 9.41471 5.66536 10.7673V23.234C5.66536 26.0532 7.9462 28.334 10.7654 28.334H23.232C24.5846 28.334 25.8818 27.7967 26.8383 26.8402C27.7947 25.8838 28.332 24.5866 28.332 23.234V10.7673C28.332 7.94815 26.0512 5.66732 23.232 5.66732H10.7654ZM24.4362 7.79232C24.9059 7.79232 25.3563 7.97889 25.6884 8.31098C26.0205 8.64308 26.207 9.0935 26.207 9.56315C26.207 10.0328 26.0205 10.4832 25.6884 10.8153C25.3563 11.1474 24.9059 11.334 24.4362 11.334C23.9665 11.334 23.5161 11.1474 23.184 10.8153C22.8519 10.4832 22.6654 10.0328 22.6654 9.56315C22.6654 9.0935 22.8519 8.64308 23.184 8.31098C23.5161 7.97889 23.9665 7.79232 24.4362 7.79232ZM16.9987 9.91732C18.8773 9.91732 20.679 10.6636 22.0074 11.992C23.3358 13.3204 24.082 15.122 24.082 17.0007C24.082 18.8793 23.3358 20.6809 22.0074 22.0093C20.679 23.3377 18.8773 24.084 16.9987 24.084C15.1201 24.084 13.3184 23.3377 11.99 22.0093C10.6616 20.6809 9.91537 18.8793 9.91537 17.0007C9.91537 15.122 10.6616 13.3204 11.99 11.992C13.3184 10.6636 15.1201 9.91732 16.9987 9.91732ZM16.9987 12.7507C15.8715 12.7507 14.7905 13.1984 13.9935 13.9954C13.1965 14.7925 12.7487 15.8735 12.7487 17.0007C12.7487 18.1278 13.1965 19.2088 13.9935 20.0059C14.7905 20.8029 15.8715 21.2507 16.9987 21.2507C18.1259 21.2507 19.2069 20.8029 20.0039 20.0059C20.8009 19.2088 21.2487 18.1278 21.2487 17.0007C21.2487 15.8735 20.8009 14.7925 20.0039 13.9954C19.2069 13.1984 18.1259 12.7507 16.9987 12.7507Z" fill="black"/>
</svg>
