<svg width="34" height="34" viewBox="0 0 34 34" fill="none" xmlns="http://www.w3.org/2000/svg">
<path d="M9.30608 3.1875H18.3189C19.1746 3.1875 19.8801 3.1875 20.4552 3.23425C21.0517 3.28383 21.6013 3.38867 22.117 3.65075C22.9167 4.05821 23.5668 4.70835 23.9743 5.508C24.2377 6.02367 24.3426 6.57333 24.3907 7.16975C24.4375 7.74492 24.4375 8.45042 24.4375 9.30608V9.5625H25.0042C25.7167 9.5625 26.3047 9.5625 26.7849 9.59508C27.2836 9.62908 27.7454 9.70275 28.1888 9.8855C28.7046 10.0991 29.1733 10.4122 29.568 10.807C29.9628 11.2017 30.2759 11.6704 30.4895 12.1862C30.6737 12.6296 30.7445 13.0914 30.7799 13.5887C30.8125 14.0703 30.8125 14.6582 30.8125 15.3694V15.4431C30.8125 16.1542 30.8125 16.7422 30.7799 17.2224C30.7595 17.682 30.6692 18.1358 30.5122 18.5682C29.6951 21.3532 28.2024 23.8929 26.1668 25.9616C24.1312 28.0304 21.6159 29.5639 18.8445 30.4257L18.5767 30.5093C18.1423 30.6699 17.6852 30.7608 17.2224 30.7785C16.7407 30.8125 16.1542 30.8125 15.4431 30.8125H15.3694C14.6582 30.8125 14.0703 30.8125 13.5901 30.7799C13.0914 30.7459 12.6296 30.6722 12.1862 30.4895C11.6704 30.2759 11.2017 29.9628 10.807 29.568C10.4122 29.1733 10.0991 28.7046 9.8855 28.1888C9.70133 27.7454 9.6305 27.2836 9.59508 26.7863C9.5625 26.3047 9.5625 25.7167 9.5625 25.0056V24.4375H9.3075C8.45183 24.4375 7.74492 24.4375 7.16975 24.3907C6.57333 24.3412 6.02367 24.2377 5.508 23.9743C4.70835 23.5668 4.05821 22.9167 3.65075 22.117C3.38867 21.6013 3.28242 21.0517 3.23425 20.4552C3.1875 19.8801 3.1875 19.1746 3.1875 18.3189V9.30608C3.1875 8.45042 3.1875 7.74492 3.23425 7.16975C3.28383 6.57333 3.38867 6.02367 3.65075 5.508C4.05821 4.70835 4.70835 4.05821 5.508 3.65075C6.02367 3.38867 6.57333 3.28242 7.16975 3.23425C7.74492 3.1875 8.45042 3.1875 9.30608 3.1875ZM11.6875 24.9688C11.6875 25.7253 11.6875 26.2409 11.7158 26.6404C11.7413 27.0314 11.7909 27.234 11.849 27.3757C11.9558 27.6336 12.1123 27.8679 12.3097 28.0653C12.5071 28.2627 12.7414 28.4192 12.9993 28.526C13.141 28.5841 13.3436 28.6337 13.7346 28.6592C14.1341 28.6875 14.6497 28.6875 15.4062 28.6875C16.1627 28.6875 16.6784 28.6875 17.0779 28.6592C17.4689 28.6337 17.6715 28.5841 17.8132 28.526C18.0711 28.4192 18.3054 28.2627 18.5028 28.0653C18.7001 27.8679 18.8567 27.6336 18.9635 27.3757C19.0216 27.234 19.0697 27.0314 19.0967 26.6404C19.125 26.2409 19.125 25.7253 19.125 24.9688V24.9319C19.125 24.2208 19.125 23.6328 19.1576 23.1526C19.1916 22.6539 19.2652 22.1921 19.448 21.7487C19.6616 21.2329 19.9747 20.7642 20.3695 20.3695C20.7642 19.9747 21.2329 19.6616 21.7487 19.448C22.1921 19.2638 22.6539 19.193 23.1512 19.1576C23.6328 19.125 24.2208 19.125 24.9319 19.125H24.9688C25.7253 19.125 26.2409 19.125 26.6404 19.0967C27.0314 19.0697 27.234 19.0216 27.3757 18.9635C27.6336 18.8567 27.8679 18.7001 28.0653 18.5028C28.2627 18.3054 28.4192 18.0711 28.526 17.8132C28.5841 17.6715 28.6337 17.4689 28.6592 17.0779C28.6875 16.6784 28.6875 16.1627 28.6875 15.4062C28.6875 14.6497 28.6875 14.1341 28.6592 13.7346C28.6337 13.3436 28.5841 13.141 28.526 12.9993C28.4192 12.7414 28.2627 12.5071 28.0653 12.3097C27.8679 12.1123 27.6336 11.9558 27.3757 11.849C27.234 11.7909 27.0314 11.7413 26.6404 11.7158C26.2409 11.6875 25.7253 11.6875 24.9688 11.6875H15.725C14.8155 11.6875 14.195 11.6875 13.7176 11.7272C13.2515 11.7654 13.0135 11.8348 12.8477 11.9184C12.4476 12.1222 12.1222 12.4476 11.9184 12.8477C11.8334 13.0135 11.7654 13.2515 11.7272 13.7176C11.6889 14.1964 11.6875 14.8155 11.6875 15.725V24.9688Z" fill="black"/>
</svg>
