<svg width="62" height="62" viewBox="0 0 62 62" fill="none" xmlns="http://www.w3.org/2000/svg">
<circle cx="31" cy="31" r="30.5" fill="#EAFEFF" stroke="#EAEAEA"/>
<circle cx="31" cy="31" r="31" fill="#DEE8F6"/>
<path d="M21.0225 51.456C21.0761 51.656 20.9562 51.8636 20.7563 51.9171L19.2408 52.3232C19.0407 52.3768 18.8332 52.257 18.7796 52.057L16.0633 41.9198C16.0097 41.7198 16.1295 41.5122 16.3295 41.4586L17.8451 41.0525C18.0451 40.9989 18.2526 41.1188 18.3062 41.3188L21.0225 51.456ZM46.9904 16.2316H45.8216C45.4707 16.2316 45.1836 16.5187 45.1836 16.8695V25.7814C45.1836 26.1322 45.4707 26.4194 45.8216 26.4194H46.9904C47.3412 26.4194 47.6284 26.1323 47.6284 25.7814V16.8695C47.6284 16.5187 47.3412 16.2316 46.9904 16.2316ZM34.7637 18.625H28.2684C27.9484 18.625 27.6866 18.8867 27.6866 19.2067V19.7399C27.6866 20.0599 27.9484 20.3216 28.2684 20.3216H33.7449L35.3455 19.3975V19.2067C35.3454 18.8868 35.0837 18.625 34.7637 18.625ZM28.2684 17.4532H34.7637C34.9305 17.4532 35.0922 17.4768 35.2453 17.5209C37.127 15.0736 36.3447 13.2515 33.7089 15.3289C33.517 15.4803 33.2162 15.4088 33.1347 15.1927C32.7873 14.2715 32.1921 13.664 31.516 13.664C30.8399 13.664 30.2447 14.2715 29.8973 15.1927C29.8159 15.4088 29.5149 15.4802 29.3231 15.3289C26.6873 13.2515 25.905 15.0736 27.7867 17.521C27.9399 17.4768 28.1015 17.4532 28.2684 17.4532ZM26.6305 28.2281C26.6305 26.5083 25.9838 24.9399 24.9207 23.7518C25.6203 22.7868 26.4235 21.9163 27.276 21.1836C27.5587 21.3788 27.9007 21.4936 28.2683 21.4936H32.572C32.0616 22.4055 32.028 23.5572 32.5855 24.523C33.426 25.9787 35.3082 26.4831 36.7639 25.6426L38.6532 24.5517C39.8551 26.4549 40.6381 28.6508 40.6381 30.8528C40.6381 37.0714 36.554 39.2195 31.5159 39.2195C27.5337 39.2195 24.148 37.8767 22.9037 34.2431C25.1127 33.1433 26.6305 30.8631 26.6305 28.2281ZM28.9909 28.4257C28.9909 29.7247 30.0516 30.7855 31.3506 30.7855H31.6813C32.3334 30.7855 32.8692 31.3212 32.8692 31.9733C32.8692 32.6255 32.3335 33.1612 31.6813 33.1612H31.516C30.8639 33.1612 30.3282 32.6255 30.3282 31.9734C30.3282 31.6498 30.0659 31.3874 29.7423 31.3874C29.4187 31.3874 29.1563 31.6498 29.1563 31.9734C29.1563 33.0495 29.8923 33.992 30.9302 34.2592V34.9487C30.9302 35.2723 31.1925 35.5346 31.5161 35.5346C31.8397 35.5346 32.102 35.2723 32.102 34.9487V34.2954C33.2187 34.0928 34.0412 33.1118 34.0412 31.9734C34.0412 30.6744 32.9804 29.6137 31.6814 29.6137H31.3507C30.6986 29.6137 30.1629 29.0779 30.1629 28.4258C30.1629 27.7737 30.6985 27.238 31.3507 27.238H31.5161C32.1682 27.238 32.7039 27.7737 32.7039 28.4258C32.7039 28.7494 32.9662 29.0117 33.2898 29.0117C33.6134 29.0117 33.8758 28.7494 33.8758 28.4258C33.8758 27.3497 33.1398 26.4073 32.102 26.14V25.4504C32.102 25.1268 31.8397 24.8645 31.5161 24.8645C31.1925 24.8645 30.9302 25.1268 30.9302 25.4504V26.1038C29.8134 26.3064 28.9909 27.2873 28.9909 28.4257ZM21.2739 30.0888C21.2739 30.3635 21.5013 30.5882 21.7755 30.5882C22.0515 30.5882 22.275 30.3648 22.275 30.0888C22.275 29.8129 22.0516 29.5894 21.7755 29.5894C21.5 29.5894 21.2739 29.8126 21.2739 30.0888ZM18.5535 26.3673C18.5535 26.0913 18.33 25.8679 18.0541 25.8679C17.7781 25.8679 17.5546 26.0913 17.5546 26.3673C17.5546 26.6432 17.778 26.8667 18.0541 26.8667C18.3301 26.8667 18.5535 26.6432 18.5535 26.3673ZM19.9149 33.7719C16.8532 33.7719 14.3711 31.2898 14.3711 28.2281C14.3711 25.1663 16.8532 22.6842 19.9149 22.6842C22.9766 22.6842 25.4587 25.1663 25.4587 28.2281C25.4587 31.2898 22.9766 33.7719 19.9149 33.7719ZM21.7756 28.4175C20.8527 28.4175 20.1043 29.166 20.1043 30.0889C20.1043 31.0133 20.8513 31.7602 21.7756 31.7602C22.6985 31.7602 23.447 31.0117 23.447 30.0888C23.447 29.166 22.6985 28.4175 21.7756 28.4175ZM18.0541 28.0386C18.977 28.0386 19.7254 27.2902 19.7254 26.3673C19.7254 25.4444 18.977 24.696 18.0541 24.696C17.1312 24.696 16.3827 25.4444 16.3827 26.3673C16.3827 27.2902 17.1312 28.0386 18.0541 28.0386ZM18.2279 30.7437L22.4305 26.541C22.6593 26.3123 22.6593 25.9413 22.4305 25.7124C22.2017 25.4837 21.8308 25.4837 21.602 25.7124L17.3994 29.9151C17.1706 30.1438 17.1706 30.5149 17.3994 30.7437C17.628 30.9724 17.9991 30.9724 18.2279 30.7437ZM44.0116 17.0177C41.3687 16.7474 39.5367 15.9671 37.7614 14.9987C37.6539 14.94 37.543 14.8941 37.4305 14.8607C37.5967 15.9869 36.9152 17.2535 36.198 18.201C36.399 18.4862 36.5173 18.8333 36.5173 19.2067V19.7399C36.5173 19.8615 36.5048 19.9803 36.4809 20.0951L34.2912 21.3594C33.3924 21.8783 33.0817 23.0381 33.6005 23.9369C34.1187 24.8345 35.2805 25.1458 36.1781 24.6276L39.0116 22.9917C39.8317 24.117 40.5109 25.3516 40.9946 26.6327H41.8523C42.6347 26.6327 43.3794 26.4632 44.0516 26.1593C44.0256 26.0374 44.0118 25.911 44.0118 25.7813V17.0177H44.0116ZM40.9684 42.0481L34.7288 45.6506C34.3795 46.1163 33.8782 46.4732 33.2748 46.6349L30.1236 47.4792C29.4299 47.6651 28.6978 47.6813 28.0027 47.4937C27.6905 47.4103 27.5049 47.0895 27.5884 46.7773C27.6718 46.4651 27.9925 46.2795 28.3048 46.363C28.8173 46.5013 29.3105 46.4854 29.8215 46.3485L32.9727 45.5042C33.7809 45.2877 34.268 44.4477 34.0506 43.6361C33.8337 42.8263 32.9916 42.3413 32.1824 42.5581L30.0275 43.1356C29.4819 43.2817 28.9437 43.3199 28.415 43.2503C27.8885 43.181 27.3785 43.0044 26.8873 42.7208C25.9294 42.1677 24.9688 41.6176 24.0123 41.0622C23.3068 40.6549 22.4366 40.9815 21.2988 41.4086C20.8105 41.5919 20.2801 41.791 19.6927 41.9651L21.9284 50.3085C23.9263 50.0528 25.362 50.4622 27.1609 50.9752C27.5189 51.0773 27.8918 51.1836 28.2621 51.2829C28.6227 51.3795 28.971 51.4057 29.3055 51.3617C29.6401 51.3177 29.9691 51.2027 30.2908 51.0169C34.2559 48.7275 38.2252 46.44 42.1877 44.1492C42.7591 43.8165 42.9576 43.0651 42.6266 42.4932C42.2946 41.9185 41.5433 41.7154 40.9684 42.0481Z" fill="#003478"/>
</svg>
