<svg width="35" height="35" viewBox="0 0 35 35" fill="none" xmlns="http://www.w3.org/2000/svg">
<path d="M8.7692 33.649C8.81609 33.824 8.71123 34.0057 8.5363 34.0525L7.21019 34.4078C7.03513 34.4547 6.85356 34.3499 6.80667 34.1748L4.42988 25.3048C4.38299 25.1298 4.48785 24.9482 4.66285 24.9013L5.98895 24.5459C6.16395 24.4991 6.34552 24.6039 6.39241 24.7789L8.7692 33.649ZM31.4911 2.82762H30.4684C30.1614 2.82762 29.9102 3.07885 29.9102 3.38585V11.1837C29.9102 11.4907 30.1614 11.742 30.4684 11.742H31.4911C31.7981 11.742 32.0493 11.4907 32.0493 11.1837V3.38578C32.0493 3.07885 31.7981 2.82762 31.4911 2.82762ZM20.7928 4.92188H15.1093C14.8293 4.92188 14.6003 5.15089 14.6003 5.43089V5.89737C14.6003 6.17737 14.8293 6.40637 15.1093 6.40637H19.9013L21.3018 5.59782V5.43089C21.3017 5.15095 21.0727 4.92188 20.7928 4.92188ZM15.1093 3.89656H20.7928C20.9387 3.89656 21.0802 3.9172 21.2142 3.95576C22.8606 1.8144 22.1761 0.220056 19.8698 2.0378C19.7019 2.17021 19.4387 2.10773 19.3674 1.91858C19.0634 1.11256 18.5426 0.580994 17.951 0.580994C17.3594 0.580994 16.8386 1.11256 16.5347 1.91858C16.4635 2.10773 16.2001 2.17014 16.0322 2.0378C13.7259 0.220056 13.0414 1.8144 14.6879 3.95583C14.8219 3.9172 14.9633 3.89656 15.1093 3.89656ZM13.6762 13.3245C13.6762 11.8198 13.1104 10.4474 12.1801 9.40783C12.7923 8.56346 13.4951 7.80173 14.241 7.16065C14.4883 7.33148 14.7876 7.4319 15.1093 7.4319H18.875C18.4284 8.22979 18.399 9.23755 18.8869 10.0826C19.6223 11.3563 21.2692 11.7977 22.5429 11.0623L24.1961 10.1078C25.2477 11.7731 25.9329 13.6944 25.9329 15.6212C25.9329 21.0625 22.3592 22.942 17.951 22.942C14.4665 22.942 11.5041 21.7671 10.4152 18.5877C12.3481 17.6254 13.6762 15.6302 13.6762 13.3245ZM15.7416 13.4975C15.7416 14.6341 16.6697 15.5623 17.8063 15.5623H18.0957C18.6663 15.5623 19.1351 16.031 19.1351 16.6016C19.1351 17.1723 18.6663 17.641 18.0957 17.641H17.951C17.3804 17.641 16.9117 17.1723 16.9117 16.6017C16.9117 16.3186 16.6821 16.089 16.399 16.089C16.1158 16.089 15.8863 16.3186 15.8863 16.6017C15.8863 17.5433 16.5303 18.368 17.4384 18.6018V19.2051C17.4384 19.4882 17.6679 19.7178 17.9511 19.7178C18.2342 19.7178 18.4638 19.4882 18.4638 19.2051V18.6335C19.4409 18.4561 20.1605 17.5978 20.1605 16.6017C20.1605 15.4651 19.2324 14.537 18.0957 14.537H17.8064C17.2358 14.537 16.767 14.0682 16.767 13.4976C16.767 12.927 17.2357 12.4582 17.8064 12.4582H17.9511C18.5217 12.4582 18.9904 12.927 18.9904 13.4976C18.9904 13.7807 19.22 14.0103 19.5031 14.0103C19.7863 14.0103 20.0158 13.7807 20.0158 13.4976C20.0158 12.556 19.3719 11.7314 18.4638 11.4975V10.8941C18.4638 10.611 18.2342 10.3814 17.9511 10.3814C17.6679 10.3814 17.4384 10.611 17.4384 10.8941V11.4658C16.4612 11.6431 15.7416 12.5014 15.7416 13.4975ZM8.98918 14.9527C8.98918 15.193 9.18817 15.3897 9.42811 15.3897C9.66956 15.3897 9.86514 15.1942 9.86514 14.9527C9.86514 14.7113 9.66963 14.5157 9.42811 14.5157C9.18701 14.5157 8.98918 14.711 8.98918 14.9527ZM6.60884 11.6964C6.60884 11.4549 6.41326 11.2594 6.17182 11.2594C5.93037 11.2594 5.73479 11.4549 5.73479 11.6964C5.73479 11.9378 5.9303 12.1334 6.17182 12.1334C6.41333 12.1334 6.60884 11.9378 6.60884 11.6964ZM7.80007 18.1754C5.12106 18.1754 2.94922 16.0036 2.94922 13.3245C2.94922 10.6455 5.12106 8.4737 7.80007 8.4737C10.4791 8.4737 12.6508 10.6455 12.6508 13.3245C12.6508 16.0036 10.4791 18.1754 7.80007 18.1754ZM9.42818 13.4903C8.62065 13.4903 7.96577 14.1452 7.96577 14.9528C7.96577 15.7616 8.61942 16.4151 9.42818 16.4151C10.2357 16.4151 10.8906 15.7603 10.8906 14.9527C10.8906 14.1452 10.2357 13.4903 9.42818 13.4903ZM6.17182 13.1588C6.97935 13.1588 7.63423 12.5039 7.63423 11.6964C7.63423 10.8888 6.97935 10.234 6.17182 10.234C5.36436 10.234 4.7094 10.8888 4.7094 11.6964C4.7094 12.5039 5.36429 13.1588 6.17182 13.1588ZM6.32392 15.5257L10.0012 11.8484C10.2014 11.6482 10.2014 11.3236 10.0012 11.1234C9.80102 10.9232 9.47645 10.9232 9.27629 11.1234L5.59896 14.8007C5.39881 15.0009 5.39881 15.3255 5.59896 15.5257C5.79905 15.7259 6.12369 15.7259 6.32392 15.5257ZM28.8847 3.51546C26.5722 3.27893 24.9691 2.59623 23.4157 1.74885C23.3217 1.69751 23.2247 1.65731 23.1262 1.62812C23.2716 2.61352 22.6753 3.72176 22.0477 4.55083C22.2236 4.80041 22.3272 5.10413 22.3272 5.43089V5.89737C22.3272 6.00381 22.3162 6.10778 22.2953 6.2082L20.3793 7.31446C19.5929 7.7685 19.321 8.78337 19.775 9.56977C20.2284 10.3552 21.245 10.6276 22.0304 10.1741L24.5097 8.74269C25.2273 9.72741 25.8215 10.8076 26.2448 11.9286H26.9952C27.6799 11.9286 28.3315 11.7803 28.9197 11.5144C28.8969 11.4077 28.8848 11.2971 28.8848 11.1837V3.51546H28.8847ZM26.2219 25.417L20.7622 28.5692C20.4565 28.9768 20.0179 29.2891 19.49 29.4305L16.7327 30.1693C16.1257 30.332 15.4851 30.3461 14.8768 30.182C14.6037 30.109 14.4413 29.8283 14.5143 29.5551C14.5873 29.282 14.8679 29.1196 15.1412 29.1926C15.5897 29.3136 16.0212 29.2997 16.4683 29.18L19.2257 28.4411C19.9328 28.2517 20.359 27.5167 20.1688 26.8066C19.979 26.098 19.2422 25.6737 18.5341 25.8634L16.6486 26.3686C16.1712 26.4965 15.7002 26.5299 15.2376 26.469C14.777 26.4084 14.3307 26.2538 13.9009 26.0057C13.0627 25.5217 12.2222 25.0404 11.3853 24.5544C10.768 24.198 10.0066 24.4838 9.01099 24.8575C8.58374 25.0179 8.11958 25.1921 7.60565 25.3445L9.56183 32.645C11.31 32.4212 12.5662 32.7794 14.1403 33.2283C14.4536 33.3176 14.7798 33.4107 15.1039 33.4975C15.4193 33.5821 15.7241 33.605 16.0168 33.5665C16.3096 33.528 16.5974 33.4273 16.8789 33.2648C20.3485 31.2616 23.8216 29.26 27.2888 27.2556C27.7888 26.9644 27.9624 26.307 27.6728 25.8066C27.3823 25.3037 26.7249 25.126 26.2219 25.417Z" fill="white"/>
</svg>
