<svg width="62" height="62" viewBox="0 0 62 62" fill="none" xmlns="http://www.w3.org/2000/svg">
<circle cx="31" cy="31" r="30.5" fill="#EAFEFF" stroke="#EAEAEA"/>
<circle cx="31" cy="31" r="31" fill="#DEE8F6"/>
<path fill-rule="evenodd" clip-rule="evenodd" d="M40.3125 46.2823H16.6923C15.2078 46.2823 14.0001 45.0745 14.0001 43.5904V34.9439H43.005V43.5905C43.005 45.0745 41.797 46.2823 40.3125 46.2823ZM26.8099 37.9339H16.9576C16.4332 37.9339 16.4332 37.137 16.9576 37.137H26.8096C27.3339 37.137 27.3341 37.9339 26.8099 37.9339ZM26.8099 40.4646H16.9576C16.4332 40.4646 16.4332 39.6678 16.9576 39.6678H26.8096C27.3339 39.6678 27.3341 40.4646 26.8099 40.4646ZM26.8099 42.9958H16.9576C16.4332 42.9958 16.4332 42.1989 16.9576 42.1989H26.8096C27.3339 42.1989 27.3341 42.9958 26.8099 42.9958ZM39.4828 43.293H38.5482H36.7031H34.8582H33.9239C33.3931 43.293 32.9613 42.8608 32.9613 42.3304V38.0993C32.9613 37.5686 33.3934 37.1367 33.9239 37.1367H39.4828C40.0135 37.1367 40.4454 37.5689 40.4454 38.0993V42.3304C40.4457 42.8608 40.0135 43.293 39.4828 43.293ZM33.9239 37.9335C33.8339 37.9335 33.7581 38.009 33.7581 38.0993V38.616H34.4598V37.9335H33.9239ZM33.7581 39.4129V40.8584H39.6485V39.4129H38.5482H36.7031H34.8582H33.7581ZM33.7581 41.6552V42.3304C33.7581 42.4203 33.8336 42.4961 33.9239 42.4961H34.4598V41.6552H33.7581ZM35.2567 41.6552V42.4961H36.3047V41.6552H35.2567ZM37.1016 41.6552V42.4961H38.1498V41.6552H37.1016ZM38.9466 41.6552V42.4961H39.4828C39.5727 42.4961 39.6485 42.4206 39.6485 42.3304V41.6552H38.9466ZM39.6485 38.616V38.0993C39.6485 38.0093 39.573 37.9335 39.4828 37.9335H38.9466V38.616H39.6485ZM38.1498 38.616V37.9335H37.1016V38.616H38.1498ZM36.3047 38.616V37.9335H35.2567V38.616H36.3047ZM14.0001 34.1467V31.7553H43.005V34.1467H14.0001ZM14.0001 30.9584V29.8425C14.0001 28.358 15.2078 27.1503 16.6923 27.1503L40.3128 27.1504C41.7973 27.1504 43.005 28.3582 43.005 29.8426V30.9584H14.0001Z" fill="#003478"/>
<path fill-rule="evenodd" clip-rule="evenodd" d="M43.7727 29.3881L46.59 30.1365L44.3493 38.4997C44.2547 38.8529 44.0499 39.212 43.8023 39.5172V29.8426C43.8023 29.6886 43.7922 29.5369 43.7727 29.3881ZM17.5762 26.3536L18.5712 22.6399L32.4309 26.3536L17.5762 26.3536ZM18.7774 21.8702L19.3964 19.5601L47.4124 27.0671L46.7935 29.3772L43.5353 28.5041C43.0095 27.2425 41.7636 26.3536 40.3134 26.3536H35.5101L18.7774 21.8702ZM19.6026 18.7904L19.8913 17.7129C20.2761 16.2768 21.7603 15.4262 23.1886 15.8093L46.0044 21.9227C47.4368 22.3065 48.2915 23.7874 47.9074 25.22L47.6188 26.2972L19.6026 18.7904Z" fill="#003478"/>
</svg>
