<svg width="34" height="34" viewBox="0 0 34 34" fill="none" xmlns="http://www.w3.org/2000/svg">
<path fill-rule="evenodd" clip-rule="evenodd" d="M26.3125 32.2823H2.69227C1.20778 32.2823 6.17581e-05 31.0745 6.17581e-05 29.5904V20.9439H29.005V29.5905C29.005 31.0745 27.797 32.2823 26.3125 32.2823ZM12.8099 23.9339H2.95758C2.43317 23.9339 2.43317 23.137 2.95758 23.137H12.8096C13.3339 23.137 13.3341 23.9339 12.8099 23.9339ZM12.8099 26.4646H2.95758C2.43317 26.4646 2.43317 25.6678 2.95758 25.6678H12.8096C13.3339 25.6678 13.3341 26.4646 12.8099 26.4646ZM12.8099 28.9958H2.95758C2.43317 28.9958 2.43317 28.1989 2.95758 28.1989H12.8096C13.3339 28.1989 13.3341 28.9958 12.8099 28.9958ZM25.4828 29.293H24.5482H22.7031H20.8582H19.9239C19.3931 29.293 18.9613 28.8608 18.9613 28.3304V24.0993C18.9613 23.5686 19.3934 23.1367 19.9239 23.1367H25.4828C26.0135 23.1367 26.4454 23.5689 26.4454 24.0993V28.3304C26.4457 28.8608 26.0135 29.293 25.4828 29.293ZM19.9239 23.9335C19.8339 23.9335 19.7581 24.009 19.7581 24.0993V24.616H20.4598V23.9335H19.9239ZM19.7581 25.4129V26.8584H25.6485V25.4129H24.5482H22.7031H20.8582H19.7581ZM19.7581 27.6552V28.3304C19.7581 28.4203 19.8336 28.4961 19.9239 28.4961H20.4598V27.6552H19.7581ZM21.2567 27.6552V28.4961H22.3047V27.6552H21.2567ZM23.1016 27.6552V28.4961H24.1498V27.6552H23.1016ZM24.9466 27.6552V28.4961H25.4828C25.5727 28.4961 25.6485 28.4206 25.6485 28.3304V27.6552H24.9466ZM25.6485 24.616V24.0993C25.6485 24.0093 25.573 23.9335 25.4828 23.9335H24.9466V24.616H25.6485ZM24.1498 24.616V23.9335H23.1016V24.616H24.1498ZM22.3047 24.616V23.9335H21.2567V24.616H22.3047ZM7.96878e-05 20.1467V17.7553H29.005V20.1467H7.96878e-05ZM7.96878e-05 16.9584V15.8425C7.96878e-05 14.358 1.20779 13.1503 2.69229 13.1503L26.3128 13.1504C27.7973 13.1504 29.005 14.3582 29.005 15.8426V16.9584H7.96878e-05Z" fill="white"/>
<path fill-rule="evenodd" clip-rule="evenodd" d="M29.7727 15.3881L32.59 16.1365L30.3493 24.4997C30.2547 24.8529 30.0498 25.212 29.8023 25.5172V15.8426C29.8023 15.6886 29.7922 15.5369 29.7727 15.3881ZM3.57617 12.3536L4.57117 8.63985L18.4309 12.3536L3.57617 12.3536ZM4.77737 7.87019L5.39637 5.5601L33.4124 13.0671L32.7935 15.3772L29.5353 14.5041C29.0095 13.2425 27.7636 12.3536 26.3134 12.3536H21.5101L4.77737 7.87019ZM5.60257 4.79037L5.89128 3.71286C6.27607 2.27675 7.76026 1.42616 9.1886 1.80929L32.0044 7.92274C33.4368 8.30652 34.2915 9.78741 33.9074 11.22L33.6188 12.2972L5.60257 4.79037Z" fill="white"/>
</svg>
