<svg width="32" height="34" viewBox="0 0 32 34" fill="none" xmlns="http://www.w3.org/2000/svg">
<path d="M31.7296 22.1563C31.624 22.5215 31.3816 22.8469 31.0277 23.0408L19.3774 29.4689C18.8275 29.7737 18.2651 29.953 17.6926 30.0075C17.1182 30.0619 16.5312 29.9902 15.9342 29.797L13.4174 28.9742C12.6816 28.7351 11.9511 28.6488 11.234 28.7165C10.5752 28.7803 9.93107 28.9709 9.30818 29.289L5.60006 22.7626L10.0121 20.3268C10.797 19.8938 11.6005 19.6395 12.42 19.5624C13.2388 19.4834 14.0781 19.583 14.9275 19.8619L21.8171 22.1111C22.0901 22.1994 22.3198 22.3635 22.4911 22.574C22.8019 22.9558 22.9128 23.4665 22.7734 23.9446C22.7641 23.9672 22.7561 23.9917 22.7508 24.0163C22.4945 24.7581 21.6983 25.1718 20.9552 24.95C20.9306 24.9387 20.904 24.9314 20.8781 24.9254L15.0729 23.0282C14.7887 22.9379 14.4859 23.0939 14.3956 23.3821C14.3052 23.6683 14.4613 23.9751 14.7435 24.0674L20.5899 25.978C21.2547 26.1944 21.9473 26.1154 22.525 25.8139C23.114 25.5071 23.5902 24.9573 23.7861 24.3138C23.8611 24.0787 23.901 23.8357 23.9063 23.5893L29.6265 20.4324C29.9804 20.2365 30.3815 20.2066 30.7428 20.3155C31.102 20.4231 31.4221 20.6674 31.614 21.0254V21.0274C31.8066 21.3846 31.8365 21.791 31.7296 22.1563ZM24.1945 19.6528L21.8211 20.963L22.1485 21.0705C22.608 21.2213 23.0144 21.5015 23.3212 21.878C23.47 22.0587 23.5902 22.2566 23.6845 22.4651L26.9935 20.6389C26.9689 20.5805 26.941 20.522 26.9105 20.4656C26.3832 19.4854 25.162 19.1182 24.1945 19.6528ZM3.57467 21.3866C3.43189 21.1363 3.11181 21.0499 2.86345 21.1967L0.262322 22.7141C0.0139623 22.8608 -0.074358 23.1849 0.0684155 23.4353L5.92279 33.7395C6.06424 33.9899 6.38365 34.0762 6.634 33.9314L9.23381 32.4121C9.48416 32.2673 9.57048 31.9412 9.42771 31.6909L3.57467 21.3866ZM13.0561 8.50913H14.6074C14.6638 8.50913 14.709 8.46397 14.709 8.40952V7.40413C14.709 7.12921 14.5808 6.88284 14.3816 6.72081V4.26643L15.7615 4.82956C15.8386 4.64495 15.9535 4.47362 16.1022 4.32886C17.4801 2.97351 19.3209 2.22046 21.254 2.22046C23.1871 2.22046 25.0279 2.97351 26.4078 4.32886C26.5565 4.47362 26.6694 4.64495 26.7465 4.82956L28.9976 3.91116C29.1597 3.84542 29.2593 3.69667 29.2593 3.52136C29.2593 3.34472 29.1597 3.19597 28.9976 3.12956L21.414 0.032373C21.3085 -0.010791 21.2015 -0.010791 21.096 0.032373L13.5117 3.1289C13.3497 3.19464 13.2481 3.34339 13.2481 3.52069C13.2481 3.58112 13.2613 3.63956 13.2839 3.69202V6.72081C13.0847 6.88284 12.9565 7.12921 12.9565 7.40413V8.40952C12.9565 8.46397 13.0017 8.50913 13.0561 8.50913ZM25.7663 7.08405V5.41061C25.7663 5.29374 25.7231 5.19214 25.6401 5.10913C24.5106 4.00015 22.9633 3.3155 21.254 3.3155C19.5467 3.3155 17.9994 4.00081 16.8699 5.10913C16.7869 5.19214 16.7437 5.29374 16.7437 5.41061V7.08405C17.9901 6.11452 19.554 5.53679 21.254 5.53679C22.9553 5.53679 24.5199 6.11452 25.7663 7.08405ZM27.5108 12.8893C27.5108 16.3437 24.7098 19.1448 21.254 19.1448C17.7995 19.1448 14.9985 16.3437 14.9985 12.8893C14.9985 9.43483 17.7995 6.63382 21.254 6.63382C24.7098 6.63382 27.5108 9.43483 27.5108 12.8893ZM23.0463 14.1112C23.0463 13.6237 22.8484 13.1815 22.527 12.8614C22.2561 12.5885 21.8961 12.4058 21.497 12.3547C21.4572 12.3454 21.416 12.3414 21.3749 12.3414H21.2334C21.0488 12.3414 20.8795 12.2644 20.7573 12.1422C20.6351 12.02 20.5594 11.852 20.5594 11.6681C20.5594 11.4835 20.6344 11.3141 20.7573 11.1919C20.8795 11.0698 21.0488 10.9941 21.2334 10.9941H21.5156C21.6265 10.9941 21.7281 11.0206 21.8185 11.0658C21.9127 11.1129 21.9951 11.1846 22.0595 11.269C22.2381 11.512 22.5808 11.5625 22.8238 11.3819C23.0669 11.2032 23.1174 10.8606 22.9367 10.6175C22.7727 10.3971 22.5582 10.2144 22.3099 10.0883C22.1518 10.0073 21.9825 9.95081 21.8019 9.92093V9.35249C21.8019 9.04968 21.5575 8.80464 21.254 8.80464C20.9525 8.80464 20.7061 9.04968 20.7061 9.35249V9.97737C20.4292 10.0637 20.1829 10.2164 19.9817 10.4176C19.6616 10.7377 19.4624 11.18 19.4624 11.6674C19.4624 12.1548 19.6616 12.5971 19.9817 12.9172C20.2546 13.1881 20.6138 13.3727 21.0129 13.4239C21.0528 13.4332 21.092 13.4371 21.1351 13.4371H21.2766C21.4612 13.4371 21.6285 13.5122 21.7507 13.635C21.8729 13.7572 21.9499 13.9266 21.9499 14.1112C21.9499 14.2958 21.8729 14.4651 21.7507 14.5873C21.6285 14.7095 21.4605 14.7852 21.2766 14.7852H20.9944C20.8835 14.7852 20.7819 14.7586 20.6915 14.7135C20.5953 14.6663 20.5129 14.5946 20.4505 14.5103C20.2699 14.2672 19.9292 14.2167 19.6861 14.3954C19.4431 14.576 19.3926 14.9187 19.5713 15.1617C19.7366 15.3822 19.9518 15.5648 20.1981 15.691C20.3562 15.77 20.5275 15.8284 20.7061 15.8583V16.4267C20.7061 16.7296 20.9525 16.9746 21.254 16.9746C21.5568 16.9746 21.8038 16.7296 21.8038 16.4267V15.8019C22.0788 15.7155 22.3271 15.5628 22.527 15.3616C22.8484 15.0408 23.0463 14.5986 23.0463 14.1112Z" fill="white"/>
</svg>
