<svg width="62" height="62" viewBox="0 0 62 62" fill="none" xmlns="http://www.w3.org/2000/svg">
<circle cx="31" cy="31" r="31" fill="#DEE8F6"/>
<path d="M46.7296 36.1563C46.624 36.5215 46.3816 36.8469 46.0277 37.0408L34.3774 43.4689C33.8275 43.7737 33.2651 43.953 32.6926 44.0075C32.1182 44.0619 31.5312 43.9902 30.9342 43.797L28.4174 42.9742C27.6816 42.7351 26.9511 42.6488 26.234 42.7165C25.5752 42.7803 24.9311 42.9709 24.3082 43.289L20.6001 36.7626L25.0121 34.3268C25.797 33.8938 26.6005 33.6395 27.42 33.5624C28.2388 33.4834 29.0781 33.583 29.9275 33.8619L36.8171 36.1111C37.0901 36.1994 37.3198 36.3635 37.4911 36.574C37.8019 36.9558 37.9128 37.4665 37.7734 37.9446C37.7641 37.9672 37.7561 37.9917 37.7508 38.0163C37.4945 38.7581 36.6983 39.1718 35.9552 38.95C35.9306 38.9387 35.904 38.9314 35.8781 38.9254L30.0729 37.0282C29.7887 36.9379 29.4859 37.0939 29.3956 37.3821C29.3052 37.6683 29.4613 37.9751 29.7435 38.0674L35.5899 39.978C36.2547 40.1944 36.9473 40.1154 37.525 39.8139C38.114 39.5071 38.5902 38.9573 38.7861 38.3138C38.8611 38.0787 38.901 37.8357 38.9063 37.5893L44.6265 34.4324C44.9804 34.2365 45.3815 34.2066 45.7428 34.3155C46.102 34.4231 46.4221 34.6674 46.614 35.0254V35.0274C46.8066 35.3846 46.8365 35.791 46.7296 36.1563ZM39.1945 33.6528L36.8211 34.963L37.1485 35.0705C37.608 35.2213 38.0144 35.5015 38.3212 35.878C38.47 36.0587 38.5902 36.2566 38.6845 36.4651L41.9935 34.6389C41.9689 34.5805 41.941 34.522 41.9105 34.4656C41.3832 33.4854 40.162 33.1182 39.1945 33.6528ZM18.5747 35.3866C18.4319 35.1363 18.1118 35.0499 17.8635 35.1967L15.2623 36.7141C15.014 36.8608 14.9256 37.1849 15.0684 37.4353L20.9228 47.7395C21.0642 47.9899 21.3836 48.0762 21.634 47.9314L24.2338 46.4121C24.4842 46.2673 24.5705 45.9412 24.4277 45.6909L18.5747 35.3866ZM28.0561 22.5091H29.6074C29.6638 22.5091 29.709 22.464 29.709 22.4095V21.4041C29.709 21.1292 29.5808 20.8828 29.3816 20.7208V18.2664L30.7615 18.8296C30.8386 18.645 30.9535 18.4736 31.1022 18.3289C32.4801 16.9735 34.3209 16.2205 36.254 16.2205C38.1871 16.2205 40.0279 16.9735 41.4078 18.3289C41.5565 18.4736 41.6694 18.645 41.7465 18.8296L43.9976 17.9112C44.1597 17.8454 44.2593 17.6967 44.2593 17.5214C44.2593 17.3447 44.1597 17.196 43.9976 17.1296L36.414 14.0324C36.3085 13.9892 36.2015 13.9892 36.096 14.0324L28.5117 17.1289C28.3497 17.1946 28.2481 17.3434 28.2481 17.5207C28.2481 17.5811 28.2613 17.6396 28.2839 17.692V20.7208C28.0847 20.8828 27.9565 21.1292 27.9565 21.4041V22.4095C27.9565 22.464 28.0017 22.5091 28.0561 22.5091ZM40.7663 21.0841V19.4106C40.7663 19.2937 40.7231 19.1921 40.6401 19.1091C39.5106 18.0001 37.9633 17.3155 36.254 17.3155C34.5467 17.3155 32.9994 18.0008 31.8699 19.1091C31.7868 19.1921 31.7437 19.2937 31.7437 19.4106V21.0841C32.9901 20.1145 34.554 19.5368 36.254 19.5368C37.9553 19.5368 39.5199 20.1145 40.7663 21.0841ZM42.5108 26.8893C42.5108 30.3437 39.7098 33.1448 36.254 33.1448C32.7995 33.1448 29.9985 30.3437 29.9985 26.8893C29.9985 23.4348 32.7995 20.6338 36.254 20.6338C39.7098 20.6338 42.5108 23.4348 42.5108 26.8893ZM38.0463 28.1112C38.0463 27.6237 37.8484 27.1815 37.527 26.8614C37.2561 26.5885 36.8961 26.4058 36.497 26.3547C36.4572 26.3454 36.416 26.3414 36.3749 26.3414H36.2334C36.0488 26.3414 35.8795 26.2644 35.7573 26.1422C35.6351 26.02 35.5594 25.852 35.5594 25.6681C35.5594 25.4835 35.6344 25.3141 35.7573 25.1919C35.8795 25.0698 36.0488 24.9941 36.2334 24.9941H36.5156C36.6265 24.9941 36.7281 25.0206 36.8185 25.0658C36.9127 25.1129 36.9951 25.1846 37.0595 25.269C37.2381 25.512 37.5808 25.5625 37.8238 25.3819C38.0669 25.2032 38.1174 24.8606 37.9367 24.6175C37.7727 24.3971 37.5582 24.2144 37.3099 24.0883C37.1518 24.0073 36.9825 23.9508 36.8019 23.9209V23.3525C36.8019 23.0497 36.5575 22.8046 36.254 22.8046C35.9525 22.8046 35.7061 23.0497 35.7061 23.3525V23.9774C35.4292 24.0637 35.1829 24.2164 34.9817 24.4176C34.6616 24.7377 34.4624 25.18 34.4624 25.6674C34.4624 26.1548 34.6616 26.5971 34.9817 26.9172C35.2546 27.1881 35.6138 27.3727 36.0129 27.4239C36.0528 27.4332 36.092 27.4371 36.1351 27.4371H36.2766C36.4612 27.4371 36.6285 27.5122 36.7507 27.635C36.8729 27.7572 36.9499 27.9266 36.9499 28.1112C36.9499 28.2958 36.8729 28.4651 36.7507 28.5873C36.6285 28.7095 36.4605 28.7852 36.2766 28.7852H35.9944C35.8835 28.7852 35.7819 28.7586 35.6915 28.7135C35.5953 28.6663 35.5129 28.5946 35.4505 28.5103C35.2699 28.2672 34.9292 28.2167 34.6861 28.3954C34.4431 28.576 34.3926 28.9187 34.5713 29.1617C34.7366 29.3822 34.9518 29.5648 35.1981 29.691C35.3562 29.77 35.5275 29.8284 35.7061 29.8583V30.4267C35.7061 30.7296 35.9525 30.9746 36.254 30.9746C36.5568 30.9746 36.8038 30.7296 36.8038 30.4267V29.8019C37.0788 29.7155 37.3271 29.5628 37.527 29.3616C37.8484 29.0408 38.0463 28.5986 38.0463 28.1112Z" fill="#003478"/>
</svg>
