<svg width="62" height="62" viewBox="0 0 62 62" fill="none" xmlns="http://www.w3.org/2000/svg">
<circle cx="31" cy="31" r="30.5" fill="#EAFEFF" stroke="#EAEAEA"/>
<circle cx="31" cy="31" r="31" fill="#DEE8F6"/>
<g clip-path="url(#clip0_1668_444)">
<path fill-rule="evenodd" clip-rule="evenodd" d="M40.5027 30.2464H40.5035L33.4461 30.3004C33.3761 30.2649 33.2987 30.2464 33.2203 30.2464H33.125C33.1194 30.236 33.1162 30.2245 33.1155 30.2127C33.1149 30.2009 33.1169 30.1891 33.1214 30.1782L33.4212 29.2153C34.3728 29.459 35.4828 29.5798 36.5906 29.5798C37.8697 29.5798 39.1445 29.4193 40.1678 29.103L40.5625 30.0609C40.5801 30.0967 40.5892 30.1361 40.5891 30.176C40.5881 30.1842 40.5857 30.1921 40.582 30.1995C40.5767 30.2078 40.5708 30.2156 40.5642 30.2229C40.5563 30.231 40.5468 30.2373 40.5362 30.2414C40.5257 30.2454 40.5143 30.2471 40.5031 30.2464H40.5027ZM27.6511 26.1774L27.9464 25.2294C28.8026 25.4654 29.8864 25.5827 30.9963 25.5827C32.2526 25.5827 33.5402 25.4327 34.5658 25.1392L34.9396 26.0445C34.9666 26.1113 34.9728 26.1574 34.9581 26.1831C34.9514 26.198 34.9403 26.2104 34.9264 26.2188C34.9124 26.2272 34.8962 26.2311 34.8799 26.23C34.8374 26.2308 34.7952 26.2368 34.7541 26.2478L27.7472 26.3018C27.7318 26.3025 27.7164 26.2996 27.7024 26.2931C27.6884 26.2866 27.6761 26.2769 27.6667 26.2647C27.6573 26.2525 27.6509 26.2381 27.6482 26.2229C27.6455 26.2077 27.6465 26.1921 27.6511 26.1774ZM33.9793 27.4231C33.9843 27.4032 33.9961 27.3856 34.0126 27.3733C34.0291 27.361 34.0493 27.3548 34.0698 27.3556L37.8958 27.3151H37.8965L39.3617 27.2994H39.3646C39.378 27.2995 39.3913 27.3009 39.4044 27.3036C39.4084 27.3042 39.4122 27.3054 39.4158 27.3072C39.4173 27.3072 39.4187 27.308 39.4201 27.308C39.4228 27.3089 39.4254 27.31 39.4279 27.3115L39.4293 27.3122L39.7868 28.1785C38.0757 28.6832 35.5494 28.7206 33.7173 28.2644L33.9793 27.423L33.9793 27.4231ZM31.0607 29.6814L30.0699 27.2789L32.9892 27.2561L32.1713 29.8825C32.1347 30.0002 32.1182 30.1232 32.1225 30.2464H31.1601C31.1718 30.0528 31.1376 29.8593 31.0605 29.6814H31.0607ZM41.7793 26.23H36.1133C36.1216 26.0416 36.0871 25.8538 36.0123 25.6807L35.0295 23.2987H40.5479L41.7787 26.23H41.7793ZM28.5998 23.3546L33.8075 23.2991L34.1842 24.2123C32.4556 24.6749 29.8385 24.7076 28.2425 24.2787L28.5092 23.4225C28.5143 23.4025 28.5261 23.385 28.5426 23.3727C28.5591 23.3604 28.5793 23.3541 28.5998 23.3549V23.3546ZM23.648 27.3553L28.9402 27.2992H28.9425C28.9649 27.2981 28.9873 27.3025 29.0076 27.312L29.3651 28.1789C27.6372 28.6935 25.1462 28.7301 23.2955 28.2642L23.5578 27.4228C23.5628 27.4029 23.5746 27.3853 23.5911 27.373C23.6075 27.3607 23.6278 27.3545 23.6483 27.3553H23.648ZM22.7952 30.3027L30.0817 30.2466C30.0979 30.2474 30.114 30.2434 30.1279 30.2351C30.1418 30.2267 30.153 30.2144 30.1599 30.1997C30.1748 30.1742 30.1685 30.128 30.1411 30.0612L29.7459 29.1026C28.7232 29.4187 27.4473 29.5794 26.168 29.5794C25.0599 29.5794 23.9496 29.4592 22.9992 29.2155L22.6992 30.1782C22.6932 30.1925 22.6914 30.2082 22.694 30.2235C22.6967 30.2388 22.7036 30.253 22.714 30.2645C22.7223 30.2777 22.7342 30.2883 22.7483 30.2951C22.7624 30.3019 22.7781 30.3046 22.7936 30.3029L22.7952 30.3027ZM41.5824 30.2466H47.4023L46.1716 27.3153H40.5066L40.6721 27.7169L41.4823 29.6817C41.4944 29.7101 41.5043 29.7371 41.5135 29.7641C41.5164 29.7727 41.5186 29.7798 41.5213 29.7876C41.5271 29.8068 41.5334 29.8253 41.5384 29.8437C41.5413 29.8537 41.5434 29.8637 41.5462 29.8736C41.5505 29.8892 41.5541 29.9056 41.5576 29.9212C41.5597 29.9319 41.5619 29.9418 41.5642 29.9524C41.5671 29.9674 41.5699 29.9816 41.5721 29.9958C41.5735 30.0065 41.5749 30.0171 41.5763 30.0278L41.5806 30.0676C41.5813 30.0782 41.582 30.0888 41.5828 30.0996C41.5834 30.1124 41.5842 30.1244 41.5849 30.1372V30.204C41.5842 30.214 41.5842 30.2239 41.5834 30.2339C41.5829 30.2381 41.5827 30.2424 41.5828 30.2466H41.5824ZM36.6921 16.7451C36.9987 17.1264 37.358 17.4621 37.7591 17.7423C37.3582 17.9898 37.0038 18.3058 36.7121 18.6759C36.4108 18.3277 36.0705 18.0152 35.698 17.7444C36.0829 17.4691 36.4189 17.1314 36.6921 16.7451ZM44.2348 21.3512C44.6004 21.8044 45.028 22.204 45.5049 22.5381C45.0281 22.8326 44.6067 23.2086 44.2599 23.6488C43.9003 23.2346 43.4948 22.8626 43.0513 22.5399C43.5099 22.2132 43.9101 21.8113 44.2348 21.3512ZM20.725 45.457C20.4886 46.3398 19.9813 46.874 19.1742 47.0902C18.6349 47.2345 18.0153 47.0633 17.4061 46.6063C17.8151 44.9605 17.3115 42.9992 16.7947 41.6029C16.1394 39.8311 15.2397 38.3261 14.5977 37.474C14.8619 36.6866 14.9964 36.3804 15.9125 36.1345C16.4392 35.9931 17.1265 36.3138 17.848 37.0349C18.7777 37.9646 19.6736 39.4758 20.2446 41.0776C20.8446 42.7617 21.0199 44.358 20.7254 45.457H20.725ZM45.9207 36.8195C45.9477 36.2987 45.6357 35.7806 45.1063 35.468C44.373 35.0345 43.4137 35.0999 42.5396 35.6428C42.5318 35.6477 42.5233 35.652 42.5154 35.6561L35.275 39.6006C33.9443 40.599 31.2289 40.4037 26.9774 39.003C26.852 38.9617 26.7482 38.8723 26.6888 38.7545C26.6294 38.6367 26.6191 38.5001 26.6604 38.3748C26.7017 38.2494 26.7911 38.1456 26.9089 38.0862C27.0267 38.0267 27.1633 38.0165 27.2886 38.0578C29.4891 38.7834 31.0732 39.1137 32.213 39.2066C33.0881 38.7511 33.5611 38.2722 33.5805 37.8181C33.6015 37.3249 33.0996 36.7351 32.1674 36.1559C30.927 35.3863 29.0581 34.7241 27.1682 34.3851C25.283 34.0476 23.7006 34.0945 22.9306 34.5102C22.8079 34.5848 21.6181 35.311 19.0392 36.8694C20.4603 38.5756 21.6427 41.2709 21.8343 43.6082L22.2562 43.3872C22.5436 43.2038 22.7132 43.1377 23.0689 43.2621C23.117 43.2791 23.1718 43.2983 23.2498 43.3196L30.2503 45.2441C30.2611 45.247 30.2719 45.2508 30.2825 45.2541C31.532 45.6904 32.6347 45.5909 33.6531 44.95C33.6557 44.948 33.6584 44.9463 33.6613 44.945L44.4632 38.4309C44.4789 38.4216 44.4959 38.4123 44.5123 38.4043C45.3884 38.0028 45.8887 37.4392 45.9207 36.8195ZM24.3893 14.8602C25.0638 14.8601 25.7232 15.0601 26.2841 15.4348C26.8449 15.8095 27.2821 16.3421 27.5402 16.9652C27.7984 17.5884 27.8659 18.2741 27.7344 18.9356C27.6028 19.5972 27.2781 20.2048 26.8011 20.6818C26.3242 21.1588 25.7165 21.4836 25.055 21.6152C24.3935 21.7468 23.7078 21.6793 23.0846 21.4212C22.4614 21.1631 21.9288 20.726 21.5541 20.1651C21.1793 19.6043 20.9793 18.945 20.9793 18.2705C20.9803 17.3663 21.3399 16.4995 21.9793 15.8601C22.6186 15.2208 23.4854 14.8612 24.3896 14.8602H24.3893ZM22.542 19.3683C22.6999 20.0555 23.2242 20.5408 23.9196 20.7092V21.0081C23.9188 21.0739 23.9311 21.1392 23.9558 21.2002C23.9804 21.2612 24.0169 21.3167 24.0632 21.3635C24.1095 21.4103 24.1646 21.4475 24.2253 21.4728C24.286 21.4982 24.3512 21.5113 24.417 21.5113C24.4828 21.5113 24.5479 21.4982 24.6087 21.4728C24.6694 21.4475 24.7245 21.4103 24.7708 21.3635C24.817 21.3167 24.8535 21.2612 24.8782 21.2002C24.9029 21.1392 24.9152 21.0739 24.9144 21.0081V20.7387C25.5036 20.6349 25.965 20.2868 26.1585 19.7929C26.2457 19.5651 26.2692 19.3179 26.2265 19.0778C26.1838 18.8377 26.0765 18.6137 25.9161 18.43C25.4869 17.914 24.9848 17.839 24.5813 17.7783C24.4157 17.7594 24.2524 17.724 24.0938 17.6728C23.9501 17.613 23.7192 17.4837 23.7225 17.2663C23.7247 17.1178 23.8401 16.9259 24.0929 16.8322C24.6033 16.6431 25.0633 16.8641 25.2648 17.3966C25.2876 17.4582 25.3223 17.5147 25.367 17.5629C25.4117 17.611 25.4655 17.6498 25.5252 17.677C25.585 17.7042 25.6496 17.7194 25.7152 17.7215C25.7809 17.7237 25.8463 17.7128 25.9077 17.6895C25.9691 17.6663 26.0253 17.6311 26.0731 17.586C26.1208 17.5409 26.1592 17.4868 26.1859 17.4268C26.2126 17.3668 26.2272 17.3021 26.2288 17.2364C26.2304 17.1708 26.219 17.1054 26.1952 17.0442C25.9549 16.4103 25.4798 15.9839 24.9141 15.8326V15.5337C24.9126 15.4028 24.8595 15.2777 24.7664 15.1857C24.6733 15.0936 24.5477 15.042 24.4167 15.042C24.2858 15.042 24.1601 15.0936 24.067 15.1857C23.9739 15.2777 23.9208 15.4028 23.9193 15.5337V15.8443C23.8619 15.8606 23.8045 15.8784 23.747 15.8998C23.1368 16.1264 22.7367 16.6572 22.7277 17.252C22.719 17.8376 23.0929 18.3414 23.7278 18.5986C23.7328 18.6009 23.7379 18.6027 23.7432 18.6043C23.9672 18.6812 24.1987 18.7344 24.4338 18.7628C24.802 18.8175 24.9724 18.8509 25.1517 19.0662C25.1974 19.1135 25.2291 19.1725 25.2433 19.2368C25.2575 19.301 25.2538 19.3679 25.2324 19.43C25.1792 19.5658 25.0099 19.7256 24.6945 19.7669C24.3195 19.8159 23.6481 19.7398 23.5115 19.1458C23.4812 19.018 23.4015 18.9074 23.2899 18.8381C23.1784 18.7688 23.0439 18.7464 22.9159 18.7759C22.7879 18.8054 22.6768 18.8842 22.6067 18.9953C22.5367 19.1064 22.5134 19.2407 22.542 19.3689V19.3683Z" fill="#003679"/>
</g>
<defs>
<clipPath id="clip0_1668_444">
<rect width="34" height="34" fill="white" transform="translate(14 14)"/>
</clipPath>
</defs>
</svg>
