<svg width="62" height="62" viewBox="0 0 62 62" fill="none" xmlns="http://www.w3.org/2000/svg">
<circle cx="31" cy="31" r="31" fill="#DEE8F6"/>
<g clip-path="url(#clip0_183_770)">
<path d="M14 36.9757V46.1121C14 46.6851 14.4644 47.149 15.0369 47.149H19.2848V35.9388H15.0369C14.4644 35.9388 14 36.4032 14 36.9757Z" fill="#003478"/>
<path d="M36.7444 31.507C36.7444 32.1096 36.256 32.598 35.6533 32.598C35.0509 32.598 34.5625 32.1096 34.5625 31.507C34.5625 30.9045 35.0509 30.4161 35.6533 30.4161C36.256 30.4161 36.7444 30.9045 36.7444 31.507Z" fill="#003478"/>
<path d="M17.1876 28.7162H22.0865V33.2683C22.076 33.2717 22.0659 33.275 22.0555 33.2784C22.5968 33.1051 23.2029 33.0125 23.8609 33.0125C24.639 33.1195 28.0383 32.456 29.5277 34.9188C29.7745 35.3265 30.1897 35.5698 30.6378 35.5698H34.0921C36.2326 35.5698 37.7768 37.6943 37.0697 39.7293C39.2951 39.4831 40.4751 38.6158 42.6343 37.7234V28.7162H47.5327C48.4988 28.7162 48.9383 27.5074 48.1995 26.886L42.6343 22.2074V14.9261C42.6343 14.353 42.1697 13.8892 41.5974 13.8892H37.5597C36.9867 13.8892 36.5228 14.353 36.5228 14.9261V17.0706L33.0272 14.1317C32.6421 13.8078 32.0787 13.8078 31.6931 14.1317L16.5205 26.886C15.783 27.5058 16.2212 28.7162 17.1876 28.7162ZM38.8179 31.5064C38.819 33.2501 37.4075 34.6704 35.6539 34.6704C33.91 34.6712 32.4899 33.26 32.4899 31.5064C32.4899 29.7614 33.9092 28.3424 35.6539 28.3424C37.4046 28.3424 38.819 29.7606 38.8179 31.5064ZM34.9305 24.1765C35.3356 23.7714 35.9922 23.7714 36.3971 24.1765C36.8021 24.5816 36.8021 25.2382 36.3971 25.6433L29.7897 32.2501C29.3846 32.6552 28.7293 32.6557 28.3237 32.2501C27.9186 31.8458 27.9186 31.1892 28.3237 30.7841L34.9305 24.1765ZM29.0687 21.7561C30.8175 21.7561 32.2349 23.1735 32.2349 24.9223C32.2349 26.6711 30.8175 28.0885 29.0687 28.0885C27.32 28.0885 25.9026 26.6711 25.9026 24.9223C25.9026 23.1735 27.32 21.7561 29.0687 21.7561Z" fill="#003478"/>
<path d="M48.2616 37.4566L40.728 40.8586C39.2289 41.5248 37.6432 41.8607 36.0096 41.8607H28.1861C27.6139 41.8607 27.1493 41.3969 27.1493 40.8241C27.1493 40.2516 27.6139 39.7872 28.1861 39.7872H34.0907C34.683 39.7872 35.1628 39.3047 35.1628 38.7151C35.1628 38.1242 34.6816 37.6433 34.0907 37.6433H30.6364C29.4564 37.6433 28.3781 37.0262 27.7528 35.992C27.0486 34.8293 25.0964 35.1284 23.8595 35.0859C23.1073 35.0859 21.3574 35.2697 21.3574 36.9757V47.1503H35.3965C37.4478 47.1503 39.4686 46.6042 41.2414 45.5716L47.5532 41.8946C49.1556 40.9611 49.4769 38.8131 48.2616 37.4566Z" fill="#003478"/>
<path d="M28.9232 26.0014C29.6364 26.0914 30.2365 25.4916 30.1465 24.7781C30.0853 24.2921 29.6928 23.8999 29.2068 23.8385C28.4936 23.7487 27.8938 24.3485 27.9835 25.0617C28.0447 25.5477 28.4372 25.9402 28.9232 26.0014Z" fill="#003478"/>
</g>
<defs>
<clipPath id="clip0_183_770">
<rect width="35" height="35" fill="white" transform="translate(14 13)"/>
</clipPath>
</defs>
</svg>
