<svg width="62" height="62" viewBox="0 0 62 62" fill="none" xmlns="http://www.w3.org/2000/svg">
<circle cx="31" cy="31" r="30.5" fill="#EAFEFF" stroke="#DEE8F6"/>
<circle cx="31" cy="31" r="31" fill="#DEE8F6"/>
<g clip-path="url(#clip0_138_503)">
<path d="M14.0254 15.1191H17.2669C17.7718 15.1191 18.1975 15.4807 18.2789 15.979C18.2821 15.9971 18.2856 16.0156 18.2896 16.0335L23.1407 38.0922C22.0795 38.5777 21.3399 39.649 21.3399 40.8904C21.3399 42.307 22.3025 43.5025 23.608 43.8582C23.4683 44.2093 23.3906 44.5917 23.3906 44.992C23.3906 46.6881 24.7706 48.0681 26.4668 48.0681C28.163 48.0681 29.543 46.6881 29.543 44.992C29.543 44.6325 29.4802 44.2867 29.3665 43.9658H37.9224C37.8086 44.2867 37.7459 44.6317 37.7459 44.9912C37.7459 46.6876 39.1259 48.0681 40.822 48.0681C42.5182 48.0681 43.8982 46.6881 43.8982 44.992C43.8982 44.6325 43.8357 44.2875 43.722 43.9666H44.9236C45.49 43.9666 45.949 43.5075 45.949 42.9412C45.949 42.3748 45.49 41.9158 44.9236 41.9158H24.416C23.8505 41.9158 23.3906 41.4557 23.3906 40.8904C23.3906 40.3125 23.8729 39.873 24.3557 39.873C24.396 39.873 24.4369 39.8701 24.4777 39.865H41.3948C42.7209 39.865 43.8937 39.0198 44.3129 37.7616L47.9472 26.8593C48.1261 26.3221 47.8358 25.7413 47.2986 25.5621C46.7616 25.3832 46.1808 25.6735 46.0016 26.2107L42.3676 37.113C42.2277 37.5325 41.8367 37.8142 41.3948 37.8142H25.1795L20.2976 15.6177C20.041 14.1386 18.7713 13.0684 17.2669 13.0684H14.0254C13.459 13.0684 13 13.5274 13 14.0938C13 14.6601 13.459 15.1191 14.0254 15.1191ZM27.4922 44.992C27.4922 45.5573 27.0321 46.0173 26.4668 46.0173C25.9012 46.0173 25.4414 45.5573 25.4414 44.992C25.4414 44.4267 25.9012 43.9666 26.4668 43.9666C27.0321 43.9666 27.4922 44.4267 27.4922 44.992ZM41.8474 44.992C41.8474 45.5573 41.3876 46.0173 40.822 46.0173C40.2567 46.0173 39.7966 45.5573 39.7966 44.992C39.7966 44.4267 40.2567 43.9666 40.822 43.9666C41.3876 43.9666 41.8474 44.4267 41.8474 44.992Z" fill="#003478"/>
<path d="M27.4922 35.7634H39.7966C40.363 35.7634 40.822 35.3044 40.822 34.738V26.9597L41.1224 27.2601C41.5227 27.6607 42.1721 27.6607 42.5727 27.2601C42.9729 26.8596 42.9729 26.2105 42.5727 25.8099L34.3695 17.607C33.969 17.2065 33.3198 17.2065 32.9193 17.607L24.7164 25.8099C24.3159 26.2105 24.3159 26.8596 24.7164 27.2601C25.1167 27.6607 25.7658 27.6607 26.1664 27.2601L26.4668 26.9597V34.738C26.4668 35.3044 26.9258 35.7634 27.4922 35.7634ZM34.6697 33.7126H32.6189V29.6111H34.6697V33.7126ZM33.6443 19.7823L38.7755 24.9132C38.7734 24.941 38.7712 24.9688 38.7712 24.9971V33.7129H36.7204V28.5859C36.7204 28.0196 36.2614 27.5606 35.6951 27.5606H31.5935C31.0274 27.5606 30.5681 28.0196 30.5681 28.5859V33.7129H28.5176V24.9971C28.5176 24.9688 28.5154 24.941 28.5133 24.9132L33.6443 19.7823Z" fill="#003478"/>
<path d="M34.6699 24.4844C34.6699 25.0505 34.2109 25.5098 33.6445 25.5098C33.0784 25.5098 32.6191 25.0505 32.6191 24.4844C32.6191 23.918 33.0784 23.459 33.6445 23.459C34.2109 23.459 34.6699 23.918 34.6699 24.4844Z" fill="#003478"/>
</g>
<defs>
<clipPath id="clip0_138_503">
<rect width="35" height="35" fill="white" transform="translate(13 13)"/>
</clipPath>
</defs>
</svg>
