<svg width="35" height="35" viewBox="0 0 35 35" fill="none" xmlns="http://www.w3.org/2000/svg">
<g clip-path="url(#clip0_230_43)">
<path d="M1.02539 2.11914H4.26686C4.77181 2.11914 5.19745 2.4807 5.2789 2.97898C5.2821 2.99713 5.28557 3.01556 5.28958 3.03345L10.1407 25.0922C9.07952 25.5776 8.33985 26.649 8.33985 27.8904C8.33985 29.307 9.30249 30.5025 10.608 30.8581C10.4683 31.2093 10.3906 31.5917 10.3906 31.992C10.3906 33.6881 11.7706 35.0681 13.4668 35.0681C15.163 35.0681 16.543 33.6881 16.543 31.992C16.543 31.6325 16.4802 31.2867 16.3665 30.9658H24.9224C24.8086 31.2867 24.7459 31.6317 24.7459 31.9912C24.7459 33.6876 26.1259 35.0681 27.822 35.0681C29.5182 35.0681 30.8982 33.6881 30.8982 31.992C30.8982 31.6325 30.8357 31.2875 30.722 30.9666H31.9236C32.49 30.9666 32.949 30.5075 32.949 29.9412C32.949 29.3748 32.49 28.9158 31.9236 28.9158H11.416C10.8505 28.9158 10.3906 28.4557 10.3906 27.8904C10.3906 27.3125 10.8729 26.873 11.3557 26.873C11.396 26.873 11.4369 26.8701 11.4777 26.865H28.3948C29.7209 26.865 30.8937 26.0198 31.3129 24.7616L34.9472 13.8593C35.1261 13.3221 34.8358 12.7413 34.2986 12.5621C33.7616 12.3832 33.1808 12.6735 33.0016 13.2107L29.3676 24.113C29.2277 24.5325 28.8367 24.8142 28.3948 24.8142H12.1795L7.29764 2.61769C7.04102 1.13861 5.7713 0.0683594 4.26686 0.0683594H1.02539C0.459023 0.0683594 0 0.527382 0 1.09375C0 1.66012 0.459023 2.11914 1.02539 2.11914ZM14.4922 31.992C14.4922 32.5573 14.0321 33.0173 13.4668 33.0173C12.9012 33.0173 12.4414 32.5573 12.4414 31.992C12.4414 31.4267 12.9012 30.9666 13.4668 30.9666C14.0321 30.9666 14.4922 31.4267 14.4922 31.992ZM28.8474 31.992C28.8474 32.5573 28.3876 33.0173 27.822 33.0173C27.2567 33.0173 26.7966 32.5573 26.7966 31.992C26.7966 31.4267 27.2567 30.9666 27.822 30.9666C28.3876 30.9666 28.8474 31.4267 28.8474 31.992Z" fill="white"/>
<path d="M14.4922 22.7634H26.7966C27.363 22.7634 27.822 22.3044 27.822 21.738V13.9597L28.1224 14.2601C28.5227 14.6607 29.1721 14.6607 29.5727 14.2601C29.9729 13.8596 29.9729 13.2105 29.5727 12.8099L21.3695 4.60705C20.969 4.2065 20.3198 4.2065 19.9193 4.60705L11.7164 12.8099C11.3159 13.2105 11.3159 13.8596 11.7164 14.2601C12.1167 14.6607 12.7658 14.6607 13.1664 14.2601L13.4668 13.9597V21.738C13.4668 22.3044 13.9258 22.7634 14.4922 22.7634ZM21.6697 20.7126H19.6189V16.6111H21.6697V20.7126ZM20.6443 6.78227L25.7755 11.9132C25.7734 11.941 25.7712 11.9688 25.7712 11.9971V20.7129H23.7204V15.5859C23.7204 15.0196 23.2614 14.5606 22.6951 14.5606H18.5935C18.0274 14.5606 17.5681 15.0196 17.5681 15.5859V20.7129H15.5176V11.9971C15.5176 11.9688 15.5154 11.941 15.5133 11.9132L20.6443 6.78227Z" fill="white"/>
<path d="M21.6699 11.4844C21.6699 12.0505 21.2109 12.5098 20.6445 12.5098C20.0784 12.5098 19.6191 12.0505 19.6191 11.4844C19.6191 10.918 20.0784 10.459 20.6445 10.459C21.2109 10.459 21.6699 10.918 21.6699 11.4844Z" fill="white"/>
</g>
<defs>
<clipPath id="clip0_230_43">
<rect width="35" height="35" fill="white"/>
</clipPath>
</defs>
</svg>
