<svg width="35" height="35" viewBox="0 0 35 35" fill="none" xmlns="http://www.w3.org/2000/svg">
<g clip-path="url(#clip0_230_37)">
<path d="M0 23.9757V33.1121C0 33.6851 0.464363 34.149 1.03687 34.149H5.28477V22.9388H1.03687C0.464363 22.9388 0 23.4032 0 23.9757Z" fill="white"/>
<path d="M22.7444 18.507C22.7444 19.1096 22.256 19.598 21.6533 19.598C21.0509 19.598 20.5625 19.1096 20.5625 18.507C20.5625 17.9045 21.0509 17.4161 21.6533 17.4161C22.256 17.4161 22.7444 17.9045 22.7444 18.507Z" fill="white"/>
<path d="M3.18755 15.7162H8.08646V20.2683C8.07605 20.2717 8.0659 20.275 8.05549 20.2784C8.59675 20.1051 9.20291 20.0125 9.86087 20.0125C10.639 20.1195 14.0383 19.456 15.5277 21.9188C15.7745 22.3265 16.1897 22.5698 16.6378 22.5698H20.0921C22.2326 22.5698 23.7768 24.6943 23.0697 26.7293C25.2951 26.4831 26.4751 25.6158 28.6343 24.7234V15.7162H33.5327C34.4988 15.7162 34.9383 14.5074 34.1995 13.886L28.6343 9.20741V1.92607C28.6343 1.35303 28.1697 0.8892 27.5974 0.8892H23.5597C22.9867 0.8892 22.5228 1.35303 22.5228 1.92607V4.07058L19.0272 1.13166C18.6421 0.807756 18.0787 0.807756 17.6931 1.13166L2.52051 13.886C1.78298 14.5058 2.22117 15.7162 3.18755 15.7162ZM24.8179 18.5064C24.819 20.2501 23.4075 21.6704 21.6539 21.6704C19.91 21.6712 18.4899 20.26 18.4899 18.5064C18.4899 16.7614 19.9092 15.3424 21.6539 15.3424C23.4046 15.3424 24.819 16.7606 24.8179 18.5064ZM20.9305 11.1765C21.3356 10.7714 21.9922 10.7714 22.3971 11.1765C22.8021 11.5816 22.8021 12.2382 22.3971 12.6433L15.7897 19.2501C15.3846 19.6552 14.7293 19.6557 14.3237 19.2501C13.9186 18.8458 13.9186 18.1892 14.3237 17.7841L20.9305 11.1765ZM15.0687 8.75613C16.8175 8.75613 18.2349 10.1735 18.2349 11.9223C18.2349 13.6711 16.8175 15.0885 15.0687 15.0885C13.32 15.0885 11.9026 13.6711 11.9026 11.9223C11.9026 10.1735 13.32 8.75613 15.0687 8.75613Z" fill="white"/>
<path d="M34.2616 24.4566L26.728 27.8586C25.2289 28.5248 23.6432 28.8607 22.0096 28.8607H14.1861C13.6139 28.8607 13.1493 28.3969 13.1493 27.8241C13.1493 27.2516 13.6139 26.7872 14.1861 26.7872H20.0907C20.683 26.7872 21.1628 26.3047 21.1628 25.7151C21.1628 25.1242 20.6816 24.6433 20.0907 24.6433H16.6364C15.4564 24.6433 14.3781 24.0262 13.7528 22.992C13.0486 21.8293 11.0964 22.1284 9.85948 22.0859C9.10726 22.0859 7.35742 22.2697 7.35742 23.9757V34.1503H21.3965C23.4478 34.1503 25.4686 33.6042 27.2414 32.5716L33.5532 28.8946C35.1556 27.9611 35.4769 25.8131 34.2616 24.4566Z" fill="white"/>
<path d="M14.9232 13.0014C15.6364 13.0914 16.2365 12.4916 16.1465 11.7781C16.0853 11.2921 15.6928 10.8999 15.2068 10.8385C14.4936 10.7487 13.8938 11.3485 13.9835 12.0617C14.0447 12.5477 14.4372 12.9402 14.9232 13.0014Z" fill="white"/>
</g>
<defs>
<clipPath id="clip0_230_37">
<rect width="35" height="35" fill="white"/>
</clipPath>
</defs>
</svg>
