<svg width="40" height="40" viewBox="0 0 40 40" fill="none" xmlns="http://www.w3.org/2000/svg">
<path d="M27.2464 3.87927L18.2445 0.0490661C18.0914 -0.0158671 17.9174 -0.0158671 17.7644 0.0490661L8.76242 3.87927C8.54382 3.972 8.40247 4.18176 8.40234 4.4136V13.572C8.4056 15.6302 9.42311 17.5623 11.1389 18.7684L17.3605 23.13C17.7447 23.4004 18.2641 23.4004 18.6484 23.13L24.8699 18.769C26.5857 17.5629 27.6032 15.6308 27.6065 13.5726V4.4136C27.6064 4.18176 27.465 3.972 27.2464 3.87927ZM26.4062 13.5726C26.4035 15.2561 25.5712 16.8363 24.1678 17.8228L18.0044 22.1436L11.8411 17.8228C10.4377 16.8363 9.60535 15.2561 9.6026 13.5726V4.79511L18.0044 1.22041L26.4062 4.79511V13.5726Z" fill="white"/>
<path d="M17.7642 2.59588L11.1628 5.40524C10.9442 5.49797 10.8029 5.70774 10.8027 5.93958V13.5726C10.8046 14.8814 11.4518 16.11 12.5431 16.8766L17.6532 20.4595C17.8628 20.6064 18.1457 20.6064 18.3554 20.4595L23.4655 16.8766C24.5568 16.11 25.204 14.8814 25.2059 13.5726V5.93958C25.2057 5.70774 25.0644 5.49797 24.8458 5.40524L18.2443 2.59588C18.0913 2.53095 17.9173 2.53095 17.7642 2.59588ZM24.0056 6.3205V13.5726C24.0038 14.5065 23.5419 15.3831 22.7633 15.9304L18.0043 19.2671L13.2453 15.9304C12.4667 15.3831 12.0048 14.5065 12.003 13.5726V6.3205L18.0043 3.76722L24.0056 6.3205Z" fill="white"/>
<path d="M4.97333 19.3669L3.67525 16.4187C3.3992 15.8109 2.81052 15.3924 2.13096 15.3208C1.4514 15.2493 0.784197 15.5356 0.380683 16.0719C-0.0228315 16.6082 -0.101354 17.313 0.174693 17.9208L2.5266 22.9497C2.8439 23.6305 3.2853 24.2499 3.82948 24.7779L7.52808 28.3736C7.31978 28.5882 7.20347 28.8719 7.20281 29.167V33.8337C7.20281 34.478 7.74019 35.0003 8.40307 35.0003H15.0045C15.6674 35.0003 16.2048 34.478 16.2048 33.8337V29.167C16.2048 28.5226 15.6674 28.0003 15.0045 28.0003V26.9147C15.0229 25.5332 14.5592 24.1863 13.689 23.0938C13.1788 22.4416 12.4836 21.9487 11.6888 21.6757C10.4248 21.1595 9.26238 20.4344 8.25304 19.5325C7.31615 18.7825 5.98516 18.7153 4.97333 19.3669ZM15.0045 33.8337H8.40307V29.167H15.0045V33.8337ZM12.7522 23.8224C13.4517 24.7083 13.8225 25.7981 13.8042 26.9147V28.0003H8.84177L4.67807 23.9531C4.23585 23.5238 3.87702 23.0205 3.61884 22.4673L1.26693 17.4384C1.16656 17.2237 1.18524 16.9742 1.31652 16.776C1.44781 16.5777 1.67371 16.4579 1.91627 16.4578C2.20172 16.4575 2.45969 16.6231 2.57161 16.8784L3.9141 19.9216C4.27059 20.7336 4.78444 21.4713 5.42763 22.0946L8.16902 24.7598C8.3197 24.9115 8.54283 24.9723 8.75265 24.9189C8.96248 24.8655 9.12634 24.7062 9.18126 24.5023C9.23618 24.2983 9.17361 24.0815 9.01761 23.935L6.27621 21.2697C6.00055 21.0024 5.7527 20.7093 5.53625 20.3947C6.11258 19.9636 6.91885 19.9767 7.48007 20.4262C8.60192 21.427 9.89853 22.225 11.3089 22.7829C11.8835 22.986 12.385 23.3472 12.7522 23.8224Z" fill="white"/>
<path d="M13.2042 30.917H12.604C12.2726 30.917 12.0039 31.1782 12.0039 31.5003C12.0039 31.8225 12.2726 32.0837 12.604 32.0837H13.2042C13.5356 32.0837 13.8043 31.8225 13.8043 31.5003C13.8043 31.1782 13.5356 30.917 13.2042 30.917Z" fill="white"/>
<path d="M33.4848 22.9497L35.8367 17.9208C36.1259 17.3109 36.0543 16.5969 35.6495 16.0527C35.2447 15.5085 34.5695 15.2187 33.8831 15.2946C33.1967 15.3704 32.6056 15.8001 32.3368 16.4187L31.0417 19.3558C30.0263 18.7074 28.6947 18.7784 27.7584 19.5308C26.749 20.4327 25.5866 21.1578 24.3226 21.674C23.5278 21.9469 22.8326 22.4399 22.3224 23.0921C21.4518 24.185 20.9881 25.5326 21.0069 26.9147V28.0003C20.344 28.0003 19.8066 28.5226 19.8066 29.167V33.8337C19.8066 34.478 20.344 35.0003 21.0069 35.0003H27.6083C28.2712 35.0003 28.8086 34.478 28.8086 33.8337V29.167C28.8079 28.8719 28.6916 28.5882 28.4833 28.3736L32.1819 24.7779C32.7261 24.2499 33.1675 23.6305 33.4848 22.9497ZM27.6083 33.8337H21.0069V29.167H27.6083V33.8337ZM27.1696 28.0003H22.2072V26.9147C22.189 25.7983 22.5598 24.7087 23.2592 23.823C23.6256 23.3481 24.1259 22.9868 24.6995 22.7829C26.1101 22.2252 27.407 21.4271 28.5289 20.4262C29.0895 19.9733 29.8981 19.958 30.4763 20.3895C30.2593 20.7064 30.0102 21.0015 29.7328 21.2703L26.9914 23.9356C26.764 24.1645 26.7672 24.5283 26.9987 24.7533C27.2302 24.9783 27.6045 24.9815 27.84 24.7604L30.5814 22.0952C31.2246 21.4719 31.7384 20.7342 32.0949 19.9222L33.4374 16.8784C33.5496 16.6234 33.8075 16.4582 34.0927 16.4584C34.3353 16.4584 34.5612 16.5783 34.6925 16.7766C34.8238 16.9748 34.8424 17.2243 34.7421 17.439L32.3902 22.4679C32.132 23.0211 31.7731 23.5244 31.3309 23.9537L27.1696 28.0003Z" fill="white"/>
<path d="M23.4073 30.917H22.8072C22.4757 30.917 22.207 31.1782 22.207 31.5003C22.207 31.8225 22.4757 32.0837 22.8072 32.0837H23.4073C23.7387 32.0837 24.0074 31.8225 24.0074 31.5003C24.0074 31.1782 23.7387 30.917 23.4073 30.917Z" fill="white"/>
<path d="M14.7649 12.3669C14.4998 12.1735 14.1236 12.2258 13.9247 12.4835C13.7259 12.7413 13.7796 13.1069 14.0448 13.3002L16.4453 15.0502C16.5492 15.1259 16.6755 15.1669 16.8054 15.1669C16.8393 15.1668 16.8733 15.164 16.9068 15.1587C17.0693 15.1316 17.2132 15.0407 17.3047 14.9073L22.1057 7.90723C22.2247 7.73383 22.2395 7.5119 22.1445 7.32504C22.0495 7.13817 21.8592 7.01476 21.6452 7.00128C21.4312 6.98781 21.2261 7.08633 21.1071 7.25972L16.6577 13.747L14.7649 12.3669Z" fill="white"/>
</svg>
