<svg width="62" height="62" viewBox="0 0 62 62" fill="none" xmlns="http://www.w3.org/2000/svg">
<circle cx="31" cy="31" r="30.5" fill="#EAFEFF" stroke="#EAEAEA"/>
<circle cx="31" cy="31" r="31" fill="#DEE8F6"/>
<g clip-path="url(#clip0_138_520)">
<path d="M41.2673 15.4334L31.2673 11.056C31.0973 10.9818 30.904 10.9818 30.734 11.056L20.734 15.4334C20.4911 15.5393 20.3341 15.7791 20.334 16.044V26.5107C20.3376 28.8629 21.4679 31.071 23.374 32.4494L30.2853 37.434C30.7122 37.743 31.2891 37.743 31.716 37.434L38.6273 32.45C40.5334 31.0717 41.6637 28.8636 41.6673 26.5114V16.044C41.6672 15.7791 41.5102 15.5393 41.2673 15.4334ZM40.334 26.5114C40.3309 28.4353 39.4064 30.2413 37.8473 31.3687L31.0007 36.3067L24.154 31.3687C22.5949 30.2413 21.6704 28.4353 21.6673 26.5114V16.48L31.0007 12.3947L40.334 16.48V26.5114Z" fill="#003478"/>
<path d="M30.7333 13.9667L23.4 17.1773C23.1572 17.2833 23.0001 17.523 23 17.788V26.5113C23.0021 28.0071 23.721 29.4112 24.9333 30.2873L30.61 34.382C30.8429 34.55 31.1571 34.55 31.39 34.382L37.0667 30.2873C38.279 29.4112 38.9979 28.0071 39 26.5113V17.788C38.9999 17.523 38.8428 17.2833 38.6 17.1773L31.2667 13.9667C31.0966 13.8925 30.9034 13.8925 30.7333 13.9667ZM37.6667 18.2233V26.5113C37.6646 27.5787 37.1516 28.5805 36.2867 29.206L31 33.0193L25.7133 29.206C24.8484 28.5805 24.3354 27.5787 24.3333 26.5113V18.2233L31 15.3053L37.6667 18.2233Z" fill="#003478"/>
<path d="M16.5234 33.1333L15.0814 29.764C14.7748 29.0694 14.1208 28.5911 13.3659 28.5093C12.611 28.4276 11.8698 28.7548 11.4216 29.3677C10.9733 29.9806 10.8861 30.786 11.1928 31.4807L13.8054 37.228C14.1579 38.006 14.6482 38.7139 15.2528 39.3173L19.3614 43.4267C19.13 43.6719 19.0008 43.9962 19.0001 44.3333V49.6667C19.0001 50.4031 19.597 51 20.3334 51H27.6668C28.4031 51 29.0001 50.4031 29.0001 49.6667V44.3333C29.0001 43.597 28.4031 43 27.6668 43V41.7593C27.6872 40.1805 27.1721 38.6412 26.2054 37.3927C25.6387 36.6473 24.8663 36.0839 23.9834 35.772C22.5793 35.1821 21.288 34.3534 20.1668 33.3227C19.126 32.4655 17.6474 32.3887 16.5234 33.1333ZM27.6668 49.6667H20.3334V44.3333H27.6668V49.6667ZM25.1648 38.2253C25.9418 39.2378 26.3537 40.4832 26.3334 41.7593V43H20.8208L16.1954 38.3747C15.7042 37.8841 15.3056 37.3089 15.0188 36.6767L12.4061 30.9293C12.2946 30.684 12.3153 30.3989 12.4612 30.1723C12.607 29.9457 12.858 29.8088 13.1274 29.8087C13.4445 29.8084 13.7311 29.9976 13.8554 30.2893L15.3468 33.7673C15.7428 34.6953 16.3136 35.5384 17.0281 36.2507L20.0734 39.2967C20.2408 39.47 20.4887 39.5395 20.7218 39.4785C20.9549 39.4175 21.1369 39.2354 21.1979 39.0023C21.2589 38.7693 21.1894 38.5214 21.0161 38.354L17.9708 35.308C17.6645 35.0025 17.3892 34.6676 17.1488 34.308C17.789 33.8154 18.6846 33.8303 19.3081 34.344C20.5543 35.4877 21.9947 36.3998 23.5614 37.0373C24.1998 37.2695 24.7568 37.6822 25.1648 38.2253Z" fill="#003478"/>
<path d="M25.6673 46.3334H25.0007C24.6325 46.3334 24.334 46.6319 24.334 47C24.334 47.3682 24.6325 47.6667 25.0007 47.6667H25.6673C26.0355 47.6667 26.334 47.3682 26.334 47C26.334 46.6319 26.0355 46.3334 25.6673 46.3334Z" fill="#003478"/>
<path d="M48.1947 37.228L50.8073 31.4807C51.1286 30.7837 51.0491 29.9676 50.5994 29.3457C50.1497 28.7238 49.3997 28.3927 48.6371 28.4793C47.8746 28.566 47.218 29.057 46.9193 29.764L45.4807 33.1207C44.3528 32.3797 42.8735 32.4608 41.8333 33.3207C40.7121 34.3514 39.4208 35.1801 38.0167 35.77C37.1338 36.0819 36.3614 36.6453 35.7947 37.3907C34.8276 38.6398 34.3125 40.1798 34.3333 41.7593V43C33.597 43 33 43.597 33 44.3334V49.6667C33 50.4031 33.597 51 34.3333 51H41.6667C42.403 51 43 50.4031 43 49.6667V44.3334C42.9993 43.9962 42.8701 43.6719 42.6387 43.4267L46.7473 39.3174C47.3518 38.7139 47.8422 38.0061 48.1947 37.228ZM41.6667 49.6667H34.3333V44.3334H41.6667V49.6667ZM41.1793 43H35.6667V41.7593C35.6465 40.4835 36.0584 39.2383 36.8353 38.226C37.2424 37.6833 37.7982 37.2703 38.4353 37.0374C40.0024 36.4 41.443 35.4879 42.6893 34.344C43.3121 33.8264 44.2103 33.809 44.8527 34.302C44.6115 34.6642 44.3348 35.0015 44.0267 35.3087L40.9813 38.3547C40.7287 38.6163 40.7323 39.0321 40.9895 39.2892C41.2466 39.5464 41.6624 39.55 41.924 39.2973L44.9693 36.2513C45.6838 35.539 46.2547 34.696 46.6507 33.768L48.142 30.2894C48.2667 29.998 48.5531 29.8092 48.87 29.8094C49.1395 29.8094 49.3904 29.9464 49.5362 30.173C49.6821 30.3996 49.7028 30.6847 49.5913 30.93L46.9787 36.6774C46.6919 37.3096 46.2932 37.8848 45.802 38.3754L41.1793 43Z" fill="#003478"/>
<path d="M36.9993 46.3334H36.3327C35.9645 46.3334 35.666 46.6319 35.666 47C35.666 47.3682 35.9645 47.6667 36.3327 47.6667H36.9993C37.3675 47.6667 37.666 47.3682 37.666 47C37.666 46.6319 37.3675 46.3334 36.9993 46.3334Z" fill="#003478"/>
<path d="M27.4007 25.1334C27.1061 24.9124 26.6883 24.9721 26.4674 25.2667C26.2464 25.5612 26.3061 25.9791 26.6007 26.2L29.2674 28.2C29.3828 28.2866 29.5231 28.3334 29.6674 28.3334C29.7051 28.3332 29.7428 28.3301 29.78 28.324C29.9606 28.293 30.1204 28.1891 30.222 28.0367L35.5554 20.0367C35.6875 19.8385 35.704 19.5849 35.5985 19.3713C35.4929 19.1578 35.2815 19.0167 35.0438 19.0013C34.8061 18.9859 34.5782 19.0985 34.446 19.2967L29.5034 26.7107L27.4007 25.1334Z" fill="#003478"/>
</g>
<defs>
<clipPath id="clip0_138_520">
<rect width="40" height="40" fill="white" transform="translate(11 11)"/>
</clipPath>
</defs>
</svg>
