<svg width="62" height="62" viewBox="0 0 62 62" fill="none" xmlns="http://www.w3.org/2000/svg">
<circle cx="31" cy="31" r="31" fill="#CEE5F3"/>
<g clip-path="url(#clip0_230_12)">
<path fill-rule="evenodd" clip-rule="evenodd" d="M37.178 32.1783C37.4905 31.8658 37.666 31.4419 37.666 31C37.666 30.5581 37.4905 30.1342 37.178 29.8217L27.7497 20.3933C27.596 20.2342 27.4121 20.1072 27.2087 20.0198C27.0054 19.9325 26.7867 19.8865 26.5654 19.8846C26.3441 19.8827 26.1246 19.9248 25.9198 20.0086C25.715 20.0924 25.5289 20.2162 25.3724 20.3727C25.2159 20.5292 25.0921 20.7153 25.0083 20.9201C24.9245 21.1249 24.8824 21.3444 24.8843 21.5657C24.8862 21.787 24.9322 22.0057 25.0195 22.209C25.1069 22.4123 25.2339 22.5963 25.393 22.75L33.643 31L25.393 39.25C25.0894 39.5643 24.9215 39.9853 24.9252 40.4223C24.929 40.8593 25.1043 41.2774 25.4133 41.5864C25.7224 41.8954 26.1404 42.0707 26.5774 42.0745C27.0144 42.0783 27.4354 41.9103 27.7497 41.6067L37.178 32.1783Z" fill="black"/>
</g>
<defs>
<clipPath id="clip0_230_12">
<rect width="40" height="40" fill="white" transform="matrix(-1 0 0 1 51 11)"/>
</clipPath>
</defs>
</svg>
