<svg width="35" height="35" viewBox="0 0 35 35" fill="none" xmlns="http://www.w3.org/2000/svg">
<g clip-path="url(#clip0_138_479)">
<path d="M10.5957 21.6536V23.6523C10.5957 24.2186 11.0548 24.6777 11.6211 24.6777H16.4062C16.9725 24.6777 17.4316 24.2186 17.4316 23.6523V21.6536C15.2385 22.4951 12.7935 22.4968 10.5957 21.6536Z" fill="white"/>
<path d="M14.0137 20.2344C18.16 20.2344 21.5333 16.8611 21.5333 12.7148V10.2859C20.6588 10.9534 19.5679 11.3511 18.3853 11.3511H12.962C12.2805 11.3511 11.6499 11.1282 11.1395 10.7516C9.27261 11.4616 7.70909 11.336 7.51953 11.3511C7.1601 11.3511 6.81509 11.2885 6.49414 11.1747V12.7148C6.49421 16.8611 9.86747 20.2344 14.0137 20.2344ZM11.0378 14.6858C11.4594 14.3078 12.1076 14.3429 12.4858 14.7646C13.3051 15.6782 14.7252 15.6752 15.5418 14.7646C15.9198 14.343 16.5681 14.3076 16.9898 14.6858C17.4114 15.0639 17.4467 15.7122 17.0686 16.1338C15.4336 17.9572 12.5885 17.9511 10.959 16.1338C10.5809 15.7122 10.6161 15.0639 11.0378 14.6858Z" fill="white"/>
<path d="M7.51953 9.30029C7.69494 9.27575 9.79528 9.50927 11.9366 8.03195V8.2749C11.9366 8.84119 12.3957 9.30029 12.962 9.30029H18.3853C20.121 9.30029 21.5332 7.88812 21.5332 6.15234C21.5332 2.75994 18.7733 0 15.3809 0H12.6438C9.25285 0 6.49414 2.75871 6.49414 6.14975V8.2749C6.49414 8.84119 6.95324 9.30029 7.51953 9.30029Z" fill="white"/>
<path d="M16.3176 26.7285H11.6211C9.92489 26.7285 8.54492 25.3486 8.54492 23.6524V20.7778L5.39622 21.5397C2.21901 22.3085 0 25.1286 0 28.3975V33.9746C0 34.5409 0.459102 35 1.02539 35H19.0421C16.3868 32.9773 15.6131 29.4603 16.3176 26.7285Z" fill="white"/>
<path d="M29.6947 19.5445C30.2352 19.5157 30.665 19.0696 30.665 18.522C30.665 17.9557 30.2059 17.4966 29.6396 17.4966H29.049C29.2748 16.8418 29.7498 16.5777 29.8505 16.5281C30.4468 16.295 30.8738 15.1967 30.3298 14.2543C29.9961 13.6764 29.3985 13.3313 28.7311 13.3313H24.3956C23.7283 13.3313 23.1307 13.6764 22.7971 14.2543C22.2531 15.1966 22.6796 16.2949 23.2763 16.5281C23.3767 16.5776 23.852 16.8418 24.0778 17.4966H23.4872C22.9209 17.4966 22.4618 17.9557 22.4618 18.522C22.4618 19.0694 22.8912 19.5154 23.4314 19.5445C21.7845 21.6815 18.127 25.2368 18.127 28.5493C18.127 32.2664 20.4075 35 26.5634 35C32.7211 35 34.9998 32.2648 34.9998 28.5493C34.9998 25.2476 31.3446 21.6948 29.6947 19.5445Z" fill="white"/>
</g>
<defs>
<clipPath id="clip0_138_479">
<rect width="35" height="35" fill="white"/>
</clipPath>
</defs>
</svg>
