<svg width="62" height="62" viewBox="0 0 62 62" fill="none" xmlns="http://www.w3.org/2000/svg">
<circle cx="31" cy="31" r="31" fill="#DEE8F6"/>
<g clip-path="url(#clip0_233_98)">
<path d="M23.5957 34.6536V36.6523C23.5957 37.2186 24.0548 37.6777 24.6211 37.6777H29.4062C29.9725 37.6777 30.4316 37.2186 30.4316 36.6523V34.6536C28.2385 35.4951 25.7935 35.4968 23.5957 34.6536Z" fill="#003478"/>
<path d="M27.0137 33.2344C31.16 33.2344 34.5333 29.8611 34.5333 25.7148V23.2859C33.6588 23.9534 32.5679 24.3511 31.3853 24.3511H25.962C25.2805 24.3511 24.6499 24.1282 24.1395 23.7516C22.2726 24.4616 20.7091 24.336 20.5195 24.3511C20.1601 24.3511 19.8151 24.2885 19.4941 24.1747V25.7148C19.4942 29.8611 22.8675 33.2344 27.0137 33.2344ZM24.0378 27.6858C24.4594 27.3078 25.1076 27.3429 25.4858 27.7646C26.3051 28.6782 27.7252 28.6752 28.5418 27.7646C28.9198 27.343 29.5681 27.3076 29.9898 27.6858C30.4114 28.0639 30.4467 28.7122 30.0686 29.1338C28.4336 30.9572 25.5885 30.9511 23.959 29.1338C23.5809 28.7122 23.6161 28.0639 24.0378 27.6858Z" fill="#003478"/>
<path d="M20.5195 22.3003C20.6949 22.2758 22.7953 22.5093 24.9366 21.032V21.2749C24.9366 21.8412 25.3957 22.3003 25.962 22.3003H31.3853C33.121 22.3003 34.5332 20.8881 34.5332 19.1523C34.5332 15.7599 31.7733 13 28.3809 13H25.6438C22.2529 13 19.4941 15.7587 19.4941 19.1497V21.2749C19.4941 21.8412 19.9532 22.3003 20.5195 22.3003Z" fill="#003478"/>
<path d="M29.3176 39.7285H24.6211C22.9249 39.7285 21.5449 38.3486 21.5449 36.6524V33.7778L18.3962 34.5397C15.219 35.3085 13 38.1286 13 41.3975V46.9746C13 47.5409 13.4591 48 14.0254 48H32.0421C29.3868 45.9773 28.6131 42.4603 29.3176 39.7285Z" fill="#003478"/>
<path d="M42.6947 32.5446C43.2352 32.5157 43.665 32.0696 43.665 31.522C43.665 30.9557 43.2059 30.4966 42.6396 30.4966H42.049C42.2748 29.8418 42.7498 29.5777 42.8505 29.5281C43.4468 29.295 43.8738 28.1967 43.3298 27.2543C42.9961 26.6764 42.3985 26.3313 41.7311 26.3313H37.3956C36.7283 26.3313 36.1307 26.6764 35.7971 27.2543C35.2531 28.1966 35.6796 29.2949 36.2763 29.5281C36.3767 29.5776 36.852 29.8418 37.0778 30.4966H36.4872C35.9209 30.4966 35.4618 30.9557 35.4618 31.522C35.4618 32.0694 35.8912 32.5154 36.4314 32.5446C34.7845 34.6815 31.127 38.2368 31.127 41.5493C31.127 45.2664 33.4075 48 39.5634 48C45.7211 48 47.9998 45.2648 47.9998 41.5493C47.9998 38.2476 44.3446 34.6948 42.6947 32.5446Z" fill="#003478"/>
</g>
<defs>
<clipPath id="clip0_233_98">
<rect width="35" height="35" fill="white" transform="translate(13 13)"/>
</clipPath>
</defs>
</svg>
