<svg width="34" height="34" viewBox="0 0 34 34" fill="none" xmlns="http://www.w3.org/2000/svg">
<path d="M6.46461 13.5907C5.99777 14.2149 6.12328 15.1035 6.74551 15.5723C6.99918 15.7635 7.29801 15.8558 7.59418 15.8558C8.02449 15.8558 8.45016 15.6613 8.7284 15.2914C9.19656 14.6665 9.07039 13.778 8.4475 13.3111C7.82401 12.8417 6.93483 12.9666 6.46461 13.5907ZM7.88975 14.0529C7.89042 14.0529 7.89042 14.0536 7.89108 14.0536C8.10491 14.2136 8.14741 14.5197 7.98671 14.7342C7.82468 14.9487 7.51854 14.9926 7.30339 14.8305C7.08956 14.6692 7.04639 14.3624 7.2071 14.1479C7.30206 14.021 7.44815 13.9546 7.59624 13.9546C7.6985 13.9547 7.80143 13.9865 7.88975 14.0529ZM30.0886 2.78848C28.1031 1.42383 25.7045 0.913831 23.3345 1.35278C20.9644 1.79172 18.9078 3.12715 17.5432 5.1127C16.4162 6.75094 15.8711 8.6641 15.9647 10.645C16.0504 12.4599 16.6945 14.2336 17.7842 15.6746L17.3426 16.5419C17.1912 16.51 17.0332 16.4934 16.8711 16.4934H10.4264C11.1496 15.5093 11.5507 14.3073 11.5507 13.0708C11.5507 9.88664 8.96016 7.29614 5.77664 7.29614C2.59246 7.29614 0.00195312 9.88664 0.00195312 13.0708C0.00195312 14.3305 0.401055 15.5279 1.15543 16.5326C1.76039 17.3394 2.57918 17.9796 3.5009 18.3773L2.56988 19.7725H1.03855C0.466797 19.7725 0.00195312 20.2387 0.00195312 20.8111C0.00195312 21.3822 0.466797 21.8471 1.03855 21.8471H1.18531L0.503984 22.8684L0.504648 22.8691C0.447539 22.9541 0.419648 23.055 0.426953 23.1586L0.905742 30.0768V31.1997C0.905742 32.0829 1.62426 32.8008 2.5068 32.8008H4.51691C5.40012 32.8008 6.11797 32.0829 6.11797 31.1997V30.525H16.6766V31.1997C16.6766 32.0829 17.3957 32.8008 18.2789 32.8008H20.2877C21.1716 32.8008 21.8908 32.0829 21.8908 31.1997V30.0768L22.3696 23.1586C22.3769 23.055 22.3483 22.9534 22.2919 22.8691L22.2925 22.8684L21.6092 21.8471H21.756C22.3284 21.8471 22.7939 21.3822 22.7939 20.8111C22.7939 20.2387 22.3284 19.7725 21.756 19.7725H20.2227L19.9398 19.3509L22.2959 18.8415C24.0769 19.396 26.0305 19.3788 27.8116 18.7904C29.6948 18.1688 31.2859 16.9742 32.4122 15.3366C35.2299 11.2366 34.1873 5.60809 30.0886 2.78848ZM0.930379 13.0708C0.930379 10.3986 3.10452 8.22443 5.77671 8.22443C8.44889 8.22443 10.623 10.3986 10.623 13.0708C10.623 14.3524 10.1084 15.5895 9.20725 16.4933H5.92546C5.17175 16.4933 4.52561 16.8406 4.10659 17.4702L4.02624 17.591C2.16089 16.8719 0.930379 15.0968 0.930379 13.0708ZM2.02608 25.4118V24.3612C2.02608 24.2198 2.0905 24.0863 2.20073 23.998C2.31163 23.9103 2.45573 23.8771 2.59386 23.909L5.45729 24.5677C5.66979 24.6169 5.81987 24.8075 5.81721 25.0259L5.79796 26.449C5.79596 26.5991 5.72159 26.7392 5.59807 26.8249C5.51972 26.8793 5.42741 26.9072 5.33378 26.9072C5.28065 26.9072 5.22753 26.8979 5.17573 26.8793L2.33155 25.8481C2.1482 25.7809 2.02608 25.607 2.02608 25.4118ZM7.84652 26.186H14.9493L14.2474 27.8634H8.54777L7.84652 26.186ZM20.7706 25.4118C20.7706 25.607 20.6484 25.781 20.4644 25.8481L17.6183 26.8793C17.5671 26.8979 17.5133 26.9072 17.4602 26.9072C17.3673 26.9072 17.2749 26.8787 17.1966 26.8242C17.0724 26.7392 16.998 26.5991 16.9967 26.4484L16.9794 25.0253C16.9768 24.8075 17.1269 24.6169 17.3394 24.5677L20.2028 23.909C20.3403 23.8771 20.485 23.9103 20.5953 23.998C20.7062 24.0863 20.7706 24.2198 20.7706 24.3612V25.4118ZM21.0382 22.6625H1.75714L2.43714 21.6431C2.4378 21.6425 2.4378 21.6418 2.43846 21.6411L3.19284 20.5109C3.20147 20.4996 3.20878 20.4883 3.21608 20.4764L4.58405 18.4264C4.59069 18.4171 4.59667 18.4078 4.60264 18.3985L4.87889 17.9848C5.12393 17.6163 5.48585 17.4217 5.92546 17.4217H16.8712C16.8792 17.4217 16.8865 17.4224 16.8944 17.423L15.8592 19.4577C15.7782 19.6178 15.7954 19.8097 15.905 19.9518C15.994 20.0667 16.1308 20.1324 16.2729 20.1324C16.3054 20.1324 16.338 20.1291 16.3705 20.1218L18.965 19.5613L21.0382 22.6625ZM31.6479 14.8106C29.6258 17.7497 25.8493 19.0287 22.4633 17.9211C22.3849 17.8952 22.3012 17.8912 22.2209 17.9085L17.1289 19.0088L18.7458 15.8319C18.8289 15.6679 18.8076 15.4707 18.6921 15.3286C16.4449 12.5627 16.2868 8.57771 18.3076 5.63791C19.5321 3.85689 21.3775 2.65892 23.5032 2.26513C24.0012 2.17283 24.4993 2.12767 24.9947 2.12767C26.6163 2.12767 28.1981 2.61576 29.5628 3.55341C33.2403 6.08283 34.1753 11.1324 31.6479 14.8106ZM5.08741 12.5515C5.5569 11.9286 5.43139 11.0388 4.80784 10.5693C4.18429 10.0998 3.29511 10.2253 2.82429 10.8502C2.35745 11.4731 2.48362 12.3616 3.10452 12.8298C3.35952 13.0217 3.65901 13.114 3.95585 13.114C4.3855 13.1139 4.80983 12.9201 5.08741 12.5515ZM3.56604 11.4073C3.66233 11.2798 3.80909 11.2127 3.95718 11.2127C4.05878 11.2127 4.16171 11.2446 4.24936 11.3103C4.46452 11.4724 4.50768 11.7785 4.34632 11.993C4.18495 12.2075 3.87815 12.25 3.663 12.0879C3.44917 11.9272 3.406 11.6212 3.56604 11.4073ZM24.9767 4.27133C21.6497 4.27133 18.943 6.97938 18.943 10.307C18.943 13.6353 21.6497 16.3433 24.9767 16.3433C28.305 16.3433 31.0123 13.6353 31.0123 10.307C31.0124 6.97931 28.305 4.27133 24.9767 4.27133ZM24.2197 9.84341H25.7351C26.7631 9.84341 27.3003 10.639 27.3003 11.4252C27.3003 11.831 27.1622 12.2121 26.9105 12.4997C26.6236 12.827 26.2066 13.0077 25.7351 13.0077H25.4409V13.8012C25.4409 14.0569 25.2331 14.2647 24.9767 14.2647C24.7204 14.2647 24.5126 14.0569 24.5126 13.8012V13.0077H23.1187C22.8624 13.0077 22.6552 12.7998 22.6552 12.5435C22.6552 12.2872 22.8624 12.0793 23.1187 12.0793H25.7351C25.941 12.0793 26.101 12.0149 26.2119 11.8887C26.3142 11.7719 26.3726 11.6032 26.3726 11.4252C26.3726 11.3581 26.3547 10.7711 25.7351 10.7711H24.2197C23.1924 10.7711 22.6545 9.97556 22.6545 9.18931C22.6545 8.78357 22.7933 8.4024 23.045 8.11486C23.3319 7.78748 23.7489 7.60685 24.2197 7.60685H24.5126V6.8133C24.5126 6.55697 24.7204 6.34978 24.9767 6.34978C25.2331 6.34978 25.4409 6.55697 25.4409 6.8133V7.60685H26.8368C27.0931 7.60685 27.3003 7.8147 27.3003 8.07103C27.3003 8.32736 27.0931 8.53521 26.8368 8.53521H24.2197C24.0145 8.53521 23.8545 8.59896 23.7436 8.7258C23.6413 8.84267 23.5829 9.01134 23.5829 9.18931C23.5829 9.25578 23.6007 9.84341 24.2197 9.84341ZM3.93526 15.9801C3.83831 15.9801 3.74003 15.9495 3.65636 15.8864C3.45182 15.7324 3.41065 15.4415 3.56471 15.237L7.24694 10.3462C7.401 10.1416 7.69186 10.1005 7.89639 10.2545C8.10159 10.4086 8.1421 10.6995 7.98804 10.9047L4.30647 15.7948C4.21483 15.9163 4.07604 15.9801 3.93526 15.9801Z" fill="white"/>
</svg>
