<svg width="62" height="62" viewBox="0 0 62 62" fill="none" xmlns="http://www.w3.org/2000/svg">
<circle cx="31" cy="31" r="31" fill="#DEE8F6"/>
<path d="M19.2269 27.1896C18.7051 27.8873 18.8454 28.8803 19.5408 29.4043C19.8243 29.618 20.1583 29.7212 20.4893 29.7212C20.9703 29.7212 21.446 29.5038 21.757 29.0904C22.2802 28.392 22.1392 27.3989 21.443 26.8771C20.7462 26.3525 19.7524 26.492 19.2269 27.1896ZM20.8197 27.7062C20.8204 27.7062 20.8204 27.7069 20.8212 27.7069C21.0602 27.8858 21.1077 28.2279 20.928 28.4677C20.7469 28.7074 20.4048 28.7564 20.1643 28.5753C19.9253 28.3949 19.8771 28.052 20.0567 27.8123C20.1628 27.6705 20.3261 27.5963 20.4916 27.5963C20.6059 27.5964 20.721 27.632 20.8197 27.7062ZM45.6302 15.1165C43.4111 13.5913 40.7303 13.0213 38.0814 13.5119C35.4325 14.0025 33.134 15.495 31.6088 17.7142C30.3493 19.5452 29.74 21.6834 29.8446 23.8973C29.9404 25.9257 30.6603 27.9081 31.8782 29.5187L31.3846 30.488C31.2154 30.4523 31.0388 30.4338 30.8577 30.4338H23.6548C24.463 29.3339 24.9113 27.9905 24.9113 26.6086C24.9113 23.0498 22.016 20.1545 18.458 20.1545C14.8992 20.1545 12.0039 23.0498 12.0039 26.6086C12.0039 28.0165 12.45 29.3546 13.2931 30.4776C13.9692 31.3793 14.8843 32.0948 15.9145 32.5394L14.8739 34.0987H13.1625C12.5234 34.0987 12.0039 34.6197 12.0039 35.2595C12.0039 35.8978 12.5234 36.4173 13.1625 36.4173H13.3265L12.565 37.5588L12.5657 37.5595C12.5019 37.6545 12.4707 37.7673 12.4789 37.8831L13.014 45.6152V46.8703C13.014 47.8574 13.8171 48.6597 14.8034 48.6597H17.05C18.0371 48.6597 18.8395 47.8574 18.8395 46.8703V46.1162H30.6402V46.8703C30.6402 47.8574 31.444 48.6597 32.4311 48.6597H34.6763C35.6641 48.6597 36.4679 47.8574 36.4679 46.8703V45.6152L37.003 37.8831C37.0112 37.7673 36.9793 37.6538 36.9162 37.5595L36.9169 37.5588L36.1532 36.4173H36.3172C36.957 36.4173 37.4773 35.8978 37.4773 35.2595C37.4773 34.6197 36.957 34.0987 36.3172 34.0987H34.6035L34.2873 33.6274L36.9206 33.0582C38.9112 33.6779 41.0947 33.6586 43.0852 33.001C45.1901 32.3063 46.9684 30.9711 48.2271 29.1409C51.3763 24.5586 50.2111 18.2678 45.6302 15.1165ZM13.0416 26.6085C13.0416 23.6219 15.4715 21.192 18.458 21.192C21.4446 21.192 23.8745 23.6219 23.8745 26.6085C23.8745 28.0409 23.2993 29.4236 22.2922 30.4337H18.6243C17.7819 30.4337 17.0598 30.8219 16.5914 31.5255L16.5016 31.6605C14.4168 30.8568 13.0416 28.8729 13.0416 26.6085ZM14.2662 40.4014V39.2272C14.2662 39.0691 14.3382 38.92 14.4614 38.8212C14.5853 38.7233 14.7464 38.6862 14.9007 38.7218L18.1011 39.458C18.3386 39.513 18.5063 39.726 18.5033 39.9702L18.4818 41.5607C18.4796 41.7284 18.3964 41.885 18.2584 41.9807C18.1708 42.0416 18.0677 42.0728 17.963 42.0728C17.9036 42.0728 17.8443 42.0624 17.7864 42.0416L14.6076 40.889C14.4027 40.8139 14.2662 40.6196 14.2662 40.4014ZM20.7714 41.2667H28.7098L27.9253 43.1414H21.5551L20.7714 41.2667ZM35.2159 40.4014C35.2159 40.6196 35.0793 40.814 34.8737 40.889L31.6927 42.0416C31.6356 42.0624 31.5755 42.0728 31.5161 42.0728C31.4122 42.0728 31.309 42.0409 31.2214 41.98C31.0827 41.885 30.9995 41.7284 30.998 41.5599L30.9787 39.9694C30.9758 39.726 31.1435 39.513 31.381 39.458L34.5813 38.7218C34.735 38.6862 34.8968 38.7233 35.02 38.8212C35.1439 38.92 35.2159 39.0691 35.2159 39.2272V40.4014ZM35.515 37.3286H13.9656L14.7256 36.1894C14.7263 36.1886 14.7263 36.1879 14.7271 36.1872L15.5702 34.9239C15.5798 34.9113 15.588 34.8987 15.5962 34.8854L17.1251 32.5942C17.1325 32.5838 17.1392 32.5734 17.1459 32.563L17.4546 32.1007C17.7285 31.6887 18.133 31.4713 18.6243 31.4713H30.8578C30.8667 31.4713 30.8748 31.472 30.8837 31.4728L29.7267 33.7468C29.6361 33.9257 29.6554 34.1402 29.7779 34.299C29.8773 34.4274 30.0302 34.5009 30.1891 34.5009C30.2254 34.5009 30.2618 34.4972 30.2982 34.489L33.1979 33.8626L35.515 37.3286ZM47.3729 28.553C45.113 31.8379 40.8921 33.2674 37.1077 32.0294C37.0202 32.0005 36.9266 31.996 36.8368 32.0153L31.1457 33.2451L32.953 29.6945C33.0457 29.5112 33.022 29.2907 32.8928 29.1319C30.3813 26.0407 30.2046 21.5868 32.4631 18.3012C33.8317 16.3106 35.8943 14.9717 38.27 14.5316C38.8266 14.4284 39.3833 14.378 39.9369 14.378C41.7494 14.378 43.5173 14.9235 45.0425 15.9714C49.1527 18.7984 50.1976 24.4421 47.3729 28.553ZM17.6877 26.0282C18.2124 25.332 18.0721 24.3375 17.3752 23.8127C16.6783 23.288 15.6845 23.4283 15.1583 24.1267C14.6365 24.8228 14.7775 25.8159 15.4715 26.3391C15.7565 26.5536 16.0912 26.6568 16.423 26.6568C16.9032 26.6567 17.3774 26.4401 17.6877 26.0282ZM15.9873 24.7493C16.0949 24.6068 16.2589 24.5318 16.4244 24.5318C16.538 24.5318 16.653 24.5675 16.751 24.6409C16.9915 24.822 17.0397 25.1642 16.8594 25.4039C16.679 25.6436 16.3361 25.6911 16.0957 25.51C15.8567 25.3304 15.8084 24.9884 15.9873 24.7493ZM39.9168 16.7738C36.1985 16.7738 33.1733 19.8005 33.1733 23.5196C33.1733 27.2394 36.1985 30.2661 39.9168 30.2661C43.6367 30.2661 46.6626 27.2394 46.6626 23.5196C46.6627 19.8004 43.6368 16.7738 39.9168 16.7738ZM39.0708 23.0014H40.7645C41.9134 23.0014 42.5138 23.8906 42.5138 24.7693C42.5138 25.2228 42.3594 25.6488 42.0782 25.9702C41.7575 26.3361 41.2914 26.538 40.7645 26.538H40.4357V27.4249C40.4357 27.7106 40.2034 27.9429 39.9169 27.9429C39.6304 27.9429 39.3981 27.7106 39.3981 27.4249V26.538H37.8403C37.5538 26.538 37.3222 26.3057 37.3222 26.0192C37.3222 25.7327 37.5538 25.5004 37.8403 25.5004H40.7645C40.9946 25.5004 41.1734 25.4284 41.2974 25.2874C41.4117 25.1568 41.477 24.9682 41.477 24.7693C41.477 24.6944 41.4569 24.0383 40.7645 24.0383H39.0708C37.9227 24.0383 37.3215 23.1491 37.3215 22.2704C37.3215 21.8169 37.4766 21.3909 37.7579 21.0695C38.0785 20.7036 38.5446 20.5018 39.0708 20.5018H39.3981V19.6148C39.3981 19.3284 39.6304 19.0968 39.9169 19.0968C40.2034 19.0968 40.4357 19.3284 40.4357 19.6148V20.5018H41.9958C42.2823 20.5018 42.5138 20.7341 42.5138 21.0205C42.5138 21.307 42.2823 21.5393 41.9958 21.5393H39.0708C38.8415 21.5393 38.6626 21.6106 38.5387 21.7523C38.4244 21.883 38.3591 22.0715 38.3591 22.2704C38.3591 22.3447 38.379 23.0014 39.0708 23.0014ZM16.4 29.8601C16.2916 29.8601 16.1818 29.8259 16.0882 29.7554C15.8596 29.5832 15.8136 29.2582 15.9858 29.0296L20.1012 23.5634C20.2734 23.3348 20.5985 23.2887 20.8271 23.4609C21.0564 23.6331 21.1017 23.9582 20.9295 24.1875L16.8148 29.653C16.7124 29.7887 16.5573 29.8601 16.4 29.8601Z" fill="#003478"/>
</svg>
