<svg width="72" height="72" viewBox="0 0 72 72" fill="none" xmlns="http://www.w3.org/2000/svg">
<circle cx="36" cy="36" r="35.5" fill="white" stroke="#DFDFDF"/>
<path d="M35.896 19.2178L31.765 28.8349H27.6327C26.9594 28.8282 26.2873 28.8911 25.627 29.0226L27.3421 24.9083L27.4102 24.7541L27.5131 24.4802C27.5645 24.3606 27.5992 24.2578 27.6507 24.1716C29.6384 19.5598 31.8678 18.1198 35.896 19.2178ZM47.5355 29.2978L47.5021 29.2798C46.482 28.987 45.4262 28.8373 44.365 28.8349H33.6331L37.4902 19.8683L37.5417 19.7488C37.7821 19.8349 38.0392 19.9545 38.2964 20.0406L42.0841 21.6349C44.1927 22.5092 45.6674 23.4169 46.5764 24.5149C46.7307 24.7206 46.867 24.9083 47.0045 25.1321C47.1588 25.3712 47.2784 25.6116 47.3478 25.8688C47.416 26.0231 47.4674 26.1606 47.5021 26.3149C47.7592 27.1892 47.776 28.1831 47.5355 29.2978ZM36.8898 45.7035H37.3192C37.8335 45.7035 38.2617 45.2406 38.2617 44.6749C38.2617 43.9549 38.056 43.8521 37.6098 43.6798L36.8898 43.4226V45.7035Z" fill="#1065E3"/>
<path d="M46.7819 31.7483C45.9963 31.5208 45.1825 31.4056 44.3647 31.4063H27.6324C26.4676 31.4063 25.3696 31.6287 24.341 32.0748C22.8363 32.7223 21.5541 33.7961 20.6525 35.1637C19.751 36.5314 19.2695 38.133 19.2676 39.7711V43.114C19.2676 43.5254 19.301 43.9201 19.3524 44.3315C19.7304 49.783 22.6439 52.6977 28.0953 53.0577C28.49 53.1091 28.8847 53.1425 29.3129 53.1425H42.6843C49.0267 53.1425 52.3696 50.1263 52.6961 44.1258C52.7129 43.8005 52.7296 43.4573 52.7296 43.114V39.7711C52.7296 35.9834 50.2096 32.7948 46.7819 31.7483ZM38.1933 42.0005C38.9814 42.2744 40.0447 42.8568 40.0447 44.6748C40.0447 46.2344 38.8272 47.4854 37.319 47.4854H36.8896V47.8634C36.8904 47.9806 36.868 48.0969 36.8235 48.2054C36.779 48.3139 36.7134 48.4124 36.6305 48.4953C36.5476 48.5782 36.449 48.6438 36.3406 48.6883C36.2321 48.7328 36.1158 48.7553 35.9986 48.7544C35.8813 48.7553 35.7651 48.7328 35.6566 48.6883C35.5481 48.6438 35.4495 48.5782 35.3666 48.4953C35.2837 48.4124 35.2181 48.3139 35.1737 48.2054C35.1292 48.0969 35.1067 47.9806 35.1076 47.8634V47.4854H34.9533C33.3076 47.4854 31.9524 46.0968 31.9524 44.383C31.9524 43.8854 32.3471 43.492 32.8447 43.492C33.341 43.492 33.7357 43.8854 33.7357 44.383C33.7357 45.103 34.2847 45.7034 34.9533 45.7034H35.1076V42.8054L33.8039 42.3425C33.0157 42.0687 31.9524 41.4863 31.9524 39.6683C31.9524 38.1087 33.17 36.8577 34.6781 36.8577H35.1076V36.4797C35.1076 35.9834 35.501 35.5887 35.9986 35.5887C36.4961 35.5887 36.8896 35.9834 36.8896 36.4797V36.8577H37.0439C38.6896 36.8577 40.0447 38.2463 40.0447 39.9601C40.0454 40.0774 40.0228 40.1937 39.9782 40.3022C39.9336 40.4107 39.8678 40.5092 39.7848 40.5921C39.7018 40.675 39.6032 40.7406 39.4946 40.7851C39.386 40.8295 39.2697 40.852 39.1524 40.8511C39.0352 40.8518 38.9191 40.8292 38.8107 40.7847C38.7022 40.7401 38.6038 40.6745 38.5209 40.5917C38.438 40.5088 38.3724 40.4103 38.3279 40.3019C38.2833 40.1935 38.2608 40.0773 38.2614 39.9601C38.2614 39.2401 37.7124 38.6397 37.0439 38.6397H36.8896V41.5377L38.1933 42.0005Z" fill="#1065E3"/>
<path d="M33.7363 39.6682C33.7363 40.3882 33.942 40.4911 34.3882 40.6634L35.1082 40.9205V38.6396H34.6788C34.1478 38.6396 33.7363 39.1025 33.7363 39.6682Z" fill="#1065E3"/>
</svg>
